M48
;Layer_Color=6321
;FILE_FORMAT=2:5
INCH,LZ
;TYPE=PLATED
T1F00S00C0.03937
T2F00S00C0.06299
T3F00S00C0.11024
T4F00S00C0.11811
%
T01
X1311Y0139984
X1331
Y0159984
Y0169984
Y0189984
Y0199984
X1321
Y0209984
Y0219984
Y0229984
Y0239984
Y0249984
Y0259984
Y0269984
X1311
Y0259984
Y0249984
Y0239984
Y0229984
Y0219984
Y0209984
Y0199984
Y0189984
Y0169984
Y0159984
X1331Y0209984
Y0219984
Y0229984
Y0239984
Y0249984
Y0259984
Y0269984
Y0279984
X1321
X1311
Y0289984
X1321
X1331
Y0299984
Y0309984
X1321
X1311
Y0299984
X1321
X0185Y03
X0175
X0165
Y031
X0175
X0185
Y029
Y028
Y027
Y026
Y025
X0175
X0165
Y026
X0175
Y027
X0165
Y028
X0175
Y029
X0165
Y024
X0175
X0185
Y023
X0175
X0165
Y022
X0175
X0185
Y021
X0175
X0165
Y02
X0175
X0185
Y032
X0175
X0165
Y033
X0175
X0185
Y034
X0175
X0165
Y035
Y036
Y037
Y038
Y039
X0175
X0185
Y038
X0175
Y037
X0185
Y036
X0175
Y035
X0185
X1311Y0349984
Y0359984
Y0369984
Y0379984
Y0389984
Y0399984
X1331
Y0389984
X1321
Y0379984
X1331
Y0369984
X1321
Y0359984
X1331
Y0349984
X1321
Y0339984
X1311
Y0329984
X1321
X1331
Y0339984
Y0319984
X1321
X1311
Y0419984
Y0429984
X1331
Y0419984
Y0449984
X1311
T02
X01205Y01245
Y01445
X01405
Y01245
Y01685
X01205
Y01885
X01405
Y04005
X01205
Y04205
X01405
Y04445
X01205
Y04645
X01405
T03
X0175Y012
X1341Y0119984
Y0469984
X0175Y047
T04
X0175Y015
Y018
Y041
Y044
M30
