  0
SECTION
  2
HEADER
  9
$ACADVER
  1
AC1014
  9
$HANDSEED
  5
FFFF
  9
$MEASUREMENT
 70
     1
  0
ENDSEC
  0
SECTION
  2
TABLES
  0
TABLE
  2
VPORT
  5
8
330
0
100
AcDbSymbolTable
 70
     4
  0
VPORT
  5
2E
330
8
100
AcDbSymbolTableRecord
100
AcDbViewportTableRecord
  2
*ACTIVE
 70
     0
 10
0.0
 20
0.0
 11
1.0
 21
1.0
 12
210.0
 22
148.5
 13
0.0
 23
0.0
 14
10.0
 24
10.0
 15
10.0
 25
10.0
 16
0.0
 26
0.0
 36
1.0
 17
0.0
 27
0.0
 37
0.0
 40
341.0
 41
1.24
 42
50.0
 43
0.0
 44
0.0
 50
0.0
 51
0.0
 71
     0
 72
   100
 73
     1
 74
     3
 75
     0
 76
     0
 77
     0
 78
     0
  0
ENDTAB
  0
TABLE
  2
LTYPE
  5
5
330
0
100
AcDbSymbolTable
 70
     1
  0
LTYPE
  5
14
330
5
100
AcDbSymbolTableRecord
100
AcDbLinetypeTableRecord
  2
BYBLOCK
 70
     0
  3

 72
    65
 73
     0
 40
0.0
  0
LTYPE
  5
15
330
5
100
AcDbSymbolTableRecord
100
AcDbLinetypeTableRecord
  2
BYLAYER
 70
     0
  3

 72
    65
 73
     0
 40
0.0
  0
LTYPE
  5
16
330
5
100
AcDbSymbolTableRecord
100
AcDbLinetypeTableRecord
  2
CONTINUOUS
 70
     0
  3
Solid line
 72
    65
 73
     0
 40
0.0
  0
ENDTAB
  0
TABLE
  2
LAYER
  5
2
100
AcDbSymbolTable
 70
2
  0
LAYER
  5
50
100
AcDbSymbolTableRecord
100
AcDbLayerTableRecord
  2
0
 70
0
  6
CONTINUOUS
  0
LAYER
  5
51
100
AcDbSymbolTableRecord
100
AcDbLayerTableRecord
  2
Layer_1
 70
0
  6
CONTINUOUS
  0
ENDTAB
  0
TABLE
  2
STYLE
  5
3
330
0
100
AcDbSymbolTable
 70
     1
  0
STYLE
  5
11
330
3
100
AcDbSymbolTableRecord
100
AcDbTextStyleTableRecord
  2
STANDARD
 70
     0
 40
0.0
 41
1.0
 50
0.0
 71
     0
 42
2.5
  3
txt
  4

  0
ENDTAB
  0
TABLE
  2
VIEW
  5
6
330
0
100
AcDbSymbolTable
 70
     0
  0
ENDTAB
  0
TABLE
  2
UCS
  5
7
330
0
100
AcDbSymbolTable
 70
     0
  0
ENDTAB
  0
TABLE
  2
APPID
  5
9
330
0
100
AcDbSymbolTable
 70
     2
  0
APPID
  5
12
330
9
100
AcDbSymbolTableRecord
100
AcDbRegAppTableRecord
  2
ACAD
 70
     0
  0
ENDTAB
  0
TABLE
  2
DIMSTYLE
  5
A
330
0
100
AcDbSymbolTable
 70
     1
  0
DIMSTYLE
105
27
330
A
100
AcDbSymbolTableRecord
100
AcDbDimStyleTableRecord
  2
ISO-25
 70
     0
  3

  4

  5

  6

  7

 40
1.0
 41
2.5
 42
0.625
 43
3.75
 44
1.25
 45
0.0
 46
0.0
 47
0.0
 48
0.0
140
2.5
141
2.5
142
0.0
143
0.03937007874016
144
1.0
145
0.0
146
1.0
147
0.625
 71
     0
 72
     0
 73
     0
 74
     0
 75
     0
 76
     0
 77
     1
 78
     8
170
     0
171
     3
172
     1
173
     0
174
     0
175
     0
176
     0
177
     0
178
     0
270
     2
271
     2
272
     2
273
     2
274
     3
340
11
275
     0
280
     0
281
     0
282
     0
283
     0
284
     8
285
     0
286
     0
287
     3
288
     0
  0
ENDTAB
  0
TABLE
  2
BLOCK_RECORD
  5
1
330
0
100
AcDbSymbolTable
 70
     1
  0
BLOCK_RECORD
  5
1F
330
1
100
AcDbSymbolTableRecord
100
AcDbBlockTableRecord
  2
*MODEL_SPACE
  0
BLOCK_RECORD
  5
1B
330
1
100
AcDbSymbolTableRecord
100
AcDbBlockTableRecord
  2
*PAPER_SPACE
  0
ENDTAB
  0
ENDSEC
  0
SECTION
  2
BLOCKS
  0
BLOCK
  5
20
330
1F
100
AcDbEntity
  8
0
100
AcDbBlockBegin
  2
*MODEL_SPACE
 70
     0
 10
0.0
 20
0.0
 30
0.0
  3
*MODEL_SPACE
  1

  0
ENDBLK
  5
21
330
1F
100
AcDbEntity
  8
0
100
AcDbBlockEnd
  0
BLOCK
  5
1C
330
1B
100
AcDbEntity
 67
     1
  8
0
100
AcDbBlockBegin
  2
*PAPER_SPACE
  1

  0
ENDBLK
  5
1D
330
1B
100
AcDbEntity
 67
     1
  8
0
100
AcDbBlockEnd
  0
ENDSEC
  0
SECTION
  2
ENTITIES
  0
SPLINE
  5
100
100
AcDbEntity
  8
Layer_1
 62
7
100
AcDbSpline
 70
8
 71
3
 72
8
 73
4
 74
0
 40
0
 40
0
 40
0
 40
0
 40
1
 40
1
 40
1
 40
1
 10
29.818250
 20
11.054356
 30
0.0
 10
29.352202
 20
11.569326
 30
0.0
 10
29.218778
 20
12.170836
 30
0.0
 10
29.570594
 20
12.170836
 30
0.0
  0
SPLINE
  5
101
100
AcDbEntity
  8
Layer_1
 62
7
100
AcDbSpline
 70
8
 71
3
 72
8
 73
4
 74
0
 40
0
 40
0
 40
0
 40
0
 40
1
 40
1
 40
1
 40
1
 10
29.570594
 20
12.170836
 30
0.0
 10
29.681608
 20
12.170836
 30
0.0
 10
29.889968
 20
11.902946
 30
0.0
 10
30.033615
 20
11.575526
 30
0.0
  0
SPLINE
  5
102
100
AcDbEntity
  8
Layer_1
 62
7
100
AcDbSpline
 70
8
 71
3
 72
8
 73
4
 74
0
 40
0
 40
0
 40
0
 40
0
 40
1
 40
1
 40
1
 40
1
 10
30.033615
 20
11.575526
 30
0.0
 10
30.572484
 20
10.347256
 30
0.0
 10
32.514759
 20
10.931566
 30
0.0
 10
32.190295
 20
12.224336
 30
0.0
  0
SPLINE
  5
103
100
AcDbEntity
  8
Layer_1
 62
7
100
AcDbSpline
 70
8
 71
3
 72
8
 73
4
 74
0
 40
0
 40
0
 40
0
 40
0
 40
1
 40
1
 40
1
 40
1
 10
32.190295
 20
12.224336
 30
0.0
 10
32.070322
 20
12.702346
 30
0.0
 10
31.695222
 20
13.014656
 30
0.0
 10
30.856287
 20
13.335046
 30
0.0
  0
SPLINE
  5
104
100
AcDbEntity
  8
Layer_1
 62
7
100
AcDbSpline
 70
8
 71
3
 72
8
 73
4
 74
0
 40
0
 40
0
 40
0
 40
0
 40
1
 40
1
 40
1
 40
1
 10
30.856287
 20
13.335046
 30
0.0
 10
29.200024
 20
13.967586
 30
0.0
 10
28.991234
 20
15.371136
 30
0.0
 10
30.438203
 20
16.145536
 30
0.0
  0
SPLINE
  5
105
100
AcDbEntity
  8
Layer_1
 62
7
100
AcDbSpline
 70
8
 71
3
 72
8
 73
4
 74
0
 40
0
 40
0
 40
0
 40
0
 40
1
 40
1
 40
1
 40
1
 10
30.438203
 20
16.145536
 30
0.0
 10
31.095632
 20
16.497376
 30
0.0
 10
32.361830
 20
15.962786
 30
0.0
 10
32.493772
 20
15.277676
 30
0.0
  0
SPLINE
  5
106
100
AcDbEntity
  8
Layer_1
 62
7
100
AcDbSpline
 70
8
 71
3
 72
8
 73
4
 74
0
 40
0
 40
0
 40
0
 40
0
 40
1
 40
1
 40
1
 40
1
 10
32.493772
 20
15.277676
 30
0.0
 10
32.617597
 20
14.634696
 30
0.0
 10
32.107533
 20
14.697246
 30
0.0
 10
31.937922
 20
15.345876
 30
0.0
  0
SPLINE
  5
107
100
AcDbEntity
  8
Layer_1
 62
7
100
AcDbSpline
 70
8
 71
3
 72
8
 73
4
 74
0
 40
0
 40
0
 40
0
 40
0
 40
1
 40
1
 40
1
 40
1
 10
31.937922
 20
15.345876
 30
0.0
 10
31.754315
 20
16.047986
 30
0.0
 10
30.545288
 20
16.061116
 30
0.0
 10
30.172760
 20
15.364976
 30
0.0
  0
SPLINE
  5
108
100
AcDbEntity
  8
Layer_1
 62
7
100
AcDbSpline
 70
8
 71
3
 72
8
 73
4
 74
0
 40
0
 40
0
 40
0
 40
0
 40
1
 40
1
 40
1
 40
1
 10
30.172760
 20
15.364976
 30
0.0
 10
29.772038
 20
14.616226
 30
0.0
 10
30.056192
 20
14.162836
 30
0.0
 10
31.279398
 20
13.599276
 30
0.0
  0
SPLINE
  5
109
100
AcDbEntity
  8
Layer_1
 62
7
100
AcDbSpline
 70
8
 71
3
 72
8
 73
4
 74
0
 40
0
 40
0
 40
0
 40
0
 40
1
 40
1
 40
1
 40
1
 10
31.279398
 20
13.599276
 30
0.0
 10
32.738234
 20
12.927166
 30
0.0
 10
33.058380
 20
12.377036
 30
0.0
 10
32.535439
 20
11.440926
 30
0.0
  0
SPLINE
  5
10a
100
AcDbEntity
  8
Layer_1
 62
7
100
AcDbSpline
 70
8
 71
3
 72
8
 73
4
 74
0
 40
0
 40
0
 40
0
 40
0
 40
1
 40
1
 40
1
 40
1
 10
32.535439
 20
11.440926
 30
0.0
 10
32.015985
 20
10.511056
 30
0.0
 10
30.504521
 20
10.296016
 30
0.0
 10
29.818250
 20
11.054336
 30
0.0
  0
LWPOLYLINE
  5
10b
100
AcDbEntity
  8
Layer_1
 62
7
100
AcDbPolyline
 90
1
 70
1
 10
29.818250
 20
11.054336
 30
0.0
  0
SPLINE
  5
10c
100
AcDbEntity
  8
Layer_1
 62
7
100
AcDbSpline
 70
8
 71
3
 72
8
 73
4
 74
0
 40
0
 40
0
 40
0
 40
0
 40
1
 40
1
 40
1
 40
1
 10
34.065106
 20
15.948186
 30
0.0
 10
33.592163
 20
16.006886
 30
0.0
 10
34.038646
 20
16.056116
 30
0.0
 10
35.057294
 20
16.057596
 30
0.0
  0
SPLINE
  5
10d
100
AcDbEntity
  8
Layer_1
 62
7
100
AcDbSpline
 70
8
 71
3
 72
8
 73
4
 74
0
 40
0
 40
0
 40
0
 40
0
 40
1
 40
1
 40
1
 40
1
 10
35.057294
 20
16.057596
 30
0.0
 10
36.075940
 20
16.059596
 30
0.0
 10
36.581955
 20
16.010696
 30
0.0
 10
36.181773
 20
15.950076
 30
0.0
  0
LWPOLYLINE
  5
10e
100
AcDbEntity
  8
Layer_1
 62
7
100
AcDbPolyline
 90
3
 70
0
 10
34.925002
 20
13.212406
 30
0.0
 10
34.925002
 20
15.841476
 30
0.0
 10
34.065106
 20
15.948186
 30
0.0
  0
SPLINE
  5
10f
100
AcDbEntity
  8
Layer_1
 62
7
100
AcDbSpline
 70
8
 71
3
 72
8
 73
4
 74
0
 40
0
 40
0
 40
0
 40
0
 40
1
 40
1
 40
1
 40
1
 10
35.454169
 20
13.211596
 30
0.0
 10
35.454169
 20
11.635806
 30
0.0
 10
35.348216
 20
10.583336
 30
0.0
 10
35.189585
 20
10.583336
 30
0.0
  0
SPLINE
  5
110
100
AcDbEntity
  8
Layer_1
 62
7
100
AcDbSpline
 70
8
 71
3
 72
8
 73
4
 74
0
 40
0
 40
0
 40
0
 40
0
 40
1
 40
1
 40
1
 40
1
 10
35.189585
 20
10.583336
 30
0.0
 10
35.030949
 20
10.583336
 30
0.0
 10
34.925002
 20
11.636076
 30
0.0
 10
34.925002
 20
13.212406
 30
0.0
  0
LWPOLYLINE
  5
111
100
AcDbEntity
  8
Layer_1
 62
7
100
AcDbPolyline
 90
3
 70
0
 10
36.181773
 20
15.950076
 30
0.0
 10
35.454169
 20
15.839856
 30
0.0
 10
35.454169
 20
13.211596
 30
0.0
  0
SPLINE
  5
112
100
AcDbEntity
  8
Layer_1
 62
7
100
AcDbSpline
 70
8
 71
3
 72
8
 73
4
 74
0
 40
0
 40
0
 40
0
 40
0
 40
1
 40
1
 40
1
 40
1
 10
36.777085
 20
10.676146
 30
0.0
 10
36.777085
 20
10.727146
 30
0.0
 10
36.889719
 20
11.114136
 30
0.0
 10
37.027379
 20
11.536036
 30
0.0
  0
SPLINE
  5
113
100
AcDbEntity
  8
Layer_1
 62
7
100
AcDbSpline
 70
8
 71
3
 72
8
 73
4
 74
0
 40
0
 40
0
 40
0
 40
0
 40
1
 40
1
 40
1
 40
1
 10
37.027379
 20
11.536036
 30
0.0
 10
37.165041
 20
11.957936
 30
0.0
 10
37.527269
 20
13.166326
 30
0.0
 10
37.832334
 20
14.221356
 30
0.0
  0
SPLINE
  5
114
100
AcDbEntity
  8
Layer_1
 62
7
100
AcDbSpline
 70
8
 71
3
 72
8
 73
4
 74
0
 40
0
 40
0
 40
0
 40
0
 40
1
 40
1
 40
1
 40
1
 10
37.832334
 20
14.221356
 30
0.0
 10
38.161393
 20
15.359376
 30
0.0
 10
38.529696
 20
16.139586
 30
0.0
 10
38.737846
 20
16.139586
 30
0.0
  0
SPLINE
  5
115
100
AcDbEntity
  8
Layer_1
 62
7
100
AcDbSpline
 70
8
 71
3
 72
8
 73
4
 74
0
 40
0
 40
0
 40
0
 40
0
 40
1
 40
1
 40
1
 40
1
 10
38.737846
 20
16.139586
 30
0.0
 10
39.037892
 20
16.139586
 30
0.0
 10
40.481252
 20
11.761676
 30
0.0
 10
40.481252
 20
10.851596
 30
0.0
  0
SPLINE
  5
116
100
AcDbEntity
  8
Layer_1
 62
7
100
AcDbSpline
 70
8
 71
3
 72
8
 73
4
 74
0
 40
0
 40
0
 40
0
 40
0
 40
1
 40
1
 40
1
 40
1
 10
40.481252
 20
10.851596
 30
0.0
 10
40.481252
 20
10.241376
 30
0.0
 10
40.006352
 20
10.642736
 30
0.0
 10
39.859481
 20
11.377086
 30
0.0
  0
SPLINE
  5
117
100
AcDbEntity
  8
Layer_1
 62
7
100
AcDbSpline
 70
8
 71
3
 72
8
 73
4
 74
0
 40
0
 40
0
 40
0
 40
0
 40
1
 40
1
 40
1
 40
1
 10
39.859481
 20
11.377086
 30
0.0
 10
39.715657
 20
12.096206
 30
0.0
 10
39.603717
 20
12.170836
 30
0.0
 10
38.668856
 20
12.170836
 30
0.0
  0
SPLINE
  5
118
100
AcDbEntity
  8
Layer_1
 62
7
100
AcDbSpline
 70
8
 71
3
 72
8
 73
4
 74
0
 40
0
 40
0
 40
0
 40
0
 40
1
 40
1
 40
1
 40
1
 10
38.668856
 20
12.170836
 30
0.0
 10
37.733996
 20
12.170836
 30
0.0
 10
37.622056
 20
12.096236
 30
0.0
 10
37.478231
 20
11.377086
 30
0.0
  0
SPLINE
  5
119
100
AcDbEntity
  8
Layer_1
 62
7
100
AcDbSpline
 70
8
 71
3
 72
8
 73
4
 74
0
 40
0
 40
0
 40
0
 40
0
 40
1
 40
1
 40
1
 40
1
 10
37.478231
 20
11.377086
 30
0.0
 10
37.390921
 20
10.940526
 30
0.0
 10
37.197442
 20
10.583336
 30
0.0
 10
37.048283
 20
10.583336
 30
0.0
  0
SPLINE
  5
11a
100
AcDbEntity
  8
Layer_1
 62
7
100
AcDbSpline
 70
8
 71
3
 72
8
 73
4
 74
0
 40
0
 40
0
 40
0
 40
0
 40
1
 40
1
 40
1
 40
1
 10
37.048283
 20
10.583336
 30
0.0
 10
36.899124
 20
10.583336
 30
0.0
 10
36.777085
 20
10.625136
 30
0.0
 10
36.777085
 20
10.676136
 30
0.0
  0
LWPOLYLINE
  5
11b
100
AcDbEntity
  8
Layer_1
 62
7
100
AcDbPolyline
 90
1
 70
1
 10
34.925002
 20
13.212406
 30
0.0
  0
SPLINE
  5
11c
100
AcDbEntity
  8
Layer_1
 62
7
100
AcDbSpline
 70
8
 71
3
 72
8
 73
4
 74
0
 40
0
 40
0
 40
0
 40
0
 40
1
 40
1
 40
1
 40
1
 10
39.422919
 20
12.979716
 30
0.0
 10
39.422919
 20
13.670346
 30
0.0
 10
38.812120
 20
15.591196
 30
0.0
 10
38.628581
 20
15.477766
 30
0.0
  0
SPLINE
  5
11d
100
AcDbEntity
  8
Layer_1
 62
7
100
AcDbSpline
 70
8
 71
3
 72
8
 73
4
 74
0
 40
0
 40
0
 40
0
 40
0
 40
1
 40
1
 40
1
 40
1
 10
38.628581
 20
15.477766
 30
0.0
 10
38.516377
 20
15.408466
 30
0.0
 10
38.344564
 20
14.925186
 30
0.0
 10
38.246774
 20
14.403926
 30
0.0
  0
SPLINE
  5
11e
100
AcDbEntity
  8
Layer_1
 62
7
100
AcDbSpline
 70
8
 71
3
 72
8
 73
4
 74
0
 40
0
 40
0
 40
0
 40
0
 40
1
 40
1
 40
1
 40
1
 10
38.246774
 20
14.403926
 30
0.0
 10
38.148984
 20
13.882666
 30
0.0
 10
38.003686
 20
13.286036
 30
0.0
 10
37.923890
 20
13.078086
 30
0.0
  0
SPLINE
  5
11f
100
AcDbEntity
  8
Layer_1
 62
7
100
AcDbSpline
 70
8
 71
3
 72
8
 73
4
 74
0
 40
0
 40
0
 40
0
 40
0
 40
1
 40
1
 40
1
 40
1
 10
37.923890
 20
13.078086
 30
0.0
 10
37.817313
 20
12.800356
 30
0.0
 10
37.997000
 20
12.699996
 30
0.0
 10
38.600861
 20
12.699996
 30
0.0
  0
SPLINE
  5
120
100
AcDbEntity
  8
Layer_1
 62
7
100
AcDbSpline
 70
8
 71
3
 72
8
 73
4
 74
0
 40
0
 40
0
 40
0
 40
0
 40
1
 40
1
 40
1
 40
1
 10
38.600861
 20
12.699996
 30
0.0
 10
39.052994
 20
12.699996
 30
0.0
 10
39.422919
 20
12.825866
 30
0.0
 10
39.422919
 20
12.979716
 30
0.0
  0
LWPOLYLINE
  5
121
100
AcDbEntity
  8
Layer_1
 62
7
100
AcDbPolyline
 90
1
 70
1
 10
36.777085
 20
10.676136
 30
0.0
  0
LWPOLYLINE
  5
122
100
AcDbEntity
  8
Layer_1
 62
7
100
AcDbPolyline
 90
1
 70
1
 10
39.422919
 20
12.979716
 30
0.0
  0
SPLINE
  5
123
100
AcDbEntity
  8
Layer_1
 62
7
100
AcDbSpline
 70
8
 71
3
 72
8
 73
4
 74
0
 40
0
 40
0
 40
0
 40
0
 40
1
 40
1
 40
1
 40
1
 10
41.208857
 20
15.948186
 30
0.0
 10
40.735914
 20
16.006886
 30
0.0
 10
41.182397
 20
16.056116
 30
0.0
 10
42.201044
 20
16.057596
 30
0.0
  0
SPLINE
  5
124
100
AcDbEntity
  8
Layer_1
 62
7
100
AcDbSpline
 70
8
 71
3
 72
8
 73
4
 74
0
 40
0
 40
0
 40
0
 40
0
 40
1
 40
1
 40
1
 40
1
 10
42.201044
 20
16.057596
 30
0.0
 10
43.219690
 20
16.059596
 30
0.0
 10
43.725706
 20
16.010696
 30
0.0
 10
43.325523
 20
15.950076
 30
0.0
  0
LWPOLYLINE
  5
125
100
AcDbEntity
  8
Layer_1
 62
7
100
AcDbPolyline
 90
3
 70
0
 10
42.068752
 20
13.212406
 30
0.0
 10
42.068752
 20
15.841476
 30
0.0
 10
41.208857
 20
15.948186
 30
0.0
  0
SPLINE
  5
126
100
AcDbEntity
  8
Layer_1
 62
7
100
AcDbSpline
 70
8
 71
3
 72
8
 73
4
 74
0
 40
0
 40
0
 40
0
 40
0
 40
1
 40
1
 40
1
 40
1
 10
42.597919
 20
13.211596
 30
0.0
 10
42.597919
 20
11.635806
 30
0.0
 10
42.491967
 20
10.583336
 30
0.0
 10
42.333336
 20
10.583336
 30
0.0
  0
SPLINE
  5
127
100
AcDbEntity
  8
Layer_1
 62
7
100
AcDbSpline
 70
8
 71
3
 72
8
 73
4
 74
0
 40
0
 40
0
 40
0
 40
0
 40
1
 40
1
 40
1
 40
1
 10
42.333336
 20
10.583336
 30
0.0
 10
42.174699
 20
10.583336
 30
0.0
 10
42.068752
 20
11.636076
 30
0.0
 10
42.068752
 20
13.212406
 30
0.0
  0
LWPOLYLINE
  5
128
100
AcDbEntity
  8
Layer_1
 62
7
100
AcDbPolyline
 90
3
 70
0
 10
43.325523
 20
15.950076
 30
0.0
 10
42.597919
 20
15.839856
 30
0.0
 10
42.597919
 20
13.211596
 30
0.0
  0
LWPOLYLINE
  5
129
100
AcDbEntity
  8
Layer_1
 62
7
100
AcDbPolyline
 90
1
 70
1
 10
42.068752
 20
13.212406
 30
0.0
  0
SPLINE
  5
12a
100
AcDbEntity
  8
Layer_1
 62
7
100
AcDbSpline
 70
8
 71
3
 72
8
 73
4
 74
0
 40
0
 40
0
 40
0
 40
0
 40
1
 40
1
 40
1
 40
1
 10
46.235940
 20
16.091886
 30
0.0
 10
47.740483
 20
16.044686
 30
0.0
 10
47.743406
 20
16.043086
 30
0.0
 10
46.500523
 20
15.945096
 30
0.0
  0
LWPOLYLINE
  5
12b
100
AcDbEntity
  8
Layer_1
 62
7
100
AcDbPolyline
 90
3
 70
0
 10
44.714586
 20
13.361456
 30
0.0
 10
44.714586
 20
16.139586
 30
0.0
 10
46.235940
 20
16.091886
 30
0.0
  0
SPLINE
  5
12c
100
AcDbEntity
  8
Layer_1
 62
7
100
AcDbSpline
 70
8
 71
3
 72
8
 73
4
 74
0
 40
0
 40
0
 40
0
 40
0
 40
1
 40
1
 40
1
 40
1
 10
45.243753
 20
14.802156
 30
0.0
 10
45.243753
 20
13.760736
 30
0.0
 10
45.246153
 20
13.758326
 30
0.0
 10
46.302086
 20
13.758326
 30
0.0
  0
SPLINE
  5
12d
100
AcDbEntity
  8
Layer_1
 62
7
100
AcDbSpline
 70
8
 71
3
 72
8
 73
4
 74
0
 40
0
 40
0
 40
0
 40
0
 40
1
 40
1
 40
1
 40
1
 10
46.302086
 20
13.758326
 30
0.0
 10
46.884169
 20
13.758326
 30
0.0
 10
47.360419
 20
13.639266
 30
0.0
 10
47.360419
 20
13.493736
 30
0.0
  0
SPLINE
  5
12e
100
AcDbEntity
  8
Layer_1
 62
7
100
AcDbSpline
 70
8
 71
3
 72
8
 73
4
 74
0
 40
0
 40
0
 40
0
 40
0
 40
1
 40
1
 40
1
 40
1
 10
47.360419
 20
13.493736
 30
0.0
 10
47.360419
 20
13.348216
 30
0.0
 10
46.884169
 20
13.229156
 30
0.0
 10
46.302086
 20
13.229156
 30
0.0
  0
LWPOLYLINE
  5
12f
100
AcDbEntity
  8
Layer_1
 62
7
100
AcDbPolyline
 90
3
 70
0
 10
46.500523
 20
15.945096
 30
0.0
 10
45.243753
 20
15.845996
 30
0.0
 10
45.243753
 20
14.802156
 30
0.0
  0
SPLINE
  5
130
100
AcDbEntity
  8
Layer_1
 62
7
100
AcDbSpline
 70
8
 71
3
 72
8
 73
4
 74
0
 40
0
 40
0
 40
0
 40
0
 40
1
 40
1
 40
1
 40
1
 10
46.434378
 20
11.112486
 30
0.0
 10
47.089221
 20
11.112486
 30
0.0
 10
47.625003
 20
10.993426
 30
0.0
 10
47.625003
 20
10.847906
 30
0.0
  0
SPLINE
  5
131
100
AcDbEntity
  8
Layer_1
 62
7
100
AcDbSpline
 70
8
 71
3
 72
8
 73
4
 74
0
 40
0
 40
0
 40
0
 40
0
 40
1
 40
1
 40
1
 40
1
 10
47.625003
 20
10.847906
 30
0.0
 10
47.625003
 20
10.702386
 30
0.0
 10
46.970159
 20
10.583326
 30
0.0
 10
46.169794
 20
10.583326
 30
0.0
  0
LWPOLYLINE
  5
132
100
AcDbEntity
  8
Layer_1
 62
7
100
AcDbPolyline
 90
5
 70
0
 10
46.302086
 20
13.229156
 30
0.0
 10
45.243753
 20
13.229156
 30
0.0
 10
45.243753
 20
12.170826
 30
0.0
 10
45.243753
 20
11.112486
 30
0.0
 10
46.434378
 20
11.112486
 30
0.0
  0
SPLINE
  5
133
100
AcDbEntity
  8
Layer_1
 62
7
100
AcDbSpline
 70
8
 71
3
 72
8
 73
4
 74
0
 40
0
 40
0
 40
0
 40
0
 40
1
 40
1
 40
1
 40
1
 10
51.073894
 20
11.095106
 30
0.0
 10
50.719014
 20
11.758206
 30
0.0
 10
50.710928
 20
16.139586
 30
0.0
 10
51.064594
 20
16.139586
 30
0.0
  0
SPLINE
  5
134
100
AcDbEntity
  8
Layer_1
 62
7
100
AcDbSpline
 70
8
 71
3
 72
8
 73
4
 74
0
 40
0
 40
0
 40
0
 40
0
 40
1
 40
1
 40
1
 40
1
 10
51.064594
 20
16.139586
 30
0.0
 10
51.220939
 20
16.139586
 30
0.0
 10
51.329178
 20
15.187086
 30
0.0
 10
51.329178
 20
13.811246
 30
0.0
  0
SPLINE
  5
135
100
AcDbEntity
  8
Layer_1
 62
7
100
AcDbSpline
 70
8
 71
3
 72
8
 73
4
 74
0
 40
0
 40
0
 40
0
 40
0
 40
1
 40
1
 40
1
 40
1
 10
51.329178
 20
13.811246
 30
0.0
 10
51.329178
 20
11.454786
 30
0.0
 10
51.544961
 20
10.843776
 30
0.0
 10
52.374282
 20
10.851966
 30
0.0
  0
SPLINE
  5
136
100
AcDbEntity
  8
Layer_1
 62
7
100
AcDbSpline
 70
8
 71
3
 72
8
 73
4
 74
0
 40
0
 40
0
 40
0
 40
0
 40
1
 40
1
 40
1
 40
1
 10
52.374282
 20
10.851966
 30
0.0
 10
53.357235
 20
10.861966
 30
0.0
 10
53.567513
 20
11.320996
 30
0.0
 10
53.729488
 20
13.812176
 30
0.0
  0
LWPOLYLINE
  5
137
100
AcDbEntity
  8
Layer_1
 62
7
100
AcDbPolyline
 90
3
 70
0
 10
46.169794
 20
10.583326
 30
0.0
 10
44.714586
 20
10.583326
 30
0.0
 10
44.714586
 20
13.361456
 30
0.0
  0
SPLINE
  5
138
100
AcDbEntity
  8
Layer_1
 62
7
100
AcDbSpline
 70
8
 71
3
 72
8
 73
4
 74
0
 40
0
 40
0
 40
0
 40
0
 40
1
 40
1
 40
1
 40
1
 10
53.932213
 20
13.745106
 30
0.0
 10
53.960413
 20
12.079976
 30
0.0
 10
53.866743
 20
11.110066
 30
0.0
 10
53.657512
 20
10.900836
 30
0.0
  0
SPLINE
  5
139
100
AcDbEntity
  8
Layer_1
 62
7
100
AcDbSpline
 70
8
 71
3
 72
8
 73
4
 74
0
 40
0
 40
0
 40
0
 40
0
 40
1
 40
1
 40
1
 40
1
 10
53.657512
 20
10.900836
 30
0.0
 10
53.129790
 20
10.373116
 30
0.0
 10
51.390303
 20
10.503916
 30
0.0
 10
51.073903
 20
11.095106
 30
0.0
  0
LWPOLYLINE
  5
13a
100
AcDbEntity
  8
Layer_1
 62
7
100
AcDbPolyline
 90
3
 70
0
 10
53.729488
 20
13.812176
 30
0.0
 10
53.889413
 20
16.271876
 30
0.0
 10
53.932213
 20
13.745106
 30
0.0
  0
SPLINE
  5
13b
100
AcDbEntity
  8
Layer_1
 62
7
100
AcDbSpline
 70
8
 71
3
 72
8
 73
4
 74
0
 40
0
 40
0
 40
0
 40
0
 40
1
 40
1
 40
1
 40
1
 10
55.297920
 20
13.361456
 30
0.0
 10
55.297920
 20
15.902706
 30
0.0
 10
55.340270
 20
16.139586
 30
0.0
 10
55.794641
 20
16.139586
 30
0.0
  0
SPLINE
  5
13c
100
AcDbEntity
  8
Layer_1
 62
7
100
AcDbSpline
 70
8
 71
3
 72
8
 73
4
 74
0
 40
0
 40
0
 40
0
 40
0
 40
1
 40
1
 40
1
 40
1
 10
55.794641
 20
16.139586
 30
0.0
 10
56.180435
 20
16.139586
 30
0.0
 10
56.490640
 20
15.593036
 30
0.0
 10
57.183703
 20
13.692186
 30
0.0
  0
LWPOLYLINE
  5
13d
100
AcDbEntity
  8
Layer_1
 62
7
100
AcDbPolyline
 90
1
 70
1
 10
51.073903
 20
11.095106
 30
0.0
  0
SPLINE
  5
13e
100
AcDbEntity
  8
Layer_1
 62
7
100
AcDbSpline
 70
8
 71
3
 72
8
 73
4
 74
0
 40
0
 40
0
 40
0
 40
0
 40
1
 40
1
 40
1
 40
1
 10
58.152125
 20
13.692186
 30
0.0
 10
58.257942
 20
17.096446
 30
0.0
 10
58.737507
 20
16.809606
 30
0.0
 10
58.737507
 20
13.342056
 30
0.0
  0
SPLINE
  5
13f
100
AcDbEntity
  8
Layer_1
 62
7
100
AcDbSpline
 70
8
 71
3
 72
8
 73
4
 74
0
 40
0
 40
0
 40
0
 40
0
 40
1
 40
1
 40
1
 40
1
 10
58.737507
 20
13.342056
 30
0.0
 10
58.737507
 20
10.820946
 30
0.0
 10
58.691757
 20
10.553146
 30
0.0
 10
58.274486
 20
10.631666
 30
0.0
  0
SPLINE
  5
140
100
AcDbEntity
  8
Layer_1
 62
7
100
AcDbSpline
 70
8
 71
3
 72
8
 73
4
 74
0
 40
0
 40
0
 40
0
 40
0
 40
1
 40
1
 40
1
 40
1
 10
58.274486
 20
10.631666
 30
0.0
 10
57.956460
 20
10.691466
 30
0.0
 10
57.562903
 20
11.436466
 30
0.0
 10
57.017716
 20
13.010566
 30
0.0
  0
SPLINE
  5
141
100
AcDbEntity
  8
Layer_1
 62
7
100
AcDbSpline
 70
8
 71
3
 72
8
 73
4
 74
0
 40
0
 40
0
 40
0
 40
0
 40
1
 40
1
 40
1
 40
1
 10
57.017716
 20
13.010566
 30
0.0
 10
56.581153
 20
14.271036
 30
0.0
 10
56.134669
 20
15.391486
 30
0.0
 10
56.025528
 20
15.500466
 30
0.0
  0
SPLINE
  5
142
100
AcDbEntity
  8
Layer_1
 62
7
100
AcDbSpline
 70
8
 71
3
 72
8
 73
4
 74
0
 40
0
 40
0
 40
0
 40
0
 40
1
 40
1
 40
1
 40
1
 10
56.025528
 20
15.500466
 30
0.0
 10
55.916387
 20
15.609446
 30
0.0
 10
55.827090
 20
14.547676
 30
0.0
 10
55.827090
 20
13.140976
 30
0.0
  0
SPLINE
  5
143
100
AcDbEntity
  8
Layer_1
 62
7
100
AcDbSpline
 70
8
 71
3
 72
8
 73
4
 74
0
 40
0
 40
0
 40
0
 40
0
 40
1
 40
1
 40
1
 40
1
 10
55.827090
 20
13.140976
 30
0.0
 10
55.827090
 20
11.612266
 30
0.0
 10
55.720649
 20
10.583336
 30
0.0
 10
55.562507
 20
10.583336
 30
0.0
  0
SPLINE
  5
144
100
AcDbEntity
  8
Layer_1
 62
7
100
AcDbSpline
 70
8
 71
3
 72
8
 73
4
 74
0
 40
0
 40
0
 40
0
 40
0
 40
1
 40
1
 40
1
 40
1
 10
55.562507
 20
10.583336
 30
0.0
 10
55.402918
 20
10.583336
 30
0.0
 10
55.297924
 20
11.685766
 30
0.0
 10
55.297924
 20
13.361456
 30
0.0
  0
LWPOLYLINE
  5
145
100
AcDbEntity
  8
Layer_1
 62
7
100
AcDbPolyline
 90
3
 70
0
 10
57.183703
 20
13.692186
 30
0.0
 10
58.076045
 20
11.244796
 30
0.0
 10
58.152125
 20
13.692186
 30
0.0
  0
SPLINE
  5
146
100
AcDbEntity
  8
Layer_1
 62
7
100
AcDbSpline
 70
8
 71
3
 72
8
 73
4
 74
0
 40
0
 40
0
 40
0
 40
0
 40
1
 40
1
 40
1
 40
1
 10
60.325003
 20
13.361456
 30
0.0
 10
60.325003
 20
15.037156
 30
0.0
 10
60.429998
 20
16.139586
 30
0.0
 10
60.589587
 20
16.139586
 30
0.0
  0
SPLINE
  5
147
100
AcDbEntity
  8
Layer_1
 62
7
100
AcDbSpline
 70
8
 71
3
 72
8
 73
4
 74
0
 40
0
 40
0
 40
0
 40
0
 40
1
 40
1
 40
1
 40
1
 10
60.589587
 20
16.139586
 30
0.0
 10
60.749176
 20
16.139586
 30
0.0
 10
60.854170
 20
15.037156
 30
0.0
 10
60.854170
 20
13.361456
 30
0.0
  0
SPLINE
  5
148
100
AcDbEntity
  8
Layer_1
 62
7
100
AcDbSpline
 70
8
 71
3
 72
8
 73
4
 74
0
 40
0
 40
0
 40
0
 40
0
 40
1
 40
1
 40
1
 40
1
 10
60.854170
 20
13.361456
 30
0.0
 10
60.854170
 20
11.685766
 30
0.0
 10
60.749176
 20
10.583336
 30
0.0
 10
60.589587
 20
10.583336
 30
0.0
  0
SPLINE
  5
149
100
AcDbEntity
  8
Layer_1
 62
7
100
AcDbSpline
 70
8
 71
3
 72
8
 73
4
 74
0
 40
0
 40
0
 40
0
 40
0
 40
1
 40
1
 40
1
 40
1
 10
60.589587
 20
10.583336
 30
0.0
 10
60.429998
 20
10.583336
 30
0.0
 10
60.325003
 20
11.685766
 30
0.0
 10
60.325003
 20
13.361456
 30
0.0
  0
LWPOLYLINE
  5
14a
100
AcDbEntity
  8
Layer_1
 62
7
100
AcDbPolyline
 90
1
 70
1
 10
55.297924
 20
13.361456
 30
0.0
  0
SPLINE
  5
14b
100
AcDbEntity
  8
Layer_1
 62
7
100
AcDbSpline
 70
8
 71
3
 72
8
 73
4
 74
0
 40
0
 40
0
 40
0
 40
0
 40
1
 40
1
 40
1
 40
1
 10
62.511158
 20
13.373856
 30
0.0
 10
62.061972
 20
14.930746
 30
0.0
 10
61.834036
 20
16.121676
 30
0.0
 10
61.995548
 20
16.067846
 30
0.0
  0
SPLINE
  5
14c
100
AcDbEntity
  8
Layer_1
 62
7
100
AcDbSpline
 70
8
 71
3
 72
8
 73
4
 74
0
 40
0
 40
0
 40
0
 40
0
 40
1
 40
1
 40
1
 40
1
 10
61.995548
 20
16.067846
 30
0.0
 10
62.154767
 20
16.014746
 30
0.0
 10
62.546977
 20
14.929226
 30
0.0
 10
62.867131
 20
13.655526
 30
0.0
  0
SPLINE
  5
14d
100
AcDbEntity
  8
Layer_1
 62
7
100
AcDbSpline
 70
8
 71
3
 72
8
 73
4
 74
0
 40
0
 40
0
 40
0
 40
0
 40
1
 40
1
 40
1
 40
1
 10
62.867131
 20
13.655526
 30
0.0
 10
63.187285
 20
12.381816
 30
0.0
 10
63.512360
 20
11.276576
 30
0.0
 10
63.589517
 20
11.199406
 30
0.0
  0
SPLINE
  5
14e
100
AcDbEntity
  8
Layer_1
 62
7
100
AcDbSpline
 70
8
 71
3
 72
8
 73
4
 74
0
 40
0
 40
0
 40
0
 40
0
 40
1
 40
1
 40
1
 40
1
 10
63.589517
 20
11.199406
 30
0.0
 10
63.726450
 20
11.062486
 30
0.0
 10
63.891404
 20
11.595306
 30
0.0
 10
64.621874
 20
14.534056
 30
0.0
  0
SPLINE
  5
14f
100
AcDbEntity
  8
Layer_1
 62
7
100
AcDbSpline
 70
8
 71
3
 72
8
 73
4
 74
0
 40
0
 40
0
 40
0
 40
0
 40
1
 40
1
 40
1
 40
1
 10
64.621874
 20
14.534056
 30
0.0
 10
64.818346
 20
15.324476
 30
0.0
 10
65.116399
 20
16.016956
 30
0.0
 10
65.284211
 20
16.072896
 30
0.0
  0
SPLINE
  5
150
100
AcDbEntity
  8
Layer_1
 62
7
100
AcDbSpline
 70
8
 71
3
 72
8
 73
4
 74
0
 40
0
 40
0
 40
0
 40
0
 40
1
 40
1
 40
1
 40
1
 10
65.284211
 20
16.072896
 30
0.0
 10
65.483720
 20
16.139396
 30
0.0
 10
65.409541
 20
15.550416
 30
0.0
 10
65.069888
 20
14.371176
 30
0.0
  0
SPLINE
  5
151
100
AcDbEntity
  8
Layer_1
 62
7
100
AcDbSpline
 70
8
 71
3
 72
8
 73
4
 74
0
 40
0
 40
0
 40
0
 40
0
 40
1
 40
1
 40
1
 40
1
 10
65.069888
 20
14.371176
 30
0.0
 10
64.784199
 20
13.379286
 30
0.0
 10
64.428575
 20
12.121266
 30
0.0
 10
64.279612
 20
11.575556
 30
0.0
  0
SPLINE
  5
152
100
AcDbEntity
  8
Layer_1
 62
7
100
AcDbSpline
 70
8
 71
3
 72
8
 73
4
 74
0
 40
0
 40
0
 40
0
 40
0
 40
1
 40
1
 40
1
 40
1
 10
64.279612
 20
11.575556
 30
0.0
 10
63.826322
 20
9.914976
 30
0.0
 10
63.377388
 20
10.371486
 30
0.0
 10
62.511158
 20
13.373856
 30
0.0
  0
LWPOLYLINE
  5
153
100
AcDbEntity
  8
Layer_1
 62
7
100
AcDbPolyline
 90
1
 70
1
 10
60.325003
 20
13.361456
 30
0.0
  0
LWPOLYLINE
  5
154
100
AcDbEntity
  8
Layer_1
 62
7
100
AcDbPolyline
 90
1
 70
1
 10
62.511158
 20
13.373856
 30
0.0
  0
SPLINE
  5
155
100
AcDbEntity
  8
Layer_1
 62
7
100
AcDbSpline
 70
8
 71
3
 72
8
 73
4
 74
0
 40
0
 40
0
 40
0
 40
0
 40
1
 40
1
 40
1
 40
1
 10
67.799488
 20
16.093386
 30
0.0
 10
69.127498
 20
16.049186
 30
0.0
 10
69.139128
 20
16.042686
 30
0.0
 10
68.064068
 20
15.945886
 30
0.0
  0
SPLINE
  5
156
100
AcDbEntity
  8
Layer_1
 62
7
100
AcDbSpline
 70
8
 71
3
 72
8
 73
4
 74
0
 40
0
 40
0
 40
0
 40
0
 40
1
 40
1
 40
1
 40
1
 10
68.064068
 20
15.945886
 30
0.0
 10
66.948422
 20
15.845396
 30
0.0
 10
66.939587
 20
15.836406
 30
0.0
 10
66.939587
 20
14.801486
 30
0.0
  0
SPLINE
  5
157
100
AcDbEntity
  8
Layer_1
 62
7
100
AcDbSpline
 70
8
 71
3
 72
8
 73
4
 74
0
 40
0
 40
0
 40
0
 40
0
 40
1
 40
1
 40
1
 40
1
 10
66.939587
 20
14.801486
 30
0.0
 10
66.939587
 20
13.760896
 30
0.0
 10
66.942187
 20
13.758366
 30
0.0
 10
67.997918
 20
13.758366
 30
0.0
  0
SPLINE
  5
158
100
AcDbEntity
  8
Layer_1
 62
7
100
AcDbSpline
 70
8
 71
3
 72
8
 73
4
 74
0
 40
0
 40
0
 40
0
 40
0
 40
1
 40
1
 40
1
 40
1
 10
67.997918
 20
13.758366
 30
0.0
 10
68.580008
 20
13.758366
 30
0.0
 10
69.056258
 20
13.639306
 30
0.0
 10
69.056258
 20
13.493776
 30
0.0
  0
SPLINE
  5
159
100
AcDbEntity
  8
Layer_1
 62
7
100
AcDbSpline
 70
8
 71
3
 72
8
 73
4
 74
0
 40
0
 40
0
 40
0
 40
0
 40
1
 40
1
 40
1
 40
1
 10
69.056258
 20
13.493776
 30
0.0
 10
69.056258
 20
13.348256
 30
0.0
 10
68.580008
 20
13.229196
 30
0.0
 10
67.997918
 20
13.229196
 30
0.0
  0
LWPOLYLINE
  5
15a
100
AcDbEntity
  8
Layer_1
 62
7
100
AcDbPolyline
 90
3
 70
0
 10
66.410420
 20
13.361456
 30
0.0
 10
66.410420
 20
16.139586
 30
0.0
 10
67.799488
 20
16.093386
 30
0.0
  0
SPLINE
  5
15b
100
AcDbEntity
  8
Layer_1
 62
7
100
AcDbSpline
 70
8
 71
3
 72
8
 73
4
 74
0
 40
0
 40
0
 40
0
 40
0
 40
1
 40
1
 40
1
 40
1
 10
67.997918
 20
11.112526
 30
0.0
 10
68.580008
 20
11.112526
 30
0.0
 10
69.056258
 20
10.993466
 30
0.0
 10
69.056258
 20
10.847946
 30
0.0
  0
SPLINE
  5
15c
100
AcDbEntity
  8
Layer_1
 62
7
100
AcDbSpline
 70
8
 71
3
 72
8
 73
4
 74
0
 40
0
 40
0
 40
0
 40
0
 40
1
 40
1
 40
1
 40
1
 10
69.056258
 20
10.847946
 30
0.0
 10
69.056258
 20
10.702426
 30
0.0
 10
68.460938
 20
10.583366
 30
0.0
 10
67.733338
 20
10.583366
 30
0.0
  0
LWPOLYLINE
  5
15d
100
AcDbEntity
  8
Layer_1
 62
7
100
AcDbPolyline
 90
5
 70
0
 10
67.997918
 20
13.229196
 30
0.0
 10
66.939587
 20
13.229196
 30
0.0
 10
66.939587
 20
12.170866
 30
0.0
 10
66.939587
 20
11.112526
 30
0.0
 10
67.997918
 20
11.112526
 30
0.0
  0
LWPOLYLINE
  5
15e
100
AcDbEntity
  8
Layer_1
 62
7
100
AcDbPolyline
 90
3
 70
0
 10
67.733338
 20
10.583366
 30
0.0
 10
66.410420
 20
10.583366
 30
0.0
 10
66.410420
 20
13.361456
 30
0.0
  0
SPLINE
  5
15f
100
AcDbEntity
  8
Layer_1
 62
7
100
AcDbSpline
 70
8
 71
3
 72
8
 73
4
 74
0
 40
0
 40
0
 40
0
 40
0
 40
1
 40
1
 40
1
 40
1
 10
71.550898
 20
16.139586
 30
0.0
 10
72.865868
 20
16.139586
 30
0.0
 10
73.554168
 20
15.644226
 30
0.0
 10
73.554168
 20
14.697876
 30
0.0
  0
SPLINE
  5
160
100
AcDbEntity
  8
Layer_1
 62
7
100
AcDbSpline
 70
8
 71
3
 72
8
 73
4
 74
0
 40
0
 40
0
 40
0
 40
0
 40
1
 40
1
 40
1
 40
1
 10
73.554168
 20
14.697876
 30
0.0
 10
73.554168
 20
14.362286
 30
0.0
 10
73.377768
 20
13.941306
 30
0.0
 10
73.162158
 20
13.762366
 30
0.0
  0
SPLINE
  5
161
100
AcDbEntity
  8
Layer_1
 62
7
100
AcDbSpline
 70
8
 71
3
 72
8
 73
4
 74
0
 40
0
 40
0
 40
0
 40
0
 40
1
 40
1
 40
1
 40
1
 10
73.162158
 20
13.762366
 30
0.0
 10
72.815868
 20
13.474966
 30
0.0
 10
72.815868
 20
13.371756
 30
0.0
 10
73.162158
 20
12.877346
 30
0.0
  0
SPLINE
  5
162
100
AcDbEntity
  8
Layer_1
 62
7
100
AcDbSpline
 70
8
 71
3
 72
8
 73
4
 74
0
 40
0
 40
0
 40
0
 40
0
 40
1
 40
1
 40
1
 40
1
 10
73.162158
 20
12.877346
 30
0.0
 10
73.602628
 20
12.248496
 30
0.0
 10
73.708238
 20
10.456886
 30
0.0
 10
73.289588
 20
10.715626
 30
0.0
  0
SPLINE
  5
163
100
AcDbEntity
  8
Layer_1
 62
7
100
AcDbSpline
 70
8
 71
3
 72
8
 73
4
 74
0
 40
0
 40
0
 40
0
 40
0
 40
1
 40
1
 40
1
 40
1
 10
73.289588
 20
10.715626
 30
0.0
 10
73.144068
 20
10.805526
 30
0.0
 10
73.025008
 20
11.284646
 30
0.0
 10
73.025008
 20
11.780266
 30
0.0
  0
SPLINE
  5
164
100
AcDbEntity
  8
Layer_1
 62
7
100
AcDbSpline
 70
8
 71
3
 72
8
 73
4
 74
0
 40
0
 40
0
 40
0
 40
0
 40
1
 40
1
 40
1
 40
1
 10
73.025008
 20
11.780266
 30
0.0
 10
73.025008
 20
12.736106
 30
0.0
 10
72.490698
 20
13.229166
 30
0.0
 10
71.454898
 20
13.229166
 30
0.0
  0
SPLINE
  5
165
100
AcDbEntity
  8
Layer_1
 62
7
100
AcDbSpline
 70
8
 71
3
 72
8
 73
4
 74
0
 40
0
 40
0
 40
0
 40
0
 40
1
 40
1
 40
1
 40
1
 10
71.454898
 20
13.229166
 30
0.0
 10
70.975418
 20
13.229166
 30
0.0
 10
70.908338
 20
13.066806
 30
0.0
 10
70.908338
 20
11.906246
 30
0.0
  0
SPLINE
  5
166
100
AcDbEntity
  8
Layer_1
 62
7
100
AcDbSpline
 70
8
 71
3
 72
8
 73
4
 74
0
 40
0
 40
0
 40
0
 40
0
 40
1
 40
1
 40
1
 40
1
 10
70.908338
 20
11.906246
 30
0.0
 10
70.908338
 20
11.178646
 30
0.0
 10
70.789278
 20
10.583336
 30
0.0
 10
70.643758
 20
10.583336
 30
0.0
  0
SPLINE
  5
167
100
AcDbEntity
  8
Layer_1
 62
7
100
AcDbSpline
 70
8
 71
3
 72
8
 73
4
 74
0
 40
0
 40
0
 40
0
 40
0
 40
1
 40
1
 40
1
 40
1
 10
70.643758
 20
10.583336
 30
0.0
 10
70.484168
 20
10.583336
 30
0.0
 10
70.379168
 20
11.685766
 30
0.0
 10
70.379168
 20
13.361456
 30
0.0
  0
LWPOLYLINE
  5
168
100
AcDbEntity
  8
Layer_1
 62
7
100
AcDbPolyline
 90
3
 70
0
 10
70.379168
 20
13.361456
 30
0.0
 10
70.379168
 20
16.139586
 30
0.0
 10
71.550898
 20
16.139586
 30
0.0
  0
SPLINE
  5
169
100
AcDbEntity
  8
Layer_1
 62
7
100
AcDbSpline
 70
8
 71
3
 72
8
 73
4
 74
0
 40
0
 40
0
 40
0
 40
0
 40
1
 40
1
 40
1
 40
1
 10
72.707508
 20
13.811246
 30
0.0
 10
73.058518
 20
14.162266
 30
0.0
 10
73.138308
 20
15.247916
 30
0.0
 10
72.826568
 20
15.431396
 30
0.0
  0
SPLINE
  5
16a
100
AcDbEntity
  8
Layer_1
 62
7
100
AcDbSpline
 70
8
 71
3
 72
8
 73
4
 74
0
 40
0
 40
0
 40
0
 40
0
 40
1
 40
1
 40
1
 40
1
 10
72.826568
 20
15.431396
 30
0.0
 10
72.717428
 20
15.495596
 30
0.0
 10
72.241178
 20
15.631186
 30
0.0
 10
71.768238
 20
15.732616
 30
0.0
  0
LWPOLYLINE
  5
16b
100
AcDbEntity
  8
Layer_1
 62
7
100
AcDbPolyline
 90
1
 70
1
 10
70.379168
 20
13.361456
 30
0.0
  0
SPLINE
  5
16c
100
AcDbEntity
  8
Layer_1
 62
7
100
AcDbSpline
 70
8
 71
3
 72
8
 73
4
 74
0
 40
0
 40
0
 40
0
 40
0
 40
1
 40
1
 40
1
 40
1
 10
70.908338
 20
14.705396
 30
0.0
 10
70.908338
 20
13.554746
 30
0.0
 10
70.945638
 20
13.493746
 30
0.0
 10
71.649168
 20
13.493746
 30
0.0
  0
SPLINE
  5
16d
100
AcDbEntity
  8
Layer_1
 62
7
100
AcDbSpline
 70
8
 71
3
 72
8
 73
4
 74
0
 40
0
 40
0
 40
0
 40
0
 40
1
 40
1
 40
1
 40
1
 10
71.649168
 20
13.493746
 30
0.0
 10
72.056628
 20
13.493746
 30
0.0
 10
72.532878
 20
13.636626
 30
0.0
 10
72.707508
 20
13.811246
 30
0.0
  0
LWPOLYLINE
  5
16e
100
AcDbEntity
  8
Layer_1
 62
7
100
AcDbPolyline
 90
3
 70
0
 10
71.768238
 20
15.732616
 30
0.0
 10
70.908338
 20
15.917046
 30
0.0
 10
70.908338
 20
14.705396
 30
0.0
  0
SPLINE
  5
16f
100
AcDbEntity
  8
Layer_1
 62
7
100
AcDbSpline
 70
8
 71
3
 72
8
 73
4
 74
0
 40
0
 40
0
 40
0
 40
0
 40
1
 40
1
 40
1
 40
1
 10
75.034518
 20
11.156896
 30
0.0
 10
74.575648
 20
11.812026
 30
0.0
 10
74.497738
 20
12.170836
 30
0.0
 10
74.814348
 20
12.170836
 30
0.0
  0
SPLINE
  5
170
100
AcDbEntity
  8
Layer_1
 62
7
100
AcDbSpline
 70
8
 71
3
 72
8
 73
4
 74
0
 40
0
 40
0
 40
0
 40
0
 40
1
 40
1
 40
1
 40
1
 10
74.814348
 20
12.170836
 30
0.0
 10
74.925358
 20
12.170836
 30
0.0
 10
75.133718
 20
11.902946
 30
0.0
 10
75.277368
 20
11.575526
 30
0.0
  0
SPLINE
  5
171
100
AcDbEntity
  8
Layer_1
 62
7
100
AcDbSpline
 70
8
 71
3
 72
8
 73
4
 74
0
 40
0
 40
0
 40
0
 40
0
 40
1
 40
1
 40
1
 40
1
 10
75.277368
 20
11.575526
 30
0.0
 10
75.791498
 20
10.403636
 30
0.0
 10
77.522918
 20
10.781696
 30
0.0
 10
77.522918
 20
12.065836
 30
0.0
  0
SPLINE
  5
172
100
AcDbEntity
  8
Layer_1
 62
7
100
AcDbSpline
 70
8
 71
3
 72
8
 73
4
 74
0
 40
0
 40
0
 40
0
 40
0
 40
1
 40
1
 40
1
 40
1
 10
77.522918
 20
12.065836
 30
0.0
 10
77.522918
 20
12.549546
 30
0.0
 10
77.240438
 20
12.824746
 30
0.0
 10
76.266148
 20
13.290206
 30
0.0
  0
SPLINE
  5
173
100
AcDbEntity
  8
Layer_1
 62
7
100
AcDbSpline
 70
8
 71
3
 72
8
 73
4
 74
0
 40
0
 40
0
 40
0
 40
0
 40
1
 40
1
 40
1
 40
1
 10
76.266148
 20
13.290206
 30
0.0
 10
75.200468
 20
13.799336
 30
0.0
 10
74.996958
 20
14.018886
 30
0.0
 10
74.927688
 20
14.734236
 30
0.0
  0
SPLINE
  5
174
100
AcDbEntity
  8
Layer_1
 62
7
100
AcDbSpline
 70
8
 71
3
 72
8
 73
4
 74
0
 40
0
 40
0
 40
0
 40
0
 40
1
 40
1
 40
1
 40
1
 10
74.927688
 20
14.734236
 30
0.0
 10
74.863788
 20
15.393866
 30
0.0
 10
74.990588
 20
15.672566
 30
0.0
 10
75.508898
 20
16.012196
 30
0.0
  0
SPLINE
  5
175
100
AcDbEntity
  8
Layer_1
 62
7
100
AcDbSpline
 70
8
 71
3
 72
8
 73
4
 74
0
 40
0
 40
0
 40
0
 40
0
 40
1
 40
1
 40
1
 40
1
 10
75.508898
 20
16.012196
 30
0.0
 10
76.080808
 20
16.386926
 30
0.0
 10
76.273188
 20
16.397966
 30
0.0
 10
76.910278
 20
16.092596
 30
0.0
  0
SPLINE
  5
176
100
AcDbEntity
  8
Layer_1
 62
7
100
AcDbSpline
 70
8
 71
3
 72
8
 73
4
 74
0
 40
0
 40
0
 40
0
 40
0
 40
1
 40
1
 40
1
 40
1
 10
76.910278
 20
16.092596
 30
0.0
 10
77.316428
 20
15.897926
 30
0.0
 10
77.688698
 20
15.531206
 30
0.0
 10
77.737528
 20
15.277656
 30
0.0
  0
SPLINE
  5
177
100
AcDbEntity
  8
Layer_1
 62
7
100
AcDbSpline
 70
8
 71
3
 72
8
 73
4
 74
0
 40
0
 40
0
 40
0
 40
0
 40
1
 40
1
 40
1
 40
1
 10
77.737528
 20
15.277656
 30
0.0
 10
77.863608
 20
14.622946
 30
0.0
 10
77.349718
 20
14.703226
 30
0.0
 10
77.176578
 20
15.365256
 30
0.0
  0
SPLINE
  5
178
100
AcDbEntity
  8
Layer_1
 62
7
100
AcDbSpline
 70
8
 71
3
 72
8
 73
4
 74
0
 40
0
 40
0
 40
0
 40
0
 40
1
 40
1
 40
1
 40
1
 10
77.176578
 20
15.365256
 30
0.0
 10
77.066418
 20
15.786526
 30
0.0
 10
76.859628
 20
15.894016
 30
0.0
 10
76.285828
 20
15.828276
 30
0.0
  0
SPLINE
  5
179
100
AcDbEntity
  8
Layer_1
 62
7
100
AcDbSpline
 70
8
 71
3
 72
8
 73
4
 74
0
 40
0
 40
0
 40
0
 40
0
 40
1
 40
1
 40
1
 40
1
 10
76.285828
 20
15.828276
 30
0.0
 10
75.672198
 20
15.757976
 30
0.0
 10
75.524578
 20
15.600426
 30
0.0
 10
75.460458
 20
14.947376
 30
0.0
  0
SPLINE
  5
17a
100
AcDbEntity
  8
Layer_1
 62
7
100
AcDbSpline
 70
8
 71
3
 72
8
 73
4
 74
0
 40
0
 40
0
 40
0
 40
0
 40
1
 40
1
 40
1
 40
1
 10
75.460458
 20
14.947376
 30
0.0
 10
75.391258
 20
14.242656
 30
0.0
 10
75.510158
 20
14.092026
 30
0.0
 10
76.504478
 20
13.624466
 30
0.0
  0
SPLINE
  5
17b
100
AcDbEntity
  8
Layer_1
 62
7
100
AcDbSpline
 70
8
 71
3
 72
8
 73
4
 74
0
 40
0
 40
0
 40
0
 40
0
 40
1
 40
1
 40
1
 40
1
 10
76.504478
 20
13.624466
 30
0.0
 10
77.986928
 20
12.927396
 30
0.0
 10
78.305118
 20
12.382346
 30
0.0
 10
77.779188
 20
11.440896
 30
0.0
  0
SPLINE
  5
17c
100
AcDbEntity
  8
Layer_1
 62
7
100
AcDbSpline
 70
8
 71
3
 72
8
 73
4
 74
0
 40
0
 40
0
 40
0
 40
0
 40
1
 40
1
 40
1
 40
1
 10
77.779188
 20
11.440896
 30
0.0
 10
77.219708
 20
10.439376
 30
0.0
 10
75.650788
 20
10.277006
 30
0.0
 10
75.034518
 20
11.156846
 30
0.0
  0
LWPOLYLINE
  5
17d
100
AcDbEntity
  8
Layer_1
 62
7
100
AcDbPolyline
 90
1
 70
1
 10
72.707508
 20
13.811246
 30
0.0
  0
SPLINE
  5
17e
100
AcDbEntity
  8
Layer_1
 62
7
100
AcDbSpline
 70
8
 71
3
 72
8
 73
4
 74
0
 40
0
 40
0
 40
0
 40
0
 40
1
 40
1
 40
1
 40
1
 10
79.375008
 20
13.361456
 30
0.0
 10
79.375008
 20
15.037156
 30
0.0
 10
79.479998
 20
16.139586
 30
0.0
 10
79.639588
 20
16.139586
 30
0.0
  0
SPLINE
  5
17f
100
AcDbEntity
  8
Layer_1
 62
7
100
AcDbSpline
 70
8
 71
3
 72
8
 73
4
 74
0
 40
0
 40
0
 40
0
 40
0
 40
1
 40
1
 40
1
 40
1
 10
79.639588
 20
16.139586
 30
0.0
 10
79.799178
 20
16.139586
 30
0.0
 10
79.904168
 20
15.037156
 30
0.0
 10
79.904168
 20
13.361456
 30
0.0
  0
SPLINE
  5
180
100
AcDbEntity
  8
Layer_1
 62
7
100
AcDbSpline
 70
8
 71
3
 72
8
 73
4
 74
0
 40
0
 40
0
 40
0
 40
0
 40
1
 40
1
 40
1
 40
1
 10
79.904168
 20
13.361456
 30
0.0
 10
79.904168
 20
11.685766
 30
0.0
 10
79.799178
 20
10.583336
 30
0.0
 10
79.639588
 20
10.583336
 30
0.0
  0
SPLINE
  5
181
100
AcDbEntity
  8
Layer_1
 62
7
100
AcDbSpline
 70
8
 71
3
 72
8
 73
4
 74
0
 40
0
 40
0
 40
0
 40
0
 40
1
 40
1
 40
1
 40
1
 10
79.639588
 20
10.583336
 30
0.0
 10
79.479998
 20
10.583336
 30
0.0
 10
79.375008
 20
11.685766
 30
0.0
 10
79.375008
 20
13.361456
 30
0.0
  0
LWPOLYLINE
  5
182
100
AcDbEntity
  8
Layer_1
 62
7
100
AcDbPolyline
 90
1
 70
1
 10
75.034518
 20
11.156846
 30
0.0
  0
LWPOLYLINE
  5
183
100
AcDbEntity
  8
Layer_1
 62
7
100
AcDbPolyline
 90
1
 70
1
 10
79.375008
 20
13.361456
 30
0.0
  0
SPLINE
  5
184
100
AcDbEntity
  8
Layer_1
 62
7
100
AcDbSpline
 70
8
 71
3
 72
8
 73
4
 74
0
 40
0
 40
0
 40
0
 40
0
 40
1
 40
1
 40
1
 40
1
 10
81.425528
 20
15.948186
 30
0.0
 10
80.952578
 20
16.006886
 30
0.0
 10
81.399028
 20
16.056116
 30
0.0
 10
82.417718
 20
16.057596
 30
0.0
  0
SPLINE
  5
185
100
AcDbEntity
  8
Layer_1
 62
7
100
AcDbSpline
 70
8
 71
3
 72
8
 73
4
 74
0
 40
0
 40
0
 40
0
 40
0
 40
1
 40
1
 40
1
 40
1
 10
82.417718
 20
16.057596
 30
0.0
 10
83.436358
 20
16.059596
 30
0.0
 10
83.942378
 20
16.010696
 30
0.0
 10
83.542188
 20
15.950076
 30
0.0
  0
LWPOLYLINE
  5
186
100
AcDbEntity
  8
Layer_1
 62
7
100
AcDbPolyline
 90
3
 70
0
 10
82.285418
 20
13.212406
 30
0.0
 10
82.285418
 20
15.841476
 30
0.0
 10
81.425528
 20
15.948186
 30
0.0
  0
SPLINE
  5
187
100
AcDbEntity
  8
Layer_1
 62
7
100
AcDbSpline
 70
8
 71
3
 72
8
 73
4
 74
0
 40
0
 40
0
 40
0
 40
0
 40
1
 40
1
 40
1
 40
1
 10
82.814588
 20
13.211596
 30
0.0
 10
82.814588
 20
11.635806
 30
0.0
 10
82.708638
 20
10.583336
 30
0.0
 10
82.550008
 20
10.583336
 30
0.0
  0
SPLINE
  5
188
100
AcDbEntity
  8
Layer_1
 62
7
100
AcDbSpline
 70
8
 71
3
 72
8
 73
4
 74
0
 40
0
 40
0
 40
0
 40
0
 40
1
 40
1
 40
1
 40
1
 10
82.550008
 20
10.583336
 30
0.0
 10
82.391368
 20
10.583336
 30
0.0
 10
82.285418
 20
11.636076
 30
0.0
 10
82.285418
 20
13.212406
 30
0.0
  0
LWPOLYLINE
  5
189
100
AcDbEntity
  8
Layer_1
 62
7
100
AcDbPolyline
 90
3
 70
0
 10
83.542188
 20
15.950076
 30
0.0
 10
82.814588
 20
15.839856
 30
0.0
 10
82.814588
 20
13.211596
 30
0.0
  0
SPLINE
  5
18a
100
AcDbEntity
  8
Layer_1
 62
7
100
AcDbSpline
 70
8
 71
3
 72
8
 73
4
 74
0
 40
0
 40
0
 40
0
 40
0
 40
1
 40
1
 40
1
 40
1
 10
86.254168
 20
11.781506
 30
0.0
 10
86.254168
 20
12.588266
 30
0.0
 10
85.993628
 20
13.495806
 30
0.0
 10
85.456608
 20
14.559626
 30
0.0
  0
SPLINE
  5
18b
100
AcDbEntity
  8
Layer_1
 62
7
100
AcDbSpline
 70
8
 71
3
 72
8
 73
4
 74
0
 40
0
 40
0
 40
0
 40
0
 40
1
 40
1
 40
1
 40
1
 10
85.456608
 20
14.559626
 30
0.0
 10
85.017958
 20
15.428606
 30
0.0
 10
84.759478
 20
16.139586
 30
0.0
 10
84.882218
 20
16.139586
 30
0.0
  0
SPLINE
  5
18c
100
AcDbEntity
  8
Layer_1
 62
7
100
AcDbSpline
 70
8
 71
3
 72
8
 73
4
 74
0
 40
0
 40
0
 40
0
 40
0
 40
1
 40
1
 40
1
 40
1
 10
84.882218
 20
16.139586
 30
0.0
 10
85.004958
 20
16.139586
 30
0.0
 10
85.384218
 20
15.544276
 30
0.0
 10
85.725008
 20
14.816666
 30
0.0
  0
SPLINE
  5
18d
100
AcDbEntity
  8
Layer_1
 62
7
100
AcDbSpline
 70
8
 71
3
 72
8
 73
4
 74
0
 40
0
 40
0
 40
0
 40
0
 40
1
 40
1
 40
1
 40
1
 10
85.725008
 20
14.816666
 30
0.0
 10
86.065798
 20
14.089066
 30
0.0
 10
86.422988
 20
13.493746
 30
0.0
 10
86.518758
 20
13.493746
 30
0.0
  0
SPLINE
  5
18e
100
AcDbEntity
  8
Layer_1
 62
7
100
AcDbSpline
 70
8
 71
3
 72
8
 73
4
 74
0
 40
0
 40
0
 40
0
 40
0
 40
1
 40
1
 40
1
 40
1
 10
86.518758
 20
13.493746
 30
0.0
 10
86.614558
 20
13.493746
 30
0.0
 10
86.971718
 20
14.089066
 30
0.0
 10
87.312508
 20
14.816666
 30
0.0
  0
SPLINE
  5
18f
100
AcDbEntity
  8
Layer_1
 62
7
100
AcDbSpline
 70
8
 71
3
 72
8
 73
4
 74
0
 40
0
 40
0
 40
0
 40
0
 40
1
 40
1
 40
1
 40
1
 10
87.312508
 20
14.816666
 30
0.0
 10
87.653298
 20
15.544276
 30
0.0
 10
88.032548
 20
16.139586
 30
0.0
 10
88.155288
 20
16.139586
 30
0.0
  0
SPLINE
  5
190
100
AcDbEntity
  8
Layer_1
 62
7
100
AcDbSpline
 70
8
 71
3
 72
8
 73
4
 74
0
 40
0
 40
0
 40
0
 40
0
 40
1
 40
1
 40
1
 40
1
 10
88.155288
 20
16.139586
 30
0.0
 10
88.278028
 20
16.139586
 30
0.0
 10
88.019558
 20
15.428606
 30
0.0
 10
87.580898
 20
14.559626
 30
0.0
  0
SPLINE
  5
191
100
AcDbEntity
  8
Layer_1
 62
7
100
AcDbSpline
 70
8
 71
3
 72
8
 73
4
 74
0
 40
0
 40
0
 40
0
 40
0
 40
1
 40
1
 40
1
 40
1
 10
87.580898
 20
14.559626
 30
0.0
 10
87.043878
 20
13.495806
 30
0.0
 10
86.783338
 20
12.588266
 30
0.0
 10
86.783338
 20
11.781506
 30
0.0
  0
SPLINE
  5
192
100
AcDbEntity
  8
Layer_1
 62
7
100
AcDbSpline
 70
8
 71
3
 72
8
 73
4
 74
0
 40
0
 40
0
 40
0
 40
0
 40
1
 40
1
 40
1
 40
1
 10
86.783338
 20
11.781506
 30
0.0
 10
86.783338
 20
11.122506
 30
0.0
 10
86.664278
 20
10.583336
 30
0.0
 10
86.518758
 20
10.583336
 30
0.0
  0
SPLINE
  5
193
100
AcDbEntity
  8
Layer_1
 62
7
100
AcDbSpline
 70
8
 71
3
 72
8
 73
4
 74
0
 40
0
 40
0
 40
0
 40
0
 40
1
 40
1
 40
1
 40
1
 10
86.518758
 20
10.583336
 30
0.0
 10
86.373238
 20
10.583336
 30
0.0
 10
86.254168
 20
11.122506
 30
0.0
 10
86.254168
 20
11.781506
 30
0.0
  0
LWPOLYLINE
  5
194
100
AcDbEntity
  8
Layer_1
 62
7
100
AcDbPolyline
 90
1
 70
1
 10
82.285418
 20
13.212406
 30
0.0
  0
SPLINE
  5
195
100
AcDbEntity
  8
Layer_1
 62
7
100
AcDbSpline
 70
8
 71
3
 72
8
 73
4
 74
0
 40
0
 40
0
 40
0
 40
0
 40
1
 40
1
 40
1
 40
1
 10
17.327742
 20
20.968226
 30
0.0
 10
17.262762
 20
21.150126
 30
0.0
 10
16.246430
 20
24.930366
 30
0.0
 10
15.069233
 20
29.368746
 30
0.0
  0
SPLINE
  5
196
100
AcDbEntity
  8
Layer_1
 62
7
100
AcDbSpline
 70
8
 71
3
 72
8
 73
4
 74
0
 40
0
 40
0
 40
0
 40
0
 40
1
 40
1
 40
1
 40
1
 10
15.069233
 20
29.368746
 30
0.0
 10
13.892037
 20
33.807136
 30
0.0
 10
12.787203
 20
37.736196
 30
0.0
 10
12.614046
 20
38.100006
 30
0.0
  0
SPLINE
  5
197
100
AcDbEntity
  8
Layer_1
 62
7
100
AcDbSpline
 70
8
 71
3
 72
8
 73
4
 74
0
 40
0
 40
0
 40
0
 40
0
 40
1
 40
1
 40
1
 40
1
 10
12.614046
 20
38.100006
 30
0.0
 10
12.412870
 20
38.522676
 30
0.0
 10
12.037256
 20
38.791686
 30
0.0
 10
11.573567
 20
38.845176
 30
0.0
  0
SPLINE
  5
198
100
AcDbEntity
  8
Layer_1
 62
7
100
AcDbSpline
 70
8
 71
3
 72
8
 73
4
 74
0
 40
0
 40
0
 40
0
 40
0
 40
1
 40
1
 40
1
 40
1
 10
11.573567
 20
38.845176
 30
0.0
 10
11.061481
 20
38.904276
 30
0.0
 10
10.847917
 20
39.079466
 30
0.0
 10
10.847917
 20
39.440496
 30
0.0
  0
SPLINE
  5
199
100
AcDbEntity
  8
Layer_1
 62
7
100
AcDbSpline
 70
8
 71
3
 72
8
 73
4
 74
0
 40
0
 40
0
 40
0
 40
0
 40
1
 40
1
 40
1
 40
1
 10
10.847917
 20
39.440496
 30
0.0
 10
10.847917
 20
39.923486
 30
0.0
 10
11.069751
 20
39.952086
 30
0.0
 10
14.816668
 20
39.952086
 30
0.0
  0
SPLINE
  5
19a
100
AcDbEntity
  8
Layer_1
 62
7
100
AcDbSpline
 70
8
 71
3
 72
8
 73
4
 74
0
 40
0
 40
0
 40
0
 40
0
 40
1
 40
1
 40
1
 40
1
 10
14.816668
 20
39.952086
 30
0.0
 10
18.609029
 20
39.952086
 30
0.0
 10
18.785418
 20
39.928586
 30
0.0
 10
18.785418
 20
39.422916
 30
0.0
  0
SPLINE
  5
19b
100
AcDbEntity
  8
Layer_1
 62
7
100
AcDbSpline
 70
8
 71
3
 72
8
 73
4
 74
0
 40
0
 40
0
 40
0
 40
0
 40
1
 40
1
 40
1
 40
1
 10
18.785418
 20
39.422916
 30
0.0
 10
18.785418
 20
39.013706
 30
0.0
 10
18.609029
 20
38.893756
 30
0.0
 10
18.007283
 20
38.893756
 30
0.0
  0
SPLINE
  5
19c
100
AcDbEntity
  8
Layer_1
 62
7
100
AcDbSpline
 70
8
 71
3
 72
8
 73
4
 74
0
 40
0
 40
0
 40
0
 40
0
 40
1
 40
1
 40
1
 40
1
 10
18.007283
 20
38.893756
 30
0.0
 10
17.579308
 20
38.893756
 30
0.0
 10
17.150341
 20
38.766236
 30
0.0
 10
17.054023
 20
38.610396
 30
0.0
  0
SPLINE
  5
19d
100
AcDbEntity
  8
Layer_1
 62
7
100
AcDbSpline
 70
8
 71
3
 72
8
 73
4
 74
0
 40
0
 40
0
 40
0
 40
0
 40
1
 40
1
 40
1
 40
1
 10
17.054023
 20
38.610396
 30
0.0
 10
16.824877
 20
38.239626
 30
0.0
 10
20.121544
 20
25.035826
 30
0.0
 10
20.373048
 20
25.317036
 30
0.0
  0
SPLINE
  5
19e
100
AcDbEntity
  8
Layer_1
 62
7
100
AcDbSpline
 70
8
 71
3
 72
8
 73
4
 74
0
 40
0
 40
0
 40
0
 40
0
 40
1
 40
1
 40
1
 40
1
 10
20.373048
 20
25.317036
 30
0.0
 10
20.478927
 20
25.435426
 30
0.0
 10
20.689004
 20
26.068076
 30
0.0
 10
20.839886
 20
26.722916
 30
0.0
  0
SPLINE
  5
19f
100
AcDbEntity
  8
Layer_1
 62
7
100
AcDbSpline
 70
8
 71
3
 72
8
 73
4
 74
0
 40
0
 40
0
 40
0
 40
0
 40
1
 40
1
 40
1
 40
1
 10
20.839886
 20
26.722916
 30
0.0
 10
20.990768
 20
27.377766
 30
0.0
 10
21.731953
 20
30.503156
 30
0.0
 10
22.486964
 20
33.668226
 30
0.0
  0
LWPOLYLINE
  5
1a0
100
AcDbEntity
  8
Layer_1
 62
7
100
AcDbPolyline
 90
1
 70
1
 10
86.254168
 20
11.781506
 30
0.0
  0
SPLINE
  5
1a1
100
AcDbEntity
  8
Layer_1
 62
7
100
AcDbSpline
 70
8
 71
3
 72
8
 73
4
 74
0
 40
0
 40
0
 40
0
 40
0
 40
1
 40
1
 40
1
 40
1
 10
28.698422
 20
32.150186
 30
0.0
 10
29.712189
 20
28.151286
 30
0.0
 10
30.621183
 20
24.966796
 30
0.0
 10
30.718410
 20
25.073536
 30
0.0
  0
SPLINE
  5
1a2
100
AcDbEntity
  8
Layer_1
 62
7
100
AcDbSpline
 70
8
 71
3
 72
8
 73
4
 74
0
 40
0
 40
0
 40
0
 40
0
 40
1
 40
1
 40
1
 40
1
 10
30.718410
 20
25.073536
 30
0.0
 10
30.871532
 20
25.241646
 30
0.0
 10
33.244329
 20
34.812496
 30
0.0
 10
33.737398
 20
37.250856
 30
0.0
  0
SPLINE
  5
1a3
100
AcDbEntity
  8
Layer_1
 62
7
100
AcDbSpline
 70
8
 71
3
 72
8
 73
4
 74
0
 40
0
 40
0
 40
0
 40
0
 40
1
 40
1
 40
1
 40
1
 10
33.737398
 20
37.250856
 30
0.0
 10
33.956100
 20
38.332586
 30
0.0
 10
33.537215
 20
38.893866
 30
0.0
 10
32.511356
 20
38.893866
 30
0.0
  0
SPLINE
  5
1a4
100
AcDbEntity
  8
Layer_1
 62
7
100
AcDbSpline
 70
8
 71
3
 72
8
 73
4
 74
0
 40
0
 40
0
 40
0
 40
0
 40
1
 40
1
 40
1
 40
1
 10
32.511356
 20
38.893866
 30
0.0
 10
31.926392
 20
38.893866
 30
0.0
 10
31.750002
 20
39.016456
 30
0.0
 10
31.750002
 20
39.423026
 30
0.0
  0
SPLINE
  5
1a5
100
AcDbEntity
  8
Layer_1
 62
7
100
AcDbSpline
 70
8
 71
3
 72
8
 73
4
 74
0
 40
0
 40
0
 40
0
 40
0
 40
1
 40
1
 40
1
 40
1
 10
31.750002
 20
39.423026
 30
0.0
 10
31.750002
 20
39.921516
 30
0.0
 10
31.926392
 20
39.952196
 30
0.0
 10
34.792710
 20
39.952196
 30
0.0
  0
SPLINE
  5
1a6
100
AcDbEntity
  8
Layer_1
 62
7
100
AcDbSpline
 70
8
 71
3
 72
8
 73
4
 74
0
 40
0
 40
0
 40
0
 40
0
 40
1
 40
1
 40
1
 40
1
 10
34.792710
 20
39.952196
 30
0.0
 10
37.659029
 20
39.952196
 30
0.0
 10
37.835419
 20
39.921496
 30
0.0
 10
37.835419
 20
39.423026
 30
0.0
  0
SPLINE
  5
1a7
100
AcDbEntity
  8
Layer_1
 62
7
100
AcDbSpline
 70
8
 71
3
 72
8
 73
4
 74
0
 40
0
 40
0
 40
0
 40
0
 40
1
 40
1
 40
1
 40
1
 10
37.835419
 20
39.423026
 30
0.0
 10
37.835419
 20
39.088886
 30
0.0
 10
37.659029
 20
38.893866
 30
0.0
 10
37.356822
 20
38.893866
 30
0.0
  0
SPLINE
  5
1a8
100
AcDbEntity
  8
Layer_1
 62
7
100
AcDbSpline
 70
8
 71
3
 72
8
 73
4
 74
0
 40
0
 40
0
 40
0
 40
0
 40
1
 40
1
 40
1
 40
1
 10
37.356822
 20
38.893866
 30
0.0
 10
36.086388
 20
38.893866
 30
0.0
 10
35.732362
 20
37.949156
 30
0.0
 10
32.652353
 20
26.340106
 30
0.0
  0
LWPOLYLINE
  5
1a9
100
AcDbEntity
  8
Layer_1
 62
7
100
AcDbPolyline
 90
5
 70
0
 10
22.486964
 20
33.668226
 30
0.0
 10
23.859713
 20
39.422916
 30
0.0
 10
25.357461
 20
39.421916
 30
0.0
 10
26.855210
 20
39.420916
 30
0.0
 10
28.698422
 20
32.150186
 30
0.0
  0
SPLINE
  5
1aa
100
AcDbEntity
  8
Layer_1
 62
7
100
AcDbSpline
 70
8
 71
3
 72
8
 73
4
 74
0
 40
0
 40
0
 40
0
 40
0
 40
1
 40
1
 40
1
 40
1
 10
25.970349
 20
27.334086
 30
0.0
 10
25.023128
 20
30.944436
 30
0.0
 10
24.166383
 20
33.742406
 30
0.0
 10
24.066471
 20
33.551796
 30
0.0
  0
SPLINE
  5
1ab
100
AcDbEntity
  8
Layer_1
 62
7
100
AcDbSpline
 70
8
 71
3
 72
8
 73
4
 74
0
 40
0
 40
0
 40
0
 40
0
 40
1
 40
1
 40
1
 40
1
 10
24.066471
 20
33.551796
 30
0.0
 10
23.966561
 20
33.361186
 30
0.0
 10
23.186498
 20
30.377506
 30
0.0
 10
22.333004
 20
26.921386
 30
0.0
  0
LWPOLYLINE
  5
1ac
100
AcDbEntity
  8
Layer_1
 62
7
100
AcDbPolyline
 90
5
 70
0
 10
32.652353
 20
26.340106
 30
0.0
 10
31.133533
 20
20.615426
 30
0.0
 10
29.413051
 20
20.692626
 30
0.0
 10
27.692569
 20
20.769826
 30
0.0
 10
25.970349
 20
27.334086
 30
0.0
  0
SPLINE
  5
1ad
100
AcDbEntity
  8
Layer_1
 62
7
100
AcDbSpline
 70
8
 71
3
 72
8
 73
4
 74
0
 40
0
 40
0
 40
0
 40
0
 40
1
 40
1
 40
1
 40
1
 10
19.113545
 20
20.637526
 30
0.0
 10
18.018827
 20
20.637526
 30
0.0
 10
17.405302
 20
20.751156
 30
0.0
 10
17.327742
 20
20.968256
 30
0.0
  0
LWPOLYLINE
  5
1ae
100
AcDbEntity
  8
Layer_1
 62
7
100
AcDbPolyline
 90
3
 70
0
 10
22.333004
 20
26.921386
 30
0.0
 10
20.781197
 20
20.637526
 30
0.0
 10
19.113545
 20
20.637526
 30
0.0
  0
SPLINE
  5
1af
100
AcDbEntity
  8
Layer_1
 62
7
100
AcDbSpline
 70
8
 71
3
 72
8
 73
4
 74
0
 40
0
 40
0
 40
0
 40
0
 40
1
 40
1
 40
1
 40
1
 10
33.337502
 20
20.902126
 30
0.0
 10
33.337502
 20
21.076716
 30
0.0
 10
42.156946
 20
21.166706
 30
0.0
 10
59.266670
 20
21.166706
 30
0.0
  0
SPLINE
  5
1b0
100
AcDbEntity
  8
Layer_1
 62
7
100
AcDbSpline
 70
8
 71
3
 72
8
 73
4
 74
0
 40
0
 40
0
 40
0
 40
0
 40
1
 40
1
 40
1
 40
1
 10
59.266670
 20
21.166706
 30
0.0
 10
76.376398
 20
21.166706
 30
0.0
 10
85.195838
 20
21.076706
 30
0.0
 10
85.195838
 20
20.902126
 30
0.0
  0
SPLINE
  5
1b1
100
AcDbEntity
  8
Layer_1
 62
7
100
AcDbSpline
 70
8
 71
3
 72
8
 73
4
 74
0
 40
0
 40
0
 40
0
 40
0
 40
1
 40
1
 40
1
 40
1
 10
85.195838
 20
20.902126
 30
0.0
 10
85.195838
 20
20.727536
 30
0.0
 10
76.376398
 20
20.637536
 30
0.0
 10
59.266670
 20
20.637536
 30
0.0
  0
SPLINE
  5
1b2
100
AcDbEntity
  8
Layer_1
 62
7
100
AcDbSpline
 70
8
 71
3
 72
8
 73
4
 74
0
 40
0
 40
0
 40
0
 40
0
 40
1
 40
1
 40
1
 40
1
 10
59.266670
 20
20.637536
 30
0.0
 10
42.156946
 20
20.637536
 30
0.0
 10
33.337502
 20
20.727536
 30
0.0
 10
33.337502
 20
20.902126
 30
0.0
  0
LWPOLYLINE
  5
1b3
100
AcDbEntity
  8
Layer_1
 62
7
100
AcDbPolyline
 90
1
 70
1
 10
17.327742
 20
20.968256
 30
0.0
  0
SPLINE
  5
1b4
100
AcDbEntity
  8
Layer_1
 62
7
100
AcDbSpline
 70
8
 71
3
 72
8
 73
4
 74
0
 40
0
 40
0
 40
0
 40
0
 40
1
 40
1
 40
1
 40
1
 10
87.841668
 20
21.166706
 30
0.0
 10
87.841668
 20
21.555586
 30
0.0
 10
88.018058
 20
21.695876
 30
0.0
 10
88.507018
 20
21.695876
 30
0.0
  0
SPLINE
  5
1b5
100
AcDbEntity
  8
Layer_1
 62
7
100
AcDbSpline
 70
8
 71
3
 72
8
 73
4
 74
0
 40
0
 40
0
 40
0
 40
0
 40
1
 40
1
 40
1
 40
1
 10
88.507018
 20
21.695876
 30
0.0
 10
88.964738
 20
21.695876
 30
0.0
 10
89.325168
 20
21.947146
 30
0.0
 10
89.662028
 20
22.501066
 30
0.0
  0
SPLINE
  5
1b6
100
AcDbEntity
  8
Layer_1
 62
7
100
AcDbSpline
 70
8
 71
3
 72
8
 73
4
 74
0
 40
0
 40
0
 40
0
 40
0
 40
1
 40
1
 40
1
 40
1
 10
89.662028
 20
22.501066
 30
0.0
 10
89.931348
 20
22.943916
 30
0.0
 10
91.434728
 20
27.051566
 30
0.0
 10
93.002878
 20
31.629186
 30
0.0
  0
LWPOLYLINE
  5
1b7
100
AcDbEntity
  8
Layer_1
 62
7
100
AcDbPolyline
 90
1
 70
1
 10
33.337502
 20
20.902126
 30
0.0
  0
SPLINE
  5
1b8
100
AcDbEntity
  8
Layer_1
 62
7
100
AcDbSpline
 70
8
 71
3
 72
8
 73
4
 74
0
 40
0
 40
0
 40
0
 40
0
 40
1
 40
1
 40
1
 40
1
 10
102.120228
 20
30.983716
 30
0.0
 10
105.050518
 20
21.995886
 30
0.0
 10
105.188248
 20
21.695876
 30
0.0
 10
106.384148
 20
21.695876
 30
0.0
  0
SPLINE
  5
1b9
100
AcDbEntity
  8
Layer_1
 62
7
100
AcDbSpline
 70
8
 71
3
 72
8
 73
4
 74
0
 40
0
 40
0
 40
0
 40
0
 40
1
 40
1
 40
1
 40
1
 10
106.384148
 20
21.695876
 30
0.0
 10
106.715278
 20
21.695876
 30
0.0
 10
106.891668
 20
21.511966
 30
0.0
 10
106.891668
 20
21.166706
 30
0.0
  0
SPLINE
  5
1ba
100
AcDbEntity
  8
Layer_1
 62
7
100
AcDbSpline
 70
8
 71
3
 72
8
 73
4
 74
0
 40
0
 40
0
 40
0
 40
0
 40
1
 40
1
 40
1
 40
1
 10
106.891668
 20
21.166706
 30
0.0
 10
106.891668
 20
20.658926
 30
0.0
 10
106.715278
 20
20.637536
 30
0.0
 10
102.526048
 20
20.637536
 30
0.0
  0
SPLINE
  5
1bb
100
AcDbEntity
  8
Layer_1
 62
7
100
AcDbSpline
 70
8
 71
3
 72
8
 73
4
 74
0
 40
0
 40
0
 40
0
 40
0
 40
1
 40
1
 40
1
 40
1
 10
102.526048
 20
20.637536
 30
0.0
 10
98.382098
 20
20.637536
 30
0.0
 10
98.160418
 20
20.663636
 30
0.0
 10
98.160418
 20
21.150736
 30
0.0
  0
SPLINE
  5
1bc
100
AcDbEntity
  8
Layer_1
 62
7
100
AcDbSpline
 70
8
 71
3
 72
8
 73
4
 74
0
 40
0
 40
0
 40
0
 40
0
 40
1
 40
1
 40
1
 40
1
 10
98.160418
 20
21.150736
 30
0.0
 10
98.160418
 20
21.552536
 30
0.0
 10
98.375308
 20
21.681756
 30
0.0
 10
99.150408
 20
21.746046
 30
0.0
  0
SPLINE
  5
1bd
100
AcDbEntity
  8
Layer_1
 62
7
100
AcDbSpline
 70
8
 71
3
 72
8
 73
4
 74
0
 40
0
 40
0
 40
0
 40
0
 40
1
 40
1
 40
1
 40
1
 10
99.150408
 20
21.746046
 30
0.0
 10
100.464798
 20
21.855076
 30
0.0
 10
100.522208
 20
22.298686
 30
0.0
 10
99.596678
 20
25.194756
 30
0.0
  0
LWPOLYLINE
  5
1be
100
AcDbEntity
  8
Layer_1
 62
7
100
AcDbPolyline
 90
5
 70
0
 10
93.002878
 20
31.629186
 30
0.0
 10
95.854058
 20
39.952126
 30
0.0
 10
97.525168
 20
39.952126
 30
0.0
 10
99.196278
 20
39.952126
 30
0.0
 10
102.120228
 20
30.983716
 30
0.0
  0
SPLINE
  5
1bf
100
AcDbEntity
  8
Layer_1
 62
7
100
AcDbSpline
 70
8
 71
3
 72
8
 73
4
 74
0
 40
0
 40
0
 40
0
 40
0
 40
1
 40
1
 40
1
 40
1
 10
92.511508
 20
24.873066
 30
0.0
 10
92.107238
 20
23.419066
 30
0.0
 10
91.850668
 20
22.109386
 30
0.0
 10
91.941358
 20
21.962656
 30
0.0
  0
SPLINE
  5
1c0
100
AcDbEntity
  8
Layer_1
 62
7
100
AcDbSpline
 70
8
 71
3
 72
8
 73
4
 74
0
 40
0
 40
0
 40
0
 40
0
 40
1
 40
1
 40
1
 40
1
 10
91.941358
 20
21.962656
 30
0.0
 10
92.032058
 20
21.815926
 30
0.0
 10
92.575458
 20
21.695876
 30
0.0
 10
93.148958
 20
21.695876
 30
0.0
  0
SPLINE
  5
1c1
100
AcDbEntity
  8
Layer_1
 62
7
100
AcDbSpline
 70
8
 71
3
 72
8
 73
4
 74
0
 40
0
 40
0
 40
0
 40
0
 40
1
 40
1
 40
1
 40
1
 10
93.148958
 20
21.695876
 30
0.0
 10
94.015278
 20
21.695876
 30
0.0
 10
94.191668
 20
21.606376
 30
0.0
 10
94.191668
 20
21.166706
 30
0.0
  0
SPLINE
  5
1c2
100
AcDbEntity
  8
Layer_1
 62
7
100
AcDbSpline
 70
8
 71
3
 72
8
 73
4
 74
0
 40
0
 40
0
 40
0
 40
0
 40
1
 40
1
 40
1
 40
1
 10
94.191668
 20
21.166706
 30
0.0
 10
94.191668
 20
20.666936
 30
0.0
 10
94.015278
 20
20.637536
 30
0.0
 10
91.016668
 20
20.637536
 30
0.0
  0
SPLINE
  5
1c3
100
AcDbEntity
  8
Layer_1
 62
7
100
AcDbSpline
 70
8
 71
3
 72
8
 73
4
 74
0
 40
0
 40
0
 40
0
 40
0
 40
1
 40
1
 40
1
 40
1
 10
91.016668
 20
20.637536
 30
0.0
 10
88.018058
 20
20.637536
 30
0.0
 10
87.841668
 20
20.666936
 30
0.0
 10
87.841668
 20
21.166706
 30
0.0
  0
LWPOLYLINE
  5
1c4
100
AcDbEntity
  8
Layer_1
 62
7
100
AcDbPolyline
 90
5
 70
0
 10
99.596678
 20
25.194756
 30
0.0
 10
98.854628
 20
27.516706
 30
0.0
 10
96.050588
 20
27.516706
 30
0.0
 10
93.246538
 20
27.516706
 30
0.0
 10
92.511508
 20
24.873066
 30
0.0
  0
SPLINE
  5
1c5
100
AcDbEntity
  8
Layer_1
 62
7
100
AcDbSpline
 70
8
 71
3
 72
8
 73
4
 74
0
 40
0
 40
0
 40
0
 40
0
 40
1
 40
1
 40
1
 40
1
 10
98.336578
 20
29.217596
 30
0.0
 10
98.256778
 20
29.425476
 30
0.0
 10
97.812178
 20
30.883996
 30
0.0
 10
97.348528
 20
32.458736
 30
0.0
  0
SPLINE
  5
1c6
100
AcDbEntity
  8
Layer_1
 62
7
100
AcDbSpline
 70
8
 71
3
 72
8
 73
4
 74
0
 40
0
 40
0
 40
0
 40
0
 40
1
 40
1
 40
1
 40
1
 10
97.348528
 20
32.458736
 30
0.0
 10
96.884868
 20
34.033486
 30
0.0
 10
96.409618
 20
35.500506
 30
0.0
 10
96.292428
 20
35.718796
 30
0.0
  0
SPLINE
  5
1c7
100
AcDbEntity
  8
Layer_1
 62
7
100
AcDbSpline
 70
8
 71
3
 72
8
 73
4
 74
0
 40
0
 40
0
 40
0
 40
0
 40
1
 40
1
 40
1
 40
1
 10
96.292428
 20
35.718796
 30
0.0
 10
96.032208
 20
36.203446
 30
0.0
 10
96.122458
 20
36.416446
 30
0.0
 10
94.750958
 20
32.080766
 30
0.0
  0
LWPOLYLINE
  5
1c8
100
AcDbEntity
  8
Layer_1
 62
7
100
AcDbPolyline
 90
1
 70
1
 10
87.841668
 20
21.166706
 30
0.0
  0
SPLINE
  5
1c9
100
AcDbEntity
  8
Layer_1
 62
7
100
AcDbSpline
 70
8
 71
3
 72
8
 73
4
 74
0
 40
0
 40
0
 40
0
 40
0
 40
1
 40
1
 40
1
 40
1
 10
96.103648
 20
28.839626
 30
0.0
 10
98.055838
 20
28.839626
 30
0.0
 10
98.455648
 20
28.907326
 30
0.0
 10
98.336578
 20
29.217596
 30
0.0
  0
LWPOLYLINE
  5
1ca
100
AcDbEntity
  8
Layer_1
 62
7
100
AcDbPolyline
 90
3
 70
0
 10
94.750958
 20
32.080766
 30
0.0
 10
93.725688
 20
28.839626
 30
0.0
 10
96.103648
 20
28.839626
 30
0.0
  0
SPLINE
  5
1cb
100
AcDbEntity
  8
Layer_1
 62
7
100
AcDbSpline
 70
8
 71
3
 72
8
 73
4
 74
0
 40
0
 40
0
 40
0
 40
0
 40
1
 40
1
 40
1
 40
1
 10
66.913912
 20
25.395856
 30
0.0
 10
64.777171
 20
25.770606
 30
0.0
 10
63.339981
 20
26.837166
 30
0.0
 10
62.273438
 20
28.839626
 30
0.0
  0
SPLINE
  5
1cc
100
AcDbEntity
  8
Layer_1
 62
7
100
AcDbSpline
 70
8
 71
3
 72
8
 73
4
 74
0
 40
0
 40
0
 40
0
 40
0
 40
1
 40
1
 40
1
 40
1
 10
62.273438
 20
28.839626
 30
0.0
 10
61.565415
 20
30.168946
 30
0.0
 10
61.561925
 20
35.147566
 30
0.0
 10
62.268038
 20
36.567396
 30
0.0
  0
SPLINE
  5
1cd
100
AcDbEntity
  8
Layer_1
 62
7
100
AcDbSpline
 70
8
 71
3
 72
8
 73
4
 74
0
 40
0
 40
0
 40
0
 40
0
 40
1
 40
1
 40
1
 40
1
 10
62.268038
 20
36.567396
 30
0.0
 10
63.456355
 20
38.956886
 30
0.0
 10
65.467940
 20
40.058816
 30
0.0
 10
68.659388
 20
40.068546
 30
0.0
  0
SPLINE
  5
1ce
100
AcDbEntity
  8
Layer_1
 62
7
100
AcDbSpline
 70
8
 71
3
 72
8
 73
4
 74
0
 40
0
 40
0
 40
0
 40
0
 40
1
 40
1
 40
1
 40
1
 10
68.659388
 20
40.068546
 30
0.0
 10
72.304358
 20
40.079646
 30
0.0
 10
74.405968
 20
38.565126
 30
0.0
 10
75.293048
 20
35.288006
 30
0.0
  0
SPLINE
  5
1cf
100
AcDbEntity
  8
Layer_1
 62
7
100
AcDbSpline
 70
8
 71
3
 72
8
 73
4
 74
0
 40
0
 40
0
 40
0
 40
0
 40
1
 40
1
 40
1
 40
1
 10
75.293048
 20
35.288006
 30
0.0
 10
76.063358
 20
32.442236
 30
0.0
 10
75.320848
 20
28.522976
 30
0.0
 10
73.727938
 20
27.026496
 30
0.0
  0
SPLINE
  5
1d0
100
AcDbEntity
  8
Layer_1
 62
7
100
AcDbSpline
 70
8
 71
3
 72
8
 73
4
 74
0
 40
0
 40
0
 40
0
 40
0
 40
1
 40
1
 40
1
 40
1
 10
73.727938
 20
27.026496
 30
0.0
 10
72.322218
 20
25.705886
 30
0.0
 10
69.287298
 20
24.979616
 30
0.0
 10
66.913928
 20
25.395856
 30
0.0
  0
LWPOLYLINE
  5
1d1
100
AcDbEntity
  8
Layer_1
 62
7
100
AcDbPolyline
 90
1
 70
1
 10
98.336578
 20
29.217596
 30
0.0
  0
SPLINE
  5
1d2
100
AcDbEntity
  8
Layer_1
 62
7
100
AcDbSpline
 70
8
 71
3
 72
8
 73
4
 74
0
 40
0
 40
0
 40
0
 40
0
 40
1
 40
1
 40
1
 40
1
 10
70.469848
 20
26.737496
 30
0.0
 10
71.470108
 20
27.524296
 30
0.0
 10
71.966668
 20
29.494406
 30
0.0
 10
71.966668
 20
32.676086
 30
0.0
  0
SPLINE
  5
1d3
100
AcDbEntity
  8
Layer_1
 62
7
100
AcDbSpline
 70
8
 71
3
 72
8
 73
4
 74
0
 40
0
 40
0
 40
0
 40
0
 40
1
 40
1
 40
1
 40
1
 10
71.966668
 20
32.676086
 30
0.0
 10
71.966668
 20
35.827106
 30
0.0
 10
71.468328
 20
37.829266
 30
0.0
 10
70.493108
 20
38.596376
 30
0.0
  0
SPLINE
  5
1d4
100
AcDbEntity
  8
Layer_1
 62
7
100
AcDbSpline
 70
8
 71
3
 72
8
 73
4
 74
0
 40
0
 40
0
 40
0
 40
0
 40
1
 40
1
 40
1
 40
1
 10
70.493108
 20
38.596376
 30
0.0
 10
68.801438
 20
39.927046
 30
0.0
 10
66.832685
 20
39.399456
 30
0.0
 10
65.834034
 20
37.347836
 30
0.0
  0
SPLINE
  5
1d5
100
AcDbEntity
  8
Layer_1
 62
7
100
AcDbSpline
 70
8
 71
3
 72
8
 73
4
 74
0
 40
0
 40
0
 40
0
 40
0
 40
1
 40
1
 40
1
 40
1
 10
65.834034
 20
37.347836
 30
0.0
 10
65.318726
 20
36.289206
 30
0.0
 10
65.233236
 20
35.687146
 30
0.0
 10
65.227026
 20
33.072956
 30
0.0
  0
SPLINE
  5
1d6
100
AcDbEntity
  8
Layer_1
 62
7
100
AcDbSpline
 70
8
 71
3
 72
8
 73
4
 74
0
 40
0
 40
0
 40
0
 40
0
 40
1
 40
1
 40
1
 40
1
 10
65.227026
 20
33.072956
 30
0.0
 10
65.218026
 20
29.296876
 30
0.0
 10
65.426795
 20
28.280546
 30
0.0
 10
66.450881
 20
27.114176
 30
0.0
  0
SPLINE
  5
1d7
100
AcDbEntity
  8
Layer_1
 62
7
100
AcDbSpline
 70
8
 71
3
 72
8
 73
4
 74
0
 40
0
 40
0
 40
0
 40
0
 40
1
 40
1
 40
1
 40
1
 10
66.450881
 20
27.114176
 30
0.0
 10
67.160998
 20
26.305396
 30
0.0
 10
67.411748
 20
26.193786
 30
0.0
 10
68.518818
 20
26.193786
 30
0.0
  0
SPLINE
  5
1d8
100
AcDbEntity
  8
Layer_1
 62
7
100
AcDbSpline
 70
8
 71
3
 72
8
 73
4
 74
0
 40
0
 40
0
 40
0
 40
0
 40
1
 40
1
 40
1
 40
1
 10
68.518818
 20
26.193786
 30
0.0
 10
69.389238
 20
26.193786
 30
0.0
 10
69.992288
 20
26.361846
 30
0.0
 10
70.469848
 20
26.737496
 30
0.0
  0
LWPOLYLINE
  5
1d9
100
AcDbEntity
  8
Layer_1
 62
7
100
AcDbPolyline
 90
1
 70
1
 10
66.913928
 20
25.395856
 30
0.0
  0
SPLINE
  5
1da
100
AcDbEntity
  8
Layer_1
 62
7
100
AcDbSpline
 70
8
 71
3
 72
8
 73
4
 74
0
 40
0
 40
0
 40
0
 40
0
 40
1
 40
1
 40
1
 40
1
 10
38.364586
 20
25.874496
 30
0.0
 10
38.364586
 20
25.989926
 30
0.0
 10
38.751539
 20
26.198276
 30
0.0
 10
39.224481
 20
26.337516
 30
0.0
  0
LWPOLYLINE
  5
1db
100
AcDbEntity
  8
Layer_1
 62
7
100
AcDbPolyline
 90
1
 70
1
 10
70.469848
 20
26.737496
 30
0.0
  0
SPLINE
  5
1dc
100
AcDbEntity
  8
Layer_1
 62
7
100
AcDbSpline
 70
8
 71
3
 72
8
 73
4
 74
0
 40
0
 40
0
 40
0
 40
0
 40
1
 40
1
 40
1
 40
1
 10
40.155667
 20
32.510476
 30
0.0
 10
40.231387
 20
38.797486
 30
0.0
 10
40.168307
 20
39.158376
 30
0.0
 10
38.993643
 20
39.158376
 30
0.0
  0
SPLINE
  5
1dd
100
AcDbEntity
  8
Layer_1
 62
7
100
AcDbSpline
 70
8
 71
3
 72
8
 73
4
 74
0
 40
0
 40
0
 40
0
 40
0
 40
1
 40
1
 40
1
 40
1
 10
38.993643
 20
39.158376
 30
0.0
 10
38.610865
 20
39.158376
 30
0.0
 10
38.364581
 20
39.313756
 30
0.0
 10
38.364581
 20
39.555246
 30
0.0
  0
SPLINE
  5
1de
100
AcDbEntity
  8
Layer_1
 62
7
100
AcDbSpline
 70
8
 71
3
 72
8
 73
4
 74
0
 40
0
 40
0
 40
0
 40
0
 40
1
 40
1
 40
1
 40
1
 10
38.364581
 20
39.555246
 30
0.0
 10
38.364581
 20
39.886856
 30
0.0
 10
38.908447
 20
39.952126
 30
0.0
 10
41.671872
 20
39.952126
 30
0.0
  0
SPLINE
  5
1df
100
AcDbEntity
  8
Layer_1
 62
7
100
AcDbSpline
 70
8
 71
3
 72
8
 73
4
 74
0
 40
0
 40
0
 40
0
 40
0
 40
1
 40
1
 40
1
 40
1
 10
41.671872
 20
39.952126
 30
0.0
 10
44.367194
 20
39.952126
 30
0.0
 10
44.979164
 20
39.881926
 30
0.0
 10
44.979164
 20
39.572826
 30
0.0
  0
SPLINE
  5
1e0
100
AcDbEntity
  8
Layer_1
 62
7
100
AcDbSpline
 70
8
 71
3
 72
8
 73
4
 74
0
 40
0
 40
0
 40
0
 40
0
 40
1
 40
1
 40
1
 40
1
 10
44.979164
 20
39.572826
 30
0.0
 10
44.979164
 20
39.355726
 30
0.0
 10
44.668014
 20
39.157726
 30
0.0
 10
44.251560
 20
39.109806
 30
0.0
  0
LWPOLYLINE
  5
1e1
100
AcDbEntity
  8
Layer_1
 62
7
100
AcDbPolyline
 90
3
 70
0
 10
39.224481
 20
26.337516
 30
0.0
 10
40.084377
 20
26.590666
 30
0.0
 10
40.155667
 20
32.510476
 30
0.0
  0
SPLINE
  5
1e2
100
AcDbEntity
  8
Layer_1
 62
7
100
AcDbSpline
 70
8
 71
3
 72
8
 73
4
 74
0
 40
0
 40
0
 40
0
 40
0
 40
1
 40
1
 40
1
 40
1
 10
44.180608
 20
26.287376
 30
0.0
 10
45.920566
 20
25.939386
 30
0.0
 10
44.813751
 20
25.664646
 30
0.0
 10
41.671868
 20
25.664646
 30
0.0
  0
SPLINE
  5
1e3
100
AcDbEntity
  8
Layer_1
 62
7
100
AcDbSpline
 70
8
 71
3
 72
8
 73
4
 74
0
 40
0
 40
0
 40
0
 40
0
 40
1
 40
1
 40
1
 40
1
 10
41.671868
 20
25.664646
 30
0.0
 10
39.852858
 20
25.664646
 30
0.0
 10
38.364577
 20
25.759046
 30
0.0
 10
38.364577
 20
25.874516
 30
0.0
  0
LWPOLYLINE
  5
1e4
100
AcDbEntity
  8
Layer_1
 62
7
100
AcDbPolyline
 90
5
 70
0
 10
44.251560
 20
39.109806
 30
0.0
 10
43.523956
 20
39.026106
 30
0.0
 10
43.453006
 20
32.736596
 30
0.0
 10
43.382056
 20
26.447086
 30
0.0
 10
44.180608
 20
26.287376
 30
0.0
  0
SPLINE
  5
1e5
100
AcDbEntity
  8
Layer_1
 62
7
100
AcDbSpline
 70
8
 71
3
 72
8
 73
4
 74
0
 40
0
 40
0
 40
0
 40
0
 40
1
 40
1
 40
1
 40
1
 10
45.772919
 20
25.900496
 30
0.0
 10
45.772919
 20
26.030246
 30
0.0
 10
46.068763
 20
26.210646
 30
0.0
 10
46.430348
 20
26.301406
 30
0.0
  0
SPLINE
  5
1e6
100
AcDbEntity
  8
Layer_1
 62
7
100
AcDbSpline
 70
8
 71
3
 72
8
 73
4
 74
0
 40
0
 40
0
 40
0
 40
0
 40
1
 40
1
 40
1
 40
1
 10
46.430348
 20
26.301406
 30
0.0
 10
46.811441
 20
26.397006
 30
0.0
 10
47.148718
 20
26.714936
 30
0.0
 10
47.232766
 20
27.057686
 30
0.0
  0
SPLINE
  5
1e7
100
AcDbEntity
  8
Layer_1
 62
7
100
AcDbSpline
 70
8
 71
3
 72
8
 73
4
 74
0
 40
0
 40
0
 40
0
 40
0
 40
1
 40
1
 40
1
 40
1
 10
47.232766
 20
27.057686
 30
0.0
 10
47.312506
 20
27.382896
 30
0.0
 10
47.344087
 20
30.208816
 30
0.0
 10
47.302946
 20
33.337516
 30
0.0
  0
LWPOLYLINE
  5
1e8
100
AcDbEntity
  8
Layer_1
 62
7
100
AcDbPolyline
 90
1
 70
1
 10
38.364577
 20
25.874516
 30
0.0
  0
SPLINE
  5
1e9
100
AcDbEntity
  8
Layer_1
 62
7
100
AcDbSpline
 70
8
 71
3
 72
8
 73
4
 74
0
 40
0
 40
0
 40
0
 40
0
 40
1
 40
1
 40
1
 40
1
 10
46.500531
 20
39.109756
 30
0.0
 10
46.084077
 20
39.157656
 30
0.0
 10
45.772927
 20
39.355676
 30
0.0
 10
45.772927
 20
39.572776
 30
0.0
  0
SPLINE
  5
1ea
100
AcDbEntity
  8
Layer_1
 62
7
100
AcDbSpline
 70
8
 71
3
 72
8
 73
4
 74
0
 40
0
 40
0
 40
0
 40
0
 40
1
 40
1
 40
1
 40
1
 10
45.772927
 20
39.572776
 30
0.0
 10
45.772927
 20
39.873796
 30
0.0
 10
46.260406
 20
39.952076
 30
0.0
 10
48.134979
 20
39.952076
 30
0.0
  0
LWPOLYLINE
  5
1eb
100
AcDbEntity
  8
Layer_1
 62
7
100
AcDbPolyline
 90
3
 70
0
 10
47.302946
 20
33.337516
 30
0.0
 10
47.228136
 20
39.026056
 30
0.0
 10
46.500531
 20
39.109756
 30
0.0
  0
SPLINE
  5
1ec
100
AcDbEntity
  8
Layer_1
 62
7
100
AcDbSpline
 70
8
 71
3
 72
8
 73
4
 74
0
 40
0
 40
0
 40
0
 40
0
 40
1
 40
1
 40
1
 40
1
 10
53.888048
 20
34.858846
 30
0.0
 10
57.790020
 20
28.998166
 30
0.0
 10
57.527638
 20
28.977506
 30
0.0
 10
57.371483
 20
35.133276
 30
0.0
  0
SPLINE
  5
1ed
100
AcDbEntity
  8
Layer_1
 62
7
100
AcDbSpline
 70
8
 71
3
 72
8
 73
4
 74
0
 40
0
 40
0
 40
0
 40
0
 40
1
 40
1
 40
1
 40
1
 10
57.371483
 20
35.133276
 30
0.0
 10
57.276563
 20
38.874996
 30
0.0
 10
57.177110
 20
39.145536
 30
0.0
 10
55.893240
 20
39.154276
 30
0.0
  0
SPLINE
  5
1ee
100
AcDbEntity
  8
Layer_1
 62
7
100
AcDbSpline
 70
8
 71
3
 72
8
 73
4
 74
0
 40
0
 40
0
 40
0
 40
0
 40
1
 40
1
 40
1
 40
1
 10
55.893240
 20
39.154276
 30
0.0
 10
55.542263
 20
39.156276
 30
0.0
 10
55.297928
 20
39.321216
 30
0.0
 10
55.297928
 20
39.555196
 30
0.0
  0
SPLINE
  5
1ef
100
AcDbEntity
  8
Layer_1
 62
7
100
AcDbSpline
 70
8
 71
3
 72
8
 73
4
 74
0
 40
0
 40
0
 40
0
 40
0
 40
1
 40
1
 40
1
 40
1
 10
55.297928
 20
39.555196
 30
0.0
 10
55.297928
 20
39.878576
 30
0.0
 10
55.738901
 20
39.952076
 30
0.0
 10
57.679178
 20
39.952076
 30
0.0
  0
SPLINE
  5
1f0
100
AcDbEntity
  8
Layer_1
 62
7
100
AcDbSpline
 70
8
 71
3
 72
8
 73
4
 74
0
 40
0
 40
0
 40
0
 40
0
 40
1
 40
1
 40
1
 40
1
 10
57.679178
 20
39.952076
 30
0.0
 10
59.537008
 20
39.952076
 30
0.0
 10
60.060428
 20
39.871176
 30
0.0
 10
60.060428
 20
39.583886
 30
0.0
  0
SPLINE
  5
1f1
100
AcDbEntity
  8
Layer_1
 62
7
100
AcDbSpline
 70
8
 71
3
 72
8
 73
4
 74
0
 40
0
 40
0
 40
0
 40
0
 40
1
 40
1
 40
1
 40
1
 10
60.060428
 20
39.583886
 30
0.0
 10
60.060428
 20
39.381376
 30
0.0
 10
59.777964
 20
39.144796
 30
0.0
 10
59.432728
 20
39.058146
 30
0.0
  0
SPLINE
  5
1f2
100
AcDbEntity
  8
Layer_1
 62
7
100
AcDbSpline
 70
8
 71
3
 72
8
 73
4
 74
0
 40
0
 40
0
 40
0
 40
0
 40
1
 40
1
 40
1
 40
1
 10
59.432728
 20
39.058146
 30
0.0
 10
58.556092
 20
38.838126
 30
0.0
 10
58.472928
 20
38.179106
 30
0.0
 10
58.472928
 20
31.452336
 30
0.0
  0
LWPOLYLINE
  5
1f3
100
AcDbEntity
  8
Layer_1
 62
7
100
AcDbPolyline
 90
3
 70
0
 10
48.134979
 20
39.952076
 30
0.0
 10
50.497031
 20
39.952076
 30
0.0
 10
53.888048
 20
34.858846
 30
0.0
  0
SPLINE
  5
1f4
100
AcDbEntity
  8
Layer_1
 62
7
100
AcDbSpline
 70
8
 71
3
 72
8
 73
4
 74
0
 40
0
 40
0
 40
0
 40
0
 40
1
 40
1
 40
1
 40
1
 10
57.310611
 20
25.664576
 30
0.0
 10
56.556360
 20
25.664576
 30
0.0
 10
56.098202
 20
25.795106
 30
0.0
 10
56.005622
 20
26.036366
 30
0.0
  0
SPLINE
  5
1f5
100
AcDbEntity
  8
Layer_1
 62
7
100
AcDbSpline
 70
8
 71
3
 72
8
 73
4
 74
0
 40
0
 40
0
 40
0
 40
0
 40
1
 40
1
 40
1
 40
1
 10
56.005622
 20
26.036366
 30
0.0
 10
55.927152
 20
26.240856
 30
0.0
 10
54.277303
 20
28.827416
 30
0.0
 10
52.339293
 20
31.784286
 30
0.0
  0
LWPOLYLINE
  5
1f6
100
AcDbEntity
  8
Layer_1
 62
7
100
AcDbPolyline
 90
3
 70
0
 10
58.472928
 20
31.452336
 30
0.0
 10
58.472928
 20
25.664576
 30
0.0
 10
57.310611
 20
25.664576
 30
0.0
  0
SPLINE
  5
1f7
100
AcDbEntity
  8
Layer_1
 62
7
100
AcDbSpline
 70
8
 71
3
 72
8
 73
4
 74
0
 40
0
 40
0
 40
0
 40
0
 40
1
 40
1
 40
1
 40
1
 10
48.743546
 20
32.008596
 30
0.0
 10
48.679036
 20
27.398036
 30
0.0
 10
48.719096
 20
26.821956
 30
0.0
 10
49.124845
 20
26.525266
 30
0.0
  0
SPLINE
  5
1f8
100
AcDbEntity
  8
Layer_1
 62
7
100
AcDbSpline
 70
8
 71
3
 72
8
 73
4
 74
0
 40
0
 40
0
 40
0
 40
0
 40
1
 40
1
 40
1
 40
1
 10
49.124845
 20
26.525266
 30
0.0
 10
49.374210
 20
26.342926
 30
0.0
 10
49.853132
 20
26.193736
 30
0.0
 10
50.189121
 20
26.193736
 30
0.0
  0
SPLINE
  5
1f9
100
AcDbEntity
  8
Layer_1
 62
7
100
AcDbSpline
 70
8
 71
3
 72
8
 73
4
 74
0
 40
0
 40
0
 40
0
 40
0
 40
1
 40
1
 40
1
 40
1
 10
50.189121
 20
26.193736
 30
0.0
 10
50.525110
 20
26.193736
 30
0.0
 10
50.800010
 20
26.074676
 30
0.0
 10
50.800010
 20
25.929156
 30
0.0
  0
SPLINE
  5
1fa
100
AcDbEntity
  8
Layer_1
 62
7
100
AcDbSpline
 70
8
 71
3
 72
8
 73
4
 74
0
 40
0
 40
0
 40
0
 40
0
 40
1
 40
1
 40
1
 40
1
 10
50.800010
 20
25.929156
 30
0.0
 10
50.800010
 20
25.771336
 30
0.0
 10
49.785775
 20
25.664576
 30
0.0
 10
48.286468
 20
25.664576
 30
0.0
  0
SPLINE
  5
1fb
100
AcDbEntity
  8
Layer_1
 62
7
100
AcDbSpline
 70
8
 71
3
 72
8
 73
4
 74
0
 40
0
 40
0
 40
0
 40
0
 40
1
 40
1
 40
1
 40
1
 10
48.286468
 20
25.664576
 30
0.0
 10
46.904020
 20
25.664576
 30
0.0
 10
45.772926
 20
25.770726
 30
0.0
 10
45.772926
 20
25.900476
 30
0.0
  0
LWPOLYLINE
  5
1fc
100
AcDbEntity
  8
Layer_1
 62
7
100
AcDbPolyline
 90
3
 70
0
 10
52.339293
 20
31.784286
 30
0.0
 10
48.815636
 20
37.160406
 30
0.0
 10
48.743546
 20
32.008596
 30
0.0
  0
SPLINE
  5
1fd
100
AcDbEntity
  8
Layer_1
 62
7
100
AcDbSpline
 70
8
 71
3
 72
8
 73
4
 74
0
 40
0
 40
0
 40
0
 40
0
 40
1
 40
1
 40
1
 40
1
 10
77.258338
 20
25.900496
 30
0.0
 10
77.258338
 20
26.030246
 30
0.0
 10
77.540798
 20
26.207296
 30
0.0
 10
77.886038
 20
26.293936
 30
0.0
  0
SPLINE
  5
1fe
100
AcDbEntity
  8
Layer_1
 62
7
100
AcDbSpline
 70
8
 71
3
 72
8
 73
4
 74
0
 40
0
 40
0
 40
0
 40
0
 40
1
 40
1
 40
1
 40
1
 10
77.886038
 20
26.293936
 30
0.0
 10
78.752648
 20
26.511446
 30
0.0
 10
78.845838
 20
27.193376
 30
0.0
 10
78.845838
 20
33.317666
 30
0.0
  0
SPLINE
  5
1ff
100
AcDbEntity
  8
Layer_1
 62
7
100
AcDbSpline
 70
8
 71
3
 72
8
 73
4
 74
0
 40
0
 40
0
 40
0
 40
0
 40
1
 40
1
 40
1
 40
1
 10
78.845838
 20
33.317666
 30
0.0
 10
78.845838
 20
38.705176
 30
0.0
 10
78.759638
 20
39.158346
 30
0.0
 10
77.734588
 20
39.158346
 30
0.0
  0
SPLINE
  5
200
100
AcDbEntity
  8
Layer_1
 62
7
100
AcDbSpline
 70
8
 71
3
 72
8
 73
4
 74
0
 40
0
 40
0
 40
0
 40
0
 40
1
 40
1
 40
1
 40
1
 10
77.734588
 20
39.158346
 30
0.0
 10
77.472648
 20
39.158346
 30
0.0
 10
77.258338
 20
39.336936
 30
0.0
 10
77.258338
 20
39.555216
 30
0.0
  0
SPLINE
  5
201
100
AcDbEntity
  8
Layer_1
 62
7
100
AcDbSpline
 70
8
 71
3
 72
8
 73
4
 74
0
 40
0
 40
0
 40
0
 40
0
 40
1
 40
1
 40
1
 40
1
 10
77.258338
 20
39.555216
 30
0.0
 10
77.258338
 20
39.878256
 30
0.0
 10
77.689038
 20
39.950876
 30
0.0
 10
79.573438
 20
39.945526
 30
0.0
  0
LWPOLYLINE
  5
202
100
AcDbEntity
  8
Layer_1
 62
7
100
AcDbPolyline
 90
1
 70
1
 10
45.772926
 20
25.900476
 30
0.0
  0
SPLINE
  5
203
100
AcDbEntity
  8
Layer_1
 62
7
100
AcDbSpline
 70
8
 71
3
 72
8
 73
4
 74
0
 40
0
 40
0
 40
0
 40
0
 40
1
 40
1
 40
1
 40
1
 10
88.634538
 20
34.144056
 30
0.0
 10
88.635488
 20
38.870116
 30
0.0
 10
88.556538
 20
39.157906
 30
0.0
 10
87.259588
 20
39.157906
 30
0.0
  0
SPLINE
  5
204
100
AcDbEntity
  8
Layer_1
 62
7
100
AcDbSpline
 70
8
 71
3
 72
8
 73
4
 74
0
 40
0
 40
0
 40
0
 40
0
 40
1
 40
1
 40
1
 40
1
 10
87.259588
 20
39.157906
 30
0.0
 10
86.777458
 20
39.157906
 30
0.0
 10
86.518758
 20
39.296496
 30
0.0
 10
86.518758
 20
39.554776
 30
0.0
  0
SPLINE
  5
205
100
AcDbEntity
  8
Layer_1
 62
7
100
AcDbSpline
 70
8
 71
3
 72
8
 73
4
 74
0
 40
0
 40
0
 40
0
 40
0
 40
1
 40
1
 40
1
 40
1
 10
86.518758
 20
39.554776
 30
0.0
 10
86.518758
 20
39.879706
 30
0.0
 10
86.974428
 20
39.951656
 30
0.0
 10
89.032298
 20
39.951656
 30
0.0
  0
SPLINE
  5
206
100
AcDbEntity
  8
Layer_1
 62
7
100
AcDbSpline
 70
8
 71
3
 72
8
 73
4
 74
0
 40
0
 40
0
 40
0
 40
0
 40
1
 40
1
 40
1
 40
1
 10
89.032298
 20
39.951656
 30
0.0
 10
91.090168
 20
39.951656
 30
0.0
 10
91.545838
 20
39.879656
 30
0.0
 10
91.545838
 20
39.554776
 30
0.0
  0
SPLINE
  5
207
100
AcDbEntity
  8
Layer_1
 62
7
100
AcDbSpline
 70
8
 71
3
 72
8
 73
4
 74
0
 40
0
 40
0
 40
0
 40
0
 40
1
 40
1
 40
1
 40
1
 10
91.545838
 20
39.554776
 30
0.0
 10
91.545838
 20
39.336496
 30
0.0
 10
91.311898
 20
39.157906
 30
0.0
 10
91.025978
 20
39.157906
 30
0.0
  0
SPLINE
  5
208
100
AcDbEntity
  8
Layer_1
 62
7
100
AcDbSpline
 70
8
 71
3
 72
8
 73
4
 74
0
 40
0
 40
0
 40
0
 40
0
 40
1
 40
1
 40
1
 40
1
 10
91.025978
 20
39.157906
 30
0.0
 10
90.078178
 20
39.157906
 30
0.0
 10
89.958338
 20
38.343126
 30
0.0
 10
89.958338
 20
31.899256
 30
0.0
  0
LWPOLYLINE
  5
209
100
AcDbEntity
  8
Layer_1
 62
7
100
AcDbPolyline
 90
5
 70
0
 10
79.573438
 20
39.945526
 30
0.0
 10
81.888548
 20
39.938526
 30
0.0
 10
85.261138
 20
34.851856
 30
0.0
 10
88.633738
 20
29.765196
 30
0.0
 10
88.634538
 20
34.144056
 30
0.0
  0
SPLINE
  5
20a
100
AcDbEntity
  8
Layer_1
 62
7
100
AcDbSpline
 70
8
 71
3
 72
8
 73
4
 74
0
 40
0
 40
0
 40
0
 40
0
 40
1
 40
1
 40
1
 40
1
 10
79.964058
 20
32.869046
 30
0.0
 10
79.877158
 20
27.388746
 30
0.0
 10
80.007458
 20
26.685526
 30
0.0
 10
81.173658
 20
26.337046
 30
0.0
  0
SPLINE
  5
20b
100
AcDbEntity
  8
Layer_1
 62
7
100
AcDbSpline
 70
8
 71
3
 72
8
 73
4
 74
0
 40
0
 40
0
 40
0
 40
0
 40
1
 40
1
 40
1
 40
1
 10
81.173658
 20
26.337046
 30
0.0
 10
82.639448
 20
25.899046
 30
0.0
 10
82.103938
 20
25.664156
 30
0.0
 10
79.639598
 20
25.664156
 30
0.0
  0
SPLINE
  5
20c
100
AcDbEntity
  8
Layer_1
 62
7
100
AcDbSpline
 70
8
 71
3
 72
8
 73
4
 74
0
 40
0
 40
0
 40
0
 40
0
 40
1
 40
1
 40
1
 40
1
 10
79.639598
 20
25.664156
 30
0.0
 10
78.329908
 20
25.664156
 30
0.0
 10
77.258348
 20
25.770306
 30
0.0
 10
77.258348
 20
25.900056
 30
0.0
  0
LWPOLYLINE
  5
20d
100
AcDbEntity
  8
Layer_1
 62
7
100
AcDbPolyline
 90
7
 70
0
 10
89.958338
 20
31.899256
 30
0.0
 10
89.958338
 20
25.664156
 30
0.0
 10
88.818228
 20
25.664156
 30
0.0
 10
87.678128
 20
25.664156
 30
0.0
 10
83.857298
 20
31.551136
 30
0.0
 10
80.036458
 20
37.438116
 30
0.0
 10
79.964058
 20
32.869046
 30
0.0
  0
SPLINE
  5
20e
100
AcDbEntity
  8
Layer_1
 62
7
100
AcDbSpline
 70
8
 71
3
 72
8
 73
4
 74
0
 40
0
 40
0
 40
0
 40
0
 40
1
 40
1
 40
1
 40
1
 10
66.807295
 20
46.623387
 30
0.0
 10
63.700627
 20
47.910360
 30
0.0
 10
61.895613
 20
48.222999
 30
0.0
 10
58.340628
 20
48.089866
 30
0.0
  0
SPLINE
  5
20f
100
AcDbEntity
  8
Layer_1
 62
7
100
AcDbSpline
 70
8
 71
3
 72
8
 73
4
 74
0
 40
0
 40
0
 40
0
 40
0
 40
1
 40
1
 40
1
 40
1
 10
58.340628
 20
48.089866
 30
0.0
 10
55.565564
 20
47.985941
 30
0.0
 10
54.815725
 20
47.850818
 30
0.0
 10
52.387823
 20
47.017145
 30
0.0
  0
SPLINE
  5
210
100
AcDbEntity
  8
Layer_1
 62
7
100
AcDbSpline
 70
8
 71
3
 72
8
 73
4
 74
0
 40
0
 40
0
 40
0
 40
0
 40
1
 40
1
 40
1
 40
1
 10
52.387823
 20
47.017145
 30
0.0
 10
50.860029
 20
46.492542
 30
0.0
 10
49.531389
 20
46.146811
 30
0.0
 10
49.435287
 20
46.248851
 30
0.0
  0
SPLINE
  5
211
100
AcDbEntity
  8
Layer_1
 62
7
100
AcDbSpline
 70
8
 71
3
 72
8
 73
4
 74
0
 40
0
 40
0
 40
0
 40
0
 40
1
 40
1
 40
1
 40
1
 10
49.435287
 20
46.248851
 30
0.0
 10
49.266393
 20
46.428185
 30
0.0
 10
47.936917
 20
54.304837
 30
0.0
 10
46.836126
 20
61.647921
 30
0.0
  0
SPLINE
  5
212
100
AcDbEntity
  8
Layer_1
 62
7
100
AcDbSpline
 70
8
 71
3
 72
8
 73
4
 74
0
 40
0
 40
0
 40
0
 40
0
 40
1
 40
1
 40
1
 40
1
 10
46.836126
 20
61.647921
 30
0.0
 10
46.541626
 20
63.612453
 30
0.0
 10
46.239189
 20
65.487687
 30
0.0
 10
46.164048
 20
65.815109
 30
0.0
  0
LWPOLYLINE
  5
213
100
AcDbEntity
  8
Layer_1
 62
7
100
AcDbPolyline
 90
2
 70
0
 10
77.258348
 20
25.900056
 30
0.0
 10
77.258338
 20
25.900496
 30
0.0
  0
SPLINE
  5
214
100
AcDbEntity
  8
Layer_1
 62
7
100
AcDbSpline
 70
8
 71
3
 72
8
 73
4
 74
0
 40
0
 40
0
 40
0
 40
0
 40
1
 40
1
 40
1
 40
1
 10
53.155665
 20
65.010455
 30
0.0
 10
52.199628
 20
62.178577
 30
0.0
 10
51.841175
 20
55.340209
 30
0.0
 10
52.501599
 20
52.532573
 30
0.0
  0
SPLINE
  5
215
100
AcDbEntity
  8
Layer_1
 62
7
100
AcDbSpline
 70
8
 71
3
 72
8
 73
4
 74
0
 40
0
 40
0
 40
0
 40
0
 40
1
 40
1
 40
1
 40
1
 10
52.501599
 20
52.532573
 30
0.0
 10
53.043701
 20
50.227949
 30
0.0
 10
54.296911
 20
49.585527
 30
0.0
 10
55.582529
 20
50.953222
 30
0.0
  0
SPLINE
  5
216
100
AcDbEntity
  8
Layer_1
 62
7
100
AcDbSpline
 70
8
 71
3
 72
8
 73
4
 74
0
 40
0
 40
0
 40
0
 40
0
 40
1
 40
1
 40
1
 40
1
 10
55.582529
 20
50.953222
 30
0.0
 10
56.202340
 20
51.612606
 30
0.0
 10
56.229788
 20
51.811041
 30
0.0
 10
56.396830
 20
56.840201
 30
0.0
  0
SPLINE
  5
217
100
AcDbEntity
  8
Layer_1
 62
7
100
AcDbSpline
 70
8
 71
3
 72
8
 73
4
 74
0
 40
0
 40
0
 40
0
 40
0
 40
1
 40
1
 40
1
 40
1
 10
56.396830
 20
56.840201
 30
0.0
 10
56.491910
 20
59.702728
 30
0.0
 10
56.581205
 20
63.027062
 30
0.0
 10
56.595267
 20
64.227609
 30
0.0
  0
LWPOLYLINE
  5
218
100
AcDbEntity
  8
Layer_1
 62
7
100
AcDbPolyline
 90
5
 70
0
 10
46.164048
 20
65.815109
 30
0.0
 10
46.027422
 20
66.410421
 30
0.0
 10
49.827855
 20
66.410421
 30
0.0
 10
53.628290
 20
66.410421
 30
0.0
 10
53.155665
 20
65.010455
 30
0.0
  0
SPLINE
  5
219
100
AcDbEntity
  8
Layer_1
 62
7
100
AcDbSpline
 70
8
 71
3
 72
8
 73
4
 74
0
 40
0
 40
0
 40
0
 40
0
 40
1
 40
1
 40
1
 40
1
 10
61.476475
 20
65.021356
 30
0.0
 10
61.568245
 20
64.257372
 30
0.0
 10
61.644356
 20
61.036771
 30
0.0
 10
61.645621
 20
57.864467
 30
0.0
  0
SPLINE
  5
21a
100
AcDbEntity
  8
Layer_1
 62
7
100
AcDbSpline
 70
8
 71
3
 72
8
 73
4
 74
0
 40
0
 40
0
 40
0
 40
0
 40
1
 40
1
 40
1
 40
1
 10
61.645621
 20
57.864467
 30
0.0
 10
61.647521
 20
53.227649
 30
0.0
 10
61.726691
 20
51.944322
 30
0.0
 10
62.049608
 20
51.319863
 30
0.0
  0
SPLINE
  5
21b
100
AcDbEntity
  8
Layer_1
 62
7
100
AcDbSpline
 70
8
 71
3
 72
8
 73
4
 74
0
 40
0
 40
0
 40
0
 40
0
 40
1
 40
1
 40
1
 40
1
 10
62.049608
 20
51.319863
 30
0.0
 10
62.739371
 20
49.986006
 30
0.0
 10
64.323972
 20
50.028733
 30
0.0
 10
65.193083
 20
51.404623
 30
0.0
  0
SPLINE
  5
21c
100
AcDbEntity
  8
Layer_1
 62
7
100
AcDbSpline
 70
8
 71
3
 72
8
 73
4
 74
0
 40
0
 40
0
 40
0
 40
0
 40
1
 40
1
 40
1
 40
1
 10
65.193083
 20
51.404623
 30
0.0
 10
66.289908
 20
53.141007
 30
0.0
 10
65.783379
 20
62.380979
 30
0.0
 10
64.392700
 20
66.005038
 30
0.0
  0
SPLINE
  5
21d
100
AcDbEntity
  8
Layer_1
 62
7
100
AcDbSpline
 70
8
 71
3
 72
8
 73
4
 74
0
 40
0
 40
0
 40
0
 40
0
 40
1
 40
1
 40
1
 40
1
 10
64.392700
 20
66.005038
 30
0.0
 10
64.257466
 20
66.357447
 30
0.0
 10
64.728805
 20
66.410420
 30
0.0
 10
67.999658
 20
66.410420
 30
0.0
  0
LWPOLYLINE
  5
21e
100
AcDbEntity
  8
Layer_1
 62
7
100
AcDbPolyline
 90
5
 70
0
 10
56.595267
 20
64.227609
 30
0.0
 10
56.620837
 20
66.410419
 30
0.0
 10
58.965233
 20
66.410419
 30
0.0
 10
61.309629
 20
66.410419
 30
0.0
 10
61.476475
 20
65.021356
 30
0.0
  0
SPLINE
  5
21f
100
AcDbEntity
  8
Layer_1
 62
7
100
AcDbSpline
 70
8
 71
3
 72
8
 73
4
 74
0
 40
0
 40
0
 40
0
 40
0
 40
1
 40
1
 40
1
 40
1
 10
71.583328
 20
65.153649
 30
0.0
 10
71.248478
 20
62.800535
 30
0.0
 10
68.785198
 20
46.435600
 30
0.0
 10
68.722158
 20
46.145259
 30
0.0
  0
SPLINE
  5
220
100
AcDbEntity
  8
Layer_1
 62
7
100
AcDbSpline
 70
8
 71
3
 72
8
 73
4
 74
0
 40
0
 40
0
 40
0
 40
0
 40
1
 40
1
 40
1
 40
1
 10
68.722158
 20
46.145259
 30
0.0
 10
68.683858
 20
45.968856
 30
0.0
 10
67.937288
 20
46.155289
 30
0.0
 10
66.807295
 20
46.623385
 30
0.0
  0
LWPOLYLINE
  5
221
100
AcDbEntity
  8
Layer_1
 62
7
100
AcDbPolyline
 90
3
 70
0
 10
67.999658
 20
66.410420
 30
0.0
 10
71.762168
 20
66.410420
 30
0.0
 10
71.583328
 20
65.153649
 30
0.0
  0
LWPOLYLINE
  5
222
100
AcDbEntity
  8
Layer_1
 62
7
100
AcDbPolyline
 90
1
 70
1
 10
66.807295
 20
46.623385
 30
0.0
  0
SPLINE
  5
223
100
AcDbEntity
  8
Layer_1
 62
7
100
AcDbSpline
 70
8
 71
3
 72
8
 73
4
 74
0
 40
0
 40
0
 40
0
 40
0
 40
1
 40
1
 40
1
 40
1
 10
61.383335
 20
67.571617
 30
0.0
 10
60.000887
 20
67.078730
 30
0.0
 10
58.869793
 20
66.692012
 30
0.0
 10
58.869793
 20
66.712245
 30
0.0
  0
SPLINE
  5
224
100
AcDbEntity
  8
Layer_1
 62
7
100
AcDbSpline
 70
8
 71
3
 72
8
 73
4
 74
0
 40
0
 40
0
 40
0
 40
0
 40
1
 40
1
 40
1
 40
1
 10
58.869793
 20
66.712245
 30
0.0
 10
58.869793
 20
66.732485
 30
0.0
 10
57.649402
 20
67.177753
 30
0.0
 10
56.157814
 20
67.701744
 30
0.0
  0
LWPOLYLINE
  5
225
100
AcDbEntity
  8
Layer_1
 62
7
100
AcDbPolyline
 90
9
 70
0
 10
56.157816
 20
67.701744
 30
0.0
 10
53.445836
 20
68.654456
 30
0.0
 10
53.445836
 20
69.649104
 30
0.0
 10
53.445836
 20
70.643752
 30
0.0
 10
58.752717
 20
70.643752
 30
0.0
 10
64.059597
 20
70.643752
 30
0.0
 10
63.978237
 20
69.555764
 30
0.0
 10
63.896877
 20
68.467779
 30
0.0
 10
61.383335
 20
67.571617
 30
0.0
  0
SPLINE
  5
226
100
AcDbEntity
  8
Layer_1
 62
7
100
AcDbSpline
 70
8
 71
3
 72
8
 73
4
 74
0
 40
0
 40
0
 40
0
 40
0
 40
1
 40
1
 40
1
 40
1
 10
59.189602
 20
72.515169
 30
0.0
 10
59.329030
 20
74.394521
 30
0.0
 10
58.807144
 20
75.220674
 30
0.0
 10
56.299265
 20
77.090629
 30
0.0
  0
SPLINE
  5
227
100
AcDbEntity
  8
Layer_1
 62
7
100
AcDbSpline
 70
8
 71
3
 72
8
 73
4
 74
0
 40
0
 40
0
 40
0
 40
0
 40
1
 40
1
 40
1
 40
1
 10
56.299265
 20
77.090629
 30
0.0
 10
53.649465
 20
79.066405
 30
0.0
 10
52.272708
 20
80.560829
 30
0.0
 10
51.458392
 20
82.345232
 30
0.0
  0
SPLINE
  5
228
100
AcDbEntity
  8
Layer_1
 62
7
100
AcDbSpline
 70
8
 71
3
 72
8
 73
4
 74
0
 40
0
 40
0
 40
0
 40
0
 40
1
 40
1
 40
1
 40
1
 10
51.458392
 20
82.345232
 30
0.0
 10
50.647352
 20
84.122459
 30
0.0
 10
50.552829
 20
85.705233
 30
0.0
 10
51.198852
 20
86.691188
 30
0.0
  0
LWPOLYLINE
  5
229
100
AcDbEntity
  8
Layer_1
 62
7
100
AcDbPolyline
 90
1
 70
1
 10
56.157814
 20
67.701744
 30
0.0
  0
SPLINE
  5
22a
100
AcDbEntity
  8
Layer_1
 62
7
100
AcDbSpline
 70
8
 71
3
 72
8
 73
4
 74
0
 40
0
 40
0
 40
0
 40
0
 40
1
 40
1
 40
1
 40
1
 10
52.001222
 20
86.402656
 30
0.0
 10
52.499715
 20
84.952635
 30
0.0
 10
53.318140
 20
84.216874
 30
0.0
 10
55.735591
 20
83.045472
 30
0.0
  0
SPLINE
  5
22b
100
AcDbEntity
  8
Layer_1
 62
7
100
AcDbSpline
 70
8
 71
3
 72
8
 73
4
 74
0
 40
0
 40
0
 40
0
 40
0
 40
1
 40
1
 40
1
 40
1
 10
55.735591
 20
83.045472
 30
0.0
 10
59.943220
 20
81.006618
 30
0.0
 10
61.200504
 20
79.550584
 30
0.0
 10
61.204746
 20
76.711759
 30
0.0
  0
SPLINE
  5
22c
100
AcDbEntity
  8
Layer_1
 62
7
100
AcDbSpline
 70
8
 71
3
 72
8
 73
4
 74
0
 40
0
 40
0
 40
0
 40
0
 40
1
 40
1
 40
1
 40
1
 10
61.204746
 20
76.711759
 30
0.0
 10
61.207146
 20
75.063194
 30
0.0
 10
60.518827
 20
72.879894
 30
0.0
 10
59.655010
 20
71.796563
 30
0.0
  0
LWPOLYLINE
  5
22d
100
AcDbEntity
  8
Layer_1
 62
7
100
AcDbPolyline
 90
3
 70
0
 10
51.198852
 20
86.691188
 30
0.0
 10
51.660047
 20
87.395064
 30
0.0
 10
52.001222
 20
86.402656
 30
0.0
  0
SPLINE
  5
22e
100
AcDbEntity
  8
Layer_1
 62
7
100
AcDbSpline
 70
8
 71
3
 72
8
 73
4
 74
0
 40
0
 40
0
 40
0
 40
0
 40
1
 40
1
 40
1
 40
1
 10
60.738370
 20
71.675402
 30
0.0
 10
60.642760
 20
71.830112
 30
0.0
 10
60.878197
 20
72.703077
 30
0.0
 10
61.261576
 20
73.615326
 30
0.0
  0
SPLINE
  5
22f
100
AcDbEntity
  8
Layer_1
 62
7
100
AcDbSpline
 70
8
 71
3
 72
8
 73
4
 74
0
 40
0
 40
0
 40
0
 40
0
 40
1
 40
1
 40
1
 40
1
 10
61.261576
 20
73.615326
 30
0.0
 10
62.776680
 20
77.220507
 30
0.0
 10
62.835211
 20
77.619872
 30
0.0
 10
62.192303
 20
79.965796
 30
0.0
  0
SPLINE
  5
230
100
AcDbEntity
  8
Layer_1
 62
7
100
AcDbSpline
 70
8
 71
3
 72
8
 73
4
 74
0
 40
0
 40
0
 40
0
 40
0
 40
1
 40
1
 40
1
 40
1
 10
62.192303
 20
79.965796
 30
0.0
 10
61.566582
 20
82.248998
 30
0.0
 10
61.633424
 20
83.273758
 30
0.0
 10
62.456667
 20
84.018783
 30
0.0
  0
SPLINE
  5
231
100
AcDbEntity
  8
Layer_1
 62
7
100
AcDbSpline
 70
8
 71
3
 72
8
 73
4
 74
0
 40
0
 40
0
 40
0
 40
0
 40
1
 40
1
 40
1
 40
1
 10
62.456667
 20
84.018783
 30
0.0
 10
62.953867
 20
84.468743
 30
0.0
 10
62.970837
 20
84.460342
 30
0.0
 10
62.970837
 20
83.764241
 30
0.0
  0
SPLINE
  5
232
100
AcDbEntity
  8
Layer_1
 62
7
100
AcDbSpline
 70
8
 71
3
 72
8
 73
4
 74
0
 40
0
 40
0
 40
0
 40
0
 40
1
 40
1
 40
1
 40
1
 10
62.970837
 20
83.764241
 30
0.0
 10
62.970837
 20
82.903899
 30
0.0
 10
63.264400
 20
82.318965
 30
0.0
 10
64.576138
 20
80.565627
 30
0.0
  0
SPLINE
  5
233
100
AcDbEntity
  8
Layer_1
 62
7
100
AcDbSpline
 70
8
 71
3
 72
8
 73
4
 74
0
 40
0
 40
0
 40
0
 40
0
 40
1
 40
1
 40
1
 40
1
 10
64.576138
 20
80.565627
 30
0.0
 10
66.747767
 20
77.662913
 30
0.0
 10
66.579860
 20
75.899108
 30
0.0
 10
63.942360
 20
73.908056
 30
0.0
  0
SPLINE
  5
234
100
AcDbEntity
  8
Layer_1
 62
7
100
AcDbSpline
 70
8
 71
3
 72
8
 73
4
 74
0
 40
0
 40
0
 40
0
 40
0
 40
1
 40
1
 40
1
 40
1
 10
63.942360
 20
73.908056
 30
0.0
 10
63.044222
 20
73.230048
 30
0.0
 10
61.995016
 20
72.387044
 30
0.0
 10
61.610796
 20
72.034713
 30
0.0
  0
SPLINE
  5
235
100
AcDbEntity
  8
Layer_1
 62
7
100
AcDbSpline
 70
8
 71
3
 72
8
 73
4
 74
0
 40
0
 40
0
 40
0
 40
0
 40
1
 40
1
 40
1
 40
1
 10
61.610796
 20
72.034713
 30
0.0
 10
61.172347
 20
71.632654
 30
0.0
 10
60.847481
 20
71.498856
 30
0.0
 10
60.738370
 20
71.675402
 30
0.0
  0
LWPOLYLINE
  5
236
100
AcDbEntity
  8
Layer_1
 62
7
100
AcDbPolyline
 90
3
 70
0
 10
59.655010
 20
71.796563
 30
0.0
 10
59.083078
 20
71.079293
 30
0.0
 10
59.189602
 20
72.515169
 30
0.0
  0
SPLINE
  5
237
100
AcDbEntity
  8
Layer_1
 62
7
100
AcDbSpline
 70
8
 71
3
 72
8
 73
4
 74
0
 40
0
 40
0
 40
0
 40
0
 40
1
 40
1
 40
1
 40
1
 10
57.719019
 20
72.247593
 30
0.0
 10
57.377132
 20
72.526962
 30
0.0
 10
56.503671
 20
72.931858
 30
0.0
 10
55.777996
 20
73.147361
 30
0.0
  0
SPLINE
  5
238
100
AcDbEntity
  8
Layer_1
 62
7
100
AcDbSpline
 70
8
 71
3
 72
8
 73
4
 74
0
 40
0
 40
0
 40
0
 40
0
 40
1
 40
1
 40
1
 40
1
 10
55.777996
 20
73.147361
 30
0.0
 10
53.873684
 20
73.712881
 30
0.0
 10
52.739158
 20
74.501988
 30
0.0
 10
51.988286
 20
75.783253
 30
0.0
  0
SPLINE
  5
239
100
AcDbEntity
  8
Layer_1
 62
7
100
AcDbSpline
 70
8
 71
3
 72
8
 73
4
 74
0
 40
0
 40
0
 40
0
 40
0
 40
1
 40
1
 40
1
 40
1
 10
51.988286
 20
75.783253
 30
0.0
 10
51.319354
 20
76.924702
 30
0.0
 10
51.103215
 20
78.674958
 30
0.0
 10
51.593753
 20
78.978127
 30
0.0
  0
SPLINE
  5
23a
100
AcDbEntity
  8
Layer_1
 62
7
100
AcDbSpline
 70
8
 71
3
 72
8
 73
4
 74
0
 40
0
 40
0
 40
0
 40
0
 40
1
 40
1
 40
1
 40
1
 10
51.593753
 20
78.978127
 30
0.0
 10
51.747701
 20
79.073277
 30
0.0
 10
51.858336
 20
78.809487
 30
0.0
 10
51.858336
 20
78.347287
 30
0.0
  0
SPLINE
  5
23b
100
AcDbEntity
  8
Layer_1
 62
7
100
AcDbSpline
 70
8
 71
3
 72
8
 73
4
 74
0
 40
0
 40
0
 40
0
 40
0
 40
1
 40
1
 40
1
 40
1
 10
51.858336
 20
78.347287
 30
0.0
 10
51.858336
 20
77.370057
 30
0.0
 10
52.434316
 20
76.932829
 30
0.0
 10
54.726541
 20
76.170026
 30
0.0
  0
SPLINE
  5
23c
100
AcDbEntity
  8
Layer_1
 62
7
100
AcDbSpline
 70
8
 71
3
 72
8
 73
4
 74
0
 40
0
 40
0
 40
0
 40
0
 40
1
 40
1
 40
1
 40
1
 10
54.726541
 20
76.170026
 30
0.0
 10
55.699327
 20
75.846303
 30
0.0
 10
56.853424
 20
75.220294
 30
0.0
 10
57.418330
 20
74.709936
 30
0.0
  0
SPLINE
  5
23d
100
AcDbEntity
  8
Layer_1
 62
7
100
AcDbSpline
 70
8
 71
3
 72
8
 73
4
 74
0
 40
0
 40
0
 40
0
 40
0
 40
1
 40
1
 40
1
 40
1
 10
57.418330
 20
74.709936
 30
0.0
 10
58.902730
 20
73.368870
 30
0.0
 10
59.186041
 20
71.048821
 30
0.0
 10
57.719019
 20
72.247593
 30
0.0
  0
LWPOLYLINE
  5
23e
100
AcDbEntity
  8
Layer_1
 62
7
100
AcDbPolyline
 90
1
 70
1
 10
60.738370
 20
71.675402
 30
0.0
  0
LWPOLYLINE
  5
23f
100
AcDbEntity
  8
Layer_1
 62
7
100
AcDbPolyline
 90
1
 70
1
 10
57.719019
 20
72.247593
 30
0.0
  0
ENDSEC
  0
SECTION
  2
OBJECTS
  0
DICTIONARY
  5
C
330
0
100
AcDbDictionary
  3
ACAD_GROUP
350
D
  3
ACAD_MLINESTYLE
350
17
  0
DICTIONARY
  5
D
330
C
100
AcDbDictionary
  0
DICTIONARY
  5
1A
330
C
100
AcDbDictionary
  0
DICTIONARY
  5
17
330
C
100
AcDbDictionary
  3
STANDARD
350
18
  0
DICTIONARY
  5
19
330
C
100
AcDbDictionary
  0
ENDSEC
  0
EOF
