M48
;Layer_Color=6321
;FILE_FORMAT=2:5
INCH,LZ
;TYPE=PLATED
T1F00S00C0.03937
T2F00S00C0.11024
T3F00S00C0.11811
%
T01
X013345Y0460488
X015345
X023745Y0520988
X024745
X025745
Y0530988
X024745
X023745
Y0540988
X024745
X025745
Y0550988
X024745
X023745
Y0560988
Y0570988
Y0580988
Y0590988
Y0600988
Y0610988
X024745
X025745
Y0600988
X024745
Y0590988
X025745
Y0580988
X024745
Y0570988
X025745
Y0560988
X024745
Y0620988
X023745
X025745
X015345Y0620488
X014345
X013345
Y0610488
Y0600488
Y0590488
Y0580488
Y0570488
Y0560488
Y0550488
Y0540488
Y0530488
Y0520488
Y0510488
X015345
Y0520488
X014345
Y0530488
X015345
Y0540488
X014345
Y0550488
X015345
Y0560488
X014345
Y0570488
X015345
Y0580488
X014345
Y0590488
X015345
Y0600488
X014345
Y0610488
X015345
Y0490488
Y0480488
X013345
Y0490488
Y0630488
Y0640488
X014345
X015345
Y0650488
X014345
Y0660488
X015345
Y0670488
X014345
Y0680488
X015345
Y0690488
X014345
Y0700488
Y0710488
X015345
Y0720488
X013345
Y0710488
Y0700488
Y0690488
Y0680488
Y0670488
Y0660488
Y0650488
X014345Y0630488
X015345
Y0700488
Y0740488
Y0750488
X013345
Y0740488
Y0770488
X015345
X023745Y0710988
Y0700988
Y0690988
Y0680988
Y0670988
Y0660988
X024745
X025745
Y0650988
X024745
X023745
Y0640988
X024745
X025745
Y0630988
X024745
X023745
X024745Y0670988
X025745
Y0680988
X024745
Y0690988
X025745
Y0700988
X024745
Y0710988
X025745
T02
X012345Y0440488
X024745Y0440988
Y0790988
X012345Y0790488
T03
X024745Y0470988
Y0500988
Y0730988
Y0760988
M30
