M48
;Layer_Color=6321
;FILE_FORMAT=2:5
INCH,LZ
;TYPE=PLATED
T1F00S00C0.03937
T2F00S00C0.11024
T3F00S00C0.11811
%
T01
X0128Y014
X0148
X0478Y01995
Y02095
Y02195
Y02295
Y02395
Y02495
Y02595
Y02695
Y02795
Y02895
Y02995
Y03095
X0468
Y02995
X0458
Y03095
Y02895
Y02795
Y02695
Y02595
Y02495
Y02395
X0468
Y02295
X0458
Y02195
X0468
Y02095
X0458
Y01995
X0468
Y02495
Y02595
Y02695
Y02795
Y02895
X0148Y029
Y03
Y031
X0138
X0128
Y03
X0138
Y029
Y028
Y027
Y026
Y025
Y024
Y023
Y022
Y021
Y02
X0148
Y019
X0128
Y02
Y021
Y022
Y023
Y024
Y025
Y026
Y027
Y028
Y029
X0148Y028
Y027
Y026
Y025
Y024
Y023
Y022
Y021
Y017
Y016
X0128
Y017
Y032
X0138
X0148
Y033
X0138
Y034
X0148
Y035
X0138
Y036
X0148
Y037
X0138
Y038
Y039
X0148
Y04
X0128
Y039
Y038
Y037
Y036
Y035
Y034
Y033
X0148Y038
Y042
Y043
X0128
Y042
Y045
X0148
X0458Y03895
X0468
Y03795
X0458
Y03695
X0468
Y03595
X0458
Y03495
X0468
Y03395
Y03295
Y03195
X0458
Y03295
Y03395
X0478
Y03495
Y03595
Y03695
Y03795
Y03895
Y03295
Y03195
T02
X0118Y012
X0468Y01195
Y04695
X0118Y047
T03
X0468Y01495
Y01795
Y04095
Y04395
M30
