  0
SECTION
  2
HEADER
  9
$ACADVER
  1
AC1015
  9
$ACADMAINTVER
 70
     6
  9
$DWGCODEPAGE
  3
ANSI_1252
  9
$INSBASE
 10
0.0
 20
0.0
 30
0.0
  9
$EXTMIN
 10
-3.90639521
 20
-4.5707795002
 30
0.0
  9
$EXTMAX
 10
3.9047518909
 20
4.568793266
 30
0.0
  9
$LIMMIN
 10
0.0
 20
0.0
  9
$LIMMAX
 10
12.0
 20
9.0
  9
$ORTHOMODE
 70
     0
  9
$REGENMODE
 70
     1
  9
$FILLMODE
 70
     1
  9
$QTEXTMODE
 70
     0
  9
$MIRRTEXT
 70
     1
  9
$LTSCALE
 40
1.0
  9
$ATTMODE
 70
     1
  9
$TEXTSIZE
 40
0.125
  9
$TRACEWID
 40
0.05
  9
$TEXTSTYLE
  7
Standard
  9
$CLAYER
  8
0
  9
$CELTYPE
  6
ByLayer
  9
$CECOLOR
 62
   256
  9
$CELTSCALE
 40
1.0
  9
$DISPSILH
 70
     0
  9
$DIMSCALE
 40
1.0
  9
$DIMASZ
 40
0.13
  9
$DIMEXO
 40
0.05
  9
$DIMDLI
 40
0.38
  9
$DIMRND
 40
0.0
  9
$DIMDLE
 40
0.0
  9
$DIMEXE
 40
0.125
  9
$DIMTP
 40
0.0
  9
$DIMTM
 40
0.0
  9
$DIMTXT
 40
0.125
  9
$DIMCEN
 40
0.09
  9
$DIMTSZ
 40
0.0
  9
$DIMTOL
 70
     0
  9
$DIMLIM
 70
     0
  9
$DIMTIH
 70
     1
  9
$DIMTOH
 70
     1
  9
$DIMSE1
 70
     0
  9
$DIMSE2
 70
     0
  9
$DIMTAD
 70
     0
  9
$DIMZIN
 70
     1
  9
$DIMBLK
  1

  9
$DIMASO
 70
     1
  9
$DIMSHO
 70
     1
  9
$DIMPOST
  1

  9
$DIMAPOST
  1

  9
$DIMALT
 70
     0
  9
$DIMALTD
 70
     2
  9
$DIMALTF
 40
25.4
  9
$DIMLFAC
 40
1.0
  9
$DIMTOFL
 70
     0
  9
$DIMTVP
 40
0.0
  9
$DIMTIX
 70
     0
  9
$DIMSOXD
 70
     0
  9
$DIMSAH
 70
     0
  9
$DIMBLK1
  1

  9
$DIMBLK2
  1

  9
$DIMSTYLE
  2
Standard
  9
$DIMCLRD
 70
     0
  9
$DIMCLRE
 70
     0
  9
$DIMCLRT
 70
     0
  9
$DIMTFAC
 40
1.0
  9
$DIMGAP
 40
0.06
  9
$DIMJUST
 70
     0
  9
$DIMSD1
 70
     0
  9
$DIMSD2
 70
     0
  9
$DIMTOLJ
 70
     1
  9
$DIMTZIN
 70
     1
  9
$DIMALTZ
 70
     0
  9
$DIMALTTZ
 70
     0
  9
$DIMUPT
 70
     0
  9
$DIMDEC
 70
     2
  9
$DIMTDEC
 70
     2
  9
$DIMALTU
 70
     2
  9
$DIMALTTD
 70
     2
  9
$DIMTXSTY
  7
Standard
  9
$DIMAUNIT
 70
     0
  9
$DIMADEC
 70
     2
  9
$DIMALTRND
 40
0.0
  9
$DIMAZIN
 70
     0
  9
$DIMDSEP
 70
    46
  9
$DIMATFIT
 70
     3
  9
$DIMFRAC
 70
     0
  9
$DIMLDRBLK
  1

  9
$DIMLUNIT
 70
     2
  9
$DIMLWD
 70
    -2
  9
$DIMLWE
 70
    -2
  9
$DIMTMOVE
 70
     0
  9
$LUNITS
 70
     2
  9
$LUPREC
 70
     2
  9
$SKETCHINC
 40
0.1
  9
$FILLETRAD
 40
0.5
  9
$AUNITS
 70
     0
  9
$AUPREC
 70
     2
  9
$MENU
  1
.
  9
$ELEVATION
 40
0.0
  9
$PELEVATION
 40
0.0
  9
$THICKNESS
 40
0.0
  9
$LIMCHECK
 70
     0
  9
$CHAMFERA
 40
0.0
  9
$CHAMFERB
 40
0.0
  9
$CHAMFERC
 40
0.0
  9
$CHAMFERD
 40
0.0
  9
$SKPOLY
 70
     0
  9
$TDCREATE
 40
2458655.56631007
  9
$TDUCREATE
 40
2458655.774643403
  9
$TDUPDATE
 40
2458655.566395278
  9
$TDUUPDATE
 40
2458655.774728611
  9
$TDINDWG
 40
0.0000000116
  9
$TDUSRTIMER
 40
0.0000000116
  9
$USRTIMER
 70
     1
  9
$ANGBASE
 50
0.0
  9
$ANGDIR
 70
     0
  9
$PDMODE
 70
     0
  9
$PDSIZE
 40
-1.0
  9
$PLINEWID
 40
0.0
  9
$SPLFRAME
 70
     0
  9
$SPLINETYPE
 70
     6
  9
$SPLINESEGS
 70
     8
  9
$HANDSEED
  5
13F
  9
$SURFTAB1
 70
     6
  9
$SURFTAB2
 70
     6
  9
$SURFTYPE
 70
     6
  9
$SURFU
 70
     6
  9
$SURFV
 70
     6
  9
$UCSBASE
  2

  9
$UCSNAME
  2

  9
$UCSORG
 10
0.0
 20
0.0
 30
0.0
  9
$UCSXDIR
 10
1.0
 20
0.0
 30
0.0
  9
$UCSYDIR
 10
0.0
 20
1.0
 30
0.0
  9
$UCSORTHOREF
  2

  9
$UCSORTHOVIEW
 70
     0
  9
$UCSORGTOP
 10
0.0
 20
0.0
 30
0.0
  9
$UCSORGBOTTOM
 10
0.0
 20
0.0
 30
0.0
  9
$UCSORGLEFT
 10
0.0
 20
0.0
 30
0.0
  9
$UCSORGRIGHT
 10
0.0
 20
0.0
 30
0.0
  9
$UCSORGFRONT
 10
0.0
 20
0.0
 30
0.0
  9
$UCSORGBACK
 10
0.0
 20
0.0
 30
0.0
  9
$PUCSBASE
  2

  9
$PUCSNAME
  2

  9
$PUCSORG
 10
0.0
 20
0.0
 30
0.0
  9
$PUCSXDIR
 10
1.0
 20
0.0
 30
0.0
  9
$PUCSYDIR
 10
0.0
 20
1.0
 30
0.0
  9
$PUCSORTHOREF
  2

  9
$PUCSORTHOVIEW
 70
     0
  9
$PUCSORGTOP
 10
0.0
 20
0.0
 30
0.0
  9
$PUCSORGBOTTOM
 10
0.0
 20
0.0
 30
0.0
  9
$PUCSORGLEFT
 10
0.0
 20
0.0
 30
0.0
  9
$PUCSORGRIGHT
 10
0.0
 20
0.0
 30
0.0
  9
$PUCSORGFRONT
 10
0.0
 20
0.0
 30
0.0
  9
$PUCSORGBACK
 10
0.0
 20
0.0
 30
0.0
  9
$USERI1
 70
     0
  9
$USERI2
 70
     0
  9
$USERI3
 70
     0
  9
$USERI4
 70
     0
  9
$USERI5
 70
     0
  9
$USERR1
 40
0.0
  9
$USERR2
 40
0.0
  9
$USERR3
 40
0.0
  9
$USERR4
 40
0.0
  9
$USERR5
 40
0.0
  9
$WORLDVIEW
 70
     1
  9
$SHADEDGE
 70
     3
  9
$SHADEDIF
 70
    70
  9
$TILEMODE
 70
     1
  9
$MAXACTVP
 70
    64
  9
$PINSBASE
 10
0.0
 20
0.0
 30
0.0
  9
$PLIMCHECK
 70
     0
  9
$PEXTMIN
 10
1.0000000000E+20
 20
1.0000000000E+20
 30
1.0000000000E+20
  9
$PEXTMAX
 10
-1.0000000000E+20
 20
-1.0000000000E+20
 30
-1.0000000000E+20
  9
$PLIMMIN
 10
0.0
 20
0.0
  9
$PLIMMAX
 10
12.0
 20
9.0
  9
$UNITMODE
 70
     0
  9
$VISRETAIN
 70
     1
  9
$PLINEGEN
 70
     0
  9
$PSLTSCALE
 70
     1
  9
$TREEDEPTH
 70
  3020
  9
$CMLSTYLE
  2
Standard
  9
$CMLJUST
 70
     0
  9
$CMLSCALE
 40
1.0
  9
$PROXYGRAPHICS
 70
     1
  9
$MEASUREMENT
 70
     0
  9
$CELWEIGHT
370
    -1
  9
$ENDCAPS
280
     0
  9
$JOINSTYLE
280
     0
  9
$LWDISPLAY
290
     1
  9
$INSUNITS
 70
     1
  9
$HYPERLINKBASE
  1

  9
$STYLESHEET
  1

  9
$XEDIT
290
     1
  9
$CEPSNTYPE
380
     0
  9
$PSTYLEMODE
290
     1
  9
$FINGERPRINTGUID
  2
{A5C8533D-011F-46C8-88DF-C9C96AED7B73}
  9
$VERSIONGUID
  2
{FAEB1C32-E019-11D5-929B-00C0DF256EC4}
  9
$EXTNAMES
290
     1
  9
$PSVPSCALE
 40
0.0
  9
$OLESTARTUP
290
     0
  0
ENDSEC
  0
SECTION
  2
CLASSES
  0
CLASS
  1
ACDBDICTIONARYWDFLT
  2
AcDbDictionaryWithDefault
  3
ObjectDBX Classes
 90
        0
280
     0
281
     0
  0
CLASS
  1
VISUALSTYLE
  2
AcDbVisualStyle
  3
ObjectDBX Classes
 90
     4095
280
     0
281
     0
  0
CLASS
  1
MATERIAL
  2
AcDbMaterial
  3
ObjectDBX Classes
 90
     1153
280
     0
281
     0
  0
CLASS
  1
SCALE
  2
AcDbScale
  3
ObjectDBX Classes
 90
     1153
280
     0
281
     0
  0
CLASS
  1
TABLESTYLE
  2
AcDbTableStyle
  3
ObjectDBX Classes
 90
     4095
280
     0
281
     0
  0
CLASS
  1
MLEADERSTYLE
  2
AcDbMLeaderStyle
  3
ACDB_MLEADERSTYLE_CLASS
 90
     4095
280
     0
281
     0
  0
CLASS
  1
SUN
  2
AcDbSun
  3
SCENEOE
 90
     1153
280
     0
281
     0
  0
CLASS
  1
ACDBPLACEHOLDER
  2
AcDbPlaceHolder
  3
ObjectDBX Classes
 90
        0
280
     0
281
     0
  0
CLASS
  1
LAYOUT
  2
AcDbLayout
  3
ObjectDBX Classes
 90
        0
280
     0
281
     0
  0
ENDSEC
  0
SECTION
  2
TABLES
  0
TABLE
  2
VPORT
  5
8
330
0
100
AcDbSymbolTable
 70
     1
  0
VPORT
  5
29
330
8
100
AcDbSymbolTableRecord
100
AcDbViewportTableRecord
  2
*Active
 70
     0
 10
0.0
 20
0.0
 11
1.0
 21
1.0
 12
-0.0008216595
 22
-0.0009931171
 13
0.0
 23
0.0
 14
0.5
 24
0.5
 15
0.5
 25
0.5
 16
0.0
 26
0.0
 36
1.0
 17
0.0
 27
0.0
 37
0.0
 40
9.3223642216
 41
0.8546512294
 42
50.0
 43
0.0
 44
0.0
 50
0.0
 51
0.0
 71
     0
 72
   100
 73
     1
 74
     3
 75
     0
 76
     0
 77
     0
 78
     0
281
     0
 65
     1
110
0.0
120
0.0
130
0.0
111
1.0
121
0.0
131
0.0
112
0.0
122
1.0
132
0.0
 79
     0
146
0.0
  0
ENDTAB
  0
TABLE
  2
LTYPE
  5
5
330
0
100
AcDbSymbolTable
 70
     6
  0
LTYPE
  5
14
330
5
100
AcDbSymbolTableRecord
100
AcDbLinetypeTableRecord
  2
ByBlock
 70
     0
  3

 72
    65
 73
     0
 40
0.0
  0
LTYPE
  5
15
330
5
100
AcDbSymbolTableRecord
100
AcDbLinetypeTableRecord
  2
ByLayer
 70
     0
  3

 72
    65
 73
     0
 40
0.0
  0
LTYPE
  5
16
330
5
100
AcDbSymbolTableRecord
100
AcDbLinetypeTableRecord
  2
Continuous
 70
     0
  3
Solid line
 72
    65
 73
     0
 40
0.0
  0
LTYPE
  5
6E
330
5
100
AcDbSymbolTableRecord
100
AcDbLinetypeTableRecord
  2
HIDDEN
 70
     0
  3
Hidden __ __ __ __ __ __ __ __ __ __ __ __ __ __
 72
    65
 73
     2
 40
0.075
 49
0.05
 74
     0
 49
-0.025
 74
     0
  0
LTYPE
  5
6F
330
5
100
AcDbSymbolTableRecord
100
AcDbLinetypeTableRecord
  2
PHANTOM
 70
     0
  3
Phantom ______  __  __  ______  __  __  ______
 72
    65
 73
     6
 40
0.5
 49
0.25
 74
     0
 49
-0.05
 74
     0
 49
0.05
 74
     0
 49
-0.05
 74
     0
 49
0.05
 74
     0
 49
-0.05
 74
     0
  0
LTYPE
  5
70
330
5
100
AcDbSymbolTableRecord
100
AcDbLinetypeTableRecord
  2
CENTER
 70
     0
  3
Center ____ _ ____ _ ____ _ ____ _ ____ _ ____
 72
    65
 73
     4
 40
0.4
 49
0.25
 74
     0
 49
-0.05
 74
     0
 49
0.05
 74
     0
 49
-0.05
 74
     0
  0
LTYPE
  5
71
330
5
100
AcDbSymbolTableRecord
100
AcDbLinetypeTableRecord
  2
CENTERX2
 70
     0
  3
Center (2x) ________  __  ________  __  _____
 72
    65
 73
     4
 40
0.8
 49
0.5
 74
     0
 49
-0.1
 74
     0
 49
0.1
 74
     0
 49
-0.1
 74
     0
  0
LTYPE
  5
72
330
5
100
AcDbSymbolTableRecord
100
AcDbLinetypeTableRecord
  2
DOT2
 70
     0
  3
Dot (.5x) ........................................
 72
    65
 73
     2
 40
0.025
 49
0.0
 74
     0
 49
-0.025
 74
     0
  0
ENDTAB
  0
TABLE
  2
LAYER
  5
2
330
0
100
AcDbSymbolTable
 70
     1
  0
LAYER
  5
10
330
2
100
AcDbSymbolTableRecord
100
AcDbLayerTableRecord
  2
0
 70
     0
 62
     7
  6
Continuous
370
    -3
390
F
  0
ENDTAB
  0
TABLE
  2
STYLE
  5
3
330
0
100
AcDbSymbolTable
 70
     2
  0
STYLE
  5
11
330
3
100
AcDbSymbolTableRecord
100
AcDbTextStyleTableRecord
  2
Standard
 70
     0
 40
0.0
 41
1.0
 50
0.0
 71
     0
 42
0.125
  3
txt
  4

  0
STYLE
  5
13C
330
3
100
AcDbSymbolTableRecord
100
AcDbTextStyleTableRecord
  2
SLDTEXTSTYLE0
 70
     0
 40
0.0
 41
0.7
 50
0.0
 71
     0
 42
0.125
  3
TXT
  4

  0
ENDTAB
  0
TABLE
  2
VIEW
  5
6
330
0
100
AcDbSymbolTable
 70
     0
  0
ENDTAB
  0
TABLE
  2
UCS
  5
7
330
0
100
AcDbSymbolTable
 70
     0
  0
ENDTAB
  0
TABLE
  2
APPID
  5
9
330
0
100
AcDbSymbolTable
 70
     1
  0
APPID
  5
12
330
9
100
AcDbSymbolTableRecord
100
AcDbRegAppTableRecord
  2
ACAD
 70
     0
  0
ENDTAB
  0
TABLE
  2
DIMSTYLE
  5
A
330
0
100
AcDbSymbolTable
 70
     1
100
AcDbDimStyleTable
  0
DIMSTYLE
105
27
330
A
100
AcDbSymbolTableRecord
100
AcDbDimStyleTableRecord
  2
Standard
 70
     0
178
     0
340
11
  0
ENDTAB
  0
TABLE
  2
BLOCK_RECORD
  5
1
330
0
100
AcDbSymbolTable
 70
     1
  0
BLOCK_RECORD
  5
1F
330
1
100
AcDbSymbolTableRecord
100
AcDbBlockTableRecord
  2
*Model_Space
340
22
  0
BLOCK_RECORD
  5
1B
330
1
100
AcDbSymbolTableRecord
100
AcDbBlockTableRecord
  2
*Paper_Space
340
1E
  0
BLOCK_RECORD
  5
23
330
1
100
AcDbSymbolTableRecord
100
AcDbBlockTableRecord
  2
*Paper_Space0
340
26
  0
ENDTAB
  0
ENDSEC
  0
SECTION
  2
BLOCKS
  0
BLOCK
  5
20
330
1F
100
AcDbEntity
  8
0
100
AcDbBlockBegin
  2
*Model_Space
 70
     0
 10
0.0
 20
0.0
 30
0.0
  3
*Model_Space
  1

  0
ENDBLK
  5
21
330
1F
100
AcDbEntity
  8
0
100
AcDbBlockEnd
  0
BLOCK
  5
1C
330
1B
100
AcDbEntity
 67
     1
  8
0
100
AcDbBlockBegin
  2
*Paper_Space
 70
     0
 10
0.0
 20
0.0
 30
0.0
  3
*Paper_Space
  1

  0
ENDBLK
  5
1D
330
1B
100
AcDbEntity
 67
     1
  8
0
100
AcDbBlockEnd
  0
BLOCK
  5
24
330
23
100
AcDbEntity
  8
0
100
AcDbBlockBegin
  2
*Paper_Space0
 70
     0
 10
0.0
 20
0.0
 30
0.0
  3
*Paper_Space0
  1

  0
ENDBLK
  5
25
330
23
100
AcDbEntity
  8
0
100
AcDbBlockEnd
  0
ENDSEC
  0
SECTION
  2
ENTITIES
  0
LWPOLYLINE
  5
7D
330
1F
100
AcDbEntity
  8
0
  6
Continuous
 62
     7
370
    25
100
AcDbPolyline
 90
       19
 70
   128
 43
0.0
 10
0.6014795571
 20
-4.3280530516
 10
0.6213257326
 20
-4.3339778934
 10
0.6418046543
 20
-4.3328280643
 10
0.6604462621
 20
-4.3247422509
 10
0.6750021029
 20
-4.3106957215
 10
0.6837165275
 20
-4.2923826949
 10
0.6855384477
 20
-4.2720119924
 10
0.680248113
 20
-4.2520406213
 10
0.6684836159
 20
-4.2348774237
 10
0.6516639284
 20
-4.2225925346
 10
0.6318177529
 20
-4.2166676928
 10
0.6113388312
 20
-4.2178175219
 10
0.5926972234
 20
-4.2259033353
 10
0.5781413826
 20
-4.2399498647
 10
0.569426958
 20
-4.2582628913
 10
0.5676050377
 20
-4.2786335938
 10
0.5728953724
 20
-4.2986049649
 10
0.5846598695
 20
-4.3157681625
 10
0.6014795571
 20
-4.3280530516
  0
LWPOLYLINE
  5
7E
330
1F
100
AcDbEntity
  8
0
  6
Continuous
 62
     7
370
    25
100
AcDbPolyline
 90
       19
 70
   128
 43
0.0
 10
-3.1525121296
 20
-1.0294461019
 10
-3.1723583051
 20
-1.0235212601
 10
-3.1928372269
 20
-1.0246710892
 10
-3.2114788346
 20
-1.0327569026
 10
-3.2260346754
 20
-1.046803432
 10
-3.2347491
 20
-1.0651164586
 10
-3.2365710203
 20
-1.0854871611
 10
-3.2312806856
 20
-1.1054585322
 10
-3.2195161885
 20
-1.1226217298
 10
-3.2026965009
 20
-1.1349066189
 10
-3.1828503254
 20
-1.1408314607
 10
-3.1623714037
 20
-1.1396816316
 10
-3.1437297959
 20
-1.1315958182
 10
-3.1291739551
 20
-1.1175492888
 10
-3.1204595305
 20
-1.0992362622
 10
-3.1186376103
 20
-1.0788655597
 10
-3.123927945
 20
-1.0588941886
 10
-3.1356924421
 20
-1.041730991
 10
-3.1525121296
 20
-1.0294461019
  0
LWPOLYLINE
  5
7F
330
1F
100
AcDbEntity
  8
0
  6
Continuous
 62
     7
370
    25
100
AcDbPolyline
 90
       19
 70
   128
 43
0.0
 10
-3.4034339859
 20
-1.5567486872
 10
-3.4232801614
 20
-1.5508238455
 10
-3.4437590831
 20
-1.5519736745
 10
-3.4624006909
 20
-1.5600594879
 10
-3.4769565317
 20
-1.5741060173
 10
-3.4856709563
 20
-1.5924190439
 10
-3.4874928765
 20
-1.6127897464
 10
-3.4822025419
 20
-1.6327611175
 10
-3.4704380448
 20
-1.6499243151
 10
-3.4536183572
 20
-1.6622092043
 10
-3.4337721817
 20
-1.668134046
 10
-3.41329326
 20
-1.666984217
 10
-3.3946516522
 20
-1.6588984035
 10
-3.3800958114
 20
-1.6448518741
 10
-3.3713813868
 20
-1.6265388475
 10
-3.3695594666
 20
-1.606168145
 10
-3.3748498013
 20
-1.5861967739
 10
-3.3866142984
 20
-1.5690335763
 10
-3.4034339859
 20
-1.5567486872
  0
LWPOLYLINE
  5
80
330
1F
100
AcDbEntity
  8
0
  6
Continuous
 62
     7
370
    25
100
AcDbPolyline
 90
       19
 70
   128
 43
0.0
 10
-3.6543558422
 20
-2.0840512725
 10
-3.6742020177
 20
-2.0781264308
 10
-3.6946809394
 20
-2.0792762598
 10
-3.7133225472
 20
-2.0873620732
 10
-3.727878388
 20
-2.1014086026
 10
-3.7365928126
 20
-2.1197216292
 10
-3.7384147328
 20
-2.1400923318
 10
-3.7331243981
 20
-2.1600637029
 10
-3.721359901
 20
-2.1772269005
 10
-3.7045402135
 20
-2.1895117896
 10
-3.684694038
 20
-2.1954366313
 10
-3.6642151163
 20
-2.1942868023
 10
-3.6455735085
 20
-2.1862009889
 10
-3.6310176677
 20
-2.1721544595
 10
-3.6223032431
 20
-2.1538414329
 10
-3.6204813229
 20
-2.1334707303
 10
-3.6257716575
 20
-2.1134993592
 10
-3.6375361546
 20
-2.0963361616
 10
-3.6543558422
 20
-2.0840512725
  0
LWPOLYLINE
  5
81
330
1F
100
AcDbEntity
  8
0
  6
Continuous
 62
     7
370
    25
100
AcDbPolyline
 90
       19
 70
   128
 43
0.0
 10
3.6125418325
 20
1.9995779723
 10
3.632388008
 20
1.9936531305
 10
3.6528669297
 20
1.9948029596
 10
3.6715085375
 20
2.002888773
 10
3.6860643783
 20
2.0169353024
 10
3.6947788029
 20
2.035248329
 10
3.6966007231
 20
2.0556190315
 10
3.6913103884
 20
2.0755904026
 10
3.6795458913
 20
2.0927536002
 10
3.6627262038
 20
2.1050384893
 10
3.6428800283
 20
2.1109633311
 10
3.6224011066
 20
2.109813502
 10
3.6037594988
 20
2.1017276886
 10
3.589203658
 20
2.0876811592
 10
3.5804892334
 20
2.0693681326
 10
3.5786673131
 20
2.0489974301
 10
3.5839576478
 20
2.029026059
 10
3.5957221449
 20
2.0118628614
 10
3.6125418325
 20
1.9995779723
  0
LWPOLYLINE
  5
82
330
1F
100
AcDbEntity
  8
0
  6
Continuous
 62
     7
370
    25
100
AcDbPolyline
 90
       19
 70
   128
 43
0.0
 10
-2.9015902734
 20
-0.5021435165
 10
-2.9214364488
 20
-0.4962186748
 10
-2.9419153706
 20
-0.4973685038
 10
-2.9605569783
 20
-0.5054543173
 10
-2.9751128191
 20
-0.5195008466
 10
-2.9838272438
 20
-0.5378138732
 10
-2.985649164
 20
-0.5581845758
 10
-2.9803588293
 20
-0.5781559469
 10
-2.9685943322
 20
-0.5953191445
 10
-2.9517746446
 20
-0.6076040336
 10
-2.9319284691
 20
-0.6135288753
 10
-2.9114495474
 20
-0.6123790463
 10
-2.8928079396
 20
-0.6042932329
 10
-2.8782520988
 20
-0.5902467035
 10
-2.8695376742
 20
-0.5719336769
 10
-2.867715754
 20
-0.5515629743
 10
-2.8730060887
 20
-0.5315916032
 10
-2.8847705858
 20
-0.5144284057
 10
-2.9015902734
 20
-0.5021435165
  0
LWPOLYLINE
  5
83
330
1F
100
AcDbEntity
  8
0
  6
Continuous
 62
     7
370
    25
100
AcDbPolyline
 90
       19
 70
   128
 43
0.0
 10
-2.6506684171
 20
0.0251590688
 10
-2.6705145926
 20
0.0310839105
 10
-2.6909935143
 20
0.0299340815
 10
-2.7096351221
 20
0.0218482681
 10
-2.7241909629
 20
0.0078017387
 10
-2.7329053875
 20
-0.0105112879
 10
-2.7347273077
 20
-0.0308819905
 10
-2.729436973
 20
-0.0508533616
 10
-2.7176724759
 20
-0.0680165592
 10
-2.7008527883
 20
-0.0803014483
 10
-2.6810066129
 20
-0.08622629
 10
-2.6605276911
 20
-0.085076461
 10
-2.6418860834
 20
-0.0769906476
 10
-2.6273302426
 20
-0.0629441182
 10
-2.6186158179
 20
-0.0446310916
 10
-2.6167938977
 20
-0.024260389
 10
-2.6220842324
 20
-0.0042890179
 10
-2.6338487295
 20
0.0128741797
 10
-2.6506684171
 20
0.0251590688
  0
LWPOLYLINE
  5
84
330
1F
100
AcDbEntity
  8
0
  6
Continuous
 62
     7
370
    25
100
AcDbPolyline
 90
       19
 70
   128
 43
0.0
 10
-2.3997465608
 20
0.5524616541
 10
-2.4195927363
 20
0.5583864958
 10
-2.440071658
 20
0.5572366668
 10
-2.4587132658
 20
0.5491508534
 10
-2.4732691066
 20
0.535104324
 10
-2.4819835312
 20
0.5167912974
 10
-2.4838054514
 20
0.4964205949
 10
-2.4785151167
 20
0.4764492238
 10
-2.4667506196
 20
0.4592860262
 10
-2.4499309321
 20
0.447001137
 10
-2.4300847566
 20
0.4410762953
 10
-2.4096058349
 20
0.4422261243
 10
-2.3909642271
 20
0.4503119378
 10
-2.3764083863
 20
0.4643584672
 10
-2.3676939617
 20
0.4826714938
 10
-2.3658720414
 20
0.5030421963
 10
-2.3711623761
 20
0.5230135674
 10
-2.3829268732
 20
0.540176765
 10
-2.3997465608
 20
0.5524616541
  0
LWPOLYLINE
  5
85
330
1F
100
AcDbEntity
  8
0
  6
Continuous
 62
     7
370
    25
100
AcDbPolyline
 90
       19
 70
   128
 43
0.0
 10
-2.1488247045
 20
1.0797642394
 10
-2.16867088
 20
1.0856890812
 10
-2.1891498017
 20
1.0845392521
 10
-2.2077914095
 20
1.0764534387
 10
-2.2223472503
 20
1.0624069093
 10
-2.2310616749
 20
1.0440938827
 10
-2.2328835951
 20
1.0237231802
 10
-2.2275932604
 20
1.0037518091
 10
-2.2158287633
 20
0.9865886115
 10
-2.1990090758
 20
0.9743037224
 10
-2.1791629003
 20
0.9683788806
 10
-2.1586839786
 20
0.9695287097
 10
-2.1400423708
 20
0.9776145231
 10
-2.12548653
 20
0.9916610525
 10
-2.1167721054
 20
1.0099740791
 10
-2.1149501852
 20
1.0303447816
 10
-2.1202405198
 20
1.0503161527
 10
-2.1320050169
 20
1.0674793503
 10
-2.1488247045
 20
1.0797642394
  0
LWPOLYLINE
  5
86
330
1F
100
AcDbEntity
  8
0
  6
Continuous
 62
     7
370
    25
100
AcDbPolyline
 90
       19
 70
   128
 43
0.0
 10
-0.6432935668
 20
4.2435797514
 10
-0.6631397423
 20
4.2495045931
 10
-0.683618664
 20
4.2483547641
 10
-0.7022602718
 20
4.2402689507
 10
-0.7168161126
 20
4.2262224213
 10
-0.7255305372
 20
4.2079093947
 10
-0.7273524574
 20
4.1875386921
 10
-0.7220621227
 20
4.167567321
 10
-0.7102976256
 20
4.1504041234
 10
-0.6934779381
 20
4.1381192343
 10
-0.6736317626
 20
4.1321943926
 10
-0.6531528409
 20
4.1333442216
 10
-0.6345112331
 20
4.141430035
 10
-0.6199553923
 20
4.1554765644
 10
-0.6112409677
 20
4.173789591
 10
-0.6094190475
 20
4.1941602936
 10
-0.6147093821
 20
4.2141316647
 10
-0.6264738792
 20
4.2312948623
 10
-0.6432935668
 20
4.2435797514
  0
LWPOLYLINE
  5
87
330
1F
100
AcDbEntity
  8
0
  6
Continuous
 62
     7
370
    25
100
AcDbPolyline
 90
       19
 70
   128
 43
0.0
 10
0.8524014134
 20
-3.8007504663
 10
0.8722475889
 20
-3.806675308
 10
0.8927265106
 20
-3.805525479
 10
0.9113681184
 20
-3.7974396656
 10
0.9259239592
 20
-3.7833931362
 10
0.9346383838
 20
-3.7650801096
 10
0.936460304
 20
-3.7447094071
 10
0.9311699693
 20
-3.7247380359
 10
0.9194054722
 20
-3.7075748384
 10
0.9025857846
 20
-3.6952899492
 10
0.8827396092
 20
-3.6893651075
 10
0.8622606874
 20
-3.6905149365
 10
0.8436190797
 20
-3.69860075
 10
0.8290632389
 20
-3.7126472794
 10
0.8203488142
 20
-3.730960306
 10
0.818526894
 20
-3.7513310085
 10
0.8238172287
 20
-3.7713023796
 10
0.8355817258
 20
-3.7884655772
 10
0.8524014134
 20
-3.8007504663
  0
LWPOLYLINE
  5
88
330
1F
100
AcDbEntity
  8
0
  6
Continuous
 62
     7
370
    25
100
AcDbPolyline
 90
       19
 70
   128
 43
0.0
 10
1.1033232697
 20
-3.273447881
 10
1.1231694451
 20
-3.2793727227
 10
1.1436483669
 20
-3.2782228937
 10
1.1622899746
 20
-3.2701370803
 10
1.1768458155
 20
-3.2560905509
 10
1.1855602401
 20
-3.2377775243
 10
1.1873821603
 20
-3.2174068217
 10
1.1820918256
 20
-3.1974354506
 10
1.1703273285
 20
-3.180272253
 10
1.1535076409
 20
-3.1679873639
 10
1.1336614654
 20
-3.1620625222
 10
1.1131825437
 20
-3.1632123512
 10
1.0945409359
 20
-3.1712981646
 10
1.0799850951
 20
-3.185344694
 10
1.0712706705
 20
-3.2036577206
 10
1.0694487503
 20
-3.2240284232
 10
1.074739085
 20
-3.2439997943
 10
1.0865035821
 20
-3.2611629919
 10
1.1033232697
 20
-3.273447881
  0
LWPOLYLINE
  5
89
330
1F
100
AcDbEntity
  8
0
  6
Continuous
 62
     7
370
    25
100
AcDbPolyline
 90
       19
 70
   128
 43
0.0
 10
1.3542451259
 20
-2.7461452957
 10
1.3740913014
 20
-2.7520701374
 10
1.3945702232
 20
-2.7509203084
 10
1.4132118309
 20
-2.7428344949
 10
1.4277676717
 20
-2.7287879656
 10
1.4364820963
 20
-2.710474939
 10
1.4383040166
 20
-2.6901042364
 10
1.4330136819
 20
-2.6701328653
 10
1.4212491848
 20
-2.6529696677
 10
1.4044294972
 20
-2.6406847786
 10
1.3845833217
 20
-2.6347599369
 10
1.3641044
 20
-2.6359097659
 10
1.3454627922
 20
-2.6439955793
 10
1.3309069514
 20
-2.6580421087
 10
1.3221925268
 20
-2.6763551353
 10
1.3203706066
 20
-2.6967258378
 10
1.3256609413
 20
-2.716697209
 10
1.3374254384
 20
-2.7338604065
 10
1.3542451259
 20
-2.7461452957
  0
LWPOLYLINE
  5
8A
330
1F
100
AcDbEntity
  8
0
  6
Continuous
 62
     7
370
    25
100
AcDbPolyline
 90
       19
 70
   128
 43
0.0
 10
1.6051669822
 20
-2.2188427103
 10
1.6250131577
 20
-2.2247675521
 10
1.6454920794
 20
-2.223617723
 10
1.6641336872
 20
-2.2155319096
 10
1.678689528
 20
-2.2014853802
 10
1.6874039526
 20
-2.1831723536
 10
1.6892258728
 20
-2.1628016511
 10
1.6839355382
 20
-2.14283028
 10
1.6721710411
 20
-2.1256670824
 10
1.6553513535
 20
-2.1133821933
 10
1.635505178
 20
-2.1074573515
 10
1.6150262563
 20
-2.1086071806
 10
1.5963846485
 20
-2.116692994
 10
1.5818288077
 20
-2.1307395234
 10
1.5731143831
 20
-2.14905255
 10
1.5712924629
 20
-2.1694232525
 10
1.5765827976
 20
-2.1893946236
 10
1.5883472947
 20
-2.2065578212
 10
1.6051669822
 20
-2.2188427103
  0
LWPOLYLINE
  5
8B
330
1F
100
AcDbEntity
  8
0
  6
Continuous
 62
     7
370
    25
100
AcDbPolyline
 90
       19
 70
   128
 43
0.0
 10
1.8560888385
 20
-1.691540125
 10
1.875935014
 20
-1.6974649667
 10
1.8964139357
 20
-1.6963151377
 10
1.9150555435
 20
-1.6882293243
 10
1.9296113843
 20
-1.6741827949
 10
1.9383258089
 20
-1.6558697683
 10
1.9401477291
 20
-1.6354990658
 10
1.9348573945
 20
-1.6155276946
 10
1.9230928973
 20
-1.5983644971
 10
1.9062732098
 20
-1.5860796079
 10
1.8864270343
 20
-1.5801547662
 10
1.8659481126
 20
-1.5813045952
 10
1.8473065048
 20
-1.5893904087
 10
1.832750664
 20
-1.6034369381
 10
1.8240362394
 20
-1.6217499647
 10
1.8222143192
 20
-1.6421206672
 10
1.8275046538
 20
-1.6620920383
 10
1.8392691509
 20
-1.6792552359
 10
1.8560888385
 20
-1.691540125
  0
LWPOLYLINE
  5
8C
330
1F
100
AcDbEntity
  8
0
  6
Continuous
 62
     7
370
    25
100
AcDbPolyline
 90
       19
 70
   128
 43
0.0
 10
2.1070106948
 20
-1.1642375397
 10
2.1268568703
 20
-1.1701623814
 10
2.147335792
 20
-1.1690125524
 10
2.1659773998
 20
-1.160926739
 10
2.1805332406
 20
-1.1468802096
 10
2.1892476652
 20
-1.128567183
 10
2.1910695854
 20
-1.1081964804
 10
2.1857792507
 20
-1.0882251093
 10
2.1740147536
 20
-1.0710619117
 10
2.1571950661
 20
-1.0587770226
 10
2.1373488906
 20
-1.0528521809
 10
2.1168699689
 20
-1.0540020099
 10
2.0982283611
 20
-1.0620878233
 10
2.0836725203
 20
-1.0761343527
 10
2.0749580957
 20
-1.0944473793
 10
2.0731361754
 20
-1.1148180819
 10
2.0784265101
 20
-1.134789453
 10
2.0901910072
 20
-1.1519526506
 10
2.1070106948
 20
-1.1642375397
  0
LWPOLYLINE
  5
8D
330
1F
100
AcDbEntity
  8
0
  6
Continuous
 62
     7
370
    25
100
AcDbPolyline
 90
       19
 70
   128
 43
0.0
 10
2.3579325511
 20
-0.6369349544
 10
2.3777787266
 20
-0.6428597961
 10
2.3982576483
 20
-0.6417099671
 10
2.4168992561
 20
-0.6336241536
 10
2.4314550969
 20
-0.6195776243
 10
2.4401695215
 20
-0.6012645977
 10
2.4419914417
 20
-0.5808938951
 10
2.436701107
 20
-0.560922524
 10
2.4249366099
 20
-0.5437593264
 10
2.4081169223
 20
-0.5314744373
 10
2.3882707469
 20
-0.5255495956
 10
2.3677918251
 20
-0.5266994246
 10
2.3491502174
 20
-0.534785238
 10
2.3345943766
 20
-0.5488317674
 10
2.3258799519
 20
-0.567144794
 10
2.3240580317
 20
-0.5875154965
 10
2.3293483664
 20
-0.6074868677
 10
2.3411128635
 20
-0.6246500652
 10
2.3579325511
 20
-0.6369349544
  0
LWPOLYLINE
  5
8E
330
1F
100
AcDbEntity
  8
0
  6
Continuous
 62
     7
370
    25
100
AcDbPolyline
 90
       19
 70
   128
 43
0.0
 10
2.6088544074
 20
-0.109632369
 10
2.6287005828
 20
-0.1155572108
 10
2.6491795046
 20
-0.1144073817
 10
2.6678211123
 20
-0.1063215683
 10
2.6823769532
 20
-0.0922750389
 10
2.6910913778
 20
-0.0739620123
 10
2.692913298
 20
-0.0535913098
 10
2.6876229633
 20
-0.0336199387
 10
2.6758584662
 20
-0.0164567411
 10
2.6590387786
 20
-0.004171852
 10
2.6391926031
 20
0.0017529898
 10
2.6187136814
 20
0.0006031607
 10
2.6000720736
 20
-0.0074826527
 10
2.5855162328
 20
-0.0215291821
 10
2.5768018082
 20
-0.0398422087
 10
2.574979888
 20
-0.0602129112
 10
2.5802702227
 20
-0.0801842823
 10
2.5920347198
 20
-0.0973474799
 10
2.6088544074
 20
-0.109632369
  0
LWPOLYLINE
  5
8F
330
1F
100
AcDbEntity
  8
0
  6
Continuous
 62
     7
370
    25
100
AcDbPolyline
 90
       19
 70
   128
 43
0.0
 10
-1.8979028482
 20
1.6070668248
 10
-1.9177490237
 20
1.6129916665
 10
-1.9382279454
 20
1.6118418375
 10
-1.9568695532
 20
1.603756024
 10
-1.971425394
 20
1.5897094947
 10
-1.9801398186
 20
1.5713964681
 10
-1.9819617388
 20
1.5510257655
 10
-1.9766714042
 20
1.5310543944
 10
-1.9649069071
 20
1.5138911968
 10
-1.9480872195
 20
1.5016063077
 10
-1.928241044
 20
1.495681466
 10
-1.9077621223
 20
1.496831295
 10
-1.8891205145
 20
1.5049171084
 10
-1.8745646737
 20
1.5189636378
 10
-1.8658502491
 20
1.5372766644
 10
-1.8640283289
 20
1.557647367
 10
-1.8693186636
 20
1.5776187381
 10
-1.8810831607
 20
1.5947819356
 10
-1.8979028482
 20
1.6070668248
  0
LWPOLYLINE
  5
90
330
1F
100
AcDbEntity
  8
0
  6
Continuous
 62
     7
370
    25
100
AcDbPolyline
 90
       19
 70
   128
 43
0.0
 10
-1.6469809919
 20
2.1343694101
 10
-1.6668271674
 20
2.1402942518
 10
-1.6873060891
 20
2.1391444228
 10
-1.7059476969
 20
2.1310586094
 10
-1.7205035377
 20
2.11701208
 10
-1.7292179623
 20
2.0986990534
 10
-1.7310398826
 20
2.0783283508
 10
-1.7257495479
 20
2.0583569797
 10
-1.7139850508
 20
2.0411937821
 10
-1.6971653632
 20
2.028908893
 10
-1.6773191877
 20
2.0229840513
 10
-1.656840266
 20
2.0241338803
 10
-1.6381986582
 20
2.0322196937
 10
-1.6236428174
 20
2.0462662231
 10
-1.6149283928
 20
2.0645792497
 10
-1.6131064726
 20
2.0849499523
 10
-1.6183968073
 20
2.1049213234
 10
-1.6301613044
 20
2.122084521
 10
-1.6469809919
 20
2.1343694101
  0
LWPOLYLINE
  5
91
330
1F
100
AcDbEntity
  8
0
  6
Continuous
 62
     7
370
    25
100
AcDbPolyline
 90
       19
 70
   128
 43
0.0
 10
-1.3960591357
 20
2.6616719954
 10
-1.4159053111
 20
2.6675968371
 10
-1.4363842329
 20
2.6664470081
 10
-1.4550258406
 20
2.6583611947
 10
-1.4695816814
 20
2.6443146653
 10
-1.4782961061
 20
2.6260016387
 10
-1.4801180263
 20
2.6056309362
 10
-1.4748276916
 20
2.5856595651
 10
-1.4630631945
 20
2.5684963675
 10
-1.4462435069
 20
2.5562114783
 10
-1.4263973314
 20
2.5502866366
 10
-1.4059184097
 20
2.5514364656
 10
-1.3872768019
 20
2.5595222791
 10
-1.3727209611
 20
2.5735688085
 10
-1.3640065365
 20
2.5918818351
 10
-1.3621846163
 20
2.6122525376
 10
-1.367474951
 20
2.6322239087
 10
-1.3792394481
 20
2.6493871063
 10
-1.3960591357
 20
2.6616719954
  0
LWPOLYLINE
  5
92
330
1F
100
AcDbEntity
  8
0
  6
Continuous
 62
     7
370
    25
100
AcDbPolyline
 90
       19
 70
   128
 43
0.0
 10
-1.1451372794
 20
3.1889745807
 10
-1.1649834549
 20
3.1948994225
 10
-1.1854623766
 20
3.1937495934
 10
-1.2041039844
 20
3.18566378
 10
-1.2186598252
 20
3.1716172506
 10
-1.2273742498
 20
3.153304224
 10
-1.22919617
 20
3.1329335215
 10
-1.2239058353
 20
3.1129621504
 10
-1.2121413382
 20
3.0957989528
 10
-1.1953216506
 20
3.0835140637
 10
-1.1754754752
 20
3.0775892219
 10
-1.1549965534
 20
3.078739051
 10
-1.1363549457
 20
3.0868248644
 10
-1.1217991049
 20
3.1008713938
 10
-1.1130846802
 20
3.1191844204
 10
-1.11126276
 20
3.1395551229
 10
-1.1165530947
 20
3.159526494
 10
-1.1283175918
 20
3.1766896916
 10
-1.1451372794
 20
3.1889745807
  0
LWPOLYLINE
  5
93
330
1F
100
AcDbEntity
  8
0
  6
Continuous
 62
     7
370
    25
100
AcDbPolyline
 90
       19
 70
   128
 43
0.0
 10
-0.8942154231
 20
3.7162771661
 10
-0.9140615986
 20
3.7222020078
 10
-0.9345405203
 20
3.7210521788
 10
-0.9531821281
 20
3.7129663653
 10
-0.9677379689
 20
3.698919836
 10
-0.9764523935
 20
3.6806068094
 10
-0.9782743137
 20
3.6602361068
 10
-0.972983979
 20
3.6402647357
 10
-0.9612194819
 20
3.6231015381
 10
-0.9443997944
 20
3.610816649
 10
-0.9245536189
 20
3.6048918073
 10
-0.9040746971
 20
3.6060416363
 10
-0.8854330894
 20
3.6141274497
 10
-0.8708772486
 20
3.6281739791
 10
-0.862162824
 20
3.6464870057
 10
-0.8603409037
 20
3.6668577083
 10
-0.8656312384
 20
3.6868290794
 10
-0.8773957355
 20
3.7039922769
 10
-0.8942154231
 20
3.7162771661
  0
LWPOLYLINE
  5
94
330
1F
100
AcDbEntity
  8
0
  6
Continuous
 62
     7
370
    25
100
AcDbPolyline
 90
       19
 70
   128
 43
0.0
 10
3.3616199762
 20
1.4722753869
 10
3.3814661517
 20
1.4663505452
 10
3.4019450734
 20
1.4675003742
 10
3.4205866812
 20
1.4755861877
 10
3.435142522
 20
1.489632717
 10
3.4438569466
 20
1.5079457436
 10
3.4456788668
 20
1.5283164462
 10
3.4403885322
 20
1.5482878173
 10
3.428624035
 20
1.5654510149
 10
3.4118043475
 20
1.577735904
 10
3.391958172
 20
1.5836607457
 10
3.3714792503
 20
1.5825109167
 10
3.3528376425
 20
1.5744251033
 10
3.3382818017
 20
1.5603785739
 10
3.3295673771
 20
1.5420655473
 10
3.3277454569
 20
1.5216948448
 10
3.3330357915
 20
1.5017234736
 10
3.3448002886
 20
1.4845602761
 10
3.3616199762
 20
1.4722753869
  0
LWPOLYLINE
  5
95
330
1F
100
AcDbEntity
  8
0
  6
Continuous
 62
     7
370
    25
100
AcDbPolyline
 90
       19
 70
   128
 43
0.0
 10
3.1106981199
 20
0.9449728016
 10
3.1305442954
 20
0.9390479599
 10
3.1510232171
 20
0.9401977889
 10
3.1696648249
 20
0.9482836023
 10
3.1842206657
 20
0.9623301317
 10
3.1929350903
 20
0.9806431583
 10
3.1947570105
 20
1.0010138609
 10
3.1894666759
 20
1.020985232
 10
3.1777021788
 20
1.0381484296
 10
3.1608824912
 20
1.0504333187
 10
3.1410363157
 20
1.0563581604
 10
3.120557394
 20
1.0552083314
 10
3.1019157862
 20
1.047122518
 10
3.0873599454
 20
1.0330759886
 10
3.0786455208
 20
1.014762962
 10
3.0768236006
 20
0.9943922594
 10
3.0821139353
 20
0.9744208883
 10
3.0938784324
 20
0.9572576907
 10
3.1106981199
 20
0.9449728016
  0
LWPOLYLINE
  5
96
330
1F
100
AcDbEntity
  8
0
  6
Continuous
 62
     7
370
    25
100
AcDbPolyline
 90
       19
 70
   128
 43
0.0
 10
2.8597762636
 20
0.4176702163
 10
2.8796224391
 20
0.4117453746
 10
2.9001013609
 20
0.4128952036
 10
2.9187429686
 20
0.420981017
 10
2.9332988094
 20
0.4350275464
 10
2.9420132341
 20
0.453340573
 10
2.9438351543
 20
0.4737112755
 10
2.9385448196
 20
0.4936826467
 10
2.9267803225
 20
0.5108458442
 10
2.9099606349
 20
0.5231307334
 10
2.8901144594
 20
0.5290555751
 10
2.8696355377
 20
0.5279057461
 10
2.8509939299
 20
0.5198199326
 10
2.8364380891
 20
0.5057734032
 10
2.8277236645
 20
0.4874603766
 10
2.8259017443
 20
0.4670896741
 10
2.831192079
 20
0.447118303
 10
2.8429565761
 20
0.4299551054
 10
2.8597762636
 20
0.4176702163
  0
LWPOLYLINE
  5
97
330
1F
100
AcDbEntity
  8
0
  6
Continuous
 62
     7
370
    25
100
AcDbPolyline
 90
       19
 70
   128
 43
0.0
 10
3.0540367973
 20
2.282001539
 10
3.0722681921
 20
2.2765587711
 10
3.0910808499
 20
2.2776150444
 10
3.1082056864
 20
2.285042957
 10
3.1215771937
 20
2.2979465929
 10
3.1295825707
 20
2.3147695833
 10
3.1312562506
 20
2.3334828271
 10
3.1263963631
 20
2.351829231
 10
3.1155890823
 20
2.3675959479
 10
3.1001379258
 20
2.3788812791
 10
3.081906531
 20
2.3843240471
 10
3.0630938732
 20
2.3832677737
 10
3.0459690367
 20
2.3758398611
 10
3.0325975294
 20
2.3629362252
 10
3.0245921524
 20
2.3461132349
 10
3.0229184725
 20
2.3273999911
 10
3.02777836
 20
2.3090535872
 10
3.0385856408
 20
2.2932868703
 10
3.0540367973
 20
2.282001539
  0
LWPOLYLINE
  5
98
330
1F
100
AcDbEntity
  8
0
  6
Continuous
 62
     7
370
    25
100
AcDbPolyline
 90
       19
 70
   128
 43
0.0
 10
-3.1220967136
 20
-2.4727008701
 10
-3.1041782472
 20
-2.478050217
 10
-3.0856884948
 20
-2.4770120737
 10
-3.0688575934
 20
-2.4697116558
 10
-3.0557155981
 20
-2.4570295012
 10
-3.0478476275
 20
-2.4404952651
 10
-3.046202675
 20
-2.4221032203
 10
-3.0509791461
 20
-2.4040717188
 10
-3.061600928
 20
-2.3885756259
 10
-3.0767868769
 20
-2.377483999
 10
-3.0947053433
 20
-2.3721346521
 10
-3.1131950957
 20
-2.3731727954
 10
-3.130025997
 20
-2.3804732133
 10
-3.1431679923
 20
-2.3931553679
 10
-3.1510359629
 20
-2.409689604
 10
-3.1526809154
 20
-2.4280816488
 10
-3.1479044443
 20
-2.4461131503
 10
-3.1372826624
 20
-2.4616092432
 10
-3.1220967136
 20
-2.4727008701
  0
LWPOLYLINE
  5
99
330
1F
100
AcDbEntity
  8
0
  6
Continuous
 62
     7
370
    25
100
AcDbPolyline
 90
       19
 70
   128
 43
0.0
 10
-2.7875342385
 20
-1.7696307563
 10
-2.7696157721
 20
-1.7749801032
 10
-2.7511260197
 20
-1.77394196
 10
-2.7342951183
 20
-1.766641542
 10
-2.721153123
 20
-1.7539593874
 10
-2.7132851525
 20
-1.7374251513
 10
-2.7116402
 20
-1.7190331065
 10
-2.7164166711
 20
-1.701001605
 10
-2.7270384529
 20
-1.6855055121
 10
-2.7422244018
 20
-1.6744138853
 10
-2.7601428682
 20
-1.6690645384
 10
-2.7786326206
 20
-1.6701026816
 10
-2.795463522
 20
-1.6774030996
 10
-2.8086055173
 20
-1.6900852541
 10
-2.8164734879
 20
-1.7066194903
 10
-2.8181184404
 20
-1.7250115351
 10
-2.8133419692
 20
-1.7430430365
 10
-2.8027201874
 20
-1.7585391294
 10
-2.7875342385
 20
-1.7696307563
  0
LWPOLYLINE
  5
9A
330
1F
100
AcDbEntity
  8
0
  6
Continuous
 62
     7
370
    25
100
AcDbPolyline
 90
       19
 70
   128
 43
0.0
 10
-2.4529717635
 20
-1.0665606425
 10
-2.4350532971
 20
-1.0719099894
 10
-2.4165635447
 20
-1.0708718462
 10
-2.3997326433
 20
-1.0635714282
 10
-2.386590648
 20
-1.0508892737
 10
-2.3787226774
 20
-1.0343550375
 10
-2.3770777249
 20
-1.0159629927
 10
-2.3818541961
 20
-0.9979314913
 10
-2.3924759779
 20
-0.9824353984
 10
-2.4076619268
 20
-0.9713437715
 10
-2.4255803932
 20
-0.9659944246
 10
-2.4440701456
 20
-0.9670325678
 10
-2.460901047
 20
-0.9743329858
 10
-2.4740430422
 20
-0.9870151404
 10
-2.4819110128
 20
-1.0035493765
 10
-2.4835559653
 20
-1.0219414213
 10
-2.4787794942
 20
-1.0399729228
 10
-2.4681577124
 20
-1.0554690157
 10
-2.4529717635
 20
-1.0665606425
  0
LWPOLYLINE
  5
9B
330
1F
100
AcDbEntity
  8
0
  6
Continuous
 62
     7
370
    25
100
AcDbPolyline
 90
       19
 70
   128
 43
0.0
 10
-0.1110344382
 20
3.8549301538
 10
-0.0931159718
 20
3.8495808069
 10
-0.0746262194
 20
3.8506189502
 10
-0.057795318
 20
3.8579193681
 10
-0.0446533227
 20
3.8706015227
 10
-0.0367853521
 20
3.8871357588
 10
-0.0351403996
 20
3.9055278036
 10
-0.0399168707
 20
3.9235593051
 10
-0.0505386526
 20
3.939055398
 10
-0.0657246015
 20
3.9501470249
 10
-0.0836430679
 20
3.9554963718
 10
-0.1021328203
 20
3.9544582285
 10
-0.1189637216
 20
3.9471578106
 10
-0.1321057169
 20
3.934475656
 10
-0.1399736875
 20
3.9179414199
 10
-0.14161864
 20
3.8995493751
 10
-0.1368421689
 20
3.8815178736
 10
-0.126220387
 20
3.8660217807
 10
-0.1110344382
 20
3.8549301538
  0
LWPOLYLINE
  5
9C
330
1F
100
AcDbEntity
  8
0
  6
Continuous
 62
     7
370
    25
100
AcDbPolyline
 90
       19
 70
   128
 43
0.0
 10
2.7194743223
 20
1.5789314253
 10
2.7377057171
 20
1.5734886573
 10
2.7565183748
 20
1.5745449307
 10
2.7736432114
 20
1.5819728433
 10
2.7870147187
 20
1.5948764792
 10
2.7950200956
 20
1.6116994695
 10
2.7966937756
 20
1.6304127133
 10
2.7918338881
 20
1.6487591172
 10
2.7810266073
 20
1.6645258342
 10
2.7655754507
 20
1.6758111654
 10
2.7473440559
 20
1.6812539334
 10
2.7285313982
 20
1.68019766
 10
2.7114065616
 20
1.6727697474
 10
2.6980350543
 20
1.6598661115
 10
2.6900296774
 20
1.6430431211
 10
2.6883559974
 20
1.6243298773
 10
2.6932158849
 20
1.6059834734
 10
2.7040231657
 20
1.5902167565
 10
2.7194743223
 20
1.5789314253
  0
LWPOLYLINE
  5
9D
330
1F
100
AcDbEntity
  8
0
  6
Continuous
 62
     7
370
    25
100
AcDbPolyline
 90
       19
 70
   128
 43
0.0
 10
2.3849118472
 20
0.8758613115
 10
2.403143242
 20
0.8704185435
 10
2.4219558998
 20
0.8714748169
 10
2.4390807363
 20
0.8789027295
 10
2.4524522436
 20
0.8918063654
 10
2.4604576206
 20
0.9086293557
 10
2.4621313006
 20
0.9273425995
 10
2.4572714131
 20
0.9456890034
 10
2.4464641323
 20
0.9614557204
 10
2.4310129757
 20
0.9727410516
 10
2.4127815809
 20
0.9781838196
 10
2.3939689231
 20
0.9771275462
 10
2.3768440866
 20
0.9696996336
 10
2.3634725793
 20
0.9567959977
 10
2.3554672024
 20
0.9399730074
 10
2.3537935224
 20
0.9212597636
 10
2.3586534099
 20
0.9029133597
 10
2.3694606907
 20
0.8871466427
 10
2.3849118472
 20
0.8758613115
  0
LWPOLYLINE
  5
9E
330
1F
100
AcDbEntity
  8
0
  6
Continuous
 62
     7
370
    25
100
AcDbPolyline
 90
       19
 70
   128
 43
0.0
 10
2.0503493722
 20
0.1727911977
 10
2.068580767
 20
0.1673484298
 10
2.0873934247
 20
0.1684047031
 10
2.1045182613
 20
0.1758326157
 10
2.1178897686
 20
0.1887362516
 10
2.1258951455
 20
0.205559242
 10
2.1275688255
 20
0.2242724858
 10
2.122708938
 20
0.2426188897
 10
2.1119016572
 20
0.2583856066
 10
2.0964505006
 20
0.2696709378
 10
2.0782191059
 20
0.2751137058
 10
2.0594064481
 20
0.2740574324
 10
2.0422816116
 20
0.2666295198
 10
2.0289101043
 20
0.2537258839
 10
2.0209047273
 20
0.2369028936
 10
2.0192310473
 20
0.2181896498
 10
2.0240909348
 20
0.1998432459
 10
2.0348982156
 20
0.184076529
 10
2.0503493722
 20
0.1727911977
  0
LWPOLYLINE
  5
9F
330
1F
100
AcDbEntity
  8
0
  6
Continuous
 62
     7
370
    25
100
AcDbPolyline
 90
       19
 70
   128
 43
0.0
 10
1.7157868972
 20
-0.530278916
 10
1.7340182919
 20
-0.535721684
 10
1.7528309497
 20
-0.5346654106
 10
1.7699557862
 20
-0.527237498
 10
1.7833272935
 20
-0.5143338621
 10
1.7913326705
 20
-0.4975108718
 10
1.7930063505
 20
-0.478797628
 10
1.788146463
 20
-0.4604512241
 10
1.7773391822
 20
-0.4446845071
 10
1.7618880256
 20
-0.4333991759
 10
1.7436566308
 20
-0.4279564079
 10
1.7248439731
 20
-0.4290126813
 10
1.7077191365
 20
-0.4364405939
 10
1.6943476292
 20
-0.4493442298
 10
1.6863422523
 20
-0.4661672202
 10
1.6846685723
 20
-0.484880464
 10
1.6895284598
 20
-0.5032268679
 10
1.7003357406
 20
-0.5189935848
 10
1.7157868972
 20
-0.530278916
  0
LWPOLYLINE
  5
A0
330
1F
100
AcDbEntity
  8
0
  6
Continuous
 62
     7
370
    25
100
AcDbPolyline
 90
       19
 70
   128
 43
0.0
 10
1.3812244221
 20
-1.2333490298
 10
1.3994558169
 20
-1.2387917978
 10
1.4182684747
 20
-1.2377355244
 10
1.4353933112
 20
-1.2303076118
 10
1.4487648185
 20
-1.2174039759
 10
1.4567701954
 20
-1.2005809856
 10
1.4584438754
 20
-1.1818677418
 10
1.4535839879
 20
-1.1635213379
 10
1.4427767071
 20
-1.1477546209
 10
1.4273255506
 20
-1.1364692897
 10
1.4090941558
 20
-1.1310265217
 10
1.390281498
 20
-1.1320827951
 10
1.3731566615
 20
-1.1395107077
 10
1.3597851542
 20
-1.1524143436
 10
1.3517797772
 20
-1.1692373339
 10
1.3501060972
 20
-1.1879505777
 10
1.3549659847
 20
-1.2062969816
 10
1.3657732655
 20
-1.2220636986
 10
1.3812244221
 20
-1.2333490298
  0
LWPOLYLINE
  5
A1
330
1F
100
AcDbEntity
  8
0
  6
Continuous
 62
     7
370
    25
100
AcDbPolyline
 90
       19
 70
   128
 43
0.0
 10
1.0466619471
 20
-1.9364191436
 10
1.0648933419
 20
-1.9418619115
 10
1.0837059996
 20
-1.9408056382
 10
1.1008308361
 20
-1.9333777256
 10
1.1142023435
 20
-1.9204740897
 10
1.1222077204
 20
-1.9036510993
 10
1.1238814004
 20
-1.8849378555
 10
1.1190215129
 20
-1.8665914516
 10
1.1082142321
 20
-1.8508247347
 10
1.0927630755
 20
-1.8395394035
 10
1.0745316807
 20
-1.8340966355
 10
1.055719023
 20
-1.8351529089
 10
1.0385941864
 20
-1.8425808215
 10
1.0252226791
 20
-1.8554844574
 10
1.0172173022
 20
-1.8723074477
 10
1.0155436222
 20
-1.8910206915
 10
1.0204035097
 20
-1.9093670954
 10
1.0312107905
 20
-1.9251338123
 10
1.0466619471
 20
-1.9364191436
  0
LWPOLYLINE
  5
A2
330
1F
100
AcDbEntity
  8
0
  6
Continuous
 62
     7
370
    25
100
AcDbPolyline
 90
       19
 70
   128
 43
0.0
 10
0.712099472
 20
-2.6394892573
 10
0.7303308668
 20
-2.6449320253
 10
0.7491435246
 20
-2.6438757519
 10
0.7662683611
 20
-2.6364478393
 10
0.7796398684
 20
-2.6235442034
 10
0.7876452454
 20
-2.6067212131
 10
0.7893189253
 20
-2.5880079693
 10
0.7844590378
 20
-2.5696615654
 10
0.773651757
 20
-2.5538948484
 10
0.7582006005
 20
-2.5426095172
 10
0.7399692057
 20
-2.5371667492
 10
0.7211565479
 20
-2.5382230226
 10
0.7040317114
 20
-2.5456509352
 10
0.6906602041
 20
-2.5585545711
 10
0.6826548271
 20
-2.5753775615
 10
0.6809811472
 20
-2.5940908053
 10
0.6858410346
 20
-2.6124372092
 10
0.6966483155
 20
-2.6282039261
 10
0.712099472
 20
-2.6394892573
  0
LWPOLYLINE
  5
A3
330
1F
100
AcDbEntity
  8
0
  6
Continuous
 62
     7
370
    25
100
AcDbPolyline
 90
       19
 70
   128
 43
0.0
 10
-2.1184092884
 20
-0.3634905288
 10
-2.100490822
 20
-0.3688398757
 10
-2.0820010696
 20
-0.3678017324
 10
-2.0651701682
 20
-0.3605013145
 10
-2.052028173
 20
-0.3478191599
 10
-2.0441602024
 20
-0.3312849238
 10
-2.0425152499
 20
-0.312892879
 10
-2.047291721
 20
-0.2948613775
 10
-2.0579135028
 20
-0.2793652846
 10
-2.0730994517
 20
-0.2682736577
 10
-2.0910179181
 20
-0.2629243108
 10
-2.1095076705
 20
-0.2639624541
 10
-2.1263385719
 20
-0.271262872
 10
-2.1394805672
 20
-0.2839450266
 10
-2.1473485378
 20
-0.3004792627
 10
-2.1489934903
 20
-0.3188713075
 10
-2.1442170191
 20
-0.336902809
 10
-2.1335952373
 20
-0.3523989019
 10
-2.1184092884
 20
-0.3634905288
  0
LWPOLYLINE
  5
A4
330
1F
100
AcDbEntity
  8
0
  6
Continuous
 62
     7
370
    25
100
AcDbPolyline
 90
       19
 70
   128
 43
0.0
 10
-1.7838468134
 20
0.339579585
 10
-1.765928347
 20
0.3342302381
 10
-1.7474385946
 20
0.3352683813
 10
-1.7306076932
 20
0.3425687993
 10
-1.7174656979
 20
0.3552509539
 10
-1.7095977273
 20
0.37178519
 10
-1.7079527748
 20
0.3901772348
 10
-1.712729246
 20
0.4082087363
 10
-1.7233510278
 20
0.4237048292
 10
-1.7385369767
 20
0.434796456
 10
-1.7564554431
 20
0.4401458029
 10
-1.7749451955
 20
0.4391076597
 10
-1.7917760969
 20
0.4318072417
 10
-1.8049180921
 20
0.4191250872
 10
-1.8127860627
 20
0.402590851
 10
-1.8144310152
 20
0.3841988062
 10
-1.8096545441
 20
0.3661673048
 10
-1.7990327623
 20
0.3506712119
 10
-1.7838468134
 20
0.339579585
  0
LWPOLYLINE
  5
A5
330
1F
100
AcDbEntity
  8
0
  6
Continuous
 62
     7
370
    25
100
AcDbPolyline
 90
       19
 70
   128
 43
0.0
 10
-1.4492843383
 20
1.0426496988
 10
-1.4313658719
 20
1.0373003519
 10
-1.4128761195
 20
1.0383384951
 10
-1.3960452181
 20
1.0456389131
 10
-1.3829032229
 20
1.0583210676
 10
-1.3750352523
 20
1.0748553038
 10
-1.3733902998
 20
1.0932473486
 10
-1.3781667709
 20
1.11127885
 10
-1.3887885527
 20
1.1267749429
 10
-1.4039745016
 20
1.1378665698
 10
-1.421892968
 20
1.1432159167
 10
-1.4403827204
 20
1.1421777735
 10
-1.4572136218
 20
1.1348773555
 10
-1.4703556171
 20
1.1221952009
 10
-1.4782235877
 20
1.1056609648
 10
-1.4798685402
 20
1.08726892
 10
-1.4750920691
 20
1.0692374185
 10
-1.4644702872
 20
1.0537413256
 10
-1.4492843383
 20
1.0426496988
  0
LWPOLYLINE
  5
A6
330
1F
100
AcDbEntity
  8
0
  6
Continuous
 62
     7
370
    25
100
AcDbPolyline
 90
       19
 70
   128
 43
0.0
 10
-1.1147218633
 20
1.7457198125
 10
-1.0968033969
 20
1.7403704656
 10
-1.0783136445
 20
1.7414086089
 10
-1.0614827431
 20
1.7487090268
 10
-1.0483407478
 20
1.7613911814
 10
-1.0404727773
 20
1.7779254175
 10
-1.0388278248
 20
1.7963174623
 10
-1.0436042959
 20
1.8143489638
 10
-1.0542260777
 20
1.8298450567
 10
-1.0694120266
 20
1.8409366836
 10
-1.087330493
 20
1.8462860305
 10
-1.1058202454
 20
1.8452478872
 10
-1.1226511468
 20
1.8379474693
 10
-1.1357931421
 20
1.8252653147
 10
-1.1436611126
 20
1.8087310786
 10
-1.1453060651
 20
1.7903390338
 10
-1.140529594
 20
1.7723075323
 10
-1.1299078122
 20
1.7568114394
 10
-1.1147218633
 20
1.7457198125
  0
LWPOLYLINE
  5
A7
330
1F
100
AcDbEntity
  8
0
  6
Continuous
 62
     7
370
    25
100
AcDbPolyline
 90
       19
 70
   128
 43
0.0
 10
-0.7801593882
 20
2.4487899263
 10
-0.7622409218
 20
2.4434405794
 10
-0.7437511694
 20
2.4444787226
 10
-0.7269202681
 20
2.4517791406
 10
-0.7137782728
 20
2.4644612952
 10
-0.7059103022
 20
2.4809955313
 10
-0.7042653497
 20
2.4993875761
 10
-0.7090418208
 20
2.5174190776
 10
-0.7196636027
 20
2.5329151705
 10
-0.7348495515
 20
2.5440067973
 10
-0.7527680179
 20
2.5493561442
 10
-0.7712577703
 20
2.548318001
 10
-0.7880886717
 20
2.541017583
 10
-0.801230667
 20
2.5283354285
 10
-0.8090986376
 20
2.5118011923
 10
-0.8107435901
 20
2.4934091475
 10
-0.805967119
 20
2.4753776461
 10
-0.7953453371
 20
2.4598815532
 10
-0.7801593882
 20
2.4487899263
  0
LWPOLYLINE
  5
A8
330
1F
100
AcDbEntity
  8
0
  6
Continuous
 62
     7
370
    25
100
AcDbPolyline
 90
       19
 70
   128
 43
0.0
 10
-0.4455969132
 20
3.1518600401
 10
-0.4276784468
 20
3.1465106932
 10
-0.4091886944
 20
3.1475488364
 10
-0.392357793
 20
3.1548492544
 10
-0.3792157977
 20
3.1675314089
 10
-0.3713478272
 20
3.1840656451
 10
-0.3697028747
 20
3.2024576899
 10
-0.3744793458
 20
3.2204891913
 10
-0.3851011276
 20
3.2359852842
 10
-0.4002870765
 20
3.2470769111
 10
-0.4182055429
 20
3.252426258
 10
-0.4366952953
 20
3.2513881148
 10
-0.4535261967
 20
3.2440876968
 10
-0.466668192
 20
3.2314055422
 10
-0.4745361625
 20
3.2148713061
 10
-0.476181115
 20
3.1964792613
 10
-0.4714046439
 20
3.1784477598
 10
-0.4607828621
 20
3.1629516669
 10
-0.4455969132
 20
3.1518600401
  0
LWPOLYLINE
  5
A9
330
1F
100
AcDbEntity
  8
0
  6
Continuous
 62
     7
370
    25
100
AcDbPolyline
 90
       19
 70
   128
 43
0.0
 10
0.0429745219
 20
-4.0456294849
 10
0.0612059167
 20
-4.0510722528
 10
0.0800185745
 20
-4.0500159795
 10
0.097143411
 20
-4.0425880669
 10
0.1105149183
 20
-4.029684431
 10
0.1185202953
 20
-4.0128614406
 10
0.1201939752
 20
-3.9941481968
 10
0.1153340877
 20
-3.9758017929
 10
0.1045268069
 20
-3.960035076
 10
0.0890756504
 20
-3.9487497448
 10
0.0708442556
 20
-3.9433069768
 10
0.0520315978
 20
-3.9443632502
 10
0.0349067613
 20
-3.9517911628
 10
0.021535254
 20
-3.9646947987
 10
0.013529877
 20
-3.981517789
 10
0.0118561971
 20
-4.0002310328
 10
0.0167160846
 20
-4.0185774367
 10
0.0275233654
 20
-4.0343441536
 10
0.0429745219
 20
-4.0456294849
  0
LWPOLYLINE
  5
AA
330
1F
100
AcDbEntity
  8
0
  6
Continuous
 62
     7
370
    25
100
AcDbPolyline
 90
       19
 70
   128
 43
0.0
 10
0.377536997
 20
-3.3425593711
 10
0.3957683918
 20
-3.3480021391
 10
0.4145810495
 20
-3.3469458657
 10
0.4317058861
 20
-3.3395179531
 10
0.4450773934
 20
-3.3266143172
 10
0.4530827703
 20
-3.3097913269
 10
0.4547564503
 20
-3.2910780831
 10
0.4498965628
 20
-3.2727316792
 10
0.439089282
 20
-3.2569649622
 10
0.4236381254
 20
-3.245679631
 10
0.4054067306
 20
-3.240236863
 10
0.3865940729
 20
-3.2412931364
 10
0.3694692363
 20
-3.248721049
 10
0.356097729
 20
-3.2616246849
 10
0.3480923521
 20
-3.2784476752
 10
0.3464186721
 20
-3.297160919
 10
0.3512785596
 20
-3.3155073229
 10
0.3620858404
 20
-3.3312740399
 10
0.377536997
 20
-3.3425593711
  0
LWPOLYLINE
  5
E8
330
1F
100
AcDbEntity
  8
0
  6
Continuous
 62
     7
370
    25
100
AcDbPolyline
 90
        3
 70
   128
 43
0.0
 10
0.7859779266
 20
-4.4062460684
 10
0.7630518714
 20
-4.4458514834
 10
0.7369395641
 20
-4.4782067769
  0
LINE
  5
EF
330
1F
100
AcDbEntity
  8
0
  6
Continuous
 62
     7
370
    25
100
AcDbLine
 10
-0.7369395641
 20
4.4782067769
 30
0.0
 11
-0.7385828831
 21
4.4764520181
 31
0.0
  0
LINE
  5
F0
330
1F
100
AcDbEntity
  8
0
  6
Continuous
 62
     7
370
    25
100
AcDbLine
 10
0.735296245
 20
-4.4799615356
 30
0.0
 11
0.7369395641
 21
-4.4782067769
 31
0.0
  0
LINE
  5
F1
330
1F
100
AcDbEntity
  8
0
  6
Continuous
 62
     7
370
    25
100
AcDbLine
 10
-0.3941507882
 20
4.5350383744
 30
0.0
 11
3.7331959628
 21
2.4852332643
 31
0.0
  0
LINE
  5
F2
330
1F
100
AcDbEntity
  8
0
  6
Continuous
 62
     7
370
    25
100
AcDbLine
 10
3.875744564
 20
2.0884777437
 30
0.0
 11
0.7843346076
 21
-4.4080008272
 31
0.0
  0
LINE
  5
F3
330
1F
100
AcDbEntity
  8
0
  6
Continuous
 62
     7
370
    25
100
AcDbLine
 10
-3.7364826009
 20
-2.4887427818
 30
0.0
 11
0.3908641501
 21
-4.5385478919
 31
0.0
  0
LINE
  5
F4
330
1F
100
AcDbEntity
  8
0
  6
Continuous
 62
     7
370
    25
100
AcDbLine
 10
-0.7876212456
 20
4.4044913097
 30
0.0
 11
-3.8790312021
 21
-2.0919872612
 31
0.0
  0
LINE
  5
F5
330
1F
100
AcDbEntity
  8
0
  6
Continuous
 62
     7
370
    25
100
AcDbLine
 10
3.877387883
 20
2.0902325025
 30
0.0
 11
3.875744564
 21
2.0884777437
 31
0.0
  0
LINE
  5
F6
330
1F
100
AcDbEntity
  8
0
  6
Continuous
 62
     7
370
    25
100
AcDbLine
 10
3.7331959628
 20
2.4852332643
 30
0.0
 11
3.7348392819
 21
2.4869880231
 31
0.0
  0
LINE
  5
F7
330
1F
100
AcDbEntity
  8
0
  6
Continuous
 62
     7
370
    25
100
AcDbLine
 10
-0.3925074692
 20
4.5367931332
 30
0.0
 11
-0.3941507882
 21
4.5350383744
 31
0.0
  0
LINE
  5
F8
330
1F
100
AcDbEntity
  8
0
  6
Continuous
 62
     7
370
    25
100
AcDbLine
 10
-0.3925074692
 20
4.5367931332
 30
0.0
 11
3.7348392819
 21
2.4869880231
 31
0.0
  0
LINE
  5
F9
330
1F
100
AcDbEntity
  8
0
  6
Continuous
 62
     7
370
    25
100
AcDbLine
 10
0.7843346076
 20
-4.4080008272
 30
0.0
 11
0.7859779266
 21
-4.4062460684
 31
0.0
  0
LINE
  5
FA
330
1F
100
AcDbEntity
  8
0
  6
Continuous
 62
     7
370
    25
100
AcDbLine
 10
3.877387883
 20
2.0902325025
 30
0.0
 11
0.7859779266
 21
-4.4062460684
 31
0.0
  0
ARC
  5
FB
330
1F
100
AcDbEntity
  8
0
  6
Continuous
 62
     7
370
    25
100
AcDbCircle
 10
-0.527022405
 20
4.2772791308
 30
0.0
 40
0.2899908519951363
100
AcDbArc
 50
62.7294695158
 51
153.9805313832
  0
ARC
  5
FC
330
1F
100
AcDbEntity
  8
0
  6
Continuous
 62
     7
370
    25
100
AcDbCircle
 10
3.6016317147
 20
2.2139785058
 30
0.0
 40
0.3014768571692464
100
AcDbArc
 50
335.3996369055
 51
64.1256417458
  0
ARC
  5
FD
330
1F
100
AcDbEntity
  8
0
  6
Continuous
 62
     7
370
    25
100
AcDbCircle
 10
0.5237357669
 20
-4.2807886482
 30
0.0
 40
0.2899908519951346
100
AcDbArc
 50
242.7294695158
 51
333.9805313832
  0
ARC
  5
FE
330
1F
100
AcDbEntity
  8
0
  6
Continuous
 62
     7
370
    25
100
AcDbCircle
 10
-3.6049183528
 20
-2.2174880233
 30
0.0
 40
0.3014768571692427
100
AcDbArc
 50
155.3996369055
 51
244.1256417458
  0
ARC
  5
FF
330
1F
100
AcDbEntity
  8
0
  6
Continuous
 62
     7
370
    25
100
AcDbCircle
 10
3.6032750338
 20
2.2157332645
 30
0.0
 40
0.3014768571692454
100
AcDbArc
 50
335.3996369055
 51
64.1256417458
  0
ARC
  5
100
330
1F
100
AcDbEntity
  8
0
  6
Continuous
 62
     7
370
    25
100
AcDbCircle
 10
3.6407842308
 20
2.053358238
 30
0.0
 40
0.0584308514506605
100
AcDbArc
 50
242.9207036364
 51
315.1937785075
  0
ARC
  5
101
330
1F
100
AcDbEntity
  8
0
  6
Continuous
 62
     7
370
    25
100
AcDbCircle
 10
3.6397155157
 20
2.0551771473
 30
0.0
 40
0.059590441026285
100
AcDbArc
 50
139.1045539439
 51
244.632001255
  0
ARC
  5
102
330
1F
100
AcDbEntity
  8
0
  6
Continuous
 62
     7
370
    25
100
AcDbCircle
 10
3.0795027613
 20
2.3330206062
 30
0.0
 40
0.0551535013758134
100
AcDbArc
 50
139.3011863427
 51
314.4554883762
  0
ARC
  5
103
330
1F
100
AcDbEntity
  8
0
  6
Continuous
 62
     7
370
    25
100
AcDbCircle
 10
3.3898623746
 20
1.5260556527
 30
0.0
 40
0.0584308514536866
100
AcDbArc
 50
242.9207036374
 51
315.1937783741
  0
ARC
  5
104
330
1F
100
AcDbEntity
  8
0
  6
Continuous
 62
     7
370
    25
100
AcDbCircle
 10
3.3887936594
 20
1.527874562
 30
0.0
 40
0.0595904410264242
100
AcDbArc
 50
139.1045539496
 51
244.6320012549
  0
ARC
  5
105
330
1F
100
AcDbEntity
  8
0
  6
Continuous
 62
     7
370
    25
100
AcDbCircle
 10
2.7449402862
 20
1.6299504924
 30
0.0
 40
0.0551535013751836
100
AcDbArc
 50
139.3011863118
 51
314.4554884112
  0
ARC
  5
106
330
1F
100
AcDbEntity
  8
0
  6
Continuous
 62
     7
370
    25
100
AcDbCircle
 10
-0.5254533411
 20
4.2766286452
 30
0.0
 40
0.2921646208370967
100
AcDbArc
 50
62.9326500017
 51
136.374078807
  0
ARC
  5
107
330
1F
100
AcDbEntity
  8
0
  6
Continuous
 62
     7
370
    25
100
AcDbCircle
 10
3.1389405183
 20
0.9987530674
 30
0.0
 40
0.0584308514479057
100
AcDbArc
 50
242.9207036354
 51
315.1937786287
  0
ARC
  5
108
330
1F
100
AcDbEntity
  8
0
  6
Continuous
 62
     7
370
    25
100
AcDbCircle
 10
3.1378718032
 20
1.0005719766
 30
0.0
 40
0.0595904410236274
100
AcDbArc
 50
139.1045538352
 51
244.6320012565
  0
ARC
  5
109
330
1F
100
AcDbEntity
  8
0
  6
Continuous
 62
     7
370
    25
100
AcDbCircle
 10
-0.0859769397
 20
3.9051040975
 30
0.0
 40
0.0542072540439762
100
AcDbArc
 50
139.3236644996
 51
314.4330102131
  0
ARC
  5
10A
330
1F
100
AcDbEntity
  8
0
  6
Continuous
 62
     7
370
    25
100
AcDbCircle
 10
-0.6659042006
 20
4.1934993282
 30
0.0
 40
0.0600363497316861
100
AcDbArc
 50
139.1964609652
 51
314.5602137342
  0
ARC
  5
10B
330
1F
100
AcDbEntity
  8
0
  6
Continuous
 62
     7
370
    25
100
AcDbCircle
 10
2.888018662
 20
0.4714504821
 30
0.0
 40
0.0584308514553248
100
AcDbArc
 50
242.920703638
 51
315.193778302
  0
ARC
  5
10C
330
1F
100
AcDbEntity
  8
0
  6
Continuous
 62
     7
370
    25
100
AcDbCircle
 10
2.8869499469
 20
0.4732693913
 30
0.0
 40
0.0595904410307891
100
AcDbArc
 50
139.104554128
 51
244.6320012526
  0
ARC
  5
10D
330
1F
100
AcDbEntity
  8
0
  6
Continuous
 62
     7
370
    25
100
AcDbCircle
 10
2.4103778112
 20
0.9268803787
 30
0.0
 40
0.0551535013767824
100
AcDbArc
 50
139.3011863906
 51
314.4554883225
  0
ARC
  5
10E
330
1F
100
AcDbEntity
  8
0
  6
Continuous
 62
     7
370
    25
100
AcDbCircle
 10
-0.9168260568
 20
3.6661967429
 30
0.0
 40
0.0600363497386826
100
AcDbArc
 50
139.1964613172
 51
314.5602134128
  0
ARC
  5
10F
330
1F
100
AcDbEntity
  8
0
  6
Continuous
 62
     7
370
    25
100
AcDbCircle
 10
-0.4205394148
 20
3.2020339837
 30
0.0
 40
0.0542072540446718
100
AcDbArc
 50
139.3236645388
 51
314.4330101781
  0
ARC
  5
110
330
1F
100
AcDbEntity
  8
0
  6
Continuous
 62
     7
370
    25
100
AcDbCircle
 10
2.6370968057
 20
-0.0558521033
 30
0.0
 40
0.0584308514529796
100
AcDbArc
 50
242.9207036372
 51
315.1937784053
  0
ARC
  5
111
330
1F
100
AcDbEntity
  8
0
  6
Continuous
 62
     7
370
    25
100
AcDbCircle
 10
2.6360280906
 20
-0.054033194
 30
0.0
 40
0.0595904410285232
100
AcDbArc
 50
139.1045540354
 51
244.6320012538
  0
ARC
  5
112
330
1F
100
AcDbEntity
  8
0
  6
Continuous
 62
     7
370
    25
100
AcDbCircle
 10
2.0758153361
 20
0.2238102649
 30
0.0
 40
0.055153501375747
100
AcDbArc
 50
139.3011863395
 51
314.4554883799
  0
ARC
  5
113
330
1F
100
AcDbEntity
  8
0
  6
Continuous
 62
     7
370
    25
100
AcDbCircle
 10
-1.1677479131
 20
3.1388941575
 30
0.0
 40
0.06003634973455
100
AcDbArc
 50
139.1964611092
 51
314.5602136026
  0
ARC
  5
114
330
1F
100
AcDbEntity
  8
0
  6
Continuous
 62
     7
370
    25
100
AcDbCircle
 10
-0.7551018898
 20
2.4989638699
 30
0.0
 40
0.0542072540443927
100
AcDbArc
 50
139.323664523
 51
314.4330101922
  0
ARC
  5
115
330
1F
100
AcDbEntity
  8
0
  6
Continuous
 62
     7
370
    25
100
AcDbCircle
 10
2.3861749494
 20
-0.5831546886
 30
0.0
 40
0.0584308514522928
100
AcDbArc
 50
242.9207036369
 51
315.1937784356
  0
ARC
  5
116
330
1F
100
AcDbEntity
  8
0
  6
Continuous
 62
     7
370
    25
100
AcDbCircle
 10
2.3851062343
 20
-0.5813357793
 30
0.0
 40
0.0595904410278596
100
AcDbArc
 50
139.1045540083
 51
244.6320012542
  0
ARC
  5
117
330
1F
100
AcDbEntity
  8
0
  6
Continuous
 62
     7
370
    25
100
AcDbCircle
 10
-1.4186697694
 20
2.6115915722
 30
0.0
 40
0.0600363497342706
100
AcDbArc
 50
139.1964610952
 51
314.5602136154
  0
ARC
  5
118
330
1F
100
AcDbEntity
  8
0
  6
Continuous
 62
     7
370
    25
100
AcDbCircle
 10
1.7412528611
 20
-0.4792598489
 30
0.0
 40
0.0551535013777054
100
AcDbArc
 50
139.3011864361
 51
314.4554882713
  0
ARC
  5
119
330
1F
100
AcDbEntity
  8
0
  6
Continuous
 62
     7
370
    25
100
AcDbCircle
 10
2.1352530931
 20
-1.1104572739
 30
0.0
 40
0.0584308514412286
100
AcDbArc
 50
242.9207036331
 51
315.1937789228
  0
ARC
  5
11A
330
1F
100
AcDbEntity
  8
0
  6
Continuous
 62
     7
370
    25
100
AcDbCircle
 10
2.134184378
 20
-1.1086383647
 30
0.0
 40
0.05959044101716
100
AcDbArc
 50
139.1045535708
 51
244.6320012599
  0
ARC
  5
11B
330
1F
100
AcDbEntity
  8
0
  6
Continuous
 62
     7
370
    25
100
AcDbCircle
 10
-1.0896643649
 20
1.7958937562
 30
0.0
 40
0.0542072540421872
100
AcDbArc
 50
139.3236643989
 51
314.4330103031
  0
ARC
  5
11C
330
1F
100
AcDbEntity
  8
0
  6
Continuous
 62
     7
370
    25
100
AcDbCircle
 10
-1.6695916257
 20
2.0842889869
 30
0.0
 40
0.0600363497332465
100
AcDbArc
 50
139.1964610436
 51
314.5602136624
  0
ARC
  5
11D
330
1F
100
AcDbEntity
  8
0
  6
Continuous
 62
     7
370
    25
100
AcDbCircle
 10
1.8843312369
 20
-1.6377598592
 30
0.0
 40
0.0584308514539211
100
AcDbArc
 50
242.9207036375
 51
315.1937783638
  0
ARC
  5
11E
330
1F
100
AcDbEntity
  8
0
  6
Continuous
 62
     7
370
    25
100
AcDbCircle
 10
1.8832625217
 20
-1.63594095
 30
0.0
 40
0.0595904410294365
100
AcDbArc
 50
139.1045540727
 51
244.6320012533
  0
ARC
  5
11F
330
1F
100
AcDbEntity
  8
0
  6
Continuous
 62
     7
370
    25
100
AcDbCircle
 10
1.406690386
 20
-1.1823299626
 30
0.0
 40
0.0551535013761534
100
AcDbArc
 50
139.3011863595
 51
314.4554883573
  0
ARC
  5
120
330
1F
100
AcDbEntity
  8
0
  6
Continuous
 62
     7
370
    25
100
AcDbCircle
 10
-1.920513482
 20
1.5569864016
 30
0.0
 40
0.0600363497339057
100
AcDbArc
 50
139.1964610768
 51
314.5602136321
  0
ARC
  5
121
330
1F
100
AcDbEntity
  8
0
  6
Continuous
 62
     7
370
    25
100
AcDbCircle
 10
-1.4242268399
 20
1.0928236424
 30
0.0
 40
0.0542072540422522
100
AcDbArc
 50
139.3236644025
 51
314.4330102997
  0
ARC
  5
122
330
1F
100
AcDbEntity
  8
0
  6
Continuous
 62
     7
370
    25
100
AcDbCircle
 10
1.6334093806
 20
-2.1650624446
 30
0.0
 40
0.0584308514525476
100
AcDbArc
 50
242.920703637
 51
315.1937784242
  0
ARC
  5
123
330
1F
100
AcDbEntity
  8
0
  6
Continuous
 62
     7
370
    25
100
AcDbCircle
 10
1.6323406655
 20
-2.1632435353
 30
0.0
 40
0.05959044102811
100
AcDbArc
 50
139.1045540185
 51
244.632001254
  0
ARC
  5
124
330
1F
100
AcDbEntity
  8
0
  6
Continuous
 62
     7
370
    25
100
AcDbCircle
 10
1.072127911
 20
-1.8854000764
 30
0.0
 40
0.0551535013769578
100
AcDbArc
 50
139.3011863992
 51
314.4554883128
  0
ARC
  5
125
330
1F
100
AcDbEntity
  8
0
  6
Continuous
 62
     7
370
    25
100
AcDbCircle
 10
-2.1714353383
 20
1.0296838162
 30
0.0
 40
0.0600363497254181
100
AcDbArc
 50
139.1964606494
 51
314.5602140217
  0
ARC
  5
126
330
1F
100
AcDbEntity
  8
0
  6
Continuous
 62
     7
370
    25
100
AcDbCircle
 10
-1.758789315
 20
0.3897535286
 30
0.0
 40
0.0542072540419866
100
AcDbArc
 50
139.3236643874
 51
314.4330103131
  0
ARC
  5
127
330
1F
100
AcDbEntity
  8
0
  6
Continuous
 62
     7
370
    25
100
AcDbCircle
 10
1.3824875243
 20
-2.6923650299
 30
0.0
 40
0.0584308514525635
100
AcDbArc
 50
242.920703637
 51
315.1937784236
  0
ARC
  5
128
330
1F
100
AcDbEntity
  8
0
  6
Continuous
 62
     7
370
    25
100
AcDbCircle
 10
1.3814188092
 20
-2.6905461206
 30
0.0
 40
0.0595904410281227
100
AcDbArc
 50
139.104554019
 51
244.632001254
  0
ARC
  5
129
330
1F
100
AcDbEntity
  8
0
  6
Continuous
 62
     7
370
    25
100
AcDbCircle
 10
-2.4223571945
 20
0.5023812309
 30
0.0
 40
0.0600363497295305
100
AcDbArc
 50
139.1964608564
 51
314.5602138329
  0
ARC
  5
12A
330
1F
100
AcDbEntity
  8
0
  6
Continuous
 62
     7
370
    25
100
AcDbCircle
 10
0.7375654359
 20
-2.5884701902
 30
0.0
 40
0.0551535013741415
100
AcDbArc
 50
139.30118626
 51
314.4554884686
  0
ARC
  5
12B
330
1F
100
AcDbEntity
  8
0
  6
Continuous
 62
     7
370
    25
100
AcDbCircle
 10
1.131565668
 20
-3.2196676152
 30
0.0
 40
0.0584308514514511
100
AcDbArc
 50
242.9207036366
 51
315.1937784725
  0
ARC
  5
12C
330
1F
100
AcDbEntity
  8
0
  6
Continuous
 62
     7
370
    25
100
AcDbCircle
 10
1.1304969529
 20
-3.217848706
 30
0.0
 40
0.0595904410270479
100
AcDbArc
 50
139.1045539751
 51
244.6320012546
  0
ARC
  5
12D
330
1F
100
AcDbEntity
  8
0
  6
Continuous
 62
     7
370
    25
100
AcDbCircle
 10
-2.09335179
 20
-0.3133165851
 30
0.0
 40
0.0542072540455297
100
AcDbArc
 50
139.3236645872
 51
314.4330101351
  0
ARC
  5
12E
330
1F
100
AcDbEntity
  8
0
  6
Continuous
 62
     7
370
    25
100
AcDbCircle
 10
-2.6732790508
 20
-0.0249213544
 30
0.0
 40
0.0600363497351281
100
AcDbArc
 50
139.1964611384
 51
314.5602135761
  0
ARC
  5
12F
330
1F
100
AcDbEntity
  8
0
  6
Continuous
 62
     7
370
    25
100
AcDbCircle
 10
0.8806438117
 20
-3.7469702005
 30
0.0
 40
0.0584308514560551
100
AcDbArc
 50
242.9207036382
 51
315.1937782698
  0
ARC
  5
130
330
1F
100
AcDbEntity
  8
0
  6
Continuous
 62
     7
370
    25
100
AcDbCircle
 10
0.8795750966
 20
-3.7451512913
 30
0.0
 40
0.0595904410315058
100
AcDbArc
 50
139.1045541574
 51
244.6320012522
  0
ARC
  5
131
330
1F
100
AcDbEntity
  8
0
  6
Continuous
 62
     7
370
    25
100
AcDbCircle
 10
0.4030029609
 20
-3.2915403039
 30
0.0
 40
0.0551535013766947
100
AcDbArc
 50
139.3011863862
 51
314.4554883273
  0
ARC
  5
132
330
1F
100
AcDbEntity
  8
0
  6
Continuous
 62
     7
370
    25
100
AcDbCircle
 10
-2.9242009071
 20
-0.5522239397
 30
0.0
 40
0.0600363497332161
100
AcDbArc
 50
139.196461042
 51
314.5602136638
  0
ARC
  5
133
330
1F
100
AcDbEntity
  8
0
  6
Continuous
 62
     7
370
    25
100
AcDbCircle
 10
-2.427914265
 20
-1.0163866989
 30
0.0
 40
0.0542072540441908
100
AcDbArc
 50
139.3236645117
 51
314.4330102023
  0
ARC
  5
134
330
1F
100
AcDbEntity
  8
0
  6
Continuous
 62
     7
370
    25
100
AcDbCircle
 10
0.6297219554
 20
-4.2742727859
 30
0.0
 40
0.0584308514513357
100
AcDbArc
 50
242.9207036366
 51
315.1937784778
  0
ARC
  5
135
330
1F
100
AcDbEntity
  8
0
  6
Continuous
 62
     7
370
    25
100
AcDbCircle
 10
0.6286532403
 20
-4.2724538766
 30
0.0
 40
0.0595904410286988
100
AcDbArc
 50
139.1045540426
 51
244.6320012537
  0
ARC
  5
136
330
1F
100
AcDbEntity
  8
0
  6
Continuous
 62
     7
370
    25
100
AcDbCircle
 10
0.0684404859
 20
-3.9946104177
 30
0.0
 40
0.0551535013772552
100
AcDbArc
 50
139.3011864139
 51
314.4554882963
  0
ARC
  5
137
330
1F
100
AcDbEntity
  8
0
  6
Continuous
 62
     7
370
    25
100
AcDbCircle
 10
-3.1751227634
 20
-1.0795265251
 30
0.0
 40
0.0600363497386474
100
AcDbArc
 50
139.1964613157
 51
314.5602134147
  0
ARC
  5
138
330
1F
100
AcDbEntity
  8
0
  6
Continuous
 62
     7
370
    25
100
AcDbCircle
 10
-2.7624767401
 20
-1.7194568127
 30
0.0
 40
0.0542072540435347
100
AcDbArc
 50
139.3236644747
 51
314.4330102352
  0
ARC
  5
139
330
1F
100
AcDbEntity
  8
0
  6
Continuous
 62
     7
370
    25
100
AcDbCircle
 10
-3.4260446197
 20
-1.6068291104
 30
0.0
 40
0.0600363497331565
100
AcDbArc
 50
139.196461039
 51
314.5602136665
  0
ARC
  5
13A
330
1F
100
AcDbEntity
  8
0
  6
Continuous
 62
     7
370
    25
100
AcDbCircle
 10
-3.0970392151
 20
-2.4225269264
 30
0.0
 40
0.0542072540437136
100
AcDbArc
 50
139.3236644848
 51
314.4330102263
  0
ARC
  5
13B
330
1F
100
AcDbEntity
  8
0
  6
Continuous
 62
     7
370
    25
100
AcDbCircle
 10
-3.676966476
 20
-2.1341316957
 30
0.0
 40
0.0600363497362892
100
AcDbArc
 50
139.1964611969
 51
314.5602135228
  0
MTEXT
  5
13D
330
1F
100
AcDbEntity
  8
0
  6
Continuous
 62
     7
100
AcDbMText
 10
-3.90639521
 20
-4.6109199093
 30
0.0
 40
0.1903
 41
0.0
 71
     1
 72
     1
  1
SOLIDWORKS Educational Product.
  7
SLDTEXTSTYLE0
 73
     1
 44
1.0
  0
MTEXT
  5
13E
330
1F
100
AcDbEntity
  8
0
  6
Continuous
 62
     7
100
AcDbMText
 10
-3.90639521
 20
-4.8963699093
 30
0.0
 40
0.1903
 41
0.0
 71
     1
 72
     1
  1
For Instructional Use Only.
  7
SLDTEXTSTYLE0
 73
     1
 44
1.0
  0
ENDSEC
  0
SECTION
  2
OBJECTS
  0
DICTIONARY
  5
C
330
0
100
AcDbDictionary
281
     1
  3
ACAD_GROUP
350
D
  3
ACAD_LAYOUT
350
1A
  3
ACAD_MLINESTYLE
350
17
  3
ACAD_PLOTSETTINGS
350
19
  3
ACAD_PLOTSTYLENAME
350
E
  3
ACAD_SCALELIST
350
47
  0
DICTIONARY
  5
D
102
{ACAD_REACTORS
330
C
102
}
330
C
100
AcDbDictionary
281
     1
  0
DICTIONARY
  5
1A
102
{ACAD_REACTORS
330
C
102
}
330
C
100
AcDbDictionary
281
     1
  3
Layout1
350
1E
  3
Layout2
350
26
  3
Model
350
22
  0
DICTIONARY
  5
17
102
{ACAD_REACTORS
330
C
102
}
330
C
100
AcDbDictionary
281
     1
  3
Standard
350
18
  0
DICTIONARY
  5
19
102
{ACAD_REACTORS
330
C
102
}
330
C
100
AcDbDictionary
281
     1
  0
ACDBDICTIONARYWDFLT
  5
E
102
{ACAD_REACTORS
330
C
102
}
330
C
100
AcDbDictionary
281
     1
  3
Normal
350
F
100
AcDbDictionaryWithDefault
340
F
  0
DICTIONARY
  5
47
102
{ACAD_REACTORS
330
C
102
}
330
C
100
AcDbDictionary
281
     1
  3
A0
350
48
  3
A1
350
49
  3
A2
350
4A
  3
A3
350
4B
  3
A4
350
4C
  3
A5
350
4D
  3
A6
350
4E
  3
A7
350
4F
  3
A8
350
50
  3
A9
350
51
  3
B0
350
52
  3
B1
350
53
  3
B2
350
54
  3
B3
350
55
  3
B4
350
56
  3
B5
350
57
  3
B6
350
58
  3
B7
350
59
  3
B8
350
5A
  3
B9
350
5B
  3
C0
350
5C
  3
C1
350
5D
  3
C2
350
5E
  3
C3
350
5F
  3
C4
350
60
  3
C5
350
61
  3
C6
350
62
  3
C7
350
63
  3
C8
350
64
  3
C9
350
65
  3
D0
350
66
  3
D1
350
67
  3
D2
350
68
  0
LAYOUT
  5
1E
102
{ACAD_REACTORS
330
1A
102
}
330
1A
100
AcDbPlotSettings
  1

  2
none_device
  4

  6

 40
0.0
 41
0.0
 42
0.0
 43
0.0
 44
0.0
 45
0.0
 46
0.0
 47
0.0
 48
0.0
 49
0.0
140
0.0
141
0.0
142
1.0
143
1.0
 70
   688
 72
     0
 73
     0
 74
     5
  7

 75
    16
147
1.0
148
0.0
149
0.0
100
AcDbLayout
  1
Layout1
 70
     1
 71
     1
 10
0.0
 20
0.0
 11
12.0
 21
9.0
 12
0.0
 22
0.0
 32
0.0
 14
1.0000000000E+20
 24
1.0000000000E+20
 34
1.0000000000E+20
 15
-1.0000000000E+20
 25
-1.0000000000E+20
 35
-1.0000000000E+20
146
0.0
 13
0.0
 23
0.0
 33
0.0
 16
1.0
 26
0.0
 36
0.0
 17
0.0
 27
1.0
 37
0.0
 76
     0
330
1B
  0
LAYOUT
  5
26
102
{ACAD_REACTORS
330
1A
102
}
330
1A
100
AcDbPlotSettings
  1

  2
none_device
  4

  6

 40
0.0
 41
0.0
 42
0.0
 43
0.0
 44
0.0
 45
0.0
 46
0.0
 47
0.0
 48
0.0
 49
0.0
140
0.0
141
0.0
142
1.0
143
1.0
 70
   688
 72
     0
 73
     0
 74
     5
  7

 75
    16
147
1.0
148
0.0
149
0.0
100
AcDbLayout
  1
Layout2
 70
     1
 71
     2
 10
0.0
 20
0.0
 11
0.0
 21
0.0
 12
0.0
 22
0.0
 32
0.0
 14
0.0
 24
0.0
 34
0.0
 15
0.0
 25
0.0
 35
0.0
146
0.0
 13
0.0
 23
0.0
 33
0.0
 16
1.0
 26
0.0
 36
0.0
 17
0.0
 27
1.0
 37
0.0
 76
     0
330
23
  0
LAYOUT
  5
22
102
{ACAD_REACTORS
330
1A
102
}
330
1A
100
AcDbPlotSettings
  1

  2
none_device
  4
ANSI_A_(11.00_x_8.50_Inches)
  6

 40
6.35
 41
19.05
 42
6.35000508
 43
19.05000254
 44
279.4
 45
215.9
 46
133.3692130549
 47
88.9232240869
 48
0.0
 49
0.0
140
0.0
141
0.0
142
0.9207213745
143
1.0
 70
  1696
 72
     0
 73
     0
 74
     0
  7

 75
     0
147
0.5913241897
148
-39.4088153714
149
0.0
100
AcDbLayout
  1
Model
 70
     1
 71
     0
 10
0.0
 20
0.0
 11
12.0
 21
9.0
 12
0.0
 22
0.0
 32
0.0
 14
-3.90639521
 24
-4.5707795002
 34
0.0
 15
3.9047518909
 25
4.568793266
 35
0.0
146
0.0
 13
0.0
 23
0.0
 33
0.0
 16
1.0
 26
0.0
 36
0.0
 17
0.0
 27
1.0
 37
0.0
 76
     0
330
1F
331
29
  0
MLINESTYLE
  5
18
102
{ACAD_REACTORS
330
17
102
}
330
17
100
AcDbMlineStyle
  2
Standard
 70
     0
  3

 62
   256
 51
90.0
 52
90.0
 71
     2
 49
0.5
 62
   256
  6
BYLAYER
 49
-0.5
 62
   256
  6
BYLAYER
  0
ACDBPLACEHOLDER
  5
F
102
{ACAD_REACTORS
330
E
102
}
330
E
  0
SCALE
  5
48
102
{ACAD_REACTORS
330
47
102
}
330
47
100
AcDbScale
 70
     0
300
1:1
140
1.0
141
1.0
290
     1
  0
SCALE
  5
49
102
{ACAD_REACTORS
330
47
102
}
330
47
100
AcDbScale
 70
     0
300
1:2
140
1.0
141
2.0
290
     0
  0
SCALE
  5
4A
102
{ACAD_REACTORS
330
47
102
}
330
47
100
AcDbScale
 70
     0
300
1:4
140
1.0
141
4.0
290
     0
  0
SCALE
  5
4B
102
{ACAD_REACTORS
330
47
102
}
330
47
100
AcDbScale
 70
     0
300
1:5
140
1.0
141
5.0
290
     0
  0
SCALE
  5
4C
102
{ACAD_REACTORS
330
47
102
}
330
47
100
AcDbScale
 70
     0
300
1:8
140
1.0
141
8.0
290
     0
  0
SCALE
  5
4D
102
{ACAD_REACTORS
330
47
102
}
330
47
100
AcDbScale
 70
     0
300
1:10
140
1.0
141
10.0
290
     0
  0
SCALE
  5
4E
102
{ACAD_REACTORS
330
47
102
}
330
47
100
AcDbScale
 70
     0
300
1:16
140
1.0
141
16.0
290
     0
  0
SCALE
  5
4F
102
{ACAD_REACTORS
330
47
102
}
330
47
100
AcDbScale
 70
     0
300
1:20
140
1.0
141
20.0
290
     0
  0
SCALE
  5
50
102
{ACAD_REACTORS
330
47
102
}
330
47
100
AcDbScale
 70
     0
300
1:30
140
1.0
141
30.0
290
     0
  0
SCALE
  5
51
102
{ACAD_REACTORS
330
47
102
}
330
47
100
AcDbScale
 70
     0
300
1:40
140
1.0
141
40.0
290
     0
  0
SCALE
  5
52
102
{ACAD_REACTORS
330
47
102
}
330
47
100
AcDbScale
 70
     0
300
1:50
140
1.0
141
50.0
290
     0
  0
SCALE
  5
53
102
{ACAD_REACTORS
330
47
102
}
330
47
100
AcDbScale
 70
     0
300
1:100
140
1.0
141
100.0
290
     0
  0
SCALE
  5
54
102
{ACAD_REACTORS
330
47
102
}
330
47
100
AcDbScale
 70
     0
300
2:1
140
2.0
141
1.0
290
     0
  0
SCALE
  5
55
102
{ACAD_REACTORS
330
47
102
}
330
47
100
AcDbScale
 70
     0
300
4:1
140
4.0
141
1.0
290
     0
  0
SCALE
  5
56
102
{ACAD_REACTORS
330
47
102
}
330
47
100
AcDbScale
 70
     0
300
8:1
140
8.0
141
1.0
290
     0
  0
SCALE
  5
57
102
{ACAD_REACTORS
330
47
102
}
330
47
100
AcDbScale
 70
     0
300
10:1
140
10.0
141
1.0
290
     0
  0
SCALE
  5
58
102
{ACAD_REACTORS
330
47
102
}
330
47
100
AcDbScale
 70
     0
300
100:1
140
100.0
141
1.0
290
     0
  0
SCALE
  5
59
102
{ACAD_REACTORS
330
47
102
}
330
47
100
AcDbScale
 70
     0
300
1/128" = 1'-0"
140
0.0078125
141
12.0
290
     0
  0
SCALE
  5
5A
102
{ACAD_REACTORS
330
47
102
}
330
47
100
AcDbScale
 70
     0
300
1/64" = 1'-0"
140
0.015625
141
12.0
290
     0
  0
SCALE
  5
5B
102
{ACAD_REACTORS
330
47
102
}
330
47
100
AcDbScale
 70
     0
300
1/32" = 1'-0"
140
0.03125
141
12.0
290
     0
  0
SCALE
  5
5C
102
{ACAD_REACTORS
330
47
102
}
330
47
100
AcDbScale
 70
     0
300
1/16" = 1'-0"
140
0.0625
141
12.0
290
     0
  0
SCALE
  5
5D
102
{ACAD_REACTORS
330
47
102
}
330
47
100
AcDbScale
 70
     0
300
3/32" = 1'-0"
140
0.09375
141
12.0
290
     0
  0
SCALE
  5
5E
102
{ACAD_REACTORS
330
47
102
}
330
47
100
AcDbScale
 70
     0
300
1/8" = 1'-0"
140
0.125
141
12.0
290
     0
  0
SCALE
  5
5F
102
{ACAD_REACTORS
330
47
102
}
330
47
100
AcDbScale
 70
     0
300
3/16" = 1'-0"
140
0.1875
141
12.0
290
     0
  0
SCALE
  5
60
102
{ACAD_REACTORS
330
47
102
}
330
47
100
AcDbScale
 70
     0
300
1/4" = 1'-0"
140
0.25
141
12.0
290
     0
  0
SCALE
  5
61
102
{ACAD_REACTORS
330
47
102
}
330
47
100
AcDbScale
 70
     0
300
3/8" = 1'-0"
140
0.375
141
12.0
290
     0
  0
SCALE
  5
62
102
{ACAD_REACTORS
330
47
102
}
330
47
100
AcDbScale
 70
     0
300
1/2" = 1'-0"
140
0.5
141
12.0
290
     0
  0
SCALE
  5
63
102
{ACAD_REACTORS
330
47
102
}
330
47
100
AcDbScale
 70
     0
300
3/4" = 1'-0"
140
0.75
141
12.0
290
     0
  0
SCALE
  5
64
102
{ACAD_REACTORS
330
47
102
}
330
47
100
AcDbScale
 70
     0
300
1" = 1'-0"
140
1.0
141
12.0
290
     0
  0
SCALE
  5
65
102
{ACAD_REACTORS
330
47
102
}
330
47
100
AcDbScale
 70
     0
300
1-1/2" = 1'-0"
140
1.5
141
12.0
290
     0
  0
SCALE
  5
66
102
{ACAD_REACTORS
330
47
102
}
330
47
100
AcDbScale
 70
     0
300
3" = 1'-0"
140
3.0
141
12.0
290
     0
  0
SCALE
  5
67
102
{ACAD_REACTORS
330
47
102
}
330
47
100
AcDbScale
 70
     0
300
6" = 1'-0"
140
6.0
141
12.0
290
     0
  0
SCALE
  5
68
102
{ACAD_REACTORS
330
47
102
}
330
47
100
AcDbScale
 70
     0
300
1'-0" = 1'-0"
140
12.0
141
12.0
290
     0
  0
ENDSEC
  0
EOF
