M48
;Layer_Color=6321
;FILE_FORMAT=4:3
METRIC,LZ
;TYPE=PLATED
T1F00S00C1.000
T2F00S00C1.600
T3F00S00C2.800
T4F00S00C3.000
%
T01
X0332994Y0035556
X0338074
Y0040636
Y0043176
Y0048256
Y0050796
X0335534
Y0053336
Y0055876
Y0058416
Y0060956
Y0063496
Y0066036
Y0068576
X0332994
Y0066036
Y0063496
Y0060956
Y0058416
Y0055876
Y0053336
Y0050796
Y0048256
Y0043176
Y0040636
X0338074Y0053336
Y0055876
Y0058416
Y0060956
Y0063496
Y0066036
Y0068576
Y0071116
X0335534
X0332994
Y0073656
X0335534
X0338074
Y0076196
Y0078736
X0335534
X0332994
Y0076196
X0335534
X004699Y00762
X004445
X004191
Y007874
X004445
X004699
Y007366
Y007112
Y006858
Y006604
Y00635
X004445
X004191
Y006604
X004445
Y006858
X004191
Y007112
X004445
Y007366
X004191
Y006096
X004445
X004699
Y005842
X004445
X004191
Y005588
X004445
X004699
Y005334
X004445
X004191
Y00508
X004445
X004699
Y008128
X004445
X004191
Y008382
X004445
X004699
Y008636
X004445
X004191
Y00889
Y009144
Y009398
Y009652
Y009906
X004445
X004699
Y009652
X004445
Y009398
X004699
Y009144
X004445
Y00889
X004699
X0332994Y0088896
Y0091436
Y0093976
Y0096516
Y0099056
Y0101596
X0338074
Y0099056
X0335534
Y0096516
X0338074
Y0093976
X0335534
Y0091436
X0338074
Y0088896
X0335534
Y0086356
X0332994
Y0083816
X0335534
X0338074
Y0086356
Y0081276
X0335534
X0332994
Y0106676
Y0109216
X0338074
Y0106676
Y0114296
X0332994
T02
X0029337Y0033401
X0034417
Y0038481
X0029337
Y0048641
X0034417
Y0053721
X0029337
Y0095885
X0034417
Y0100965
X0029337
Y0111379
X0034417
Y0116459
X0029337
T03
X004445Y003048
X0340614Y0030476
Y0119376
X004445Y011938
T04
X004445Y00381
Y004572
Y010414
Y011176
M30
