M48
;Layer_Color=6321
;FILE_FORMAT=2:5
INCH,LZ
;TYPE=PLATED
T1F00S00C0.01968
T2F00S00C0.02800
T3F00S00C0.02953
T4F00S00C0.03937
T5F00S00C0.04000
T6F00S00C0.05906
T7F00S00C0.09843
T8F00S00C0.11024
T9F00S00C0.11811
T10F00S00C0.12500
%
T01
X05555Y0091
X05605
X05655
X06355
X06405
X06455
X0897Y02635
X0902
X0907
X0924
X0929
X0934
X02475Y02525
X02425
X02375
X01675
X01625
X01575
T02
X00155Y0124
Y0156
X0101378Y0137303
X00775Y0104
X01585
X0182087Y01375
X0261417Y0137106
X0238Y0104
X03175
X0341535Y0136713
X0421457
X0398Y0104
X04775
X0501575Y0136713
X0581693
X05575Y0104
X0639
X0661614Y0136713
X0741535Y0136319
X07185Y0104
X08015
X0824016Y0136909
X086Y0104
X0892Y01112
X09054Y014
Y0173
X0877Y02075
X0836Y0219
X0823819Y0186909
X0822244Y026939
X08Y0268996
X072Y0269
Y0219
X0741535Y0187303
X0661417Y01875
X06405Y0219
X064Y0269
X056
X05595Y0219
X0581693Y01875
X0501378
X048Y0219
Y0269
X04
Y0219
X0421457Y01875
X0341732
X032Y0219
Y0269
X024
Y0219
X0261614Y01875
X0182087
X016Y0219
Y0269
X008
Y0219
X0101575Y0187697
X00155Y0179
Y01995
X0014Y02895
Y0309
Y0329
Y0349
Y03695
Y0389
Y04125
Y04365
Y04605
X0101969Y0457972
Y0423917
Y036191
Y0316437
X0181496Y0316634
Y0362106
Y0423917
Y045876
X0261417
Y0423917
Y0362106
Y0316634
X0341535Y0316437
Y0362303
Y0424114
Y0458563
X0421457
Y0424311
Y0362106
Y0316437
X0501575
Y0362106
X0501378Y0424114
Y0457382
X0581496Y0457185
Y0424114
X0581299Y036191
X0581496Y0316437
X0661417
Y0362106
Y0424114
Y0457776
X0741535Y0458169
X0741339Y042313
X0741535Y0362106
X0741339Y0316437
X0823032
X0822835Y0361122
X0823Y0409
Y0444
Y0478
X076Y0513
X068Y0512945
X06Y05135
X052
X044Y0513309
X03605Y05133
X0281Y0513229
X02Y0513189
X01205Y0513149
X00395Y0513108
X0014Y05075
Y0483
T03
X1006Y01605
Y01755
Y01915
X1046
Y01755
Y01605
X1051Y0267
Y0282
X1011
Y0267
T04
X09715Y0223
X09815
Y0233
X09715
Y0243
X09815
X1026
Y0233
Y0223
X1036
Y0233
Y0243
X10075Y03
X09975
X09875
X09775
X09675
X09575
X09475
X09375
X09175
X09075
X08975
X08875
X08775
X08675
X0771181Y0299
Y0289
X0761181
X0751181
Y0279
X0761181
X0771181
Y0269
X0761181
X0751181
Y0259
X0761181
X0771181
Y0249
Y0239
Y0229
Y0219
Y0209
Y0199
X0761181
X0751181
Y0209
X0761181
Y0219
X0751181
Y0229
X0761181
Y0239
X0751181
Y0249
X0761181
Y0299
Y0309
X0771181
X0751181
Y0299
X0691181
Y0289
X0681181
X0671181
Y0279
X0681181
X0691181
Y0269
X0681181
X0671181
Y0259
X0681181
X0691181
Y0249
Y0239
Y0229
Y0219
Y0209
Y0199
X0681181
X0671181
Y0209
X0681181
Y0219
X0671181
Y0229
X0681181
Y0239
X0671181
Y0249
X0681181
Y0299
Y0309
X0691181
X0671181
Y0299
X0611181
Y0289
X0601181
X0591181
Y0279
X0601181
X0611181
Y0269
X0601181
X0591181
Y0259
X0601181
X0611181
Y0249
Y0239
Y0229
Y0219
Y0209
Y0199
X0601181
X0591181
Y0209
X0601181
Y0219
X0591181
Y0229
X0601181
Y0239
X0591181
Y0249
X0601181
Y0299
Y0309
X0611181
X0591181
Y0299
X0531181
Y0289
X0521181
X0511181
Y0279
X0521181
X0531181
Y0269
X0521181
X0511181
Y0259
X0521181
X0531181
Y0249
Y0239
Y0229
Y0219
Y0209
Y0199
X0521181
X0511181
Y0209
X0521181
Y0219
X0511181
Y0229
X0521181
Y0239
X0511181
Y0249
X0521181
Y0299
Y0309
X0531181
X0511181
Y0299
X0451181
Y0289
X0441181
X0431181
Y0279
X0441181
X0451181
Y0269
X0441181
X0431181
Y0259
X0441181
X0451181
Y0249
Y0239
Y0229
Y0219
Y0209
Y0199
X0441181
X0431181
Y0209
X0441181
Y0219
X0431181
Y0229
X0441181
Y0239
X0431181
Y0249
X0441181
Y0299
Y0309
X0451181
X0431181
Y0299
X0371181
Y0289
X0361181
X0351181
Y0279
X0361181
X0371181
Y0269
X0361181
X0351181
Y0259
X0361181
X0371181
Y0249
Y0239
Y0229
Y0219
Y0209
Y0199
X0361181
X0351181
Y0209
X0361181
Y0219
X0351181
Y0229
X0361181
Y0239
X0351181
Y0249
X0361181
Y0299
Y0309
X0371181
X0351181
Y0299
X0291181
Y0289
X0281181
X0271181
Y0279
X0281181
X0291181
Y0269
X0281181
X0271181
Y0259
X0281181
X0291181
Y0249
Y0239
Y0229
Y0219
Y0209
Y0199
X0281181
X0271181
Y0209
X0281181
Y0219
X0271181
Y0229
X0281181
Y0239
X0271181
Y0249
X0281181
Y0299
Y0309
X0291181
X0271181
Y0299
X0211181
Y0289
X0201181
X0191181
Y0279
X0201181
X0211181
Y0269
X0201181
X0191181
Y0259
X0201181
X0211181
Y0249
Y0239
Y0229
Y0219
Y0209
Y0199
X0201181
X0191181
Y0209
X0201181
Y0219
X0191181
Y0229
X0201181
Y0239
X0191181
Y0249
X0201181
Y0299
Y0309
X0211181
X0191181
Y0299
X0131181
Y0289
X0121181
X0111181
Y0279
X0121181
X0131181
Y0269
X0121181
X0111181
Y0259
X0121181
X0131181
Y0249
Y0239
Y0229
Y0219
Y0209
Y0199
X0121181
X0111181
Y0209
X0121181
Y0219
X0111181
Y0229
X0121181
Y0239
X0111181
Y0249
X0121181
Y0299
Y0309
X0131181
X0111181
Y0299
X0051181
Y0289
X0041181
X0031181
Y0279
X0041181
X0051181
Y0269
X0041181
X0031181
Y0259
X0041181
X0051181
Y0249
Y0239
Y0229
Y0219
Y0209
Y0199
X0041181
X0031181
Y0209
X0041181
Y0219
X0031181
Y0229
X0041181
Y0239
X0031181
Y0249
X0041181
Y0299
Y0309
X0051181
X0031181
Y0299
Y0319
Y0329
Y0339
Y0349
X0041181
X0051181
Y0359
X0041181
X0031181
Y0369
X0041181
X0051181
Y0379
X0041181
X0031181
Y0389
X0041181
X0051181
Y0339
X0041181
Y0329
X0051181
Y0319
X0041181
X0111181
Y0329
Y0339
Y0349
X0121181
X0131181
Y0359
X0121181
X0111181
Y0369
X0121181
X0131181
Y0379
X0121181
X0111181
Y0389
X0121181
X0131181
Y0339
X0121181
Y0329
X0131181
Y0319
X0121181
X0191181
Y0329
Y0339
Y0349
X0201181
X0211181
Y0359
X0201181
X0191181
Y0369
X0201181
X0211181
Y0379
X0201181
X0191181
Y0389
X0201181
X0211181
Y0339
X0201181
Y0329
X0211181
Y0319
X0201181
X0271181
Y0329
Y0339
Y0349
X0281181
X0291181
Y0359
X0281181
X0271181
Y0369
X0281181
X0291181
Y0379
X0281181
X0271181
Y0389
X0281181
X0291181
Y0339
X0281181
Y0329
X0291181
Y0319
X0281181
X0351181
Y0329
Y0339
Y0349
X0361181
X0371181
Y0359
X0361181
X0351181
Y0369
X0361181
X0371181
Y0379
X0361181
X0351181
Y0389
X0361181
X0371181
Y0339
X0361181
Y0329
X0371181
Y0319
X0361181
X0431181
Y0329
Y0339
Y0349
X0441181
X0451181
Y0359
X0441181
X0431181
Y0369
X0441181
X0451181
Y0379
X0441181
X0431181
Y0389
X0441181
X0451181
Y0339
X0441181
Y0329
X0451181
Y0319
X0441181
X0511181
Y0329
Y0339
Y0349
X0521181
X0531181
Y0359
X0521181
X0511181
Y0369
X0521181
X0531181
Y0379
X0521181
X0511181
Y0389
X0521181
X0531181
Y0339
X0521181
Y0329
X0531181
Y0319
X0521181
X0591181
Y0329
Y0339
Y0349
X0601181
X0611181
Y0359
X0601181
X0591181
Y0369
X0601181
X0611181
Y0379
X0601181
X0591181
Y0389
X0601181
X0611181
Y0339
X0601181
Y0329
X0611181
Y0319
X0601181
X0671181
Y0329
Y0339
Y0349
X0681181
X0691181
Y0359
X0681181
X0671181
Y0369
X0681181
X0691181
Y0379
X0681181
X0671181
Y0389
X0681181
X0691181
Y0339
X0681181
Y0329
X0691181
Y0319
X0681181
X0751181
Y0329
Y0339
Y0349
X0761181
X0771181
Y0359
X0761181
X0751181
Y0369
X0761181
X0771181
Y0379
X0761181
X0751181
Y0389
X0761181
X0771181
Y0339
X0761181
Y0329
X0771181
Y0319
X0761181
X09375Y049
X09535
X09635
X09735
X09835
X09935
X10035
X10135
X10235
X10335
X10435
X09275
X09175
X09075
X08975
X08875
X08775
X08675
T05
X1021Y01205
Y01305
X1031
Y01205
X1041
Y01305
X1051
Y01205
X1061
Y01305
X1071
Y01205
X1081
Y01305
X1091
Y01205
X1101
Y01305
X1111
Y01205
X1121
Y01305
X1131
Y01205
X1141
Y01305
X1151
Y01205
X1161
Y01305
X1171
Y01205
X1181
Y01305
X1191
Y01205
X1201
Y01305
X1211
Y01205
X08125Y0279
Y0289
Y0299
Y0309
X08
Y0299
Y0289
Y0279
X07875
Y0289
Y0299
Y0309
X07325
Y0299
Y0289
Y0279
X072
Y0289
Y0299
Y0309
X07075
Y0299
Y0289
Y0279
X06525
Y0289
Y0299
Y0309
X064
Y0299
Y0289
Y0279
X06275
Y0289
Y0299
Y0309
X05725
Y0299
Y0289
Y0279
X056
Y0289
Y0299
Y0309
X05475
Y0299
Y0289
Y0279
X04925
Y0289
Y0299
Y0309
X048
Y0299
Y0289
Y0279
X04675
Y0289
Y0299
Y0309
X04125
Y0299
Y0289
Y0279
X04
Y0289
Y0299
Y0309
X03875
Y0299
Y0289
Y0279
X03325
Y0289
Y0299
Y0309
X032
Y0299
Y0289
Y0279
X03075
Y0289
Y0299
Y0309
X02525
Y0299
Y0289
Y0279
X024
Y0289
Y0299
Y0309
X02275
Y0299
Y0289
Y0279
X01725
Y0289
Y0299
Y0309
X016
Y0299
Y0289
Y0279
X01475
Y0289
Y0299
Y0309
X00925
Y0299
Y0289
Y0279
X008
Y0289
Y0299
Y0309
X00675
Y0299
Y0289
Y0279
Y0324
Y0334
Y0344
Y0354
X008
Y0344
Y0334
Y0324
X00925
Y0334
Y0344
Y0354
Y0369
Y0379
Y0389
Y0399
X008
Y0389
Y0379
Y0369
X00675
Y0379
Y0389
Y0399
X01475
Y0389
Y0379
Y0369
Y0354
Y0344
Y0334
Y0324
X016
Y0334
Y0344
Y0354
X01725
Y0344
Y0334
Y0324
Y0369
Y0379
Y0389
Y0399
X016
Y0389
Y0379
Y0369
X02275
Y0379
Y0389
Y0399
X024
Y0389
Y0379
Y0369
X02525
Y0379
Y0389
Y0399
Y0354
Y0344
Y0334
Y0324
X024
Y0334
Y0344
Y0354
X02275
Y0344
Y0334
Y0324
X03075
Y0334
Y0344
Y0354
Y0369
Y0379
Y0389
Y0399
X032
Y0389
Y0379
Y0369
X03325
Y0379
Y0389
Y0399
Y0354
Y0344
Y0334
Y0324
X032
Y0334
Y0344
Y0354
X03875
Y0344
Y0334
Y0324
X04
Y0334
Y0344
Y0354
X04125
Y0344
Y0334
Y0324
Y0369
Y0379
Y0389
Y0399
X04
Y0389
Y0379
Y0369
X03875
Y0379
Y0389
Y0399
X04675
Y0389
Y0379
Y0369
Y0354
Y0344
Y0334
Y0324
X048
Y0334
Y0344
Y0354
X04925
Y0344
Y0334
Y0324
Y0369
Y0379
Y0389
Y0399
X048
Y0389
Y0379
Y0369
X05475
Y0379
Y0389
Y0399
X056
Y0389
Y0379
Y0369
X05725
Y0379
Y0389
Y0399
Y0354
Y0344
Y0334
Y0324
X056
Y0334
Y0344
Y0354
X05475
Y0344
Y0334
Y0324
X06275
Y0334
Y0344
Y0354
X064
Y0344
Y0334
Y0324
X06525
Y0334
Y0344
Y0354
Y0369
Y0379
Y0389
Y0399
X064
Y0389
Y0379
Y0369
X06275
Y0379
Y0389
Y0399
X07075
Y0389
Y0379
Y0369
X072
Y0379
Y0389
Y0399
X07325
Y0389
Y0379
Y0369
Y0354
Y0344
Y0334
Y0324
X072
Y0334
Y0344
Y0354
X07075
Y0344
Y0334
Y0324
X07875
Y0334
Y0344
Y0354
X08
Y0344
Y0334
Y0324
X08125
Y0334
Y0344
Y0354
Y0369
Y0379
Y0389
Y0399
X08
Y0389
Y0379
Y0369
X07875
Y0379
Y0389
Y0399
T06
X079Y0495
X081
X073
X071
X065
X063
X057
X055
X049
X047
X041
X039
X033
X031
X025
X023
X017
X015
X009
X007
T07
X0075Y01375
X0155
X0235
X0315
X0395
X0475
X0555
X0635
X0715
X0795
X0875
X08875Y01625
X0875Y01875
X0795
X08075Y01625
X07275
X0715Y01875
X0635
X06475Y01625
X05675
X0555Y01875
X0475
X04875Y01625
X04075
X0395Y01875
X0315
X03275Y01625
X02475
X0235Y01875
X01675Y01625
X0155Y01875
X0075
X00875Y01625
T08
X004Y0117
X012
X02
X028
X036
X044
X052
X06
X068
X076
Y0471
X068
X06
X052
X044
X036
X028
X02
X012
X004
T09
X0041181Y0149
X0121181
X0201181
X0281181
X0361181
X0441181
X0521181
X0601181
X0681181
X0761181
Y0179
X0681181
X0601181
X0521181
X0441181
X0361181
X0281181
X0201181
X0121181
X0041181
Y0409
Y0439
X0121181
Y0409
X0201181
Y0439
X0281181
Y0409
X0361181
Y0439
X0441181
Y0409
X0521181
Y0439
X0601181
Y0409
X0681181
Y0439
X0761181
Y0409
T10
X00401Y00515
X01201
X02001
X02801
X03601
X04401
X05201
X06001
X06801
X07601
Y05337
X06801
X06001
X05201
X04401
X03601
X02801
X02001Y05336
X01201Y05337
X00401
M30
