M48
;Layer_Color=6321
;FILE_FORMAT=4:2
METRIC,LZ
;TYPE=PLATED
T1F00S00C1.00
T2F00S00C1.60
T3F00S00C2.80
T4F00S00C3.00
%
T01
X0032Y003531
X003708
X032029Y005055
X032283
X032537
Y005309
X032283
X032029
Y005563
X032283
X032537
Y005817
X032283
X032029
Y006071
Y006325
Y006579
Y006833
Y007087
Y007341
X032283
X032537
Y007087
X032283
Y006833
X032537
Y006579
X032283
Y006325
X032537
Y006071
X032283
Y007595
Y007849
X032537
Y007595
X032029
Y007849
X003708
Y007595
Y007341
X003454
X0032
Y007087
X003454
X003708
Y006833
X003454
X0032
Y006579
X003454
X003708
Y006325
X003454
X0032
Y006071
X003454
X003708
Y005817
X003454
X0032
Y005563
X003454
X003708
Y005309
X003454
X0032
Y005055
X003454
X003708
Y004801
Y004293
Y004039
X0032
Y004293
Y004801
Y007595
X003454
Y007849
X0032
Y008103
Y008357
Y008611
Y008865
Y009119
Y009373
Y009627
Y009881
X003454
X003708
Y009627
X003454
Y009373
X003708
Y009119
X003454
Y008865
X003708
Y008611
X003454
Y008357
X003708
Y008103
X003454
X0032Y010135
Y010643
Y010897
Y011405
X003708
Y010897
Y010643
Y010135
X032029Y009881
Y009627
Y009373
Y009119
Y008865
Y008611
X032283
X032537
Y008357
X032283
X032029
Y008103
X032283
X032537
Y008865
X032283
Y009119
X032537
Y009373
X032283
Y009627
X032537
Y009881
X032283
T02
X033401Y003734
X033909
Y004242
X033401
Y005258
Y005766
X033909
Y005258
Y009195
Y009703
X033401
Y009195
Y010719
Y011227
X033909
Y010719
T03
X002946Y003023
X032283
Y011913
X002946
T04
X032283Y003785
Y004547
Y010389
Y011151
M30
