G04 Layer_Color=8150272*
%FSLAX43Y43*%
%MOMM*%
G71*
G01*
G75*
%ADD28C,1.727*%
G04:AMPARAMS|DCode=29|XSize=1.727mm|YSize=1.727mm|CornerRadius=0.254mm|HoleSize=0mm|Usage=FLASHONLY|Rotation=270.000|XOffset=0mm|YOffset=0mm|HoleType=Round|Shape=RoundedRectangle|*
%AMROUNDEDRECTD29*
21,1,1.727,1.219,0,0,270.0*
21,1,1.219,1.727,0,0,270.0*
1,1,0.508,-0.610,-0.610*
1,1,0.508,-0.610,0.610*
1,1,0.508,0.610,0.610*
1,1,0.508,0.610,-0.610*
%
%ADD29ROUNDEDRECTD29*%
%ADD30C,2.203*%
%ADD31R,2.203X2.203*%
%ADD32C,3.003*%
%ADD33C,6.203*%
%ADD34R,6.807X6.807*%
%ADD35C,2.453*%
D28*
X5588Y61087D02*
D03*
Y63627D02*
D03*
Y66167D02*
D03*
X16383Y24257D02*
D03*
X18923D02*
D03*
X21463D02*
D03*
X16383Y26797D02*
D03*
X18923D02*
D03*
X21463D02*
D03*
X16383Y29337D02*
D03*
X21463D02*
D03*
X18923D02*
D03*
X16383Y31877D02*
D03*
X18923D02*
D03*
X21463D02*
D03*
X16383Y34417D02*
D03*
X18923D02*
D03*
X21463D02*
D03*
Y47117D02*
D03*
X18923D02*
D03*
X16383D02*
D03*
X21463Y44577D02*
D03*
X18923D02*
D03*
X16383D02*
D03*
X18923Y42037D02*
D03*
X21463D02*
D03*
X16383D02*
D03*
X21463Y39497D02*
D03*
X18923D02*
D03*
X16383D02*
D03*
X21463Y36957D02*
D03*
X18923D02*
D03*
X16383D02*
D03*
Y62357D02*
D03*
X18923D02*
D03*
X21463D02*
D03*
X16383Y64897D02*
D03*
X18923D02*
D03*
X21463D02*
D03*
X16383Y67437D02*
D03*
X21463D02*
D03*
X18923D02*
D03*
X16383Y69977D02*
D03*
X18923D02*
D03*
X21463D02*
D03*
X16383Y72517D02*
D03*
X18923D02*
D03*
X21463D02*
D03*
Y59817D02*
D03*
X18923D02*
D03*
X16383D02*
D03*
X21463Y57277D02*
D03*
X18923D02*
D03*
X16383D02*
D03*
X18923Y54737D02*
D03*
X21463D02*
D03*
X16383D02*
D03*
X21463Y52197D02*
D03*
X18923D02*
D03*
X16383D02*
D03*
X21463Y49657D02*
D03*
X18923D02*
D03*
X16383D02*
D03*
X312547Y49653D02*
D03*
X310007D02*
D03*
X307467D02*
D03*
X312547Y52193D02*
D03*
X310007D02*
D03*
X307467D02*
D03*
X312547Y54733D02*
D03*
X310007D02*
D03*
X307467D02*
D03*
X312547Y57273D02*
D03*
X310007D02*
D03*
X307467D02*
D03*
X312547Y59813D02*
D03*
X310007D02*
D03*
X307467D02*
D03*
X312547Y62353D02*
D03*
X310007D02*
D03*
X307467D02*
D03*
X312547Y64893D02*
D03*
X310007D02*
D03*
X307467D02*
D03*
X312547Y67433D02*
D03*
X310007D02*
D03*
X307467D02*
D03*
X312547Y69973D02*
D03*
X310007D02*
D03*
X307467D02*
D03*
X312547Y72513D02*
D03*
X310007D02*
D03*
X307467D02*
D03*
X312547Y47113D02*
D03*
X310007D02*
D03*
X307467D02*
D03*
X312547Y44573D02*
D03*
X310007D02*
D03*
X307467D02*
D03*
X312547Y42033D02*
D03*
Y39493D02*
D03*
Y36953D02*
D03*
Y34413D02*
D03*
Y31873D02*
D03*
Y29333D02*
D03*
Y26793D02*
D03*
Y24253D02*
D03*
X307467D02*
D03*
Y26793D02*
D03*
X310007D02*
D03*
Y24253D02*
D03*
Y29333D02*
D03*
X307467D02*
D03*
X310007Y31873D02*
D03*
X307467D02*
D03*
X310007Y34413D02*
D03*
X307467D02*
D03*
X310007Y36953D02*
D03*
X307467D02*
D03*
Y39493D02*
D03*
X310007Y42033D02*
D03*
Y39493D02*
D03*
X307467Y42033D02*
D03*
Y16633D02*
D03*
Y9013D02*
D03*
X312547Y75053D02*
D03*
Y80133D02*
D03*
X307467Y75053D02*
D03*
X312547Y82673D02*
D03*
Y87753D02*
D03*
X307467Y82673D02*
D03*
X312547Y21713D02*
D03*
Y16633D02*
D03*
Y14093D02*
D03*
Y9013D02*
D03*
D29*
X5588Y68707D02*
D03*
D30*
X6477Y31496D02*
D03*
Y26416D02*
D03*
Y46863D02*
D03*
Y51943D02*
D03*
D31*
X9017Y31496D02*
D03*
Y26416D02*
D03*
Y46863D02*
D03*
Y51943D02*
D03*
D32*
X18923Y92837D02*
D03*
Y3937D02*
D03*
X315087Y3933D02*
D03*
Y92833D02*
D03*
D33*
X18923Y11557D02*
D03*
Y85217D02*
D03*
Y77597D02*
D03*
Y19177D02*
D03*
D34*
X310007Y77593D02*
D03*
Y85213D02*
D03*
Y19173D02*
D03*
Y11553D02*
D03*
D35*
X5080Y16256D02*
D03*
Y21336D02*
D03*
X10160Y16256D02*
D03*
Y21336D02*
D03*
X5080Y5080D02*
D03*
Y10160D02*
D03*
X10160Y5080D02*
D03*
Y10160D02*
D03*
X5080Y86360D02*
D03*
Y91440D02*
D03*
X10160Y86360D02*
D03*
Y91440D02*
D03*
X5080Y75184D02*
D03*
Y80264D02*
D03*
X10160Y75184D02*
D03*
Y80264D02*
D03*
Y36576D02*
D03*
X5080D02*
D03*
X10160Y41656D02*
D03*
X5080D02*
D03*
M02*
