G04 Layer_Physical_Order=1*
G04 Layer_Color=25308*
%FSLAX43Y43*%
%MOMM*%
G71*
G01*
G75*
%ADD10C,2.000*%
%ADD11C,3.500*%
%ADD12C,1.250*%
%ADD13C,1.500*%
%ADD14C,0.500*%
%ADD15R,5.842X5.842*%
%ADD16R,6.096X6.096*%
%ADD17C,1.524*%
G04:AMPARAMS|DCode=18|XSize=1.524mm|YSize=1.524mm|CornerRadius=0.152mm|HoleSize=0mm|Usage=FLASHONLY|Rotation=270.000|XOffset=0mm|YOffset=0mm|HoleType=Round|Shape=RoundedRectangle|*
%AMROUNDEDRECTD18*
21,1,1.524,1.219,0,0,270.0*
21,1,1.219,1.524,0,0,270.0*
1,1,0.305,-0.610,-0.610*
1,1,0.305,-0.610,0.610*
1,1,0.305,0.610,0.610*
1,1,0.305,0.610,-0.610*
%
%ADD18ROUNDEDRECTD18*%
%ADD19C,2.000*%
%ADD20R,2.000X2.000*%
%ADD21C,2.800*%
%ADD22C,6.000*%
%ADD23R,6.604X6.604*%
%ADD24C,2.250*%
D10*
X6477Y31496D02*
Y37592D01*
Y46863D02*
Y51943D01*
X2413Y42799D02*
X6477Y46863D01*
X2413Y7493D02*
Y42799D01*
Y7493D02*
X5334D01*
X6477Y26416D02*
Y31496D01*
D11*
X7747Y7493D02*
X14859D01*
X18923Y11557D02*
X310134D01*
X14859Y7493D02*
X18923Y11557D01*
Y77597D02*
X309372D01*
X18923Y85217D02*
X309499D01*
X15113Y89027D02*
X18923Y85217D01*
Y19177D02*
X310007D01*
X18415Y18669D02*
X18923Y19177D01*
X7493Y18669D02*
X18415D01*
X7493Y89027D02*
X15113D01*
X7620Y77724D02*
X18796D01*
D12*
X16387Y42033D02*
X307467D01*
X12573Y33147D02*
Y43307D01*
Y33147D02*
X16383Y29337D01*
X9017Y46863D02*
X12573Y43307D01*
X9017Y51943D02*
X14478Y46482D01*
Y42037D02*
Y46482D01*
Y42037D02*
X16383D01*
X310007Y42033D02*
X312547D01*
X307467D02*
X310007D01*
X18923Y29337D02*
X21463D01*
X16383D02*
X18923D01*
X16383Y42037D02*
X16387Y42033D01*
X21463Y29337D02*
X312543D01*
D13*
X11176Y24257D02*
X16383D01*
X9017Y26416D02*
X11176Y24257D01*
X13716Y26797D02*
X16383D01*
X9017Y31496D02*
X13716Y26797D01*
X16383Y24257D02*
X18923D01*
X21463D01*
X312543Y26797D02*
X312547Y26793D01*
X16383Y26797D02*
X18923D01*
X21463D01*
X312543D01*
X21463Y24257D02*
X312543D01*
D14*
X20193Y73787D02*
X308737D01*
X20193Y71247D02*
Y73787D01*
X308737Y71243D02*
Y73787D01*
X305050Y45843D02*
X305054Y45847D01*
X21463Y45843D02*
X305050D01*
X21463D02*
Y47117D01*
X18923Y44577D02*
X20193Y45847D01*
X18923Y49657D02*
X20193Y50927D01*
X21463D02*
Y52197D01*
Y61087D02*
X305054D01*
X21463D02*
Y62357D01*
X303911Y66167D02*
X303919Y66159D01*
X21463Y66167D02*
X303911D01*
X21463D02*
Y67437D01*
X20193Y66167D02*
Y68707D01*
X18923Y64897D02*
X20193Y66167D01*
X18923Y69977D02*
X20193Y71247D01*
X308737Y45843D02*
X310007Y44573D01*
X305054Y45847D02*
X307467D01*
Y47113D01*
X308737Y50923D02*
X310007Y49653D01*
X305054Y61087D02*
X305062Y61079D01*
X307467D01*
Y62353D01*
X308741Y66159D02*
X310007Y64893D01*
X308741Y66159D02*
Y68703D01*
X303919Y66159D02*
X307467D01*
Y67433D01*
X308737Y71243D02*
X310007Y69973D01*
X16383Y39497D02*
X17657D01*
Y40021D01*
X18399Y40763D01*
X311277D01*
X312547Y39493D01*
X16383Y36957D02*
X17657D01*
Y37481D01*
X18399Y38223D01*
X16383Y31877D02*
X17657D01*
Y32401D01*
X18399Y33143D01*
X311277D01*
X312547Y31873D01*
X16383Y34417D02*
X17657D01*
Y34941D01*
X18399Y35683D01*
Y38223D02*
X311277D01*
X312547Y36953D01*
X18399Y35683D02*
X311277D01*
X312547Y34413D01*
X21463Y56003D02*
Y57277D01*
X307467Y55999D02*
Y57273D01*
X305951Y55999D02*
X307467D01*
X305947Y56003D02*
X305951Y55999D01*
X21463Y56003D02*
X305947D01*
X307467Y50919D02*
Y52193D01*
X306078Y50919D02*
X307467D01*
X306070Y50927D02*
X306078Y50919D01*
X21463Y50927D02*
X306070D01*
X20193D02*
Y53467D01*
X308737D01*
Y50923D02*
Y53467D01*
X20193Y45847D02*
Y48387D01*
X308737D01*
Y45843D02*
Y48387D01*
X18923Y54737D02*
X20193Y56007D01*
Y58547D01*
X308737D01*
Y56003D02*
Y58547D01*
Y56003D02*
X310007Y54733D01*
X18923Y59817D02*
X20193Y61087D01*
Y63627D01*
X306935D01*
X306943Y63619D01*
X308729D01*
X308737Y63627D01*
Y61083D02*
Y63627D01*
Y61083D02*
X310007Y59813D01*
X20193Y68707D02*
X306324D01*
X306328Y68703D01*
X308741D01*
X307467Y71247D02*
Y72513D01*
X21463Y71247D02*
Y72517D01*
Y71247D02*
X307467D01*
D15*
X310007Y11553D02*
D03*
Y19173D02*
D03*
Y77593D02*
D03*
Y85213D02*
D03*
D16*
X7620Y88900D02*
D03*
Y77724D02*
D03*
Y39116D02*
D03*
Y18796D02*
D03*
Y7620D02*
D03*
D17*
X5588Y61087D02*
D03*
Y63627D02*
D03*
Y66167D02*
D03*
X16383Y24257D02*
D03*
X18923D02*
D03*
X21463D02*
D03*
X16383Y26797D02*
D03*
X18923D02*
D03*
X21463D02*
D03*
X16383Y29337D02*
D03*
X21463D02*
D03*
X18923D02*
D03*
X16383Y31877D02*
D03*
X18923D02*
D03*
X21463D02*
D03*
X16383Y34417D02*
D03*
X18923D02*
D03*
X21463D02*
D03*
Y47117D02*
D03*
X18923D02*
D03*
X16383D02*
D03*
X21463Y44577D02*
D03*
X18923D02*
D03*
X16383D02*
D03*
X18923Y42037D02*
D03*
X21463D02*
D03*
X16383D02*
D03*
X21463Y39497D02*
D03*
X18923D02*
D03*
X16383D02*
D03*
X21463Y36957D02*
D03*
X18923D02*
D03*
X16383D02*
D03*
Y62357D02*
D03*
X18923D02*
D03*
X21463D02*
D03*
X16383Y64897D02*
D03*
X18923D02*
D03*
X21463D02*
D03*
X16383Y67437D02*
D03*
X21463D02*
D03*
X18923D02*
D03*
X16383Y69977D02*
D03*
X18923D02*
D03*
X21463D02*
D03*
X16383Y72517D02*
D03*
X18923D02*
D03*
X21463D02*
D03*
Y59817D02*
D03*
X18923D02*
D03*
X16383D02*
D03*
X21463Y57277D02*
D03*
X18923D02*
D03*
X16383D02*
D03*
X18923Y54737D02*
D03*
X21463D02*
D03*
X16383D02*
D03*
X21463Y52197D02*
D03*
X18923D02*
D03*
X16383D02*
D03*
X21463Y49657D02*
D03*
X18923D02*
D03*
X16383D02*
D03*
X312547Y49653D02*
D03*
X310007D02*
D03*
X307467D02*
D03*
X312547Y52193D02*
D03*
X310007D02*
D03*
X307467D02*
D03*
X312547Y54733D02*
D03*
X310007D02*
D03*
X307467D02*
D03*
X312547Y57273D02*
D03*
X310007D02*
D03*
X307467D02*
D03*
X312547Y59813D02*
D03*
X310007D02*
D03*
X307467D02*
D03*
X312547Y62353D02*
D03*
X310007D02*
D03*
X307467D02*
D03*
X312547Y64893D02*
D03*
X310007D02*
D03*
X307467D02*
D03*
X312547Y67433D02*
D03*
X310007D02*
D03*
X307467D02*
D03*
X312547Y69973D02*
D03*
X310007D02*
D03*
X307467D02*
D03*
X312547Y72513D02*
D03*
X310007D02*
D03*
X307467D02*
D03*
X312547Y47113D02*
D03*
X310007D02*
D03*
X307467D02*
D03*
X312547Y44573D02*
D03*
X310007D02*
D03*
X307467D02*
D03*
X312547Y42033D02*
D03*
Y39493D02*
D03*
Y36953D02*
D03*
Y34413D02*
D03*
Y31873D02*
D03*
Y29333D02*
D03*
Y26793D02*
D03*
Y24253D02*
D03*
X307467D02*
D03*
Y26793D02*
D03*
X310007D02*
D03*
Y24253D02*
D03*
Y29333D02*
D03*
X307467D02*
D03*
X310007Y31873D02*
D03*
X307467D02*
D03*
X310007Y34413D02*
D03*
X307467D02*
D03*
X310007Y36953D02*
D03*
X307467D02*
D03*
Y39493D02*
D03*
X310007Y42033D02*
D03*
Y39493D02*
D03*
X307467Y42033D02*
D03*
Y16633D02*
D03*
Y9013D02*
D03*
X312547Y75053D02*
D03*
Y80133D02*
D03*
X307467Y75053D02*
D03*
X312547Y82673D02*
D03*
Y87753D02*
D03*
X307467Y82673D02*
D03*
X312547Y21713D02*
D03*
Y16633D02*
D03*
Y14093D02*
D03*
Y9013D02*
D03*
D18*
X5588Y68707D02*
D03*
D19*
X6477Y31496D02*
D03*
Y26416D02*
D03*
Y46863D02*
D03*
Y51943D02*
D03*
D20*
X9017Y31496D02*
D03*
Y26416D02*
D03*
Y46863D02*
D03*
Y51943D02*
D03*
D21*
X18923Y92837D02*
D03*
Y3937D02*
D03*
X315087Y3933D02*
D03*
Y92833D02*
D03*
D22*
X18923Y11557D02*
D03*
Y85217D02*
D03*
Y77597D02*
D03*
Y19177D02*
D03*
D23*
X310007Y77593D02*
D03*
Y85213D02*
D03*
Y19173D02*
D03*
Y11553D02*
D03*
D24*
X5080Y16256D02*
D03*
Y21336D02*
D03*
X10160Y16256D02*
D03*
Y21336D02*
D03*
X5080Y5080D02*
D03*
Y10160D02*
D03*
X10160Y5080D02*
D03*
Y10160D02*
D03*
X5080Y86360D02*
D03*
Y91440D02*
D03*
X10160Y86360D02*
D03*
Y91440D02*
D03*
X5080Y75184D02*
D03*
Y80264D02*
D03*
X10160Y75184D02*
D03*
Y80264D02*
D03*
Y36576D02*
D03*
X5080D02*
D03*
X10160Y41656D02*
D03*
X5080D02*
D03*
M02*
