G04 Layer_Color=2752767*
%FSLAX43Y43*%
%MOMM*%
G71*
G01*
G75*
%ADD26C,0.254*%
%ADD37C,0.085*%
%ADD38C,0.381*%
%ADD39C,0.406*%
D26*
X270895Y155194D02*
Y156718D01*
X271657D01*
X271911Y156464D01*
Y155956D01*
X271657Y155702D01*
X270895D01*
X271403D02*
X271911Y155194D01*
X272673D02*
X273181D01*
X273434Y155448D01*
Y155956D01*
X273181Y156210D01*
X272673D01*
X272419Y155956D01*
Y155448D01*
X272673Y155194D01*
X273942Y156210D02*
Y155448D01*
X274196Y155194D01*
X274958D01*
Y156210D01*
X275466Y155194D02*
Y156210D01*
X276228D01*
X276481Y155956D01*
Y155194D01*
X278005Y156718D02*
Y155194D01*
X277243D01*
X276989Y155448D01*
Y155956D01*
X277243Y156210D01*
X278005D01*
X270895Y151384D02*
Y152908D01*
X271657D01*
X271911Y152654D01*
Y152146D01*
X271657Y151892D01*
X270895D01*
X271403D02*
X271911Y151384D01*
X272673D02*
X273181D01*
X273434Y151638D01*
Y152146D01*
X273181Y152400D01*
X272673D01*
X272419Y152146D01*
Y151638D01*
X272673Y151384D01*
X273942Y152400D02*
Y151638D01*
X274196Y151384D01*
X274958D01*
Y152400D01*
X275466Y151384D02*
Y152400D01*
X276228D01*
X276481Y152146D01*
Y151384D01*
X278005Y152908D02*
Y151384D01*
X277243D01*
X276989Y151638D01*
Y152146D01*
X277243Y152400D01*
X278005D01*
X270895Y147574D02*
Y149098D01*
X271657D01*
X271911Y148844D01*
Y148336D01*
X271657Y148082D01*
X270895D01*
X271403D02*
X271911Y147574D01*
X272673D02*
X273181D01*
X273434Y147828D01*
Y148336D01*
X273181Y148590D01*
X272673D01*
X272419Y148336D01*
Y147828D01*
X272673Y147574D01*
X273942Y148590D02*
Y147828D01*
X274196Y147574D01*
X274958D01*
Y148590D01*
X275466Y147574D02*
Y148590D01*
X276228D01*
X276481Y148336D01*
Y147574D01*
X278005Y149098D02*
Y147574D01*
X277243D01*
X276989Y147828D01*
Y148336D01*
X277243Y148590D01*
X278005D01*
X270895Y143764D02*
Y145288D01*
X271657D01*
X271911Y145034D01*
Y144526D01*
X271657Y144272D01*
X270895D01*
X271403D02*
X271911Y143764D01*
X272673D02*
X273181D01*
X273434Y144018D01*
Y144526D01*
X273181Y144780D01*
X272673D01*
X272419Y144526D01*
Y144018D01*
X272673Y143764D01*
X273942Y144780D02*
Y144018D01*
X274196Y143764D01*
X274958D01*
Y144780D01*
X275466Y143764D02*
Y144780D01*
X276228D01*
X276481Y144526D01*
Y143764D01*
X278005Y145288D02*
Y143764D01*
X277243D01*
X276989Y144018D01*
Y144526D01*
X277243Y144780D01*
X278005D01*
X270895Y139954D02*
Y141478D01*
X271657D01*
X271911Y141224D01*
Y140716D01*
X271657Y140462D01*
X270895D01*
X271403D02*
X271911Y139954D01*
X272673D02*
X273181D01*
X273434Y140208D01*
Y140716D01*
X273181Y140970D01*
X272673D01*
X272419Y140716D01*
Y140208D01*
X272673Y139954D01*
X273942Y140970D02*
Y140208D01*
X274196Y139954D01*
X274958D01*
Y140970D01*
X275466Y139954D02*
Y140970D01*
X276228D01*
X276481Y140716D01*
Y139954D01*
X278005Y141478D02*
Y139954D01*
X277243D01*
X276989Y140208D01*
Y140716D01*
X277243Y140970D01*
X278005D01*
X258046Y155194D02*
Y156718D01*
X258808D01*
X259062Y156464D01*
Y155956D01*
X258808Y155702D01*
X258046D01*
X259570Y156718D02*
X260585D01*
X260077D01*
Y155194D01*
X261093Y156718D02*
Y155194D01*
Y155956D01*
X262109D01*
Y156718D01*
Y155194D01*
X258046Y151384D02*
Y152908D01*
X258808D01*
X259062Y152654D01*
Y152146D01*
X258808Y151892D01*
X258046D01*
X259570Y152908D02*
X260585D01*
X260077D01*
Y151384D01*
X261093Y152908D02*
Y151384D01*
Y152146D01*
X262109D01*
Y152908D01*
Y151384D01*
X258046Y147574D02*
Y149098D01*
X258808D01*
X259062Y148844D01*
Y148336D01*
X258808Y148082D01*
X258046D01*
X259570Y149098D02*
X260585D01*
X260077D01*
Y147574D01*
X261093Y149098D02*
Y147574D01*
Y148336D01*
X262109D01*
Y149098D01*
Y147574D01*
X258046Y143764D02*
Y145288D01*
X258808D01*
X259062Y145034D01*
Y144526D01*
X258808Y144272D01*
X258046D01*
X259570Y145288D02*
X260585D01*
X260077D01*
Y143764D01*
X261093Y145288D02*
Y143764D01*
Y144526D01*
X262109D01*
Y145288D01*
Y143764D01*
X258046Y139954D02*
Y141478D01*
X258808D01*
X259062Y141224D01*
Y140716D01*
X258808Y140462D01*
X258046D01*
X259570Y141478D02*
X260585D01*
X260077D01*
Y139954D01*
X261093Y141478D02*
Y139954D01*
Y140716D01*
X262109D01*
Y141478D01*
Y139954D01*
X223868Y155194D02*
X224376D01*
X224122D01*
Y156718D01*
X223868Y156464D01*
X225137Y155194D02*
Y155448D01*
X225391D01*
Y155194D01*
X225137D01*
X226407Y156464D02*
X226661Y156718D01*
X227169D01*
X227423Y156464D01*
Y155448D01*
X227169Y155194D01*
X226661D01*
X226407Y155448D01*
Y156464D01*
X227930Y155194D02*
X228438D01*
X228184D01*
Y156718D01*
X227930Y156464D01*
X230216Y156718D02*
X229708Y156464D01*
X229200Y155956D01*
Y155448D01*
X229454Y155194D01*
X229962D01*
X230216Y155448D01*
Y155702D01*
X229962Y155956D01*
X229200D01*
X230723Y155194D02*
Y156210D01*
X230977D01*
X231231Y155956D01*
Y155194D01*
Y155956D01*
X231485Y156210D01*
X231739Y155956D01*
Y155194D01*
X232247D02*
Y156210D01*
X232501D01*
X232755Y155956D01*
Y155194D01*
Y155956D01*
X233009Y156210D01*
X233263Y155956D01*
Y155194D01*
X235802D02*
X235294Y155702D01*
Y156210D01*
X235802Y156718D01*
X237325Y155194D02*
Y156718D01*
X236564Y155956D01*
X237579D01*
X238087Y156464D02*
X238341Y156718D01*
X238849D01*
X239103Y156464D01*
Y155448D01*
X238849Y155194D01*
X238341D01*
X238087Y155448D01*
Y156464D01*
X239611Y155194D02*
Y155448D01*
X239865D01*
Y155194D01*
X239611D01*
X240880Y156464D02*
X241134Y156718D01*
X241642D01*
X241896Y156464D01*
Y155448D01*
X241642Y155194D01*
X241134D01*
X240880Y155448D01*
Y156464D01*
X242404D02*
X242658Y156718D01*
X243165D01*
X243419Y156464D01*
Y155448D01*
X243165Y155194D01*
X242658D01*
X242404Y155448D01*
Y156464D01*
X243927Y155194D02*
Y156210D01*
X244181D01*
X244435Y155956D01*
Y155194D01*
Y155956D01*
X244689Y156210D01*
X244943Y155956D01*
Y155194D01*
X245451D02*
X245959D01*
X245705D01*
Y156210D01*
X245451D01*
X246720Y155194D02*
X247228D01*
X246974D01*
Y156718D01*
X246720D01*
X247990Y155194D02*
X248498Y155702D01*
Y156210D01*
X247990Y156718D01*
X224883Y151384D02*
X223868D01*
X224883Y152400D01*
Y152654D01*
X224629Y152908D01*
X224122D01*
X223868Y152654D01*
X225391Y151384D02*
Y151638D01*
X225645D01*
Y151384D01*
X225391D01*
X226661Y152654D02*
X226915Y152908D01*
X227423D01*
X227676Y152654D01*
Y152400D01*
X227423Y152146D01*
X227676Y151892D01*
Y151638D01*
X227423Y151384D01*
X226915D01*
X226661Y151638D01*
Y151892D01*
X226915Y152146D01*
X226661Y152400D01*
Y152654D01*
X226915Y152146D02*
X227423D01*
X228184Y152654D02*
X228438Y152908D01*
X228946D01*
X229200Y152654D01*
Y151638D01*
X228946Y151384D01*
X228438D01*
X228184Y151638D01*
Y152654D01*
X229708D02*
X229962Y152908D01*
X230470D01*
X230723Y152654D01*
Y151638D01*
X230470Y151384D01*
X229962D01*
X229708Y151638D01*
Y152654D01*
X231231Y151384D02*
Y152400D01*
X231485D01*
X231739Y152146D01*
Y151384D01*
Y152146D01*
X231993Y152400D01*
X232247Y152146D01*
Y151384D01*
X232755D02*
Y152400D01*
X233009D01*
X233263Y152146D01*
Y151384D01*
Y152146D01*
X233517Y152400D01*
X233771Y152146D01*
Y151384D01*
X236310D02*
X235802Y151892D01*
Y152400D01*
X236310Y152908D01*
X237071Y151384D02*
X237579D01*
X237325D01*
Y152908D01*
X237071Y152654D01*
X238341Y151384D02*
X238849D01*
X238595D01*
Y152908D01*
X238341Y152654D01*
X239611D02*
X239865Y152908D01*
X240372D01*
X240626Y152654D01*
Y151638D01*
X240372Y151384D01*
X239865D01*
X239611Y151638D01*
Y152654D01*
X241134Y151384D02*
Y151638D01*
X241388D01*
Y151384D01*
X241134D01*
X243419D02*
X242404D01*
X243419Y152400D01*
Y152654D01*
X243165Y152908D01*
X242658D01*
X242404Y152654D01*
X244689Y151384D02*
Y152908D01*
X243927Y152146D01*
X244943D01*
X245451Y151384D02*
Y152400D01*
X245705D01*
X245959Y152146D01*
Y151384D01*
Y152146D01*
X246212Y152400D01*
X246466Y152146D01*
Y151384D01*
X246974D02*
X247482D01*
X247228D01*
Y152400D01*
X246974D01*
X248244Y151384D02*
X248752D01*
X248498D01*
Y152908D01*
X248244D01*
X249513Y151384D02*
X250021Y151892D01*
Y152400D01*
X249513Y152908D01*
X223868Y148844D02*
X224122Y149098D01*
X224629D01*
X224883Y148844D01*
Y148590D01*
X224629Y148336D01*
X224376D01*
X224629D01*
X224883Y148082D01*
Y147828D01*
X224629Y147574D01*
X224122D01*
X223868Y147828D01*
X225391Y147574D02*
Y147828D01*
X225645D01*
Y147574D01*
X225391D01*
X226661Y148844D02*
X226915Y149098D01*
X227423D01*
X227676Y148844D01*
Y147828D01*
X227423Y147574D01*
X226915D01*
X226661Y147828D01*
Y148844D01*
X228184D02*
X228438Y149098D01*
X228946D01*
X229200Y148844D01*
Y147828D01*
X228946Y147574D01*
X228438D01*
X228184Y147828D01*
Y148844D01*
X229708D02*
X229962Y149098D01*
X230470D01*
X230723Y148844D01*
Y147828D01*
X230470Y147574D01*
X229962D01*
X229708Y147828D01*
Y148844D01*
X231231Y147574D02*
Y148590D01*
X231485D01*
X231739Y148336D01*
Y147574D01*
Y148336D01*
X231993Y148590D01*
X232247Y148336D01*
Y147574D01*
X232755D02*
Y148590D01*
X233009D01*
X233263Y148336D01*
Y147574D01*
Y148336D01*
X233517Y148590D01*
X233771Y148336D01*
Y147574D01*
X236310D02*
X235802Y148082D01*
Y148590D01*
X236310Y149098D01*
X237071Y147574D02*
X237579D01*
X237325D01*
Y149098D01*
X237071Y148844D01*
X238341Y147574D02*
X238849D01*
X238595D01*
Y149098D01*
X238341Y148844D01*
X239611D02*
X239865Y149098D01*
X240372D01*
X240626Y148844D01*
Y148590D01*
X240372Y148336D01*
X240626Y148082D01*
Y147828D01*
X240372Y147574D01*
X239865D01*
X239611Y147828D01*
Y148082D01*
X239865Y148336D01*
X239611Y148590D01*
Y148844D01*
X239865Y148336D02*
X240372D01*
X241134Y147574D02*
Y147828D01*
X241388D01*
Y147574D01*
X241134D01*
X242404D02*
X242912D01*
X242658D01*
Y149098D01*
X242404Y148844D01*
X243673Y147574D02*
X244181D01*
X243927D01*
Y149098D01*
X243673Y148844D01*
X244943Y147574D02*
Y148590D01*
X245197D01*
X245451Y148336D01*
Y147574D01*
Y148336D01*
X245705Y148590D01*
X245959Y148336D01*
Y147574D01*
X246466D02*
X246974D01*
X246720D01*
Y148590D01*
X246466D01*
X247736Y147574D02*
X248244D01*
X247990D01*
Y149098D01*
X247736D01*
X249006Y147574D02*
X249513Y148082D01*
Y148590D01*
X249006Y149098D01*
X223868Y143764D02*
X224376D01*
X224122D01*
Y145288D01*
X223868Y145034D01*
X225137Y143764D02*
Y144018D01*
X225391D01*
Y143764D01*
X225137D01*
X227423Y145288D02*
X226915Y145034D01*
X226407Y144526D01*
Y144018D01*
X226661Y143764D01*
X227169D01*
X227423Y144018D01*
Y144272D01*
X227169Y144526D01*
X226407D01*
X227930Y145034D02*
X228184Y145288D01*
X228692D01*
X228946Y145034D01*
Y144018D01*
X228692Y143764D01*
X228184D01*
X227930Y144018D01*
Y145034D01*
X229454D02*
X229708Y145288D01*
X230216D01*
X230470Y145034D01*
Y144018D01*
X230216Y143764D01*
X229708D01*
X229454Y144018D01*
Y145034D01*
X230977Y143764D02*
Y144780D01*
X231231D01*
X231485Y144526D01*
Y143764D01*
Y144526D01*
X231739Y144780D01*
X231993Y144526D01*
Y143764D01*
X232501D02*
Y144780D01*
X232755D01*
X233009Y144526D01*
Y143764D01*
Y144526D01*
X233263Y144780D01*
X233517Y144526D01*
Y143764D01*
X236056D02*
X235548Y144272D01*
Y144780D01*
X236056Y145288D01*
X237833D02*
X237325Y145034D01*
X236818Y144526D01*
Y144018D01*
X237071Y143764D01*
X237579D01*
X237833Y144018D01*
Y144272D01*
X237579Y144526D01*
X236818D01*
X239357Y143764D02*
X238341D01*
X239357Y144780D01*
Y145034D01*
X239103Y145288D01*
X238595D01*
X238341Y145034D01*
X239865Y143764D02*
Y144018D01*
X240118D01*
Y143764D01*
X239865D01*
X241134Y144018D02*
X241388Y143764D01*
X241896D01*
X242150Y144018D01*
Y145034D01*
X241896Y145288D01*
X241388D01*
X241134Y145034D01*
Y144780D01*
X241388Y144526D01*
X242150D01*
X242658Y144018D02*
X242912Y143764D01*
X243419D01*
X243673Y144018D01*
Y145034D01*
X243419Y145288D01*
X242912D01*
X242658Y145034D01*
Y144780D01*
X242912Y144526D01*
X243673D01*
X244181Y143764D02*
Y144780D01*
X244435D01*
X244689Y144526D01*
Y143764D01*
Y144526D01*
X244943Y144780D01*
X245197Y144526D01*
Y143764D01*
X245705D02*
X246212D01*
X245959D01*
Y144780D01*
X245705D01*
X246974Y143764D02*
X247482D01*
X247228D01*
Y145288D01*
X246974D01*
X248244Y143764D02*
X248752Y144272D01*
Y144780D01*
X248244Y145288D01*
X223868Y139954D02*
X224376D01*
X224122D01*
Y141478D01*
X223868Y141224D01*
X225137Y139954D02*
Y140208D01*
X225391D01*
Y139954D01*
X225137D01*
X226407Y141224D02*
X226661Y141478D01*
X227169D01*
X227423Y141224D01*
Y140208D01*
X227169Y139954D01*
X226661D01*
X226407Y140208D01*
Y141224D01*
X227930D02*
X228184Y141478D01*
X228692D01*
X228946Y141224D01*
Y140208D01*
X228692Y139954D01*
X228184D01*
X227930Y140208D01*
Y141224D01*
X229454D02*
X229708Y141478D01*
X230216D01*
X230470Y141224D01*
Y140208D01*
X230216Y139954D01*
X229708D01*
X229454Y140208D01*
Y141224D01*
X230977Y139954D02*
Y140970D01*
X231231D01*
X231485Y140716D01*
Y139954D01*
Y140716D01*
X231739Y140970D01*
X231993Y140716D01*
Y139954D01*
X232501D02*
Y140970D01*
X232755D01*
X233009Y140716D01*
Y139954D01*
Y140716D01*
X233263Y140970D01*
X233517Y140716D01*
Y139954D01*
X236056D02*
X235548Y140462D01*
Y140970D01*
X236056Y141478D01*
X236818Y141224D02*
X237071Y141478D01*
X237579D01*
X237833Y141224D01*
Y140970D01*
X237579Y140716D01*
X237325D01*
X237579D01*
X237833Y140462D01*
Y140208D01*
X237579Y139954D01*
X237071D01*
X236818Y140208D01*
X238341D02*
X238595Y139954D01*
X239103D01*
X239357Y140208D01*
Y141224D01*
X239103Y141478D01*
X238595D01*
X238341Y141224D01*
Y140970D01*
X238595Y140716D01*
X239357D01*
X239865Y139954D02*
Y140208D01*
X240118D01*
Y139954D01*
X239865D01*
X241134Y141224D02*
X241388Y141478D01*
X241896D01*
X242150Y141224D01*
Y140970D01*
X241896Y140716D01*
X241642D01*
X241896D01*
X242150Y140462D01*
Y140208D01*
X241896Y139954D01*
X241388D01*
X241134Y140208D01*
X242658Y141478D02*
X243673D01*
Y141224D01*
X242658Y140208D01*
Y139954D01*
X244181D02*
Y140970D01*
X244435D01*
X244689Y140716D01*
Y139954D01*
Y140716D01*
X244943Y140970D01*
X245197Y140716D01*
Y139954D01*
X245705D02*
X246212D01*
X245959D01*
Y140970D01*
X245705D01*
X246974Y139954D02*
X247482D01*
X247228D01*
Y141478D01*
X246974D01*
X248244Y139954D02*
X248752Y140462D01*
Y140970D01*
X248244Y141478D01*
X206143Y136144D02*
X206651D01*
X206397D01*
Y137668D01*
X206143Y137414D01*
X207413Y137668D02*
X208428D01*
Y137414D01*
X207413Y136398D01*
Y136144D01*
X209952Y137668D02*
X209444Y137414D01*
X208936Y136906D01*
Y136398D01*
X209190Y136144D01*
X209698D01*
X209952Y136398D01*
Y136652D01*
X209698Y136906D01*
X208936D01*
X211983Y137668D02*
X212999D01*
X212491D01*
Y136144D01*
X213761D02*
X214269D01*
X214523Y136398D01*
Y136906D01*
X214269Y137160D01*
X213761D01*
X213507Y136906D01*
Y136398D01*
X213761Y136144D01*
X215284Y137414D02*
Y137160D01*
X215030D01*
X215538D01*
X215284D01*
Y136398D01*
X215538Y136144D01*
X216554Y137160D02*
X217062D01*
X217316Y136906D01*
Y136144D01*
X216554D01*
X216300Y136398D01*
X216554Y136652D01*
X217316D01*
X217823Y136144D02*
X218331D01*
X218077D01*
Y137668D01*
X217823D01*
X206905Y155194D02*
Y156718D01*
X206143Y155956D01*
X207159D01*
X206905Y151384D02*
Y152908D01*
X206143Y152146D01*
X207159D01*
X206905Y147574D02*
Y149098D01*
X206143Y148336D01*
X207159D01*
Y143764D02*
X206143D01*
X207159Y144780D01*
Y145034D01*
X206905Y145288D01*
X206397D01*
X206143Y145034D01*
X207667D02*
X207921Y145288D01*
X208428D01*
X208682Y145034D01*
Y144018D01*
X208428Y143764D01*
X207921D01*
X207667Y144018D01*
Y145034D01*
X206143Y139954D02*
X206651D01*
X206397D01*
Y141478D01*
X206143Y141224D01*
X208175Y139954D02*
Y141478D01*
X207413Y140716D01*
X208428D01*
X209698Y139954D02*
Y141478D01*
X208936Y140716D01*
X209952D01*
D37*
X194008Y144399D02*
X193960Y144642D01*
X193822Y144848D01*
X193616Y144986D01*
X193373Y145034D01*
X193130Y144986D01*
X192924Y144848D01*
X192787Y144642D01*
X192738Y144399D01*
X192787Y144156D01*
X192924Y143950D01*
X193130Y143812D01*
X193373Y143764D01*
X193616Y143812D01*
X193822Y143950D01*
X193960Y144156D01*
X194008Y144399D01*
X5503Y41656D02*
X5422Y41905D01*
X5211Y42059D01*
X4949D01*
X4738Y41905D01*
X4657Y41656D01*
X4738Y41407D01*
X4949Y41253D01*
X5211D01*
X5422Y41407D01*
X5503Y41656D01*
X10583D02*
X10502Y41905D01*
X10291Y42059D01*
X10029D01*
X9818Y41905D01*
X9737Y41656D01*
X9818Y41407D01*
X10029Y41253D01*
X10291D01*
X10502Y41407D01*
X10583Y41656D01*
X5503Y36576D02*
X5422Y36825D01*
X5211Y36979D01*
X4949D01*
X4738Y36825D01*
X4657Y36576D01*
X4738Y36327D01*
X4949Y36173D01*
X5211D01*
X5422Y36327D01*
X5503Y36576D01*
X10583D02*
X10502Y36825D01*
X10291Y36979D01*
X10029D01*
X9818Y36825D01*
X9737Y36576D01*
X9818Y36327D01*
X10029Y36173D01*
X10291D01*
X10502Y36327D01*
X10583Y36576D01*
Y80264D02*
X10502Y80513D01*
X10291Y80667D01*
X10029D01*
X9818Y80513D01*
X9737Y80264D01*
X9818Y80015D01*
X10029Y79861D01*
X10291D01*
X10502Y80015D01*
X10583Y80264D01*
Y75184D02*
X10502Y75433D01*
X10291Y75587D01*
X10029D01*
X9818Y75433D01*
X9737Y75184D01*
X9818Y74935D01*
X10029Y74781D01*
X10291D01*
X10502Y74935D01*
X10583Y75184D01*
X5503Y80264D02*
X5422Y80513D01*
X5211Y80667D01*
X4949D01*
X4738Y80513D01*
X4657Y80264D01*
X4738Y80015D01*
X4949Y79861D01*
X5211D01*
X5422Y80015D01*
X5503Y80264D01*
Y75184D02*
X5422Y75433D01*
X5211Y75587D01*
X4949D01*
X4738Y75433D01*
X4657Y75184D01*
X4738Y74935D01*
X4949Y74781D01*
X5211D01*
X5422Y74935D01*
X5503Y75184D01*
X10583Y91440D02*
X10502Y91689D01*
X10291Y91843D01*
X10029D01*
X9818Y91689D01*
X9737Y91440D01*
X9818Y91191D01*
X10029Y91037D01*
X10291D01*
X10502Y91191D01*
X10583Y91440D01*
Y86360D02*
X10502Y86609D01*
X10291Y86763D01*
X10029D01*
X9818Y86609D01*
X9737Y86360D01*
X9818Y86111D01*
X10029Y85957D01*
X10291D01*
X10502Y86111D01*
X10583Y86360D01*
X5503Y91440D02*
X5422Y91689D01*
X5211Y91843D01*
X4949D01*
X4738Y91689D01*
X4657Y91440D01*
X4738Y91191D01*
X4949Y91037D01*
X5211D01*
X5422Y91191D01*
X5503Y91440D01*
Y86360D02*
X5422Y86609D01*
X5211Y86763D01*
X4949D01*
X4738Y86609D01*
X4657Y86360D01*
X4738Y86111D01*
X4949Y85957D01*
X5211D01*
X5422Y86111D01*
X5503Y86360D01*
X10583Y10160D02*
X10502Y10409D01*
X10291Y10563D01*
X10029D01*
X9818Y10409D01*
X9737Y10160D01*
X9818Y9911D01*
X10029Y9757D01*
X10291D01*
X10502Y9911D01*
X10583Y10160D01*
Y5080D02*
X10502Y5329D01*
X10291Y5483D01*
X10029D01*
X9818Y5329D01*
X9737Y5080D01*
X9818Y4831D01*
X10029Y4677D01*
X10291D01*
X10502Y4831D01*
X10583Y5080D01*
X5503Y10160D02*
X5422Y10409D01*
X5211Y10563D01*
X4949D01*
X4738Y10409D01*
X4657Y10160D01*
X4738Y9911D01*
X4949Y9757D01*
X5211D01*
X5422Y9911D01*
X5503Y10160D01*
Y5080D02*
X5422Y5329D01*
X5211Y5483D01*
X4949D01*
X4738Y5329D01*
X4657Y5080D01*
X4738Y4831D01*
X4949Y4677D01*
X5211D01*
X5422Y4831D01*
X5503Y5080D01*
X10583Y21336D02*
X10502Y21585D01*
X10291Y21739D01*
X10029D01*
X9818Y21585D01*
X9737Y21336D01*
X9818Y21087D01*
X10029Y20933D01*
X10291D01*
X10502Y21087D01*
X10583Y21336D01*
Y16256D02*
X10502Y16505D01*
X10291Y16659D01*
X10029D01*
X9818Y16505D01*
X9737Y16256D01*
X9818Y16007D01*
X10029Y15853D01*
X10291D01*
X10502Y16007D01*
X10583Y16256D01*
X5503Y21336D02*
X5422Y21585D01*
X5211Y21739D01*
X4949D01*
X4738Y21585D01*
X4657Y21336D01*
X4738Y21087D01*
X4949Y20933D01*
X5211D01*
X5422Y21087D01*
X5503Y21336D01*
Y16256D02*
X5422Y16505D01*
X5211Y16659D01*
X4949D01*
X4738Y16505D01*
X4657Y16256D01*
X4738Y16007D01*
X4949Y15853D01*
X5211D01*
X5422Y16007D01*
X5503Y16256D01*
X192738Y155194D02*
X193373Y155512D01*
X194008Y155194D01*
X193691Y155829D02*
X194008Y155194D01*
X193691Y155829D02*
X194008Y156464D01*
X193373Y156146D02*
X194008Y156464D01*
X192738D02*
X193373Y156146D01*
X192738Y156464D02*
X193056Y155829D01*
X192738Y155194D02*
X193056Y155829D01*
X193373Y151384D02*
X194008Y152654D01*
X192738D02*
X194008D01*
X192738D02*
X193373Y151384D01*
X193056Y147891D02*
X193373Y147574D01*
X192738Y147891D02*
X193056D01*
X192738D02*
X193056Y148209D01*
X192738Y148527D02*
X193056Y148209D01*
X192738Y148527D02*
X193056D01*
X193373Y148844D01*
X193691Y148527D01*
X194008D01*
X193691Y148209D02*
X194008Y148527D01*
X193691Y148209D02*
X194008Y147891D01*
X193691D02*
X194008D01*
X193373Y147574D02*
X193691Y147891D01*
X192738Y139954D02*
X194008D01*
Y141224D01*
X192738D02*
X194008D01*
X192738Y139954D02*
Y141224D01*
X307044Y13670D02*
X307890D01*
Y14516D01*
X307044D02*
X307890D01*
X307044Y13670D02*
Y14516D01*
X312124Y8590D02*
X312970D01*
Y9436D01*
X312124D02*
X312970D01*
X312124Y8590D02*
Y9436D01*
Y13670D02*
X312970D01*
Y14516D01*
X312124D02*
X312970D01*
X312124Y13670D02*
Y14516D01*
X307044Y21290D02*
X307890D01*
Y22136D01*
X307044D02*
X307890D01*
X307044Y21290D02*
Y22136D01*
X312124Y16210D02*
X312970D01*
Y17056D01*
X312124D02*
X312970D01*
X312124Y16210D02*
Y17056D01*
Y21290D02*
X312970D01*
Y22136D01*
X312124D02*
X312970D01*
X312124Y21290D02*
Y22136D01*
X307044Y82250D02*
X307890D01*
Y83096D01*
X307044D02*
X307890D01*
X307044Y82250D02*
Y83096D01*
X312124Y87330D02*
X312970D01*
Y88176D01*
X312124D02*
X312970D01*
X312124Y87330D02*
Y88176D01*
Y82250D02*
X312970D01*
Y83096D01*
X312124D02*
X312970D01*
X312124Y82250D02*
Y83096D01*
X307044Y74630D02*
X307890D01*
Y75476D01*
X307044D02*
X307890D01*
X307044Y74630D02*
Y75476D01*
X312124Y79710D02*
X312970D01*
Y80556D01*
X312124D02*
X312970D01*
X312124Y79710D02*
Y80556D01*
Y74630D02*
X312970D01*
Y75476D01*
X312124D02*
X312970D01*
X312124Y74630D02*
Y75476D01*
X315087Y92410D02*
X315510Y93256D01*
X314664D02*
X315510D01*
X314664D02*
X315087Y92410D01*
X307044Y87330D02*
X307890D01*
Y88176D01*
X307044D02*
X307890D01*
X307044Y87330D02*
Y88176D01*
Y79710D02*
X307890D01*
Y80556D01*
X307044D02*
X307890D01*
X307044Y79710D02*
Y80556D01*
X315087Y3510D02*
X315510Y4356D01*
X314664D02*
X315510D01*
X314664D02*
X315087Y3510D01*
X307044Y8590D02*
X307890D01*
Y9436D01*
X307044D02*
X307890D01*
X307044Y8590D02*
Y9436D01*
Y16210D02*
X307890D01*
Y17056D01*
X307044D02*
X307890D01*
X307044Y16210D02*
Y17056D01*
Y41610D02*
X307890D01*
Y42456D01*
X307044D02*
X307890D01*
X307044Y41610D02*
Y42456D01*
X309584Y39070D02*
X310430D01*
Y39916D01*
X309584D02*
X310430D01*
X309584Y39070D02*
Y39916D01*
Y41610D02*
X310430D01*
Y42456D01*
X309584D02*
X310430D01*
X309584Y41610D02*
Y42456D01*
X307044Y39070D02*
X307890D01*
Y39916D01*
X307044D02*
X307890D01*
X307044Y39070D02*
Y39916D01*
Y36530D02*
X307890D01*
Y37376D01*
X307044D02*
X307890D01*
X307044Y36530D02*
Y37376D01*
X309584Y36530D02*
X310430D01*
Y37376D01*
X309584D02*
X310430D01*
X309584Y36530D02*
Y37376D01*
X307044Y33990D02*
X307890D01*
Y34836D01*
X307044D02*
X307890D01*
X307044Y33990D02*
Y34836D01*
X309584Y33990D02*
X310430D01*
Y34836D01*
X309584D02*
X310430D01*
X309584Y33990D02*
Y34836D01*
X307044Y31450D02*
X307890D01*
Y32296D01*
X307044D02*
X307890D01*
X307044Y31450D02*
Y32296D01*
X309584Y31450D02*
X310430D01*
Y32296D01*
X309584D02*
X310430D01*
X309584Y31450D02*
Y32296D01*
X307044Y28910D02*
X307890D01*
Y29756D01*
X307044D02*
X307890D01*
X307044Y28910D02*
Y29756D01*
X309584Y28910D02*
X310430D01*
Y29756D01*
X309584D02*
X310430D01*
X309584Y28910D02*
Y29756D01*
Y23830D02*
X310430D01*
Y24676D01*
X309584D02*
X310430D01*
X309584Y23830D02*
Y24676D01*
Y26370D02*
X310430D01*
Y27216D01*
X309584D02*
X310430D01*
X309584Y26370D02*
Y27216D01*
X307044Y26370D02*
X307890D01*
Y27216D01*
X307044D02*
X307890D01*
X307044Y26370D02*
Y27216D01*
Y23830D02*
X307890D01*
Y24676D01*
X307044D02*
X307890D01*
X307044Y23830D02*
Y24676D01*
X312124Y23830D02*
X312970D01*
Y24676D01*
X312124D02*
X312970D01*
X312124Y23830D02*
Y24676D01*
Y26370D02*
X312970D01*
Y27216D01*
X312124D02*
X312970D01*
X312124Y26370D02*
Y27216D01*
Y28910D02*
X312970D01*
Y29756D01*
X312124D02*
X312970D01*
X312124Y28910D02*
Y29756D01*
Y31450D02*
X312970D01*
Y32296D01*
X312124D02*
X312970D01*
X312124Y31450D02*
Y32296D01*
Y33990D02*
X312970D01*
Y34836D01*
X312124D02*
X312970D01*
X312124Y33990D02*
Y34836D01*
Y36530D02*
X312970D01*
Y37376D01*
X312124D02*
X312970D01*
X312124Y36530D02*
Y37376D01*
Y39070D02*
X312970D01*
Y39916D01*
X312124D02*
X312970D01*
X312124Y39070D02*
Y39916D01*
Y41610D02*
X312970D01*
Y42456D01*
X312124D02*
X312970D01*
X312124Y41610D02*
Y42456D01*
X307044Y44150D02*
X307890D01*
Y44996D01*
X307044D02*
X307890D01*
X307044Y44150D02*
Y44996D01*
X309584Y44150D02*
X310430D01*
Y44996D01*
X309584D02*
X310430D01*
X309584Y44150D02*
Y44996D01*
X312124Y44150D02*
X312970D01*
Y44996D01*
X312124D02*
X312970D01*
X312124Y44150D02*
Y44996D01*
X307044Y46690D02*
X307890D01*
Y47536D01*
X307044D02*
X307890D01*
X307044Y46690D02*
Y47536D01*
X309584Y46690D02*
X310430D01*
Y47536D01*
X309584D02*
X310430D01*
X309584Y46690D02*
Y47536D01*
X312124Y46690D02*
X312970D01*
Y47536D01*
X312124D02*
X312970D01*
X312124Y46690D02*
Y47536D01*
X307044Y72090D02*
X307890D01*
Y72936D01*
X307044D02*
X307890D01*
X307044Y72090D02*
Y72936D01*
X309584Y72090D02*
X310430D01*
Y72936D01*
X309584D02*
X310430D01*
X309584Y72090D02*
Y72936D01*
X312124Y72090D02*
X312970D01*
Y72936D01*
X312124D02*
X312970D01*
X312124Y72090D02*
Y72936D01*
X307044Y69550D02*
X307890D01*
Y70396D01*
X307044D02*
X307890D01*
X307044Y69550D02*
Y70396D01*
X309584Y69550D02*
X310430D01*
Y70396D01*
X309584D02*
X310430D01*
X309584Y69550D02*
Y70396D01*
X312124Y69550D02*
X312970D01*
Y70396D01*
X312124D02*
X312970D01*
X312124Y69550D02*
Y70396D01*
X307044Y67010D02*
X307890D01*
Y67856D01*
X307044D02*
X307890D01*
X307044Y67010D02*
Y67856D01*
X309584Y67010D02*
X310430D01*
Y67856D01*
X309584D02*
X310430D01*
X309584Y67010D02*
Y67856D01*
X312124Y67010D02*
X312970D01*
Y67856D01*
X312124D02*
X312970D01*
X312124Y67010D02*
Y67856D01*
X307044Y64470D02*
X307890D01*
Y65316D01*
X307044D02*
X307890D01*
X307044Y64470D02*
Y65316D01*
X309584Y64470D02*
X310430D01*
Y65316D01*
X309584D02*
X310430D01*
X309584Y64470D02*
Y65316D01*
X312124Y64470D02*
X312970D01*
Y65316D01*
X312124D02*
X312970D01*
X312124Y64470D02*
Y65316D01*
X307044Y61930D02*
X307890D01*
Y62776D01*
X307044D02*
X307890D01*
X307044Y61930D02*
Y62776D01*
X309584Y61930D02*
X310430D01*
Y62776D01*
X309584D02*
X310430D01*
X309584Y61930D02*
Y62776D01*
X312124Y61930D02*
X312970D01*
Y62776D01*
X312124D02*
X312970D01*
X312124Y61930D02*
Y62776D01*
X307044Y59390D02*
X307890D01*
Y60236D01*
X307044D02*
X307890D01*
X307044Y59390D02*
Y60236D01*
X309584Y59390D02*
X310430D01*
Y60236D01*
X309584D02*
X310430D01*
X309584Y59390D02*
Y60236D01*
X312124Y59390D02*
X312970D01*
Y60236D01*
X312124D02*
X312970D01*
X312124Y59390D02*
Y60236D01*
X307044Y56850D02*
X307890D01*
Y57696D01*
X307044D02*
X307890D01*
X307044Y56850D02*
Y57696D01*
X309584Y56850D02*
X310430D01*
Y57696D01*
X309584D02*
X310430D01*
X309584Y56850D02*
Y57696D01*
X312124Y56850D02*
X312970D01*
Y57696D01*
X312124D02*
X312970D01*
X312124Y56850D02*
Y57696D01*
X307044Y54310D02*
X307890D01*
Y55156D01*
X307044D02*
X307890D01*
X307044Y54310D02*
Y55156D01*
X309584Y54310D02*
X310430D01*
Y55156D01*
X309584D02*
X310430D01*
X309584Y54310D02*
Y55156D01*
X312124Y54310D02*
X312970D01*
Y55156D01*
X312124D02*
X312970D01*
X312124Y54310D02*
Y55156D01*
X307044Y51770D02*
X307890D01*
Y52616D01*
X307044D02*
X307890D01*
X307044Y51770D02*
Y52616D01*
X309584Y51770D02*
X310430D01*
Y52616D01*
X309584D02*
X310430D01*
X309584Y51770D02*
Y52616D01*
X312124Y51770D02*
X312970D01*
Y52616D01*
X312124D02*
X312970D01*
X312124Y51770D02*
Y52616D01*
X307044Y49230D02*
X307890D01*
Y50076D01*
X307044D02*
X307890D01*
X307044Y49230D02*
Y50076D01*
X309584Y49230D02*
X310430D01*
Y50076D01*
X309584D02*
X310430D01*
X309584Y49230D02*
Y50076D01*
X312124Y49230D02*
X312970D01*
Y50076D01*
X312124D02*
X312970D01*
X312124Y49230D02*
Y50076D01*
X6054Y51520D02*
X6900D01*
Y52366D01*
X6054D02*
X6900D01*
X6054Y51520D02*
Y52366D01*
X8594Y51520D02*
X9440D01*
Y52366D01*
X8594D02*
X9440D01*
X8594Y51520D02*
Y52366D01*
X6054Y46440D02*
X6900D01*
Y47286D01*
X6054D02*
X6900D01*
X6054Y46440D02*
Y47286D01*
X8594Y46440D02*
X9440D01*
Y47286D01*
X8594D02*
X9440D01*
X8594Y46440D02*
Y47286D01*
X15960Y49234D02*
X16806D01*
Y50080D01*
X15960D02*
X16806D01*
X15960Y49234D02*
Y50080D01*
X18500Y49234D02*
X19346D01*
Y50080D01*
X18500D02*
X19346D01*
X18500Y49234D02*
Y50080D01*
X21040Y49234D02*
X21886D01*
Y50080D01*
X21040D02*
X21886D01*
X21040Y49234D02*
Y50080D01*
X15960Y51774D02*
X16806D01*
Y52620D01*
X15960D02*
X16806D01*
X15960Y51774D02*
Y52620D01*
X18500Y51774D02*
X19346D01*
Y52620D01*
X18500D02*
X19346D01*
X18500Y51774D02*
Y52620D01*
X21040Y51774D02*
X21886D01*
Y52620D01*
X21040D02*
X21886D01*
X21040Y51774D02*
Y52620D01*
X15960Y54314D02*
X16806D01*
Y55160D01*
X15960D02*
X16806D01*
X15960Y54314D02*
Y55160D01*
X21040Y54314D02*
X21886D01*
Y55160D01*
X21040D02*
X21886D01*
X21040Y54314D02*
Y55160D01*
X18500Y54314D02*
X19346D01*
Y55160D01*
X18500D02*
X19346D01*
X18500Y54314D02*
Y55160D01*
X15960Y56854D02*
X16806D01*
Y57700D01*
X15960D02*
X16806D01*
X15960Y56854D02*
Y57700D01*
X18500Y56854D02*
X19346D01*
Y57700D01*
X18500D02*
X19346D01*
X18500Y56854D02*
Y57700D01*
X21040Y56854D02*
X21886D01*
Y57700D01*
X21040D02*
X21886D01*
X21040Y56854D02*
Y57700D01*
X15960Y59394D02*
X16806D01*
Y60240D01*
X15960D02*
X16806D01*
X15960Y59394D02*
Y60240D01*
X18500Y59394D02*
X19346D01*
Y60240D01*
X18500D02*
X19346D01*
X18500Y59394D02*
Y60240D01*
X21040Y59394D02*
X21886D01*
Y60240D01*
X21040D02*
X21886D01*
X21040Y59394D02*
Y60240D01*
Y72094D02*
X21886D01*
Y72940D01*
X21040D02*
X21886D01*
X21040Y72094D02*
Y72940D01*
X18500Y72094D02*
X19346D01*
Y72940D01*
X18500D02*
X19346D01*
X18500Y72094D02*
Y72940D01*
X15960Y72094D02*
X16806D01*
Y72940D01*
X15960D02*
X16806D01*
X15960Y72094D02*
Y72940D01*
X21040Y69554D02*
X21886D01*
Y70400D01*
X21040D02*
X21886D01*
X21040Y69554D02*
Y70400D01*
X18500Y69554D02*
X19346D01*
Y70400D01*
X18500D02*
X19346D01*
X18500Y69554D02*
Y70400D01*
X15960Y69554D02*
X16806D01*
Y70400D01*
X15960D02*
X16806D01*
X15960Y69554D02*
Y70400D01*
X18500Y67014D02*
X19346D01*
Y67860D01*
X18500D02*
X19346D01*
X18500Y67014D02*
Y67860D01*
X21040Y67014D02*
X21886D01*
Y67860D01*
X21040D02*
X21886D01*
X21040Y67014D02*
Y67860D01*
X15960Y67014D02*
X16806D01*
Y67860D01*
X15960D02*
X16806D01*
X15960Y67014D02*
Y67860D01*
X21040Y64474D02*
X21886D01*
Y65320D01*
X21040D02*
X21886D01*
X21040Y64474D02*
Y65320D01*
X18500Y64474D02*
X19346D01*
Y65320D01*
X18500D02*
X19346D01*
X18500Y64474D02*
Y65320D01*
X15960Y64474D02*
X16806D01*
Y65320D01*
X15960D02*
X16806D01*
X15960Y64474D02*
Y65320D01*
X21040Y61934D02*
X21886D01*
Y62780D01*
X21040D02*
X21886D01*
X21040Y61934D02*
Y62780D01*
X18500Y61934D02*
X19346D01*
Y62780D01*
X18500D02*
X19346D01*
X18500Y61934D02*
Y62780D01*
X15960Y61934D02*
X16806D01*
Y62780D01*
X15960D02*
X16806D01*
X15960Y61934D02*
Y62780D01*
Y36534D02*
X16806D01*
Y37380D01*
X15960D02*
X16806D01*
X15960Y36534D02*
Y37380D01*
X18500Y36534D02*
X19346D01*
Y37380D01*
X18500D02*
X19346D01*
X18500Y36534D02*
Y37380D01*
X21040Y36534D02*
X21886D01*
Y37380D01*
X21040D02*
X21886D01*
X21040Y36534D02*
Y37380D01*
X15960Y39074D02*
X16806D01*
Y39920D01*
X15960D02*
X16806D01*
X15960Y39074D02*
Y39920D01*
X18500Y39074D02*
X19346D01*
Y39920D01*
X18500D02*
X19346D01*
X18500Y39074D02*
Y39920D01*
X21040Y39074D02*
X21886D01*
Y39920D01*
X21040D02*
X21886D01*
X21040Y39074D02*
Y39920D01*
X15960Y41614D02*
X16806D01*
Y42460D01*
X15960D02*
X16806D01*
X15960Y41614D02*
Y42460D01*
X21040Y41614D02*
X21886D01*
Y42460D01*
X21040D02*
X21886D01*
X21040Y41614D02*
Y42460D01*
X18500Y41614D02*
X19346D01*
Y42460D01*
X18500D02*
X19346D01*
X18500Y41614D02*
Y42460D01*
X15960Y44154D02*
X16806D01*
Y45000D01*
X15960D02*
X16806D01*
X15960Y44154D02*
Y45000D01*
X18500Y44154D02*
X19346D01*
Y45000D01*
X18500D02*
X19346D01*
X18500Y44154D02*
Y45000D01*
X21040Y44154D02*
X21886D01*
Y45000D01*
X21040D02*
X21886D01*
X21040Y44154D02*
Y45000D01*
X15960Y46694D02*
X16806D01*
Y47540D01*
X15960D02*
X16806D01*
X15960Y46694D02*
Y47540D01*
X18500Y46694D02*
X19346D01*
Y47540D01*
X18500D02*
X19346D01*
X18500Y46694D02*
Y47540D01*
X21040Y46694D02*
X21886D01*
Y47540D01*
X21040D02*
X21886D01*
X21040Y46694D02*
Y47540D01*
Y33994D02*
X21886D01*
Y34840D01*
X21040D02*
X21886D01*
X21040Y33994D02*
Y34840D01*
X18500Y33994D02*
X19346D01*
Y34840D01*
X18500D02*
X19346D01*
X18500Y33994D02*
Y34840D01*
X15960Y33994D02*
X16806D01*
Y34840D01*
X15960D02*
X16806D01*
X15960Y33994D02*
Y34840D01*
X21040Y31454D02*
X21886D01*
Y32300D01*
X21040D02*
X21886D01*
X21040Y31454D02*
Y32300D01*
X18500Y31454D02*
X19346D01*
Y32300D01*
X18500D02*
X19346D01*
X18500Y31454D02*
Y32300D01*
X15960Y31454D02*
X16806D01*
Y32300D01*
X15960D02*
X16806D01*
X15960Y31454D02*
Y32300D01*
X18500Y28914D02*
X19346D01*
Y29760D01*
X18500D02*
X19346D01*
X18500Y28914D02*
Y29760D01*
X21040Y28914D02*
X21886D01*
Y29760D01*
X21040D02*
X21886D01*
X21040Y28914D02*
Y29760D01*
X15960Y28914D02*
X16806D01*
Y29760D01*
X15960D02*
X16806D01*
X15960Y28914D02*
Y29760D01*
X21040Y26374D02*
X21886D01*
Y27220D01*
X21040D02*
X21886D01*
X21040Y26374D02*
Y27220D01*
X18500Y26374D02*
X19346D01*
Y27220D01*
X18500D02*
X19346D01*
X18500Y26374D02*
Y27220D01*
X15960Y26374D02*
X16806D01*
Y27220D01*
X15960D02*
X16806D01*
X15960Y26374D02*
Y27220D01*
X21040Y23834D02*
X21886D01*
Y24680D01*
X21040D02*
X21886D01*
X21040Y23834D02*
Y24680D01*
X18500Y23834D02*
X19346D01*
Y24680D01*
X18500D02*
X19346D01*
X18500Y23834D02*
Y24680D01*
X15960Y23834D02*
X16806D01*
Y24680D01*
X15960D02*
X16806D01*
X15960Y23834D02*
Y24680D01*
X18711Y18965D02*
X18923Y18754D01*
X18500Y18965D02*
X18711D01*
X18500D02*
X18711Y19177D01*
X18500Y19389D02*
X18711Y19177D01*
X18500Y19389D02*
X18711D01*
X18923Y19600D01*
X19135Y19389D01*
X19346D01*
X19135Y19177D02*
X19346Y19389D01*
X19135Y19177D02*
X19346Y18965D01*
X19135D02*
X19346D01*
X18923Y18754D02*
X19135Y18965D01*
X18711Y77385D02*
X18923Y77174D01*
X18500Y77385D02*
X18711D01*
X18500D02*
X18711Y77597D01*
X18500Y77809D02*
X18711Y77597D01*
X18500Y77809D02*
X18711D01*
X18923Y78020D01*
X19135Y77809D01*
X19346D01*
X19135Y77597D02*
X19346Y77809D01*
X19135Y77597D02*
X19346Y77385D01*
X19135D02*
X19346D01*
X18923Y77174D02*
X19135Y77385D01*
X18711Y85005D02*
X18923Y84794D01*
X18500Y85005D02*
X18711D01*
X18500D02*
X18711Y85217D01*
X18500Y85429D02*
X18711Y85217D01*
X18500Y85429D02*
X18711D01*
X18923Y85640D01*
X19135Y85429D01*
X19346D01*
X19135Y85217D02*
X19346Y85429D01*
X19135Y85217D02*
X19346Y85005D01*
X19135D02*
X19346D01*
X18923Y84794D02*
X19135Y85005D01*
X18711Y11345D02*
X18923Y11134D01*
X18500Y11345D02*
X18711D01*
X18500D02*
X18711Y11557D01*
X18500Y11769D02*
X18711Y11557D01*
X18500Y11769D02*
X18711D01*
X18923Y11980D01*
X19135Y11769D01*
X19346D01*
X19135Y11557D02*
X19346Y11769D01*
X19135Y11557D02*
X19346Y11345D01*
X19135D02*
X19346D01*
X18923Y11134D02*
X19135Y11345D01*
X18923Y3514D02*
X19346Y4360D01*
X18500D02*
X19346D01*
X18500D02*
X18923Y3514D01*
Y92414D02*
X19346Y93260D01*
X18500D02*
X19346D01*
X18500D02*
X18923Y92414D01*
X8594Y25993D02*
X9440D01*
Y26839D01*
X8594D02*
X9440D01*
X8594Y25993D02*
Y26839D01*
X6054Y25993D02*
X6900D01*
Y26839D01*
X6054D02*
X6900D01*
X6054Y25993D02*
Y26839D01*
X8594Y31073D02*
X9440D01*
Y31919D01*
X8594D02*
X9440D01*
X8594Y31073D02*
Y31919D01*
X6054Y31073D02*
X6900D01*
Y31919D01*
X6054D02*
X6900D01*
X6054Y31073D02*
Y31919D01*
X5165Y68284D02*
X5588Y68495D01*
X6011Y68284D01*
X5800Y68707D02*
X6011Y68284D01*
X5800Y68707D02*
X6011Y69130D01*
X5588Y68919D02*
X6011Y69130D01*
X5165D02*
X5588Y68919D01*
X5165Y69130D02*
X5376Y68707D01*
X5165Y68284D02*
X5376Y68707D01*
X5165Y65744D02*
X5588Y65955D01*
X6011Y65744D01*
X5800Y66167D02*
X6011Y65744D01*
X5800Y66167D02*
X6011Y66590D01*
X5588Y66379D02*
X6011Y66590D01*
X5165D02*
X5588Y66379D01*
X5165Y66590D02*
X5376Y66167D01*
X5165Y65744D02*
X5376Y66167D01*
X5165Y63204D02*
X5588Y63415D01*
X6011Y63204D01*
X5800Y63627D02*
X6011Y63204D01*
X5800Y63627D02*
X6011Y64050D01*
X5588Y63839D02*
X6011Y64050D01*
X5165D02*
X5588Y63839D01*
X5165Y64050D02*
X5376Y63627D01*
X5165Y63204D02*
X5376Y63627D01*
X5165Y60664D02*
X5588Y60875D01*
X6011Y60664D01*
X5800Y61087D02*
X6011Y60664D01*
X5800Y61087D02*
X6011Y61510D01*
X5588Y61299D02*
X6011Y61510D01*
X5165D02*
X5588Y61299D01*
X5165Y61510D02*
X5376Y61087D01*
X5165Y60664D02*
X5376Y61087D01*
D38*
X191008Y157861D02*
X289534D01*
X191008Y138811D02*
X289534D01*
X191008Y135001D02*
X289534D01*
Y161671D01*
X191008D02*
X289534D01*
X191008Y135001D02*
Y161671D01*
X269752Y135001D02*
Y161671D01*
X256903Y135001D02*
Y161671D01*
X222725Y135001D02*
Y161671D01*
X205000Y135001D02*
Y161671D01*
D39*
X270895Y160832D02*
Y159004D01*
Y159918D01*
X272114D01*
Y160832D01*
Y159004D01*
X273028D02*
X273638D01*
X273942Y159309D01*
Y159918D01*
X273638Y160223D01*
X273028D01*
X272724Y159918D01*
Y159309D01*
X273028Y159004D01*
X274552D02*
X275161D01*
X274856D01*
Y160832D01*
X274552D01*
X276989Y159004D02*
X276380D01*
X276075Y159309D01*
Y159918D01*
X276380Y160223D01*
X276989D01*
X277294Y159918D01*
Y159613D01*
X276075D01*
X279732Y160832D02*
X280950D01*
X280341D01*
Y159004D01*
X281560Y160223D02*
Y159309D01*
X281865Y159004D01*
X282779D01*
Y158699D01*
X282474Y158395D01*
X282169D01*
X282779Y159004D02*
Y160223D01*
X283388Y158395D02*
Y160223D01*
X284302D01*
X284607Y159918D01*
Y159309D01*
X284302Y159004D01*
X283388D01*
X286130D02*
X285521D01*
X285216Y159309D01*
Y159918D01*
X285521Y160223D01*
X286130D01*
X286435Y159918D01*
Y159613D01*
X285216D01*
X258046Y159004D02*
Y160832D01*
X258960D01*
X259265Y160528D01*
Y159918D01*
X258960Y159613D01*
X258046D01*
X259874Y159004D02*
X260484D01*
X260179D01*
Y160832D01*
X259874D01*
X261702Y160223D02*
X262312D01*
X262617Y159918D01*
Y159004D01*
X261702D01*
X261398Y159309D01*
X261702Y159613D01*
X262617D01*
X263531Y160528D02*
Y160223D01*
X263226D01*
X263835D01*
X263531D01*
Y159309D01*
X263835Y159004D01*
X265664D02*
X265054D01*
X264749Y159309D01*
Y159918D01*
X265054Y160223D01*
X265664D01*
X265968Y159918D01*
Y159613D01*
X264749D01*
X267797Y160832D02*
Y159004D01*
X266882D01*
X266578Y159309D01*
Y159918D01*
X266882Y160223D01*
X267797D01*
X225087Y160832D02*
X223868D01*
Y159918D01*
X224477D01*
X223868D01*
Y159004D01*
X225696D02*
X226305D01*
X226001D01*
Y160223D01*
X225696D01*
X227219Y159004D02*
Y160223D01*
X228134D01*
X228438Y159918D01*
Y159004D01*
X229048D02*
X229657D01*
X229352D01*
Y160223D01*
X229048D01*
X230571Y159004D02*
X231485D01*
X231790Y159309D01*
X231485Y159613D01*
X230876D01*
X230571Y159918D01*
X230876Y160223D01*
X231790D01*
X232399Y160832D02*
Y159004D01*
Y159918D01*
X232704Y160223D01*
X233313D01*
X233618Y159918D01*
Y159004D01*
X235142D02*
X234532D01*
X234228Y159309D01*
Y159918D01*
X234532Y160223D01*
X235142D01*
X235446Y159918D01*
Y159613D01*
X234228D01*
X237275Y160832D02*
Y159004D01*
X236360D01*
X236056Y159309D01*
Y159918D01*
X236360Y160223D01*
X237275D01*
X239712Y160832D02*
Y159004D01*
Y159918D01*
X240931D01*
Y160832D01*
Y159004D01*
X241845D02*
X242454D01*
X242759Y159309D01*
Y159918D01*
X242454Y160223D01*
X241845D01*
X241540Y159918D01*
Y159309D01*
X241845Y159004D01*
X243369D02*
X243978D01*
X243673D01*
Y160832D01*
X243369D01*
X245806Y159004D02*
X245197D01*
X244892Y159309D01*
Y159918D01*
X245197Y160223D01*
X245806D01*
X246111Y159918D01*
Y159613D01*
X244892D01*
X249767Y160528D02*
X249463Y160832D01*
X248853D01*
X248549Y160528D01*
Y160223D01*
X248853Y159918D01*
X249463D01*
X249767Y159613D01*
Y159309D01*
X249463Y159004D01*
X248853D01*
X248549Y159309D01*
X250377Y159004D02*
X250986D01*
X250681D01*
Y160223D01*
X250377D01*
X251900D02*
X253119D01*
X251900Y159004D01*
X253119D01*
X254643D02*
X254033D01*
X253728Y159309D01*
Y159918D01*
X254033Y160223D01*
X254643D01*
X254947Y159918D01*
Y159613D01*
X253728D01*
X206143Y160832D02*
Y159004D01*
Y159918D01*
X207362D01*
Y160832D01*
Y159004D01*
X207971D02*
X208581D01*
X208276D01*
Y160223D01*
X207971D01*
X209800Y160528D02*
Y160223D01*
X209495D01*
X210104D01*
X209800D01*
Y159309D01*
X210104Y159004D01*
X214065Y160528D02*
X213761Y160832D01*
X213151D01*
X212847Y160528D01*
Y159309D01*
X213151Y159004D01*
X213761D01*
X214065Y159309D01*
X214980Y159004D02*
X215589D01*
X215894Y159309D01*
Y159918D01*
X215589Y160223D01*
X214980D01*
X214675Y159918D01*
Y159309D01*
X214980Y159004D01*
X216503Y160223D02*
Y159309D01*
X216808Y159004D01*
X217722D01*
Y160223D01*
X218331Y159004D02*
Y160223D01*
X219245D01*
X219550Y159918D01*
Y159004D01*
X220464Y160528D02*
Y160223D01*
X220160D01*
X220769D01*
X220464D01*
Y159309D01*
X220769Y159004D01*
X194513Y160528D02*
X194208Y160832D01*
X193599D01*
X193294Y160528D01*
Y160223D01*
X193599Y159918D01*
X194208D01*
X194513Y159613D01*
Y159309D01*
X194208Y159004D01*
X193599D01*
X193294Y159309D01*
X195122Y160223D02*
Y159309D01*
X195427Y159004D01*
X196341D01*
Y158699D01*
X196036Y158395D01*
X195732D01*
X196341Y159004D02*
Y160223D01*
X196950Y159004D02*
Y160223D01*
X197255D01*
X197560Y159918D01*
Y159004D01*
Y159918D01*
X197865Y160223D01*
X198169Y159918D01*
Y159004D01*
X198779Y160832D02*
Y159004D01*
X199693D01*
X199997Y159309D01*
Y159613D01*
Y159918D01*
X199693Y160223D01*
X198779D01*
X200912Y159004D02*
X201521D01*
X201826Y159309D01*
Y159918D01*
X201521Y160223D01*
X200912D01*
X200607Y159918D01*
Y159309D01*
X200912Y159004D01*
X202435D02*
X203044D01*
X202740D01*
Y160832D01*
X202435D01*
M02*
