G04 Layer_Physical_Order=2*
G04 Layer_Color=16765976*
%FSLAX43Y43*%
%MOMM*%
G71*
G01*
G75*
%ADD10C,2.000*%
%ADD11C,3.500*%
%ADD12C,1.250*%
%ADD13C,1.500*%
%ADD14C,0.500*%
%ADD15R,5.842X5.842*%
%ADD16R,6.096X6.096*%
%ADD17C,1.524*%
%ADD19C,2.000*%
%ADD20R,2.000X2.000*%
%ADD22C,6.000*%
%ADD23R,6.604X6.604*%
%ADD24C,2.250*%
D10*
X6477Y31496D02*
Y37338D01*
Y26416D02*
Y31496D01*
X2413Y7493D02*
X5461D01*
X2413D02*
Y42799D01*
X6477Y46863D01*
Y51943D01*
D11*
X8509Y7493D02*
X14859D01*
X18923Y11557D02*
X309118D01*
X14859Y7493D02*
X18923Y11557D01*
Y77597D02*
X309880D01*
X18923Y19177D02*
X310388D01*
X18415Y18669D02*
X18923Y19177D01*
Y85217D02*
X309626D01*
X15113Y89027D02*
X18923Y85217D01*
X9398Y18669D02*
X18415D01*
X7493Y89027D02*
X15113D01*
X9271Y77724D02*
X18796D01*
D12*
X16387Y29333D02*
X307467D01*
X14478Y42037D02*
Y46482D01*
X9017Y51943D02*
X14478Y46482D01*
Y42037D02*
X16383D01*
X12573Y33147D02*
X16383Y29337D01*
X12573Y33147D02*
Y43307D01*
X9017Y46863D02*
X12573Y43307D01*
X310007Y29333D02*
X312547D01*
X18923Y42037D02*
X21463D01*
X16383D02*
X18923D01*
X307467Y29333D02*
X310007D01*
X21463Y42037D02*
X312547D01*
D13*
X16387Y24253D02*
X307467D01*
X9017Y31496D02*
X13716Y26797D01*
X16383D01*
X9017Y26416D02*
X11176Y24257D01*
X16383D01*
X310007Y24253D02*
X312547D01*
X307467Y26793D02*
X310007D01*
X307467Y24253D02*
X310007D01*
Y26793D02*
X312547D01*
X307463Y26797D02*
X307467Y26793D01*
X16383Y26797D02*
X18923D01*
X21463D01*
X307463D01*
D14*
X18923Y73787D02*
X310007D01*
X18923Y72517D02*
Y73787D01*
X310007Y72513D02*
Y73787D01*
X19566Y68707D02*
X310007D01*
X19562Y68711D02*
X19566Y68707D01*
X310007Y67433D02*
Y68707D01*
X18923Y67437D02*
Y68711D01*
X19562D01*
X18923Y47117D02*
Y48387D01*
Y52197D02*
Y53467D01*
X19808Y58551D02*
X19812Y58547D01*
X18923Y58551D02*
X19808D01*
X18923Y57277D02*
Y58551D01*
Y62357D02*
Y63627D01*
Y48387D02*
X310007D01*
Y47113D02*
Y48387D01*
X18923Y53467D02*
X310007D01*
Y52193D02*
Y53467D01*
X19812Y58547D02*
X310007D01*
Y57273D02*
Y58547D01*
X18923Y63627D02*
X310007D01*
Y62353D02*
Y63627D01*
D15*
X310007Y11557D02*
D03*
Y19177D02*
D03*
Y77597D02*
D03*
Y85217D02*
D03*
D16*
X7620Y39116D02*
D03*
Y7620D02*
D03*
Y18796D02*
D03*
Y77724D02*
D03*
Y88900D02*
D03*
D17*
X16383Y24257D02*
D03*
X18923D02*
D03*
X21463D02*
D03*
X16383Y26797D02*
D03*
X18923D02*
D03*
X21463D02*
D03*
X16383Y29337D02*
D03*
X21463D02*
D03*
X18923D02*
D03*
Y47117D02*
D03*
Y42037D02*
D03*
X21463D02*
D03*
X16383D02*
D03*
X18923Y62357D02*
D03*
Y67437D02*
D03*
Y72517D02*
D03*
Y57277D02*
D03*
Y52197D02*
D03*
X310007Y52193D02*
D03*
Y57273D02*
D03*
Y62353D02*
D03*
Y67433D02*
D03*
Y72513D02*
D03*
Y47113D02*
D03*
X312547Y42033D02*
D03*
Y29333D02*
D03*
Y26793D02*
D03*
Y24253D02*
D03*
X307467D02*
D03*
Y26793D02*
D03*
X310007D02*
D03*
Y24253D02*
D03*
Y29333D02*
D03*
X307467D02*
D03*
X310007Y42033D02*
D03*
X307467D02*
D03*
Y16633D02*
D03*
Y9013D02*
D03*
X312547Y75053D02*
D03*
Y80133D02*
D03*
X307467Y75053D02*
D03*
X312547Y82673D02*
D03*
Y87753D02*
D03*
X307467Y82673D02*
D03*
X312547Y21713D02*
D03*
Y16633D02*
D03*
Y14093D02*
D03*
Y9013D02*
D03*
D19*
X6477Y31496D02*
D03*
Y26416D02*
D03*
Y46863D02*
D03*
Y51943D02*
D03*
D20*
X9017Y31496D02*
D03*
Y26416D02*
D03*
Y46863D02*
D03*
Y51943D02*
D03*
D22*
X18923Y11557D02*
D03*
Y85217D02*
D03*
Y77597D02*
D03*
Y19177D02*
D03*
D23*
X310007Y77593D02*
D03*
Y85213D02*
D03*
Y19173D02*
D03*
Y11553D02*
D03*
D24*
X5080Y16256D02*
D03*
Y21336D02*
D03*
X10160Y16256D02*
D03*
Y21336D02*
D03*
X5080Y5080D02*
D03*
Y10160D02*
D03*
X10160Y5080D02*
D03*
Y10160D02*
D03*
X5080Y86360D02*
D03*
Y91440D02*
D03*
X10160Y86360D02*
D03*
Y91440D02*
D03*
X5080Y75184D02*
D03*
Y80264D02*
D03*
X10160Y75184D02*
D03*
Y80264D02*
D03*
Y36576D02*
D03*
X5080D02*
D03*
X10160Y41656D02*
D03*
X5080D02*
D03*
M02*
