M48
;Layer_Color=6321
;FILE_FORMAT=4:3
METRIC,LZ
;TYPE=PLATED
T1F00S00C1.000
T2F00S00C1.016
T3F00S00C1.600
T4F00S00C2.800
T5F00S00C3.000
%
T01
X0307467Y0009013
X0312547
Y0014093
Y0016633
X0307467
Y0014093
Y0021713
Y0024253
Y0026793
X0310007
X0312547
Y0029333
Y0031873
Y0034413
Y0036953
Y0039493
Y0042033
Y0044573
Y0047113
Y0049653
X0310007
X0307467
Y0052193
X0310007
X0312547
X0310007Y0047113
X0307467
Y0044573
X0310007
Y0042033
Y0039493
Y0036953
Y0034413
Y0031873
Y0029333
X0307467
Y0031873
Y0034413
Y0036953
Y0039493
Y0042033
X0310007Y0024253
X0312547
Y0021713
X0021463Y0024257
X0018923
X0016383
Y0026797
X0018923
X0021463
Y0029337
X0018923
X0016383
Y0031877
X0018923
X0021463
Y0034417
X0018923
X0016383
Y0036957
Y0039497
Y0042037
Y0044577
Y0047117
X0018923
X0021463
Y0044577
X0018923
Y0042037
X0021463
Y0039497
X0018923
Y0036957
X0021463
Y0049657
Y0052197
X0018923
X0016383
Y0049657
X0018923
X0009017Y0051943
X0006477
Y0046863
X0009017
Y0031496
X0006477
Y0026416
X0009017
X0016383Y0054737
Y0057277
Y0059817
Y0062357
X0018923
X0021463
Y0064897
X0018923
X0016383
Y0067437
X0018923
X0021463
Y0069977
X0018923
X0016383
Y0072517
X0018923
X0021463
Y0059817
X0018923
Y0057277
X0021463
Y0054737
X0018923
X0307467Y0054733
X0310007
X0312547
Y0057273
X0310007
X0307467
Y0059813
X0310007
X0312547
Y0062353
X0310007
X0307467
Y0064893
X0310007
X0312547
Y0067433
X0310007
X0307467
Y0069973
X0310007
X0312547
Y0072513
X0310007
X0307467
Y0075053
Y0080133
Y0082673
Y0087753
X0312547
Y0082673
Y0080133
Y0075053
T02
X0005588Y0061087
Y0063627
Y0066167
Y0068707
T03
X000508Y000508
Y001016
X001016
Y000508
Y0016256
X000508
Y0021336
X001016
Y0036576
X000508
Y0041656
X001016
Y0075184
X000508
Y0080264
X001016
Y008636
X000508
Y009144
X001016
T04
X0018923Y0003937
X0315087Y0003933
Y0092833
X0018923Y0092837
T05
X0018923Y0011557
Y0019177
Y0077597
Y0085217
M30
