M48
;Layer_Color=6321
;FILE_FORMAT=2:5
INCH,LZ
;TYPE=PLATED
T1F00S00C0.03937
T2F00S00C0.11024
T3F00S00C0.11811
%
T01
X0122874Y0272535
X0142874
Y0292535
Y0302535
X0122874
Y0292535
Y0322535
Y0332535
Y0342535
Y0352535
Y0362535
Y0372535
Y0382535
Y0392535
Y0402535
Y0412535
Y0422535
X0132874
X0142874
Y0412535
X0132874
Y0402535
X0142874
Y0392535
X0132874
Y0382535
X0142874
Y0372535
X0132874
Y0362535
X0142874
Y0352535
X0132874
Y0342535
X0142874
Y0332535
X0132874
X0142874Y0322535
Y0432535
X0132874
X0122874
Y0442535
X0132874
X0142874
Y0452535
Y0462535
X0132874
X0122874
Y0452535
X0132874
X1310787Y0452024
Y0462024
X1320787
X1330787
Y0452024
X1320787
Y0442024
X1310787
Y0432024
Y0422024
X1320787
X1330787
Y0412024
X1320787
X1310787
Y0402024
X1320787
X1330787
Y0392024
X1320787
X1310787
Y0382024
X1320787
X1330787
Y0372024
Y0362024
Y0352024
Y0342024
Y0332024
X1320787
X1310787
Y0342024
X1320787
Y0352024
X1310787
Y0362024
X1320787
Y0372024
X1310787
X1320787Y0432024
X1330787
Y0442024
Y0472024
X1320787
X1310787
Y0482024
X1320787
X1330787
Y0492024
X1320787
X1310787
Y0502024
X1320787
X1330787
Y0512024
X1320787
X1310787
Y0522024
X1320787
X1330787
X0142874Y0522535
Y0512535
X0132874
X0122874
Y0502535
Y0492535
Y0482535
Y0472535
X0132874
Y0482535
Y0492535
Y0502535
X0142874
Y0492535
Y0482535
Y0472535
X0132874Y0522535
X0122874
Y0532535
Y0552535
Y0562535
Y0582535
X0142874
Y0562535
Y0552535
Y0532535
T02
X1320787Y0252024
X0112874Y0252535
X1320787Y0602024
X0112874Y0602535
T03
X1320787Y0282024
Y0312024
Y0542024
Y0572024
M30
