M48
;Layer_Color=6321
;FILE_FORMAT=2:5
INCH,LZ
;TYPE=PLATED
T1F00S00C0.03937
T2F00S00C0.06299
T3F00S00C0.11024
T4F00S00C0.11811
%
T01
X0126Y0139
X0146
X1261Y0199
X1271
X1281
Y0209
X1271
X1261
Y0219
X1271
X1281
Y0229
X1271
X1261
Y0239
Y0249
Y0259
Y0269
Y0279
Y0289
X1271
X1281
Y0279
X1271
Y0269
X1281
Y0259
X1271
Y0249
X1281
Y0239
X1271
Y0299
Y0309
X1261
Y0299
X1281
Y0309
X0146
Y0299
Y0289
X0136
X0126
Y0279
X0136
X0146
Y0269
X0136
X0126
Y0259
X0136
X0146
Y0249
X0136
X0126
Y0239
X0136
X0146
Y0229
X0136
X0126
Y0219
X0136
X0146
Y0209
X0136
X0126
Y0199
X0136
X0146
Y0189
Y0169
Y0159
X0126
Y0169
Y0189
Y0299
X0136
Y0309
X0126
Y0319
Y0329
Y0339
Y0349
Y0359
Y0369
Y0379
Y0389
X0136
X0146
Y0379
X0136
Y0369
X0146
Y0359
X0136
Y0349
X0146
Y0339
X0136
Y0329
X0146
Y0319
X0136
X0126Y0399
Y0419
Y0429
Y0449
X0146
Y0429
Y0419
Y0399
X1261Y0389
Y0379
Y0369
Y0359
Y0349
Y0339
X1271
X1281
Y0329
X1271
X1261
Y0319
X1271
X1281
Y0349
X1271
Y0359
X1281
Y0369
X1271
Y0379
X1281
Y0389
X1271
T02
X1315Y0147
X1335
Y0167
X1315
Y0207
Y0227
X1335
Y0207
Y0362
Y0382
X1315
Y0362
Y0422
Y0442
X1335
Y0422
T03
X0116Y0119
X1271
Y0469
X0116
T04
X1271Y0149
Y0179
Y0409
Y0439
M30
