  0
SECTION
  2
HEADER
  9
$ACADVER
  1
AC1014
  9
$HANDSEED
  5
FFFF
  9
$MEASUREMENT
 70
     1
  0
ENDSEC
  0
SECTION
  2
TABLES
  0
TABLE
  2
VPORT
  5
8
330
0
100
AcDbSymbolTable
 70
     4
  0
VPORT
  5
2E
330
8
100
AcDbSymbolTableRecord
100
AcDbViewportTableRecord
  2
*ACTIVE
 70
     0
 10
0.0
 20
0.0
 11
1.0
 21
1.0
 12
210.0
 22
148.5
 13
0.0
 23
0.0
 14
10.0
 24
10.0
 15
10.0
 25
10.0
 16
0.0
 26
0.0
 36
1.0
 17
0.0
 27
0.0
 37
0.0
 40
341.0
 41
1.24
 42
50.0
 43
0.0
 44
0.0
 50
0.0
 51
0.0
 71
     0
 72
   100
 73
     1
 74
     3
 75
     0
 76
     0
 77
     0
 78
     0
  0
ENDTAB
  0
TABLE
  2
LTYPE
  5
5
330
0
100
AcDbSymbolTable
 70
     1
  0
LTYPE
  5
14
330
5
100
AcDbSymbolTableRecord
100
AcDbLinetypeTableRecord
  2
BYBLOCK
 70
     0
  3

 72
    65
 73
     0
 40
0.0
  0
LTYPE
  5
15
330
5
100
AcDbSymbolTableRecord
100
AcDbLinetypeTableRecord
  2
BYLAYER
 70
     0
  3

 72
    65
 73
     0
 40
0.0
  0
LTYPE
  5
16
330
5
100
AcDbSymbolTableRecord
100
AcDbLinetypeTableRecord
  2
CONTINUOUS
 70
     0
  3
Solid line
 72
    65
 73
     0
 40
0.0
  0
ENDTAB
  0
TABLE
  2
LAYER
  5
2
100
AcDbSymbolTable
 70
2
  0
LAYER
  5
50
100
AcDbSymbolTableRecord
100
AcDbLayerTableRecord
  2
0
 70
0
  6
CONTINUOUS
  0
LAYER
  5
51
100
AcDbSymbolTableRecord
100
AcDbLayerTableRecord
  2
Layer_1
 70
0
  6
CONTINUOUS
  0
ENDTAB
  0
TABLE
  2
STYLE
  5
3
330
0
100
AcDbSymbolTable
 70
     1
  0
STYLE
  5
11
330
3
100
AcDbSymbolTableRecord
100
AcDbTextStyleTableRecord
  2
STANDARD
 70
     0
 40
0.0
 41
1.0
 50
0.0
 71
     0
 42
2.5
  3
txt
  4

  0
ENDTAB
  0
TABLE
  2
VIEW
  5
6
330
0
100
AcDbSymbolTable
 70
     0
  0
ENDTAB
  0
TABLE
  2
UCS
  5
7
330
0
100
AcDbSymbolTable
 70
     0
  0
ENDTAB
  0
TABLE
  2
APPID
  5
9
330
0
100
AcDbSymbolTable
 70
     2
  0
APPID
  5
12
330
9
100
AcDbSymbolTableRecord
100
AcDbRegAppTableRecord
  2
ACAD
 70
     0
  0
ENDTAB
  0
TABLE
  2
DIMSTYLE
  5
A
330
0
100
AcDbSymbolTable
 70
     1
  0
DIMSTYLE
105
27
330
A
100
AcDbSymbolTableRecord
100
AcDbDimStyleTableRecord
  2
ISO-25
 70
     0
  3

  4

  5

  6

  7

 40
1.0
 41
2.5
 42
0.625
 43
3.75
 44
1.25
 45
0.0
 46
0.0
 47
0.0
 48
0.0
140
2.5
141
2.5
142
0.0
143
0.03937007874016
144
1.0
145
0.0
146
1.0
147
0.625
 71
     0
 72
     0
 73
     0
 74
     0
 75
     0
 76
     0
 77
     1
 78
     8
170
     0
171
     3
172
     1
173
     0
174
     0
175
     0
176
     0
177
     0
178
     0
270
     2
271
     2
272
     2
273
     2
274
     3
340
11
275
     0
280
     0
281
     0
282
     0
283
     0
284
     8
285
     0
286
     0
287
     3
288
     0
  0
ENDTAB
  0
TABLE
  2
BLOCK_RECORD
  5
1
330
0
100
AcDbSymbolTable
 70
     1
  0
BLOCK_RECORD
  5
1F
330
1
100
AcDbSymbolTableRecord
100
AcDbBlockTableRecord
  2
*MODEL_SPACE
  0
BLOCK_RECORD
  5
1B
330
1
100
AcDbSymbolTableRecord
100
AcDbBlockTableRecord
  2
*PAPER_SPACE
  0
ENDTAB
  0
ENDSEC
  0
SECTION
  2
BLOCKS
  0
BLOCK
  5
20
330
1F
100
AcDbEntity
  8
0
100
AcDbBlockBegin
  2
*MODEL_SPACE
 70
     0
 10
0.0
 20
0.0
 30
0.0
  3
*MODEL_SPACE
  1

  0
ENDBLK
  5
21
330
1F
100
AcDbEntity
  8
0
100
AcDbBlockEnd
  0
BLOCK
  5
1C
330
1B
100
AcDbEntity
 67
     1
  8
0
100
AcDbBlockBegin
  2
*PAPER_SPACE
  1

  0
ENDBLK
  5
1D
330
1B
100
AcDbEntity
 67
     1
  8
0
100
AcDbBlockEnd
  0
ENDSEC
  0
SECTION
  2
ENTITIES
  0
SPLINE
  5
100
100
AcDbEntity
  8
Layer_1
 62
7
100
AcDbSpline
 70
8
 71
3
 72
8
 73
4
 74
0
 40
0
 40
0
 40
0
 40
0
 40
1
 40
1
 40
1
 40
1
 10
46.019291
 20
0.719489
 30
0.0
 10
45.685699
 20
1.088105
 30
0.0
 10
45.686837
 20
1.443364
 30
0.0
 10
46.022691
 20
1.784327
 30
0.0
  0
SPLINE
  5
101
100
AcDbEntity
  8
Layer_1
 62
7
100
AcDbSpline
 70
8
 71
3
 72
8
 73
4
 74
0
 40
0
 40
0
 40
0
 40
0
 40
1
 40
1
 40
1
 40
1
 10
46.022691
 20
1.784327
 30
0.0
 10
46.168524
 20
1.932374
 30
0.0
 10
46.290624
 20
2.240406
 30
0.0
 10
46.294024
 20
2.468841
 30
0.0
  0
SPLINE
  5
102
100
AcDbEntity
  8
Layer_1
 62
7
100
AcDbSpline
 70
8
 71
3
 72
8
 73
4
 74
0
 40
0
 40
0
 40
0
 40
0
 40
1
 40
1
 40
1
 40
1
 10
46.294024
 20
2.468841
 30
0.0
 10
46.299224
 20
2.818088
 30
0.0
 10
46.214844
 20
2.907261
 30
0.0
 10
45.763722
 20
3.029242
 30
0.0
  0
SPLINE
  5
103
100
AcDbEntity
  8
Layer_1
 62
7
100
AcDbSpline
 70
8
 71
3
 72
8
 73
4
 74
0
 40
0
 40
0
 40
0
 40
0
 40
1
 40
1
 40
1
 40
1
 10
45.763722
 20
3.029242
 30
0.0
 10
45.046774
 20
3.223103
 30
0.0
 10
44.613015
 20
3.545674
 30
0.0
 10
44.080170
 20
4.281247
 30
0.0
  0
SPLINE
  5
104
100
AcDbEntity
  8
Layer_1
 62
7
100
AcDbSpline
 70
8
 71
3
 72
8
 73
4
 74
0
 40
0
 40
0
 40
0
 40
0
 40
1
 40
1
 40
1
 40
1
 10
44.080170
 20
4.281247
 30
0.0
 10
43.703927
 20
4.800635
 30
0.0
 10
43.636330
 20
5.035864
 30
0.0
 10
43.636330
 20
5.825738
 30
0.0
  0
SPLINE
  5
105
100
AcDbEntity
  8
Layer_1
 62
7
100
AcDbSpline
 70
8
 71
3
 72
8
 73
4
 74
0
 40
0
 40
0
 40
0
 40
0
 40
1
 40
1
 40
1
 40
1
 10
43.636330
 20
5.825738
 30
0.0
 10
43.636330
 20
7.009379
 30
0.0
 10
44.126680
 20
7.836701
 30
0.0
 10
45.162295
 20
8.400353
 30
0.0
  0
SPLINE
  5
106
100
AcDbEntity
  8
Layer_1
 62
7
100
AcDbSpline
 70
8
 71
3
 72
8
 73
4
 74
0
 40
0
 40
0
 40
0
 40
0
 40
1
 40
1
 40
1
 40
1
 10
45.162295
 20
8.400353
 30
0.0
 10
46.883573
 20
9.337190
 30
0.0
 10
48.873240
 20
8.431313
 30
0.0
 10
49.405398
 20
6.468502
 30
0.0
  0
SPLINE
  5
107
100
AcDbEntity
  8
Layer_1
 62
7
100
AcDbSpline
 70
8
 71
3
 72
8
 73
4
 74
0
 40
0
 40
0
 40
0
 40
0
 40
1
 40
1
 40
1
 40
1
 10
49.405398
 20
6.468502
 30
0.0
 10
49.751135
 20
5.193288
 30
0.0
 10
48.657773
 20
3.330047
 30
0.0
 10
47.418262
 20
3.082144
 30
0.0
  0
SPLINE
  5
108
100
AcDbEntity
  8
Layer_1
 62
7
100
AcDbSpline
 70
8
 71
3
 72
8
 73
4
 74
0
 40
0
 40
0
 40
0
 40
0
 40
1
 40
1
 40
1
 40
1
 10
47.418262
 20
3.082144
 30
0.0
 10
47.032592
 20
3.005014
 30
0.0
 10
46.969662
 20
2.923985
 30
0.0
 10
46.969662
 20
2.504544
 30
0.0
  0
SPLINE
  5
109
100
AcDbEntity
  8
Layer_1
 62
7
100
AcDbSpline
 70
8
 71
3
 72
8
 73
4
 74
0
 40
0
 40
0
 40
0
 40
0
 40
1
 40
1
 40
1
 40
1
 10
46.969662
 20
2.504544
 30
0.0
 10
46.969662
 20
1.515138
 30
0.0
 10
46.969583
 20
1.515152
 30
0.0
 10
52.495189
 20
1.515152
 30
0.0
  0
SPLINE
  5
10a
100
AcDbEntity
  8
Layer_1
 62
7
100
AcDbSpline
 70
8
 71
3
 72
8
 73
4
 74
0
 40
0
 40
0
 40
0
 40
0
 40
1
 40
1
 40
1
 40
1
 10
52.495189
 20
1.515152
 30
0.0
 10
58.056097
 20
1.515152
 30
0.0
 10
57.864141
 20
1.476532
 30
0.0
 10
57.873929
 20
2.597211
 30
0.0
  0
SPLINE
  5
10b
100
AcDbEntity
  8
Layer_1
 62
7
100
AcDbSpline
 70
8
 71
3
 72
8
 73
4
 74
0
 40
0
 40
0
 40
0
 40
0
 40
1
 40
1
 40
1
 40
1
 10
57.873929
 20
2.597211
 30
0.0
 10
57.878129
 20
3.074641
 30
0.0
 10
57.822619
 20
3.162974
 30
0.0
 10
57.462080
 20
3.252947
 30
0.0
  0
SPLINE
  5
10c
100
AcDbEntity
  8
Layer_1
 62
7
100
AcDbSpline
 70
8
 71
3
 72
8
 73
4
 74
0
 40
0
 40
0
 40
0
 40
0
 40
1
 40
1
 40
1
 40
1
 10
57.462080
 20
3.252947
 30
0.0
 10
56.802109
 20
3.417644
 30
0.0
 10
56.101004
 20
4.039589
 30
0.0
 10
55.904657
 20
4.634527
 30
0.0
  0
SPLINE
  5
10d
100
AcDbEntity
  8
Layer_1
 62
7
100
AcDbSpline
 70
8
 71
3
 72
8
 73
4
 74
0
 40
0
 40
0
 40
0
 40
0
 40
1
 40
1
 40
1
 40
1
 10
55.904657
 20
4.634527
 30
0.0
 10
55.638931
 20
5.439682
 30
0.0
 10
55.777999
 20
7.024777
 30
0.0
 10
56.159239
 20
7.536247
 30
0.0
  0
SPLINE
  5
10e
100
AcDbEntity
  8
Layer_1
 62
7
100
AcDbSpline
 70
8
 71
3
 72
8
 73
4
 74
0
 40
0
 40
0
 40
0
 40
0
 40
1
 40
1
 40
1
 40
1
 10
56.159239
 20
7.536247
 30
0.0
 10
56.681813
 20
8.237331
 30
0.0
 10
57.391582
 20
8.559320
 30
0.0
 10
58.409050
 20
8.556880
 30
0.0
  0
SPLINE
  5
10f
100
AcDbEntity
  8
Layer_1
 62
7
100
AcDbSpline
 70
8
 71
3
 72
8
 73
4
 74
0
 40
0
 40
0
 40
0
 40
0
 40
1
 40
1
 40
1
 40
1
 10
58.409050
 20
8.556880
 30
0.0
 10
59.995135
 20
8.553080
 30
0.0
 10
60.741339
 20
7.823323
 30
0.0
 10
60.863191
 20
6.156843
 30
0.0
  0
SPLINE
  5
110
100
AcDbEntity
  8
Layer_1
 62
7
100
AcDbSpline
 70
8
 71
3
 72
8
 73
4
 74
0
 40
0
 40
0
 40
0
 40
0
 40
1
 40
1
 40
1
 40
1
 10
60.863191
 20
6.156843
 30
0.0
 10
60.960591
 20
4.824702
 30
0.0
 10
60.520865
 20
4.003558
 30
0.0
 10
59.432316
 20
3.484848
 30
0.0
  0
SPLINE
  5
111
100
AcDbEntity
  8
Layer_1
 62
7
100
AcDbSpline
 70
8
 71
3
 72
8
 73
4
 74
0
 40
0
 40
0
 40
0
 40
0
 40
1
 40
1
 40
1
 40
1
 10
59.432316
 20
3.484848
 30
0.0
 10
58.689387
 20
3.130833
 30
0.0
 10
58.637365
 20
3.070115
 30
0.0
 10
58.636862
 20
2.556430
 30
0.0
  0
SPLINE
  5
112
100
AcDbEntity
  8
Layer_1
 62
7
100
AcDbSpline
 70
8
 71
3
 72
8
 73
4
 74
0
 40
0
 40
0
 40
0
 40
0
 40
1
 40
1
 40
1
 40
1
 10
58.636862
 20
2.556430
 30
0.0
 10
58.636558
 20
2.252124
 30
0.0
 10
58.737763
 20
1.922612
 30
0.0
 10
58.863595
 20
1.818182
 30
0.0
  0
SPLINE
  5
113
100
AcDbEntity
  8
Layer_1
 62
7
100
AcDbSpline
 70
8
 71
3
 72
8
 73
4
 74
0
 40
0
 40
0
 40
0
 40
0
 40
1
 40
1
 40
1
 40
1
 10
58.863595
 20
1.818182
 30
0.0
 10
59.136038
 20
1.592073
 30
0.0
 10
59.163029
 20
0.890344
 30
0.0
 10
58.909045
 20
0.636364
 30
0.0
  0
SPLINE
  5
114
100
AcDbEntity
  8
Layer_1
 62
7
100
AcDbSpline
 70
8
 71
3
 72
8
 73
4
 74
0
 40
0
 40
0
 40
0
 40
0
 40
1
 40
1
 40
1
 40
1
 10
58.909045
 20
0.636364
 30
0.0
 10
58.686564
 20
0.413882
 30
0.0
 10
57.996206
 20
0.397688
 30
0.0
 10
57.783923
 20
0.609974
 30
0.0
  0
SPLINE
  5
115
100
AcDbEntity
  8
Layer_1
 62
7
100
AcDbSpline
 70
8
 71
3
 72
8
 73
4
 74
0
 40
0
 40
0
 40
0
 40
0
 40
1
 40
1
 40
1
 40
1
 10
57.783923
 20
0.609974
 30
0.0
 10
57.605790
 20
0.788108
 30
0.0
 10
47.490871
 20
0.726079
 30
0.0
 10
46.738975
 20
0.542244
 30
0.0
  0
SPLINE
  5
116
100
AcDbEntity
  8
Layer_1
 62
7
100
AcDbSpline
 70
8
 71
3
 72
8
 73
4
 74
0
 40
0
 40
0
 40
0
 40
0
 40
1
 40
1
 40
1
 40
1
 10
46.738975
 20
0.542244
 30
0.0
 10
46.384869
 20
0.455664
 30
0.0
 10
46.221663
 20
0.495864
 30
0.0
 10
46.019278
 20
0.719495
 30
0.0
  0
SPLINE
  5
117
100
AcDbEntity
  8
Layer_1
 62
7
100
AcDbSpline
 70
8
 71
3
 72
8
 73
4
 74
0
 40
0
 40
0
 40
0
 40
0
 40
1
 40
1
 40
1
 40
1
 10
46.840391
 20
3.770930
 30
0.0
 10
46.702144
 20
3.858530
 30
0.0
 10
46.677467
 20
3.993505
 30
0.0
 10
46.764631
 20
4.185277
 30
0.0
  0
SPLINE
  5
118
100
AcDbEntity
  8
Layer_1
 62
7
100
AcDbSpline
 70
8
 71
3
 72
8
 73
4
 74
0
 40
0
 40
0
 40
0
 40
0
 40
1
 40
1
 40
1
 40
1
 10
46.764631
 20
4.185277
 30
0.0
 10
46.886196
 20
4.452723
 30
0.0
 10
46.903895
 20
4.822827
 30
0.0
 10
46.828951
 20
5.530303
 30
0.0
  0
LWPOLYLINE
  5
119
100
AcDbEntity
  8
Layer_1
 62
7
100
AcDbPolyline
 90
1
 70
1
 10
46.019278
 20
0.719495
 30
0.0
  0
SPLINE
  5
11a
100
AcDbEntity
  8
Layer_1
 62
7
100
AcDbSpline
 70
8
 71
3
 72
8
 73
4
 74
0
 40
0
 40
0
 40
0
 40
0
 40
1
 40
1
 40
1
 40
1
 10
46.666635
 20
5.530303
 30
0.0
 10
46.595015
 20
5.363636
 30
0.0
 10
46.531626
 20
5.039773
 30
0.0
 10
46.525770
 20
4.810606
 30
0.0
  0
SPLINE
  5
11b
100
AcDbEntity
  8
Layer_1
 62
7
100
AcDbSpline
 70
8
 71
3
 72
8
 73
4
 74
0
 40
0
 40
0
 40
0
 40
0
 40
1
 40
1
 40
1
 40
1
 10
46.525770
 20
4.810606
 30
0.0
 10
46.513760
 20
4.340230
 30
0.0
 10
46.160731
 20
4.252264
 30
0.0
 10
45.684008
 20
4.600852
 30
0.0
  0
SPLINE
  5
11c
100
AcDbEntity
  8
Layer_1
 62
7
100
AcDbSpline
 70
8
 71
3
 72
8
 73
4
 74
0
 40
0
 40
0
 40
0
 40
0
 40
1
 40
1
 40
1
 40
1
 10
45.684008
 20
4.600852
 30
0.0
 10
45.278483
 20
4.897379
 30
0.0
 10
45.165393
 20
6.507415
 30
0.0
 10
45.524841
 20
6.866865
 30
0.0
  0
SPLINE
  5
11d
100
AcDbEntity
  8
Layer_1
 62
7
100
AcDbSpline
 70
8
 71
3
 72
8
 73
4
 74
0
 40
0
 40
0
 40
0
 40
0
 40
1
 40
1
 40
1
 40
1
 10
45.524841
 20
6.866865
 30
0.0
 10
45.749172
 20
7.091195
 30
0.0
 10
45.751090
 20
7.121212
 30
0.0
 10
45.541091
 20
7.121212
 30
0.0
  0
SPLINE
  5
11e
100
AcDbEntity
  8
Layer_1
 62
7
100
AcDbSpline
 70
8
 71
3
 72
8
 73
4
 74
0
 40
0
 40
0
 40
0
 40
0
 40
1
 40
1
 40
1
 40
1
 10
45.541091
 20
7.121212
 30
0.0
 10
45.410139
 20
7.121212
 30
0.0
 10
45.302996
 20
7.057622
 30
0.0
 10
45.302996
 20
6.979907
 30
0.0
  0
SPLINE
  5
11f
100
AcDbEntity
  8
Layer_1
 62
7
100
AcDbSpline
 70
8
 71
3
 72
8
 73
4
 74
0
 40
0
 40
0
 40
0
 40
0
 40
1
 40
1
 40
1
 40
1
 10
45.302996
 20
6.979907
 30
0.0
 10
45.302996
 20
6.902187
 30
0.0
 10
45.166560
 20
6.795299
 30
0.0
 10
44.999805
 20
6.742373
 30
0.0
  0
SPLINE
  5
120
100
AcDbEntity
  8
Layer_1
 62
7
100
AcDbSpline
 70
8
 71
3
 72
8
 73
4
 74
0
 40
0
 40
0
 40
0
 40
0
 40
1
 40
1
 40
1
 40
1
 10
44.999805
 20
6.742373
 30
0.0
 10
44.833049
 20
6.689443
 30
0.0
 10
44.620572
 20
6.504060
 30
0.0
 10
44.527633
 20
6.330401
 30
0.0
  0
SPLINE
  5
121
100
AcDbEntity
  8
Layer_1
 62
7
100
AcDbSpline
 70
8
 71
3
 72
8
 73
4
 74
0
 40
0
 40
0
 40
0
 40
0
 40
1
 40
1
 40
1
 40
1
 10
44.527633
 20
6.330401
 30
0.0
 10
44.385019
 20
6.063924
 30
0.0
 10
44.396866
 20
6.029321
 30
0.0
 10
44.603553
 20
6.108634
 30
0.0
  0
SPLINE
  5
122
100
AcDbEntity
  8
Layer_1
 62
7
100
AcDbSpline
 70
8
 71
3
 72
8
 73
4
 74
0
 40
0
 40
0
 40
0
 40
0
 40
1
 40
1
 40
1
 40
1
 10
44.603553
 20
6.108634
 30
0.0
 10
44.916840
 20
6.228854
 30
0.0
 10
44.920590
 20
5.936908
 30
0.0
 10
44.610153
 20
5.593889
 30
0.0
  0
SPLINE
  5
123
100
AcDbEntity
  8
Layer_1
 62
7
100
AcDbSpline
 70
8
 71
3
 72
8
 73
4
 74
0
 40
0
 40
0
 40
0
 40
0
 40
1
 40
1
 40
1
 40
1
 10
44.610153
 20
5.593889
 30
0.0
 10
44.398318
 20
5.359814
 30
0.0
 10
44.396595
 20
5.282760
 30
0.0
 10
44.594643
 20
4.899783
 30
0.0
  0
SPLINE
  5
124
100
AcDbEntity
  8
Layer_1
 62
7
100
AcDbSpline
 70
8
 71
3
 72
8
 73
4
 74
0
 40
0
 40
0
 40
0
 40
0
 40
1
 40
1
 40
1
 40
1
 10
44.594643
 20
4.899783
 30
0.0
 10
45.006288
 20
4.103748
 30
0.0
 10
45.711959
 20
3.678682
 30
0.0
 10
46.666623
 20
3.651708
 30
0.0
  0
SPLINE
  5
125
100
AcDbEntity
  8
Layer_1
 62
7
100
AcDbSpline
 70
8
 71
3
 72
8
 73
4
 74
0
 40
0
 40
0
 40
0
 40
0
 40
1
 40
1
 40
1
 40
1
 10
46.666623
 20
3.651708
 30
0.0
 10
46.933273
 20
3.644208
 30
0.0
 10
46.984711
 20
3.679468
 30
0.0
 10
46.840373
 20
3.770930
 30
0.0
  0
LWPOLYLINE
  5
126
100
AcDbEntity
  8
Layer_1
 62
7
100
AcDbPolyline
 90
3
 70
0
 10
46.828951
 20
5.530303
 30
0.0
 10
46.796851
 20
5.833333
 30
0.0
 10
46.666635
 20
5.530303
 30
0.0
  0
SPLINE
  5
127
100
AcDbEntity
  8
Layer_1
 62
7
100
AcDbSpline
 70
8
 71
3
 72
8
 73
4
 74
0
 40
0
 40
0
 40
0
 40
0
 40
1
 40
1
 40
1
 40
1
 10
59.037623
 20
4.795961
 30
0.0
 10
59.332281
 20
5.168316
 30
0.0
 10
59.409272
 20
5.989731
 30
0.0
 10
59.207454
 20
6.607871
 30
0.0
  0
SPLINE
  5
128
100
AcDbEntity
  8
Layer_1
 62
7
100
AcDbSpline
 70
8
 71
3
 72
8
 73
4
 74
0
 40
0
 40
0
 40
0
 40
0
 40
1
 40
1
 40
1
 40
1
 10
59.207454
 20
6.607871
 30
0.0
 10
59.029913
 20
7.151656
 30
0.0
 10
58.967493
 20
7.200460
 30
0.0
 10
58.395957
 20
7.242350
 30
0.0
  0
SPLINE
  5
129
100
AcDbEntity
  8
Layer_1
 62
7
100
AcDbSpline
 70
8
 71
3
 72
8
 73
4
 74
0
 40
0
 40
0
 40
0
 40
0
 40
1
 40
1
 40
1
 40
1
 10
58.395957
 20
7.242350
 30
0.0
 10
57.977280
 20
7.273040
 30
0.0
 10
57.713683
 20
7.211680
 30
0.0
 10
57.581882
 20
7.052873
 30
0.0
  0
SPLINE
  5
12a
100
AcDbEntity
  8
Layer_1
 62
7
100
AcDbSpline
 70
8
 71
3
 72
8
 73
4
 74
0
 40
0
 40
0
 40
0
 40
0
 40
1
 40
1
 40
1
 40
1
 10
57.581882
 20
7.052873
 30
0.0
 10
57.311924
 20
6.727592
 30
0.0
 10
57.212982
 20
5.616608
 30
0.0
 10
57.408817
 20
5.109569
 30
0.0
  0
SPLINE
  5
12b
100
AcDbEntity
  8
Layer_1
 62
7
100
AcDbSpline
 70
8
 71
3
 72
8
 73
4
 74
0
 40
0
 40
0
 40
0
 40
0
 40
1
 40
1
 40
1
 40
1
 10
57.408817
 20
5.109569
 30
0.0
 10
57.673991
 20
4.423002
 30
0.0
 10
58.601216
 20
4.244476
 30
0.0
 10
59.037623
 20
4.795961
 30
0.0
  0
LWPOLYLINE
  5
12c
100
AcDbEntity
  8
Layer_1
 62
7
100
AcDbPolyline
 90
1
 70
1
 10
46.840373
 20
3.770930
 30
0.0
  0
SPLINE
  5
12d
100
AcDbEntity
  8
Layer_1
 62
7
100
AcDbSpline
 70
8
 71
3
 72
8
 73
4
 74
0
 40
0
 40
0
 40
0
 40
0
 40
1
 40
1
 40
1
 40
1
 10
48.099604
 20
4.734851
 30
0.0
 10
48.059631
 20
4.839015
 30
0.0
 10
47.800408
 20
4.924242
 30
0.0
 10
47.523551
 20
4.924242
 30
0.0
  0
SPLINE
  5
12e
100
AcDbEntity
  8
Layer_1
 62
7
100
AcDbSpline
 70
8
 71
3
 72
8
 73
4
 74
0
 40
0
 40
0
 40
0
 40
0
 40
1
 40
1
 40
1
 40
1
 10
47.523551
 20
4.924242
 30
0.0
 10
47.221862
 20
4.924242
 30
0.0
 10
47.020175
 20
4.848362
 30
0.0
 10
47.020175
 20
4.734848
 30
0.0
  0
SPLINE
  5
12f
100
AcDbEntity
  8
Layer_1
 62
7
100
AcDbSpline
 70
8
 71
3
 72
8
 73
4
 74
0
 40
0
 40
0
 40
0
 40
0
 40
1
 40
1
 40
1
 40
1
 10
47.020175
 20
4.734848
 30
0.0
 10
47.020175
 20
4.616544
 30
0.0
 10
47.236397
 20
4.545455
 30
0.0
 10
47.596228
 20
4.545455
 30
0.0
  0
SPLINE
  5
130
100
AcDbEntity
  8
Layer_1
 62
7
100
AcDbSpline
 70
8
 71
3
 72
8
 73
4
 74
0
 40
0
 40
0
 40
0
 40
0
 40
1
 40
1
 40
1
 40
1
 10
47.596228
 20
4.545455
 30
0.0
 10
47.994822
 20
4.545455
 30
0.0
 10
48.149891
 20
4.603805
 30
0.0
 10
48.099604
 20
4.734848
 30
0.0
  0
LWPOLYLINE
  5
131
100
AcDbEntity
  8
Layer_1
 62
7
100
AcDbPolyline
 90
1
 70
1
 10
59.037623
 20
4.795961
 30
0.0
  0
SPLINE
  5
132
100
AcDbEntity
  8
Layer_1
 62
7
100
AcDbSpline
 70
8
 71
3
 72
8
 73
4
 74
0
 40
0
 40
0
 40
0
 40
0
 40
1
 40
1
 40
1
 40
1
 10
48.640076
 20
5.454548
 30
0.0
 10
48.705326
 20
6.283808
 30
0.0
 10
48.645776
 20
6.585211
 30
0.0
 10
48.454519
 20
6.393942
 30
0.0
  0
SPLINE
  5
133
100
AcDbEntity
  8
Layer_1
 62
7
100
AcDbSpline
 70
8
 71
3
 72
8
 73
4
 74
0
 40
0
 40
0
 40
0
 40
0
 40
1
 40
1
 40
1
 40
1
 10
48.454519
 20
6.393942
 30
0.0
 10
48.354519
 20
6.293942
 30
0.0
 10
48.149973
 20
6.212124
 30
0.0
 10
47.999973
 20
6.212124
 30
0.0
  0
SPLINE
  5
134
100
AcDbEntity
  8
Layer_1
 62
7
100
AcDbSpline
 70
8
 71
3
 72
8
 73
4
 74
0
 40
0
 40
0
 40
0
 40
0
 40
1
 40
1
 40
1
 40
1
 10
47.999973
 20
6.212124
 30
0.0
 10
47.849973
 20
6.212124
 30
0.0
 10
47.727246
 20
6.115534
 30
0.0
 10
47.727246
 20
5.997478
 30
0.0
  0
SPLINE
  5
135
100
AcDbEntity
  8
Layer_1
 62
7
100
AcDbSpline
 70
8
 71
3
 72
8
 73
4
 74
0
 40
0
 40
0
 40
0
 40
0
 40
1
 40
1
 40
1
 40
1
 10
47.727246
 20
5.997478
 30
0.0
 10
47.727246
 20
5.879422
 30
0.0
 10
47.642016
 20
5.748441
 30
0.0
 10
47.537852
 20
5.706409
 30
0.0
  0
SPLINE
  5
136
100
AcDbEntity
  8
Layer_1
 62
7
100
AcDbSpline
 70
8
 71
3
 72
8
 73
4
 74
0
 40
0
 40
0
 40
0
 40
0
 40
1
 40
1
 40
1
 40
1
 10
47.537852
 20
5.706409
 30
0.0
 10
47.424710
 20
5.660759
 30
0.0
 10
47.455212
 20
5.625169
 30
0.0
 10
47.613612
 20
5.618029
 30
0.0
  0
SPLINE
  5
137
100
AcDbEntity
  8
Layer_1
 62
7
100
AcDbSpline
 70
8
 71
3
 72
8
 73
4
 74
0
 40
0
 40
0
 40
0
 40
0
 40
1
 40
1
 40
1
 40
1
 10
47.613612
 20
5.618029
 30
0.0
 10
47.759445
 20
5.611429
 30
0.0
 10
47.878763
 20
5.708339
 30
0.0
 10
47.878763
 20
5.833340
 30
0.0
  0
SPLINE
  5
138
100
AcDbEntity
  8
Layer_1
 62
7
100
AcDbSpline
 70
8
 71
3
 72
8
 73
4
 74
0
 40
0
 40
0
 40
0
 40
0
 40
1
 40
1
 40
1
 40
1
 10
47.878763
 20
5.833340
 30
0.0
 10
47.878763
 20
5.958340
 30
0.0
 10
47.973743
 20
6.060613
 30
0.0
 10
48.089825
 20
6.060613
 30
0.0
  0
SPLINE
  5
139
100
AcDbEntity
  8
Layer_1
 62
7
100
AcDbSpline
 70
8
 71
3
 72
8
 73
4
 74
0
 40
0
 40
0
 40
0
 40
0
 40
1
 40
1
 40
1
 40
1
 10
48.089825
 20
6.060613
 30
0.0
 10
48.205910
 20
6.060613
 30
0.0
 10
48.340133
 20
5.958340
 30
0.0
 10
48.388101
 20
5.833340
 30
0.0
  0
SPLINE
  5
13a
100
AcDbEntity
  8
Layer_1
 62
7
100
AcDbSpline
 70
8
 71
3
 72
8
 73
4
 74
0
 40
0
 40
0
 40
0
 40
0
 40
1
 40
1
 40
1
 40
1
 10
48.388101
 20
5.833340
 30
0.0
 10
48.441221
 20
5.694899
 30
0.0
 10
48.388404
 20
5.606068
 30
0.0
 10
48.252796
 20
5.606068
 30
0.0
  0
SPLINE
  5
13b
100
AcDbEntity
  8
Layer_1
 62
7
100
AcDbSpline
 70
8
 71
3
 72
8
 73
4
 74
0
 40
0
 40
0
 40
0
 40
0
 40
1
 40
1
 40
1
 40
1
 10
48.252796
 20
5.606068
 30
0.0
 10
47.982071
 20
5.606068
 30
0.0
 10
47.976415
 20
5.536688
 30
0.0
 10
48.215876
 20
5.153248
 30
0.0
  0
SPLINE
  5
13c
100
AcDbEntity
  8
Layer_1
 62
7
100
AcDbSpline
 70
8
 71
3
 72
8
 73
4
 74
0
 40
0
 40
0
 40
0
 40
0
 40
1
 40
1
 40
1
 40
1
 10
48.215876
 20
5.153248
 30
0.0
 10
48.433329
 20
4.805051
 30
0.0
 10
48.598185
 20
4.922147
 30
0.0
 10
48.640076
 20
5.454552
 30
0.0
  0
LWPOLYLINE
  5
13d
100
AcDbEntity
  8
Layer_1
 62
7
100
AcDbPolyline
 90
1
 70
1
 10
48.099604
 20
4.734848
 30
0.0
  0
SPLINE
  5
13e
100
AcDbEntity
  8
Layer_1
 62
7
100
AcDbSpline
 70
8
 71
3
 72
8
 73
4
 74
0
 40
0
 40
0
 40
0
 40
0
 40
1
 40
1
 40
1
 40
1
 10
46.780277
 20
6.406939
 30
0.0
 10
46.884444
 20
6.410939
 30
0.0
 10
46.969671
 20
6.470959
 30
0.0
 10
46.969671
 20
6.540407
 30
0.0
  0
SPLINE
  5
13f
100
AcDbEntity
  8
Layer_1
 62
7
100
AcDbSpline
 70
8
 71
3
 72
8
 73
4
 74
0
 40
0
 40
0
 40
0
 40
0
 40
1
 40
1
 40
1
 40
1
 10
46.969671
 20
6.540407
 30
0.0
 10
46.969671
 20
6.722080
 30
0.0
 10
46.795486
 20
6.688499
 30
0.0
 10
46.363611
 20
6.423563
 30
0.0
  0
SPLINE
  5
140
100
AcDbEntity
  8
Layer_1
 62
7
100
AcDbSpline
 70
8
 71
3
 72
8
 73
4
 74
0
 40
0
 40
0
 40
0
 40
0
 40
1
 40
1
 40
1
 40
1
 10
46.363611
 20
6.423563
 30
0.0
 10
46.110829
 20
6.268493
 30
0.0
 10
46.085627
 20
6.225880
 30
0.0
 10
46.287851
 20
6.295464
 30
0.0
  0
SPLINE
  5
141
100
AcDbEntity
  8
Layer_1
 62
7
100
AcDbSpline
 70
8
 71
3
 72
8
 73
4
 74
0
 40
0
 40
0
 40
0
 40
0
 40
1
 40
1
 40
1
 40
1
 10
46.287851
 20
6.295464
 30
0.0
 10
46.454518
 20
6.352814
 30
0.0
 10
46.676108
 20
6.402976
 30
0.0
 10
46.780275
 20
6.406939
 30
0.0
  0
LWPOLYLINE
  5
142
100
AcDbEntity
  8
Layer_1
 62
7
100
AcDbPolyline
 90
1
 70
1
 10
48.640076
 20
5.454552
 30
0.0
  0
SPLINE
  5
143
100
AcDbEntity
  8
Layer_1
 62
7
100
AcDbSpline
 70
8
 71
3
 72
8
 73
4
 74
0
 40
0
 40
0
 40
0
 40
0
 40
1
 40
1
 40
1
 40
1
 10
46.014064
 20
7.080453
 30
0.0
 10
45.975644
 20
7.227872
 30
0.0
 10
45.941694
 20
7.143943
 30
0.0
 10
45.938604
 20
6.893942
 30
0.0
  0
SPLINE
  5
144
100
AcDbEntity
  8
Layer_1
 62
7
100
AcDbSpline
 70
8
 71
3
 72
8
 73
4
 74
0
 40
0
 40
0
 40
0
 40
0
 40
1
 40
1
 40
1
 40
1
 10
45.938604
 20
6.893942
 30
0.0
 10
45.935504
 20
6.643942
 30
0.0
 10
45.966944
 20
6.523327
 30
0.0
 10
46.008454
 20
6.625907
 30
0.0
  0
SPLINE
  5
145
100
AcDbEntity
  8
Layer_1
 62
7
100
AcDbSpline
 70
8
 71
3
 72
8
 73
4
 74
0
 40
0
 40
0
 40
0
 40
0
 40
1
 40
1
 40
1
 40
1
 10
46.008454
 20
6.625907
 30
0.0
 10
46.049954
 20
6.728488
 30
0.0
 10
46.052484
 20
6.933033
 30
0.0
 10
46.014054
 20
7.080453
 30
0.0
  0
LWPOLYLINE
  5
146
100
AcDbEntity
  8
Layer_1
 62
7
100
AcDbPolyline
 90
1
 70
1
 10
46.780275
 20
6.406939
 30
0.0
  0
SPLINE
  5
147
100
AcDbEntity
  8
Layer_1
 62
7
100
AcDbSpline
 70
8
 71
3
 72
8
 73
4
 74
0
 40
0
 40
0
 40
0
 40
0
 40
1
 40
1
 40
1
 40
1
 10
71.302811
 20
1.642447
 30
0.0
 10
71.254511
 20
1.720647
 30
0.0
 10
71.356511
 20
2.125276
 30
0.0
 10
71.529521
 20
2.541614
 30
0.0
  0
LWPOLYLINE
  5
148
100
AcDbEntity
  8
Layer_1
 62
7
100
AcDbPolyline
 90
1
 70
1
 10
46.014054
 20
7.080453
 30
0.0
  0
SPLINE
  5
149
100
AcDbEntity
  8
Layer_1
 62
7
100
AcDbSpline
 70
8
 71
3
 72
8
 73
4
 74
0
 40
0
 40
0
 40
0
 40
0
 40
1
 40
1
 40
1
 40
1
 10
70.937901
 20
5.693398
 30
0.0
 10
70.439481
 20
7.010542
 30
0.0
 10
70.067231
 20
8.180835
 30
0.0
 10
70.110681
 20
8.294050
 30
0.0
  0
SPLINE
  5
14a
100
AcDbEntity
  8
Layer_1
 62
7
100
AcDbSpline
 70
8
 71
3
 72
8
 73
4
 74
0
 40
0
 40
0
 40
0
 40
0
 40
1
 40
1
 40
1
 40
1
 10
70.110681
 20
8.294050
 30
0.0
 10
70.165281
 20
8.436268
 30
0.0
 10
70.406231
 20
8.485861
 30
0.0
 10
70.890271
 20
8.454495
 30
0.0
  0
SPLINE
  5
14b
100
AcDbEntity
  8
Layer_1
 62
7
100
AcDbSpline
 70
8
 71
3
 72
8
 73
4
 74
0
 40
0
 40
0
 40
0
 40
0
 40
1
 40
1
 40
1
 40
1
 10
70.890271
 20
8.454495
 30
0.0
 10
71.540971
 20
8.412325
 30
0.0
 10
71.603631
 20
8.371325
 30
0.0
 10
71.770001
 20
7.878791
 30
0.0
  0
SPLINE
  5
14c
100
AcDbEntity
  8
Layer_1
 62
7
100
AcDbSpline
 70
8
 71
3
 72
8
 73
4
 74
0
 40
0
 40
0
 40
0
 40
0
 40
1
 40
1
 40
1
 40
1
 10
71.770001
 20
7.878791
 30
0.0
 10
71.868501
 20
7.587124
 30
0.0
 10
72.109801
 20
6.896930
 30
0.0
 10
72.306181
 20
6.345026
 30
0.0
  0
LWPOLYLINE
  5
14d
100
AcDbEntity
  8
Layer_1
 62
7
100
AcDbPolyline
 90
3
 70
0
 10
71.529521
 20
2.541614
 30
0.0
 10
71.844101
 20
3.298591
 30
0.0
 10
70.937901
 20
5.693398
 30
0.0
  0
SPLINE
  5
14e
100
AcDbEntity
  8
Layer_1
 62
7
100
AcDbSpline
 70
8
 71
3
 72
8
 73
4
 74
0
 40
0
 40
0
 40
0
 40
0
 40
1
 40
1
 40
1
 40
1
 10
74.311721
 20
8.484851
 30
0.0
 10
74.680421
 20
8.484851
 30
0.0
 10
75.022851
 20
8.418871
 30
0.0
 10
75.072701
 20
8.338218
 30
0.0
  0
SPLINE
  5
14f
100
AcDbEntity
  8
Layer_1
 62
7
100
AcDbSpline
 70
8
 71
3
 72
8
 73
4
 74
0
 40
0
 40
0
 40
0
 40
0
 40
1
 40
1
 40
1
 40
1
 10
75.072701
 20
8.338218
 30
0.0
 10
75.122501
 20
8.257568
 30
0.0
 10
74.814701
 20
7.183706
 30
0.0
 10
74.388601
 20
5.951854
 30
0.0
  0
SPLINE
  5
150
100
AcDbEntity
  8
Layer_1
 62
7
100
AcDbSpline
 70
8
 71
3
 72
8
 73
4
 74
0
 40
0
 40
0
 40
0
 40
0
 40
1
 40
1
 40
1
 40
1
 10
74.388601
 20
5.951854
 30
0.0
 10
73.962501
 20
4.720003
 30
0.0
 10
73.462891
 20
3.234851
 30
0.0
 10
73.278361
 20
2.651518
 30
0.0
  0
LWPOLYLINE
  5
151
100
AcDbEntity
  8
Layer_1
 62
7
100
AcDbPolyline
 90
5
 70
0
 10
72.306181
 20
6.345026
 30
0.0
 10
72.663221
 20
5.341563
 30
0.0
 10
73.152301
 20
6.913207
 30
0.0
 10
73.641371
 20
8.484851
 30
0.0
 10
74.311721
 20
8.484851
 30
0.0
  0
SPLINE
  5
152
100
AcDbEntity
  8
Layer_1
 62
7
100
AcDbSpline
 70
8
 71
3
 72
8
 73
4
 74
0
 40
0
 40
0
 40
0
 40
0
 40
1
 40
1
 40
1
 40
1
 10
72.166761
 20
1.545582
 30
0.0
 10
71.739921
 20
1.520652
 30
0.0
 10
71.351141
 20
1.564242
 30
0.0
 10
71.302811
 20
1.642442
 30
0.0
  0
LWPOLYLINE
  5
153
100
AcDbEntity
  8
Layer_1
 62
7
100
AcDbPolyline
 90
3
 70
0
 10
73.278361
 20
2.651518
 30
0.0
 10
72.942831
 20
1.590912
 30
0.0
 10
72.166761
 20
1.545582
 30
0.0
  0
SPLINE
  5
154
100
AcDbEntity
  8
Layer_1
 62
7
100
AcDbSpline
 70
8
 71
3
 72
8
 73
4
 74
0
 40
0
 40
0
 40
0
 40
0
 40
1
 40
1
 40
1
 40
1
 10
23.901502
 20
3.345470
 30
0.0
 10
23.627419
 20
3.505109
 30
0.0
 10
23.529617
 20
4.452153
 30
0.0
 10
23.752307
 20
4.790185
 30
0.0
  0
SPLINE
  5
155
100
AcDbEntity
  8
Layer_1
 62
7
100
AcDbSpline
 70
8
 71
3
 72
8
 73
4
 74
0
 40
0
 40
0
 40
0
 40
0
 40
1
 40
1
 40
1
 40
1
 10
23.752307
 20
4.790185
 30
0.0
 10
23.934682
 20
5.067021
 30
0.0
 10
24.478147
 20
5.169600
 30
0.0
 10
24.904216
 20
5.007609
 30
0.0
  0
SPLINE
  5
156
100
AcDbEntity
  8
Layer_1
 62
7
100
AcDbSpline
 70
8
 71
3
 72
8
 73
4
 74
0
 40
0
 40
0
 40
0
 40
0
 40
1
 40
1
 40
1
 40
1
 10
24.904216
 20
5.007609
 30
0.0
 10
25.253206
 20
4.874923
 30
0.0
 10
25.303016
 20
4.771023
 30
0.0
 10
25.303016
 20
4.175747
 30
0.0
  0
SPLINE
  5
157
100
AcDbEntity
  8
Layer_1
 62
7
100
AcDbSpline
 70
8
 71
3
 72
8
 73
4
 74
0
 40
0
 40
0
 40
0
 40
0
 40
1
 40
1
 40
1
 40
1
 10
25.303016
 20
4.175747
 30
0.0
 10
25.303016
 20
3.658286
 30
0.0
 10
25.232886
 20
3.457979
 30
0.0
 10
25.009947
 20
3.338664
 30
0.0
  0
SPLINE
  5
158
100
AcDbEntity
  8
Layer_1
 62
7
100
AcDbSpline
 70
8
 71
3
 72
8
 73
4
 74
0
 40
0
 40
0
 40
0
 40
0
 40
1
 40
1
 40
1
 40
1
 10
25.009947
 20
3.338664
 30
0.0
 10
24.643758
 20
3.142685
 30
0.0
 10
24.245462
 20
3.145130
 30
0.0
 10
23.901502
 20
3.345464
 30
0.0
  0
LWPOLYLINE
  5
159
100
AcDbEntity
  8
Layer_1
 62
7
100
AcDbPolyline
 90
1
 70
1
 10
71.302811
 20
1.642442
 30
0.0
  0
SPLINE
  5
15a
100
AcDbEntity
  8
Layer_1
 62
7
100
AcDbSpline
 70
8
 71
3
 72
8
 73
4
 74
0
 40
0
 40
0
 40
0
 40
0
 40
1
 40
1
 40
1
 40
1
 10
27.021090
 20
3.465961
 30
0.0
 10
26.516385
 20
3.783192
 30
0.0
 10
26.312019
 20
4.200945
 30
0.0
 10
26.331217
 20
4.876157
 30
0.0
  0
SPLINE
  5
15b
100
AcDbEntity
  8
Layer_1
 62
7
100
AcDbSpline
 70
8
 71
3
 72
8
 73
4
 74
0
 40
0
 40
0
 40
0
 40
0
 40
1
 40
1
 40
1
 40
1
 10
26.331217
 20
4.876157
 30
0.0
 10
26.357807
 20
5.811378
 30
0.0
 10
26.984806
 20
6.291536
 30
0.0
 10
28.396025
 20
6.457397
 30
0.0
  0
SPLINE
  5
15c
100
AcDbEntity
  8
Layer_1
 62
7
100
AcDbSpline
 70
8
 71
3
 72
8
 73
4
 74
0
 40
0
 40
0
 40
0
 40
0
 40
1
 40
1
 40
1
 40
1
 10
28.396025
 20
6.457397
 30
0.0
 10
29.088784
 20
6.538817
 30
0.0
 10
29.242408
 20
6.608678
 30
0.0
 10
29.242408
 20
6.842291
 30
0.0
  0
SPLINE
  5
15d
100
AcDbEntity
  8
Layer_1
 62
7
100
AcDbSpline
 70
8
 71
3
 72
8
 73
4
 74
0
 40
0
 40
0
 40
0
 40
0
 40
1
 40
1
 40
1
 40
1
 10
29.242408
 20
6.842291
 30
0.0
 10
29.242408
 20
7.356857
 30
0.0
 10
28.616269
 20
7.493788
 30
0.0
 10
27.651273
 20
7.190259
 30
0.0
  0
SPLINE
  5
15e
100
AcDbEntity
  8
Layer_1
 62
7
100
AcDbSpline
 70
8
 71
3
 72
8
 73
4
 74
0
 40
0
 40
0
 40
0
 40
0
 40
1
 40
1
 40
1
 40
1
 10
27.651273
 20
7.190259
 30
0.0
 10
26.743147
 20
6.904618
 30
0.0
 10
26.523294
 20
6.982160
 30
0.0
 10
26.517457
 20
7.590153
 30
0.0
  0
SPLINE
  5
15f
100
AcDbEntity
  8
Layer_1
 62
7
100
AcDbSpline
 70
8
 71
3
 72
8
 73
4
 74
0
 40
0
 40
0
 40
0
 40
0
 40
1
 40
1
 40
1
 40
1
 10
26.517457
 20
7.590153
 30
0.0
 10
26.510757
 20
8.282663
 30
0.0
 10
28.136677
 20
8.786457
 30
0.0
 10
29.400085
 20
8.483370
 30
0.0
  0
SPLINE
  5
160
100
AcDbEntity
  8
Layer_1
 62
7
100
AcDbSpline
 70
8
 71
3
 72
8
 73
4
 74
0
 40
0
 40
0
 40
0
 40
0
 40
1
 40
1
 40
1
 40
1
 10
29.400085
 20
8.483370
 30
0.0
 10
30.617180
 20
8.191393
 30
0.0
 10
30.757559
 20
7.873669
 30
0.0
 10
30.757559
 20
5.410940
 30
0.0
  0
SPLINE
  5
161
100
AcDbEntity
  8
Layer_1
 62
7
100
AcDbSpline
 70
8
 71
3
 72
8
 73
4
 74
0
 40
0
 40
0
 40
0
 40
0
 40
1
 40
1
 40
1
 40
1
 10
30.757559
 20
5.410940
 30
0.0
 10
30.757559
 20
3.412221
 30
0.0
 10
30.750259
 20
3.367350
 30
0.0
 10
30.416650
 20
3.307265
 30
0.0
  0
SPLINE
  5
162
100
AcDbEntity
  8
Layer_1
 62
7
100
AcDbSpline
 70
8
 71
3
 72
8
 73
4
 74
0
 40
0
 40
0
 40
0
 40
0
 40
1
 40
1
 40
1
 40
1
 10
30.416650
 20
3.307265
 30
0.0
 10
29.896274
 20
3.213555
 30
0.0
 10
29.545438
 20
3.329505
 30
0.0
 10
29.545438
 20
3.595198
 30
0.0
  0
SPLINE
  5
163
100
AcDbEntity
  8
Layer_1
 62
7
100
AcDbSpline
 70
8
 71
3
 72
8
 73
4
 74
0
 40
0
 40
0
 40
0
 40
0
 40
1
 40
1
 40
1
 40
1
 10
29.545438
 20
3.595198
 30
0.0
 10
29.545438
 20
3.802592
 30
0.0
 10
29.504858
 20
3.798124
 30
0.0
 10
29.243943
 20
3.561998
 30
0.0
  0
SPLINE
  5
164
100
AcDbEntity
  8
Layer_1
 62
7
100
AcDbSpline
 70
8
 71
3
 72
8
 73
4
 74
0
 40
0
 40
0
 40
0
 40
0
 40
1
 40
1
 40
1
 40
1
 10
29.243943
 20
3.561998
 30
0.0
 10
28.785849
 20
3.147429
 30
0.0
 10
27.608771
 20
3.096574
 30
0.0
 10
27.021090
 20
3.465968
 30
0.0
  0
LWPOLYLINE
  5
165
100
AcDbEntity
  8
Layer_1
 62
7
100
AcDbPolyline
 90
1
 70
1
 10
23.901502
 20
3.345464
 30
0.0
  0
SPLINE
  5
166
100
AcDbEntity
  8
Layer_1
 62
7
100
AcDbSpline
 70
8
 71
3
 72
8
 73
4
 74
0
 40
0
 40
0
 40
0
 40
0
 40
1
 40
1
 40
1
 40
1
 10
28.949338
 20
4.550785
 30
0.0
 10
29.117397
 20
4.640725
 30
0.0
 10
29.242408
 20
4.866932
 30
0.0
 10
29.242408
 20
5.081088
 30
0.0
  0
SPLINE
  5
167
100
AcDbEntity
  8
Layer_1
 62
7
100
AcDbSpline
 70
8
 71
3
 72
8
 73
4
 74
0
 40
0
 40
0
 40
0
 40
0
 40
1
 40
1
 40
1
 40
1
 10
29.242408
 20
5.081088
 30
0.0
 10
29.242408
 20
5.388382
 30
0.0
 10
29.167848
 20
5.454545
 30
0.0
 10
28.821576
 20
5.454545
 30
0.0
  0
SPLINE
  5
168
100
AcDbEntity
  8
Layer_1
 62
7
100
AcDbSpline
 70
8
 71
3
 72
8
 73
4
 74
0
 40
0
 40
0
 40
0
 40
0
 40
1
 40
1
 40
1
 40
1
 10
28.821576
 20
5.454545
 30
0.0
 10
28.590117
 20
5.454545
 30
0.0
 10
28.248969
 20
5.348238
 30
0.0
 10
28.063468
 20
5.218308
 30
0.0
  0
SPLINE
  5
169
100
AcDbEntity
  8
Layer_1
 62
7
100
AcDbSpline
 70
8
 71
3
 72
8
 73
4
 74
0
 40
0
 40
0
 40
0
 40
0
 40
1
 40
1
 40
1
 40
1
 10
28.063468
 20
5.218308
 30
0.0
 10
27.791203
 20
5.027606
 30
0.0
 10
27.756527
 20
4.925388
 30
0.0
 10
27.883571
 20
4.688005
 30
0.0
  0
SPLINE
  5
16a
100
AcDbEntity
  8
Layer_1
 62
7
100
AcDbSpline
 70
8
 71
3
 72
8
 73
4
 74
0
 40
0
 40
0
 40
0
 40
0
 40
1
 40
1
 40
1
 40
1
 10
27.883571
 20
4.688005
 30
0.0
 10
28.056690
 20
4.364527
 30
0.0
 10
28.495699
 20
4.308005
 30
0.0
 10
28.949338
 20
4.550785
 30
0.0
  0
LWPOLYLINE
  5
16b
100
AcDbEntity
  8
Layer_1
 62
7
100
AcDbPolyline
 90
1
 70
1
 10
27.021090
 20
3.465968
 30
0.0
  0
SPLINE
  5
16c
100
AcDbEntity
  8
Layer_1
 62
7
100
AcDbSpline
 70
8
 71
3
 72
8
 73
4
 74
0
 40
0
 40
0
 40
0
 40
0
 40
1
 40
1
 40
1
 40
1
 10
32.310588
 20
3.431465
 30
0.0
 10
31.895061
 20
3.636306
 30
0.0
 10
31.818164
 20
3.757029
 30
0.0
 10
31.818164
 20
4.204530
 30
0.0
  0
SPLINE
  5
16d
100
AcDbEntity
  8
Layer_1
 62
7
100
AcDbSpline
 70
8
 71
3
 72
8
 73
4
 74
0
 40
0
 40
0
 40
0
 40
0
 40
1
 40
1
 40
1
 40
1
 10
31.818164
 20
4.204530
 30
0.0
 10
31.818164
 20
4.726268
 30
0.0
 10
31.826164
 20
4.732921
 30
0.0
 10
32.310588
 20
4.615700
 30
0.0
  0
SPLINE
  5
16e
100
AcDbEntity
  8
Layer_1
 62
7
100
AcDbSpline
 70
8
 71
3
 72
8
 73
4
 74
0
 40
0
 40
0
 40
0
 40
0
 40
1
 40
1
 40
1
 40
1
 10
32.310588
 20
4.615700
 30
0.0
 10
33.232795
 20
4.392561
 30
0.0
 10
34.003399
 20
4.443817
 30
0.0
 10
34.060275
 20
4.732082
 30
0.0
  0
SPLINE
  5
16f
100
AcDbEntity
  8
Layer_1
 62
7
100
AcDbSpline
 70
8
 71
3
 72
8
 73
4
 74
0
 40
0
 40
0
 40
0
 40
0
 40
1
 40
1
 40
1
 40
1
 10
34.060275
 20
4.732082
 30
0.0
 10
34.098135
 20
4.923987
 30
0.0
 10
33.892593
 20
5.091517
 30
0.0
 10
33.295054
 20
5.355778
 30
0.0
  0
SPLINE
  5
170
100
AcDbEntity
  8
Layer_1
 62
7
100
AcDbSpline
 70
8
 71
3
 72
8
 73
4
 74
0
 40
0
 40
0
 40
0
 40
0
 40
1
 40
1
 40
1
 40
1
 10
33.295054
 20
5.355778
 30
0.0
 10
31.962887
 20
5.944926
 30
0.0
 10
31.538281
 20
6.746542
 30
0.0
 10
32.042209
 20
7.721033
 30
0.0
  0
SPLINE
  5
171
100
AcDbEntity
  8
Layer_1
 62
7
100
AcDbSpline
 70
8
 71
3
 72
8
 73
4
 74
0
 40
0
 40
0
 40
0
 40
0
 40
1
 40
1
 40
1
 40
1
 10
32.042209
 20
7.721033
 30
0.0
 10
32.339581
 20
8.296085
 30
0.0
 10
33.404380
 20
8.713605
 30
0.0
 10
34.195201
 20
8.565246
 30
0.0
  0
SPLINE
  5
172
100
AcDbEntity
  8
Layer_1
 62
7
100
AcDbSpline
 70
8
 71
3
 72
8
 73
4
 74
0
 40
0
 40
0
 40
0
 40
0
 40
1
 40
1
 40
1
 40
1
 10
34.195201
 20
8.565246
 30
0.0
 10
35.112899
 20
8.393085
 30
0.0
 10
35.303011
 20
8.232545
 30
0.0
 10
35.303011
 20
7.629759
 30
0.0
  0
SPLINE
  5
173
100
AcDbEntity
  8
Layer_1
 62
7
100
AcDbSpline
 70
8
 71
3
 72
8
 73
4
 74
0
 40
0
 40
0
 40
0
 40
0
 40
1
 40
1
 40
1
 40
1
 10
35.303011
 20
7.629759
 30
0.0
 10
35.303011
 20
7.111135
 30
0.0
 10
35.285481
 20
7.093396
 30
0.0
 10
34.886344
 20
7.208061
 30
0.0
  0
SPLINE
  5
174
100
AcDbEntity
  8
Layer_1
 62
7
100
AcDbSpline
 70
8
 71
3
 72
8
 73
4
 74
0
 40
0
 40
0
 40
0
 40
0
 40
1
 40
1
 40
1
 40
1
 10
34.886344
 20
7.208061
 30
0.0
 10
34.155245
 20
7.418092
 30
0.0
 10
33.420748
 20
7.371817
 30
0.0
 10
33.369216
 20
7.112481
 30
0.0
  0
SPLINE
  5
175
100
AcDbEntity
  8
Layer_1
 62
7
100
AcDbSpline
 70
8
 71
3
 72
8
 73
4
 74
0
 40
0
 40
0
 40
0
 40
0
 40
1
 40
1
 40
1
 40
1
 10
33.369216
 20
7.112481
 30
0.0
 10
33.337316
 20
6.951928
 30
0.0
 10
33.618524
 20
6.739727
 30
0.0
 10
34.248798
 20
6.448751
 30
0.0
  0
SPLINE
  5
176
100
AcDbEntity
  8
Layer_1
 62
7
100
AcDbSpline
 70
8
 71
3
 72
8
 73
4
 74
0
 40
0
 40
0
 40
0
 40
0
 40
1
 40
1
 40
1
 40
1
 10
34.248798
 20
6.448751
 30
0.0
 10
35.406079
 20
5.914472
 30
0.0
 10
35.756245
 20
5.341245
 30
0.0
 10
35.482821
 20
4.428636
 30
0.0
  0
SPLINE
  5
177
100
AcDbEntity
  8
Layer_1
 62
7
100
AcDbSpline
 70
8
 71
3
 72
8
 73
4
 74
0
 40
0
 40
0
 40
0
 40
0
 40
1
 40
1
 40
1
 40
1
 10
35.482821
 20
4.428636
 30
0.0
 10
35.160706
 20
3.353512
 30
0.0
 10
33.516910
 20
2.836796
 30
0.0
 10
32.310588
 20
3.431469
 30
0.0
  0
LWPOLYLINE
  5
178
100
AcDbEntity
  8
Layer_1
 62
7
100
AcDbPolyline
 90
1
 70
1
 10
28.949338
 20
4.550785
 30
0.0
  0
SPLINE
  5
179
100
AcDbEntity
  8
Layer_1
 62
7
100
AcDbSpline
 70
8
 71
3
 72
8
 73
4
 74
0
 40
0
 40
0
 40
0
 40
0
 40
1
 40
1
 40
1
 40
1
 10
37.478313
 20
3.332055
 30
0.0
 10
36.821780
 20
3.596999
 30
0.0
 10
36.666646
 20
4.052549
 30
0.0
 10
36.666646
 20
5.715528
 30
0.0
  0
LWPOLYLINE
  5
17a
100
AcDbEntity
  8
Layer_1
 62
7
100
AcDbPolyline
 90
1
 70
1
 10
32.310588
 20
3.431469
 30
0.0
  0
SPLINE
  5
17b
100
AcDbEntity
  8
Layer_1
 62
7
100
AcDbSpline
 70
8
 71
3
 72
8
 73
4
 74
0
 40
0
 40
0
 40
0
 40
0
 40
1
 40
1
 40
1
 40
1
 10
36.278712
 20
7.272724
 30
0.0
 10
35.923083
 20
7.272724
 30
0.0
 10
35.894694
 20
7.320034
 30
0.0
 10
35.937803
 20
7.840906
 30
0.0
  0
SPLINE
  5
17c
100
AcDbEntity
  8
Layer_1
 62
7
100
AcDbSpline
 70
8
 71
3
 72
8
 73
4
 74
0
 40
0
 40
0
 40
0
 40
0
 40
1
 40
1
 40
1
 40
1
 10
35.937803
 20
7.840906
 30
0.0
 10
35.975573
 20
8.297302
 30
0.0
 10
36.051900
 20
8.418614
 30
0.0
 10
36.325737
 20
8.457505
 30
0.0
  0
SPLINE
  5
17d
100
AcDbEntity
  8
Layer_1
 62
7
100
AcDbSpline
 70
8
 71
3
 72
8
 73
4
 74
0
 40
0
 40
0
 40
0
 40
0
 40
1
 40
1
 40
1
 40
1
 10
36.325737
 20
8.457505
 30
0.0
 10
36.614145
 20
8.498465
 30
0.0
 10
36.666646
 20
8.598914
 30
0.0
 10
36.666646
 20
9.109746
 30
0.0
  0
LWPOLYLINE
  5
17e
100
AcDbEntity
  8
Layer_1
 62
7
100
AcDbPolyline
 90
3
 70
0
 10
36.666646
 20
5.715528
 30
0.0
 10
36.666646
 20
7.272724
 30
0.0
 10
36.278712
 20
7.272724
 30
0.0
  0
SPLINE
  5
17f
100
AcDbEntity
  8
Layer_1
 62
7
100
AcDbSpline
 70
8
 71
3
 72
8
 73
4
 74
0
 40
0
 40
0
 40
0
 40
0
 40
1
 40
1
 40
1
 40
1
 10
37.386343
 20
9.667390
 30
0.0
 10
38.096949
 20
9.621790
 30
0.0
 10
38.106627
 20
9.614140
 30
0.0
 10
38.152550
 20
9.061659
 30
0.0
  0
SPLINE
  5
180
100
AcDbEntity
  8
Layer_1
 62
7
100
AcDbSpline
 70
8
 71
3
 72
8
 73
4
 74
0
 40
0
 40
0
 40
0
 40
0
 40
1
 40
1
 40
1
 40
1
 10
38.152550
 20
9.061659
 30
0.0
 10
38.196250
 20
8.535927
 30
0.0
 10
38.232880
 20
8.499298
 30
0.0
 10
38.758610
 20
8.455598
 30
0.0
  0
SPLINE
  5
181
100
AcDbEntity
  8
Layer_1
 62
7
100
AcDbSpline
 70
8
 71
3
 72
8
 73
4
 74
0
 40
0
 40
0
 40
0
 40
0
 40
1
 40
1
 40
1
 40
1
 10
38.758610
 20
8.455598
 30
0.0
 10
39.288227
 20
8.411578
 30
0.0
 10
39.318160
 20
8.380718
 30
0.0
 10
39.318160
 20
7.878785
 30
0.0
  0
SPLINE
  5
182
100
AcDbEntity
  8
Layer_1
 62
7
100
AcDbSpline
 70
8
 71
3
 72
8
 73
4
 74
0
 40
0
 40
0
 40
0
 40
0
 40
1
 40
1
 40
1
 40
1
 10
39.318160
 20
7.878785
 30
0.0
 10
39.318160
 20
7.374391
 30
0.0
 10
39.290120
 20
7.346168
 30
0.0
 10
38.744218
 20
7.301113
 30
0.0
  0
LWPOLYLINE
  5
183
100
AcDbEntity
  8
Layer_1
 62
7
100
AcDbPolyline
 90
3
 70
0
 10
36.666646
 20
9.109746
 30
0.0
 10
36.666646
 20
9.713570
 30
0.0
 10
37.386343
 20
9.667390
 30
0.0
  0
SPLINE
  5
184
100
AcDbEntity
  8
Layer_1
 62
7
100
AcDbSpline
 70
8
 71
3
 72
8
 73
4
 74
0
 40
0
 40
0
 40
0
 40
0
 40
1
 40
1
 40
1
 40
1
 10
38.787858
 20
4.621207
 30
0.0
 10
39.291328
 20
4.621207
 30
0.0
 10
39.320541
 20
4.592447
 30
0.0
 10
39.365202
 20
4.052759
 30
0.0
  0
SPLINE
  5
185
100
AcDbEntity
  8
Layer_1
 62
7
100
AcDbSpline
 70
8
 71
3
 72
8
 73
4
 74
0
 40
0
 40
0
 40
0
 40
0
 40
1
 40
1
 40
1
 40
1
 10
39.365202
 20
4.052759
 30
0.0
 10
39.406112
 20
3.558342
 30
0.0
 10
39.360402
 20
3.464612
 30
0.0
 10
39.014429
 20
3.333062
 30
0.0
  0
SPLINE
  5
186
100
AcDbEntity
  8
Layer_1
 62
7
100
AcDbSpline
 70
8
 71
3
 72
8
 73
4
 74
0
 40
0
 40
0
 40
0
 40
0
 40
1
 40
1
 40
1
 40
1
 10
39.014429
 20
3.333062
 30
0.0
 10
38.539371
 20
3.152443
 30
0.0
 10
37.924386
 20
3.152040
 30
0.0
 10
37.478314
 20
3.331962
 30
0.0
  0
LWPOLYLINE
  5
187
100
AcDbEntity
  8
Layer_1
 62
7
100
AcDbPolyline
 90
5
 70
0
 10
38.744218
 20
7.301113
 30
0.0
 10
38.170276
 20
7.253743
 30
0.0
 10
38.213916
 20
5.937475
 30
0.0
 10
38.257556
 20
4.621207
 30
0.0
 10
38.787858
 20
4.621207
 30
0.0
  0
SPLINE
  5
188
100
AcDbEntity
  8
Layer_1
 62
7
100
AcDbSpline
 70
8
 71
3
 72
8
 73
4
 74
0
 40
0
 40
0
 40
0
 40
0
 40
1
 40
1
 40
1
 40
1
 10
40.640147
 20
3.339355
 30
0.0
 10
40.298873
 20
3.476540
 30
0.0
 10
40.295879
 20
3.502261
 30
0.0
 10
40.337117
 20
5.943517
 30
0.0
  0
LWPOLYLINE
  5
189
100
AcDbEntity
  8
Layer_1
 62
7
100
AcDbPolyline
 90
1
 70
1
 10
37.478314
 20
3.331962
 30
0.0
  0
SPLINE
  5
18a
100
AcDbEntity
  8
Layer_1
 62
7
100
AcDbSpline
 70
8
 71
3
 72
8
 73
4
 74
0
 40
0
 40
0
 40
0
 40
0
 40
1
 40
1
 40
1
 40
1
 10
40.948167
 20
8.456231
 30
0.0
 10
41.361491
 20
8.490421
 30
0.0
 10
41.543129
 20
8.436711
 30
0.0
 10
41.610826
 20
8.260296
 30
0.0
  0
SPLINE
  5
18b
100
AcDbEntity
  8
Layer_1
 62
7
100
AcDbSpline
 70
8
 71
3
 72
8
 73
4
 74
0
 40
0
 40
0
 40
0
 40
0
 40
1
 40
1
 40
1
 40
1
 10
41.610826
 20
8.260296
 30
0.0
 10
41.691986
 20
8.048783
 30
0.0
 10
41.736047
 20
8.045263
 30
0.0
 10
41.950518
 20
8.233156
 30
0.0
  0
SPLINE
  5
18c
100
AcDbEntity
  8
Layer_1
 62
7
100
AcDbSpline
 70
8
 71
3
 72
8
 73
4
 74
0
 40
0
 40
0
 40
0
 40
0
 40
1
 40
1
 40
1
 40
1
 10
41.950518
 20
8.233156
 30
0.0
 10
42.293762
 20
8.533865
 30
0.0
 10
42.822822
 20
8.674583
 30
0.0
 10
43.181796
 20
8.560649
 30
0.0
  0
SPLINE
  5
18d
100
AcDbEntity
  8
Layer_1
 62
7
100
AcDbSpline
 70
8
 71
3
 72
8
 73
4
 74
0
 40
0
 40
0
 40
0
 40
0
 40
1
 40
1
 40
1
 40
1
 10
43.181796
 20
8.560649
 30
0.0
 10
43.424785
 20
8.483529
 30
0.0
 10
43.484826
 20
8.331401
 30
0.0
 10
43.484826
 20
7.792863
 30
0.0
  0
SPLINE
  5
18e
100
AcDbEntity
  8
Layer_1
 62
7
100
AcDbSpline
 70
8
 71
3
 72
8
 73
4
 74
0
 40
0
 40
0
 40
0
 40
0
 40
1
 40
1
 40
1
 40
1
 10
43.484826
 20
7.792863
 30
0.0
 10
43.484826
 20
7.133026
 30
0.0
 10
43.476026
 20
7.121255
 30
0.0
 10
42.980934
 20
7.121255
 30
0.0
  0
SPLINE
  5
18f
100
AcDbEntity
  8
Layer_1
 62
7
100
AcDbSpline
 70
8
 71
3
 72
8
 73
4
 74
0
 40
0
 40
0
 40
0
 40
0
 40
1
 40
1
 40
1
 40
1
 10
42.980934
 20
7.121255
 30
0.0
 10
42.650127
 20
7.121255
 30
0.0
 10
42.363882
 20
7.000801
 30
0.0
 10
42.147601
 20
6.770581
 30
0.0
  0
SPLINE
  5
190
100
AcDbEntity
  8
Layer_1
 62
7
100
AcDbSpline
 70
8
 71
3
 72
8
 73
4
 74
0
 40
0
 40
0
 40
0
 40
0
 40
1
 40
1
 40
1
 40
1
 10
42.147601
 20
6.770581
 30
0.0
 10
41.853871
 20
6.457919
 30
0.0
 10
41.818161
 20
6.252617
 30
0.0
 10
41.818161
 20
4.876641
 30
0.0
  0
SPLINE
  5
191
100
AcDbEntity
  8
Layer_1
 62
7
100
AcDbSpline
 70
8
 71
3
 72
8
 73
4
 74
0
 40
0
 40
0
 40
0
 40
0
 40
1
 40
1
 40
1
 40
1
 10
41.818161
 20
4.876641
 30
0.0
 10
41.818161
 20
3.645416
 30
0.0
 10
41.774711
 20
3.333376
 30
0.0
 10
41.603280
 20
3.333376
 30
0.0
  0
SPLINE
  5
192
100
AcDbEntity
  8
Layer_1
 62
7
100
AcDbSpline
 70
8
 71
3
 72
8
 73
4
 74
0
 40
0
 40
0
 40
0
 40
0
 40
1
 40
1
 40
1
 40
1
 10
41.603280
 20
3.333376
 30
0.0
 10
41.485096
 20
3.333376
 30
0.0
 10
41.297596
 20
3.303546
 30
0.0
 10
41.186614
 20
3.267096
 30
0.0
  0
SPLINE
  5
193
100
AcDbEntity
  8
Layer_1
 62
7
100
AcDbSpline
 70
8
 71
3
 72
8
 73
4
 74
0
 40
0
 40
0
 40
0
 40
0
 40
1
 40
1
 40
1
 40
1
 10
41.186614
 20
3.267096
 30
0.0
 10
41.075631
 20
3.230636
 30
0.0
 10
40.829722
 20
3.263196
 30
0.0
 10
40.640149
 20
3.339366
 30
0.0
  0
LWPOLYLINE
  5
194
100
AcDbEntity
  8
Layer_1
 62
7
100
AcDbPolyline
 90
3
 70
0
 10
40.337117
 20
5.943517
 30
0.0
 10
40.378767
 20
8.409131
 30
0.0
 10
40.948167
 20
8.456231
 30
0.0
  0
SPLINE
  5
195
100
AcDbEntity
  8
Layer_1
 62
7
100
AcDbSpline
 70
8
 71
3
 72
8
 73
4
 74
0
 40
0
 40
0
 40
0
 40
0
 40
1
 40
1
 40
1
 40
1
 10
50.492396
 20
3.300825
 30
0.0
 10
50.154396
 20
3.353995
 30
0.0
 10
50.151487
 20
3.376345
 30
0.0
 10
50.151487
 20
5.919674
 30
0.0
  0
LWPOLYLINE
  5
196
100
AcDbEntity
  8
Layer_1
 62
7
100
AcDbPolyline
 90
1
 70
1
 10
40.640149
 20
3.339366
 30
0.0
  0
SPLINE
  5
197
100
AcDbEntity
  8
Layer_1
 62
7
100
AcDbSpline
 70
8
 71
3
 72
8
 73
4
 74
0
 40
0
 40
0
 40
0
 40
0
 40
1
 40
1
 40
1
 40
1
 10
50.757548
 20
8.484893
 30
0.0
 10
51.269673
 20
8.484893
 30
0.0
 10
51.363608
 20
8.436223
 30
0.0
 10
51.363608
 20
8.170866
 30
0.0
  0
LWPOLYLINE
  5
198
100
AcDbEntity
  8
Layer_1
 62
7
100
AcDbPolyline
 90
3
 70
0
 10
50.151487
 20
5.919674
 30
0.0
 10
50.151487
 20
8.484893
 30
0.0
 10
50.757548
 20
8.484893
 30
0.0
  0
SPLINE
  5
199
100
AcDbEntity
  8
Layer_1
 62
7
100
AcDbSpline
 70
8
 71
3
 72
8
 73
4
 74
0
 40
0
 40
0
 40
0
 40
0
 40
1
 40
1
 40
1
 40
1
 10
51.757767
 20
8.166884
 30
0.0
 10
52.315315
 20
8.605452
 30
0.0
 10
53.028652
 20
8.704460
 30
0.0
 10
53.677535
 20
8.433339
 30
0.0
  0
SPLINE
  5
19a
100
AcDbEntity
  8
Layer_1
 62
7
100
AcDbSpline
 70
8
 71
3
 72
8
 73
4
 74
0
 40
0
 40
0
 40
0
 40
0
 40
1
 40
1
 40
1
 40
1
 10
53.677535
 20
8.433339
 30
0.0
 10
54.540302
 20
8.072852
 30
0.0
 10
54.696939
 20
7.595740
 30
0.0
 10
54.696939
 20
5.328263
 30
0.0
  0
LWPOLYLINE
  5
19b
100
AcDbEntity
  8
Layer_1
 62
7
100
AcDbPolyline
 90
3
 70
0
 10
51.363608
 20
8.170866
 30
0.0
 10
51.363608
 20
7.856839
 30
0.0
 10
51.757767
 20
8.166884
 30
0.0
  0
SPLINE
  5
19c
100
AcDbEntity
  8
Layer_1
 62
7
100
AcDbSpline
 70
8
 71
3
 72
8
 73
4
 74
0
 40
0
 40
0
 40
0
 40
0
 40
1
 40
1
 40
1
 40
1
 10
54.287941
 20
3.290514
 30
0.0
 10
54.062993
 20
3.247514
 30
0.0
 10
53.722084
 20
3.271964
 30
0.0
 10
53.530366
 20
3.344864
 30
0.0
  0
SPLINE
  5
19d
100
AcDbEntity
  8
Layer_1
 62
7
100
AcDbSpline
 70
8
 71
3
 72
8
 73
4
 74
0
 40
0
 40
0
 40
0
 40
0
 40
1
 40
1
 40
1
 40
1
 10
53.530366
 20
3.344864
 30
0.0
 10
53.195889
 20
3.472032
 30
0.0
 10
53.181789
 20
3.544521
 30
0.0
 10
53.181789
 20
5.136987
 30
0.0
  0
SPLINE
  5
19e
100
AcDbEntity
  8
Layer_1
 62
7
100
AcDbSpline
 70
8
 71
3
 72
8
 73
4
 74
0
 40
0
 40
0
 40
0
 40
0
 40
1
 40
1
 40
1
 40
1
 10
53.181789
 20
5.136987
 30
0.0
 10
53.181789
 20
6.443688
 30
0.0
 10
53.131159
 20
6.847209
 30
0.0
 10
52.943693
 20
7.034676
 30
0.0
  0
SPLINE
  5
19f
100
AcDbEntity
  8
Layer_1
 62
7
100
AcDbSpline
 70
8
 71
3
 72
8
 73
4
 74
0
 40
0
 40
0
 40
0
 40
0
 40
1
 40
1
 40
1
 40
1
 10
52.943693
 20
7.034676
 30
0.0
 10
52.635660
 20
7.342710
 30
0.0
 10
52.381525
 20
7.335514
 30
0.0
 10
51.988235
 20
7.007616
 30
0.0
  0
SPLINE
  5
1a0
100
AcDbEntity
  8
Layer_1
 62
7
100
AcDbSpline
 70
8
 71
3
 72
8
 73
4
 74
0
 40
0
 40
0
 40
0
 40
0
 40
1
 40
1
 40
1
 40
1
 10
51.988235
 20
7.007616
 30
0.0
 10
51.706021
 20
6.772329
 30
0.0
 10
51.665735
 20
6.555940
 30
0.0
 10
51.630541
 20
5.086410
 30
0.0
  0
SPLINE
  5
1a1
100
AcDbEntity
  8
Layer_1
 62
7
100
AcDbSpline
 70
8
 71
3
 72
8
 73
4
 74
0
 40
0
 40
0
 40
0
 40
0
 40
1
 40
1
 40
1
 40
1
 10
51.630541
 20
5.086410
 30
0.0
 10
51.591571
 20
3.459323
 30
0.0
 10
51.584251
 20
3.428754
 30
0.0
 10
51.212093
 20
3.338773
 30
0.0
  0
SPLINE
  5
1a2
100
AcDbEntity
  8
Layer_1
 62
7
100
AcDbSpline
 70
8
 71
3
 72
8
 73
4
 74
0
 40
0
 40
0
 40
0
 40
0
 40
1
 40
1
 40
1
 40
1
 10
51.212093
 20
3.338773
 30
0.0
 10
51.003760
 20
3.288403
 30
0.0
 10
50.679896
 20
3.271323
 30
0.0
 10
50.492396
 20
3.300823
 30
0.0
  0
LWPOLYLINE
  5
1a3
100
AcDbEntity
  8
Layer_1
 62
7
100
AcDbPolyline
 90
3
 70
0
 10
54.696939
 20
5.328263
 30
0.0
 10
54.696939
 20
3.368704
 30
0.0
 10
54.287941
 20
3.290514
 30
0.0
  0
SPLINE
  5
1a4
100
AcDbEntity
  8
Layer_1
 62
7
100
AcDbSpline
 70
8
 71
3
 72
8
 73
4
 74
0
 40
0
 40
0
 40
0
 40
0
 40
1
 40
1
 40
1
 40
1
 10
62.310571
 20
3.300825
 30
0.0
 10
61.972572
 20
3.353995
 30
0.0
 10
61.969663
 20
3.376345
 30
0.0
 10
61.969663
 20
5.919674
 30
0.0
  0
LWPOLYLINE
  5
1a5
100
AcDbEntity
  8
Layer_1
 62
7
100
AcDbPolyline
 90
1
 70
1
 10
50.492396
 20
3.300823
 30
0.0
  0
SPLINE
  5
1a6
100
AcDbEntity
  8
Layer_1
 62
7
100
AcDbSpline
 70
8
 71
3
 72
8
 73
4
 74
0
 40
0
 40
0
 40
0
 40
0
 40
1
 40
1
 40
1
 40
1
 10
62.575723
 20
8.484893
 30
0.0
 10
63.083753
 20
8.484893
 30
0.0
 10
63.181783
 20
8.435143
 30
0.0
 10
63.181783
 20
8.177327
 30
0.0
  0
SPLINE
  5
1a7
100
AcDbEntity
  8
Layer_1
 62
7
100
AcDbSpline
 70
8
 71
3
 72
8
 73
4
 74
0
 40
0
 40
0
 40
0
 40
0
 40
1
 40
1
 40
1
 40
1
 10
63.181783
 20
8.177327
 30
0.0
 10
63.181783
 20
7.876438
 30
0.0
 10
63.191923
 20
7.877260
 30
0.0
 10
63.649022
 20
8.215207
 30
0.0
  0
SPLINE
  5
1a8
100
AcDbEntity
  8
Layer_1
 62
7
100
AcDbSpline
 70
8
 71
3
 72
8
 73
4
 74
0
 40
0
 40
0
 40
0
 40
0
 40
1
 40
1
 40
1
 40
1
 10
63.649022
 20
8.215207
 30
0.0
 10
64.294895
 20
8.692722
 30
0.0
 10
65.294261
 20
8.688262
 30
0.0
 10
65.808060
 20
8.205607
 30
0.0
  0
LWPOLYLINE
  5
1a9
100
AcDbEntity
  8
Layer_1
 62
7
100
AcDbPolyline
 90
3
 70
0
 10
61.969663
 20
5.919674
 30
0.0
 10
61.969663
 20
8.484893
 30
0.0
 10
62.575723
 20
8.484893
 30
0.0
  0
SPLINE
  5
1aa
100
AcDbEntity
  8
Layer_1
 62
7
100
AcDbSpline
 70
8
 71
3
 72
8
 73
4
 74
0
 40
0
 40
0
 40
0
 40
0
 40
1
 40
1
 40
1
 40
1
 10
66.666381
 20
8.205607
 30
0.0
 10
67.394741
 20
8.744014
 30
0.0
 10
68.402061
 20
8.681117
 30
0.0
 10
68.954591
 20
8.062732
 30
0.0
  0
SPLINE
  5
1ab
100
AcDbEntity
  8
Layer_1
 62
7
100
AcDbSpline
 70
8
 71
3
 72
8
 73
4
 74
0
 40
0
 40
0
 40
0
 40
0
 40
1
 40
1
 40
1
 40
1
 10
68.954591
 20
8.062732
 30
0.0
 10
69.458181
 20
7.499118
 30
0.0
 10
69.579891
 20
6.804140
 30
0.0
 10
69.516361
 20
4.855045
 30
0.0
  0
SPLINE
  5
1ac
100
AcDbEntity
  8
Layer_1
 62
7
100
AcDbSpline
 70
8
 71
3
 72
8
 73
4
 74
0
 40
0
 40
0
 40
0
 40
0
 40
1
 40
1
 40
1
 40
1
 10
69.516361
 20
4.855045
 30
0.0
 10
69.471161
 20
3.468274
 30
0.0
 10
69.457461
 20
3.419217
 30
0.0
 10
69.090871
 20
3.331651
 30
0.0
  0
SPLINE
  5
1ad
100
AcDbEntity
  8
Layer_1
 62
7
100
AcDbSpline
 70
8
 71
3
 72
8
 73
4
 74
0
 40
0
 40
0
 40
0
 40
0
 40
1
 40
1
 40
1
 40
1
 10
69.090871
 20
3.331651
 30
0.0
 10
68.882541
 20
3.281891
 30
0.0
 10
68.564371
 20
3.268781
 30
0.0
 10
68.383841
 20
3.302531
 30
0.0
  0
SPLINE
  5
1ae
100
AcDbEntity
  8
Layer_1
 62
7
100
AcDbSpline
 70
8
 71
3
 72
8
 73
4
 74
0
 40
0
 40
0
 40
0
 40
0
 40
1
 40
1
 40
1
 40
1
 10
68.383841
 20
3.302531
 30
0.0
 10
68.073701
 20
3.360511
 30
0.0
 10
68.052801
 20
3.458914
 30
0.0
 10
68.005051
 20
5.086068
 30
0.0
  0
SPLINE
  5
1af
100
AcDbEntity
  8
Layer_1
 62
7
100
AcDbSpline
 70
8
 71
3
 72
8
 73
4
 74
0
 40
0
 40
0
 40
0
 40
0
 40
1
 40
1
 40
1
 40
1
 10
68.005051
 20
5.086068
 30
0.0
 10
67.963851
 20
6.488891
 30
0.0
 10
67.904601
 20
6.858071
 30
0.0
 10
67.685391
 20
7.076960
 30
0.0
  0
SPLINE
  5
1b0
100
AcDbEntity
  8
Layer_1
 62
7
100
AcDbSpline
 70
8
 71
3
 72
8
 73
4
 74
0
 40
0
 40
0
 40
0
 40
0
 40
1
 40
1
 40
1
 40
1
 10
67.685391
 20
7.076960
 30
0.0
 10
67.439471
 20
7.322503
 30
0.0
 10
67.380671
 20
7.325730
 30
0.0
 10
67.003571
 20
7.114370
 30
0.0
  0
SPLINE
  5
1b1
100
AcDbEntity
  8
Layer_1
 62
7
100
AcDbSpline
 70
8
 71
3
 72
8
 73
4
 74
0
 40
0
 40
0
 40
0
 40
0
 40
1
 40
1
 40
1
 40
1
 10
67.003571
 20
7.114370
 30
0.0
 10
66.597041
 20
6.886520
 30
0.0
 10
66.590231
 20
6.857564
 30
0.0
 10
66.547981
 20
5.178336
 30
0.0
  0
SPLINE
  5
1b2
100
AcDbEntity
  8
Layer_1
 62
7
100
AcDbSpline
 70
8
 71
3
 72
8
 73
4
 74
0
 40
0
 40
0
 40
0
 40
0
 40
1
 40
1
 40
1
 40
1
 10
66.547981
 20
5.178336
 30
0.0
 10
66.506781
 20
3.542143
 30
0.0
 10
66.490681
 20
3.468120
 30
0.0
 10
66.145751
 20
3.336996
 30
0.0
  0
SPLINE
  5
1b3
100
AcDbEntity
  8
Layer_1
 62
7
100
AcDbSpline
 70
8
 71
3
 72
8
 73
4
 74
0
 40
0
 40
0
 40
0
 40
0
 40
1
 40
1
 40
1
 40
1
 10
66.145751
 20
3.336996
 30
0.0
 10
65.948123
 20
3.261856
 30
0.0
 10
65.592424
 20
3.252076
 30
0.0
 10
65.355315
 20
3.315266
 30
0.0
  0
LWPOLYLINE
  5
1b4
100
AcDbEntity
  8
Layer_1
 62
7
100
AcDbPolyline
 90
3
 70
0
 10
65.808060
 20
8.205607
 30
0.0
 10
66.186021
 20
7.850528
 30
0.0
 10
66.666381
 20
8.205607
 30
0.0
  0
SPLINE
  5
1b5
100
AcDbEntity
  8
Layer_1
 62
7
100
AcDbSpline
 70
8
 71
3
 72
8
 73
4
 74
0
 40
0
 40
0
 40
0
 40
0
 40
1
 40
1
 40
1
 40
1
 10
64.848446
 20
5.221860
 30
0.0
 10
64.762796
 20
7.247573
 30
0.0
 10
64.617790
 20
7.525762
 30
0.0
 10
63.894563
 20
7.051885
 30
0.0
  0
SPLINE
  5
1b6
100
AcDbEntity
  8
Layer_1
 62
7
100
AcDbSpline
 70
8
 71
3
 72
8
 73
4
 74
0
 40
0
 40
0
 40
0
 40
0
 40
1
 40
1
 40
1
 40
1
 10
63.894563
 20
7.051885
 30
0.0
 10
63.506938
 20
6.797902
 30
0.0
 10
63.493138
 20
6.737386
 30
0.0
 10
63.451760
 20
5.110079
 30
0.0
  0
SPLINE
  5
1b7
100
AcDbEntity
  8
Layer_1
 62
7
100
AcDbSpline
 70
8
 71
3
 72
8
 73
4
 74
0
 40
0
 40
0
 40
0
 40
0
 40
1
 40
1
 40
1
 40
1
 10
63.451760
 20
5.110079
 30
0.0
 10
63.409780
 20
3.458892
 30
0.0
 10
63.402630
 20
3.428874
 30
0.0
 10
63.030265
 20
3.338826
 30
0.0
  0
SPLINE
  5
1b8
100
AcDbEntity
  8
Layer_1
 62
7
100
AcDbSpline
 70
8
 71
3
 72
8
 73
4
 74
0
 40
0
 40
0
 40
0
 40
0
 40
1
 40
1
 40
1
 40
1
 10
63.030265
 20
3.338826
 30
0.0
 10
62.821932
 20
3.288446
 30
0.0
 10
62.498068
 20
3.271356
 30
0.0
 10
62.310568
 20
3.300856
 30
0.0
  0
LWPOLYLINE
  5
1b9
100
AcDbEntity
  8
Layer_1
 62
7
100
AcDbPolyline
 90
3
 70
0
 10
65.355315
 20
3.315266
 30
0.0
 10
64.924206
 20
3.430156
 30
0.0
 10
64.848446
 20
5.221860
 30
0.0
  0
SPLINE
  5
1ba
100
AcDbEntity
  8
Layer_1
 62
7
100
AcDbSpline
 70
8
 71
3
 72
8
 73
4
 74
0
 40
0
 40
0
 40
0
 40
0
 40
1
 40
1
 40
1
 40
1
 10
55.168713
 20
8.644579
 30
0.0
 10
54.819117
 20
8.935736
 30
0.0
 10
54.816151
 20
8.955642
 30
0.0
 10
55.079123
 20
9.246219
 30
0.0
  0
SPLINE
  5
1bb
100
AcDbEntity
  8
Layer_1
 62
7
100
AcDbSpline
 70
8
 71
3
 72
8
 73
4
 74
0
 40
0
 40
0
 40
0
 40
0
 40
1
 40
1
 40
1
 40
1
 10
55.079123
 20
9.246219
 30
0.0
 10
55.228705
 20
9.411505
 30
0.0
 10
55.732315
 20
9.733960
 30
0.0
 10
56.198257
 20
9.962786
 30
0.0
  0
SPLINE
  5
1bc
100
AcDbEntity
  8
Layer_1
 62
7
100
AcDbSpline
 70
8
 71
3
 72
8
 73
4
 74
0
 40
0
 40
0
 40
0
 40
0
 40
1
 40
1
 40
1
 40
1
 10
56.198257
 20
9.962786
 30
0.0
 10
56.922096
 20
10.318266
 30
0.0
 10
57.232911
 20
10.378523
 30
0.0
 10
58.333303
 20
10.376707
 30
0.0
  0
SPLINE
  5
1bd
100
AcDbEntity
  8
Layer_1
 62
7
100
AcDbSpline
 70
8
 71
3
 72
8
 73
4
 74
0
 40
0
 40
0
 40
0
 40
0
 40
1
 40
1
 40
1
 40
1
 10
58.333303
 20
10.376707
 30
0.0
 10
59.444258
 20
10.374907
 30
0.0
 10
59.725254
 20
10.318137
 30
0.0
 10
60.378756
 20
9.963691
 30
0.0
  0
SPLINE
  5
1be
100
AcDbEntity
  8
Layer_1
 62
7
100
AcDbSpline
 70
8
 71
3
 72
8
 73
4
 74
0
 40
0
 40
0
 40
0
 40
0
 40
1
 40
1
 40
1
 40
1
 10
60.378756
 20
9.963691
 30
0.0
 10
61.756640
 20
9.216360
 30
0.0
 10
61.884316
 20
9.031888
 30
0.0
 10
61.355129
 20
8.552981
 30
0.0
  0
SPLINE
  5
1bf
100
AcDbEntity
  8
Layer_1
 62
7
100
AcDbSpline
 70
8
 71
3
 72
8
 73
4
 74
0
 40
0
 40
0
 40
0
 40
0
 40
1
 40
1
 40
1
 40
1
 10
61.355129
 20
8.552981
 30
0.0
 10
61.080680
 20
8.304609
 30
0.0
 10
61.004076
 20
8.296218
 30
0.0
 10
60.711190
 20
8.482451
 30
0.0
  0
SPLINE
  5
1c0
100
AcDbEntity
  8
Layer_1
 62
7
100
AcDbSpline
 70
8
 71
3
 72
8
 73
4
 74
0
 40
0
 40
0
 40
0
 40
0
 40
1
 40
1
 40
1
 40
1
 10
60.711190
 20
8.482451
 30
0.0
 10
59.807651
 20
9.056961
 30
0.0
 10
59.217634
 20
9.242335
 30
0.0
 10
58.302744
 20
9.239145
 30
0.0
  0
SPLINE
  5
1c1
100
AcDbEntity
  8
Layer_1
 62
7
100
AcDbSpline
 70
8
 71
3
 72
8
 73
4
 74
0
 40
0
 40
0
 40
0
 40
0
 40
1
 40
1
 40
1
 40
1
 10
58.302744
 20
9.239145
 30
0.0
 10
57.365261
 20
9.235845
 30
0.0
 10
56.223110
 20
8.870458
 30
0.0
 10
55.994569
 20
8.500673
 30
0.0
  0
SPLINE
  5
1c2
100
AcDbEntity
  8
Layer_1
 62
7
100
AcDbSpline
 70
8
 71
3
 72
8
 73
4
 74
0
 40
0
 40
0
 40
0
 40
0
 40
1
 40
1
 40
1
 40
1
 10
55.994569
 20
8.500673
 30
0.0
 10
55.843880
 20
8.256852
 30
0.0
 10
55.578808
 20
8.303042
 30
0.0
 10
55.168715
 20
8.644582
 30
0.0
  0
LWPOLYLINE
  5
1c3
100
AcDbEntity
  8
Layer_1
 62
7
100
AcDbPolyline
 90
1
 70
1
 10
62.310568
 20
3.300856
 30
0.0
  0
SPLINE
  5
1c4
100
AcDbEntity
  8
Layer_1
 62
7
100
AcDbSpline
 70
8
 71
3
 72
8
 73
4
 74
0
 40
0
 40
0
 40
0
 40
0
 40
1
 40
1
 40
1
 40
1
 10
7.334812
 20
9.810606
 30
0.0
 10
7.492089
 20
10.316036
 30
0.0
 10
7.207364
 20
10.503666
 30
0.0
 10
6.418103
 20
10.414705
 30
0.0
  0
SPLINE
  5
1c5
100
AcDbEntity
  8
Layer_1
 62
7
100
AcDbSpline
 70
8
 71
3
 72
8
 73
4
 74
0
 40
0
 40
0
 40
0
 40
0
 40
1
 40
1
 40
1
 40
1
 10
6.418103
 20
10.414705
 30
0.0
 10
6.014162
 20
10.369175
 30
0.0
 10
5.563930
 20
10.396005
 30
0.0
 10
5.417588
 20
10.474325
 30
0.0
  0
SPLINE
  5
1c6
100
AcDbEntity
  8
Layer_1
 62
7
100
AcDbSpline
 70
8
 71
3
 72
8
 73
4
 74
0
 40
0
 40
0
 40
0
 40
0
 40
1
 40
1
 40
1
 40
1
 10
5.417588
 20
10.474325
 30
0.0
 10
5.092597
 20
10.648255
 30
0.0
 10
5.065306
 20
11.060608
 30
0.0
 10
5.378788
 20
11.060608
 30
0.0
  0
SPLINE
  5
1c7
100
AcDbEntity
  8
Layer_1
 62
7
100
AcDbSpline
 70
8
 71
3
 72
8
 73
4
 74
0
 40
0
 40
0
 40
0
 40
0
 40
1
 40
1
 40
1
 40
1
 10
5.378788
 20
11.060608
 30
0.0
 10
5.557498
 20
11.060608
 30
0.0
 10
5.606060
 20
11.271046
 30
0.0
 10
5.606060
 20
12.045457
 30
0.0
  0
LWPOLYLINE
  5
1c8
100
AcDbEntity
  8
Layer_1
 62
7
100
AcDbPolyline
 90
1
 70
1
 10
55.168715
 20
8.644582
 30
0.0
  0
SPLINE
  5
1c9
100
AcDbEntity
  8
Layer_1
 62
7
100
AcDbSpline
 70
8
 71
3
 72
8
 73
4
 74
0
 40
0
 40
0
 40
0
 40
0
 40
1
 40
1
 40
1
 40
1
 10
3.939395
 20
12.100039
 30
0.0
 10
3.939395
 20
11.432462
 30
0.0
 10
4.006075
 20
11.121012
 30
0.0
 10
4.175545
 20
10.997095
 30
0.0
  0
SPLINE
  5
1ca
100
AcDbEntity
  8
Layer_1
 62
7
100
AcDbSpline
 70
8
 71
3
 72
8
 73
4
 74
0
 40
0
 40
0
 40
0
 40
0
 40
1
 40
1
 40
1
 40
1
 10
4.175545
 20
10.997095
 30
0.0
 10
4.385648
 20
10.843464
 30
0.0
 10
4.376469
 20
10.783800
 30
0.0
 10
4.092325
 20
10.456181
 30
0.0
  0
SPLINE
  5
1cb
100
AcDbEntity
  8
Layer_1
 62
7
100
AcDbSpline
 70
8
 71
3
 72
8
 73
4
 74
0
 40
0
 40
0
 40
0
 40
0
 40
1
 40
1
 40
1
 40
1
 10
4.092325
 20
10.456181
 30
0.0
 10
3.820963
 20
10.143297
 30
0.0
 10
3.728835
 20
10.115498
 30
0.0
 10
3.479443
 20
10.271246
 30
0.0
  0
SPLINE
  5
1cc
100
AcDbEntity
  8
Layer_1
 62
7
100
AcDbSpline
 70
8
 71
3
 72
8
 73
4
 74
0
 40
0
 40
0
 40
0
 40
0
 40
1
 40
1
 40
1
 40
1
 10
3.479443
 20
10.271246
 30
0.0
 10
3.318011
 20
10.372062
 30
0.0
 10
2.980460
 20
10.454547
 30
0.0
 10
2.729329
 20
10.454547
 30
0.0
  0
SPLINE
  5
1cd
100
AcDbEntity
  8
Layer_1
 62
7
100
AcDbSpline
 70
8
 71
3
 72
8
 73
4
 74
0
 40
0
 40
0
 40
0
 40
0
 40
1
 40
1
 40
1
 40
1
 10
2.729329
 20
10.454547
 30
0.0
 10
2.373738
 20
10.454547
 30
0.0
 10
2.272728
 20
10.387507
 30
0.0
 10
2.272728
 20
10.151517
 30
0.0
  0
SPLINE
  5
1ce
100
AcDbEntity
  8
Layer_1
 62
7
100
AcDbSpline
 70
8
 71
3
 72
8
 73
4
 74
0
 40
0
 40
0
 40
0
 40
0
 40
1
 40
1
 40
1
 40
1
 10
2.272728
 20
10.151517
 30
0.0
 10
2.272728
 20
9.949497
 30
0.0
 10
2.171718
 20
9.848487
 30
0.0
 10
1.969698
 20
9.848487
 30
0.0
  0
SPLINE
  5
1cf
100
AcDbEntity
  8
Layer_1
 62
7
100
AcDbSpline
 70
8
 71
3
 72
8
 73
4
 74
0
 40
0
 40
0
 40
0
 40
0
 40
1
 40
1
 40
1
 40
1
 10
1.969698
 20
9.848487
 30
0.0
 10
1.615337
 20
9.848487
 30
0.0
 10
1.635405
 20
9.600212
 30
0.0
 10
1.665811
 20
13.607983
 30
0.0
  0
SPLINE
  5
1d0
100
AcDbEntity
  8
Layer_1
 62
7
100
AcDbSpline
 70
8
 71
3
 72
8
 73
4
 74
0
 40
0
 40
0
 40
0
 40
0
 40
1
 40
1
 40
1
 40
1
 10
1.665811
 20
13.607983
 30
0.0
 10
1.680831
 20
15.587849
 30
0.0
 10
1.632751
 20
16.600733
 30
0.0
 10
1.517125
 20
16.740049
 30
0.0
  0
SPLINE
  5
1d1
100
AcDbEntity
  8
Layer_1
 62
7
100
AcDbSpline
 70
8
 71
3
 72
8
 73
4
 74
0
 40
0
 40
0
 40
0
 40
0
 40
1
 40
1
 40
1
 40
1
 10
1.517125
 20
16.740049
 30
0.0
 10
1.400886
 20
16.880110
 30
0.0
 10
1.393936
 20
17.034540
 30
0.0
 10
1.495395
 20
17.222978
 30
0.0
  0
SPLINE
  5
1d2
100
AcDbEntity
  8
Layer_1
 62
7
100
AcDbSpline
 70
8
 71
3
 72
8
 73
4
 74
0
 40
0
 40
0
 40
0
 40
0
 40
1
 40
1
 40
1
 40
1
 10
1.495395
 20
17.222978
 30
0.0
 10
1.577425
 20
17.375341
 30
0.0
 10
1.683652
 20
17.624990
 30
0.0
 10
1.731446
 20
17.777753
 30
0.0
  0
SPLINE
  5
1d3
100
AcDbEntity
  8
Layer_1
 62
7
100
AcDbSpline
 70
8
 71
3
 72
8
 73
4
 74
0
 40
0
 40
0
 40
0
 40
0
 40
1
 40
1
 40
1
 40
1
 10
1.731446
 20
17.777753
 30
0.0
 10
1.844692
 20
18.139722
 30
0.0
 10
2.183292
 20
18.023779
 30
0.0
 10
2.245388
 20
17.601770
 30
0.0
  0
SPLINE
  5
1d4
100
AcDbEntity
  8
Layer_1
 62
7
100
AcDbSpline
 70
8
 71
3
 72
8
 73
4
 74
0
 40
0
 40
0
 40
0
 40
0
 40
1
 40
1
 40
1
 40
1
 10
2.245388
 20
17.601770
 30
0.0
 10
2.283938
 20
17.339775
 30
0.0
 10
2.396409
 20
17.272729
 30
0.0
 10
2.797359
 20
17.272729
 30
0.0
  0
SPLINE
  5
1d5
100
AcDbEntity
  8
Layer_1
 62
7
100
AcDbSpline
 70
8
 71
3
 72
8
 73
4
 74
0
 40
0
 40
0
 40
0
 40
0
 40
1
 40
1
 40
1
 40
1
 10
2.797359
 20
17.272729
 30
0.0
 10
3.105192
 20
17.272729
 30
0.0
 10
3.334811
 20
17.361069
 30
0.0
 10
3.388126
 20
17.500002
 30
0.0
  0
SPLINE
  5
1d6
100
AcDbEntity
  8
Layer_1
 62
7
100
AcDbSpline
 70
8
 71
3
 72
8
 73
4
 74
0
 40
0
 40
0
 40
0
 40
0
 40
1
 40
1
 40
1
 40
1
 10
3.388126
 20
17.500002
 30
0.0
 10
3.498803
 20
17.788422
 30
0.0
 10
3.939395
 20
17.798513
 30
0.0
 10
3.939395
 20
17.512632
 30
0.0
  0
SPLINE
  5
1d7
100
AcDbEntity
  8
Layer_1
 62
7
100
AcDbSpline
 70
8
 71
3
 72
8
 73
4
 74
0
 40
0
 40
0
 40
0
 40
0
 40
1
 40
1
 40
1
 40
1
 10
3.939395
 20
17.512632
 30
0.0
 10
3.939395
 20
17.394577
 30
0.0
 10
4.024625
 20
17.267121
 30
0.0
 10
4.128789
 20
17.229398
 30
0.0
  0
SPLINE
  5
1d8
100
AcDbEntity
  8
Layer_1
 62
7
100
AcDbSpline
 70
8
 71
3
 72
8
 73
4
 74
0
 40
0
 40
0
 40
0
 40
0
 40
1
 40
1
 40
1
 40
1
 10
4.128789
 20
17.229398
 30
0.0
 10
4.280304
 20
17.174528
 30
0.0
 10
4.280304
 20
17.096656
 30
0.0
 10
4.128789
 20
16.840040
 30
0.0
  0
SPLINE
  5
1d9
100
AcDbEntity
  8
Layer_1
 62
7
100
AcDbSpline
 70
8
 71
3
 72
8
 73
4
 74
0
 40
0
 40
0
 40
0
 40
0
 40
1
 40
1
 40
1
 40
1
 10
4.128789
 20
16.840040
 30
0.0
 10
4.024622
 20
16.663616
 30
0.0
 10
3.939395
 20
16.177435
 30
0.0
 10
3.939395
 20
15.759638
 30
0.0
  0
LWPOLYLINE
  5
1da
100
AcDbEntity
  8
Layer_1
 62
7
100
AcDbPolyline
 90
5
 70
0
 10
5.606060
 20
12.045457
 30
0.0
 10
5.606060
 20
13.030305
 30
0.0
 10
4.772728
 20
13.030305
 30
0.0
 10
3.939395
 20
13.030305
 30
0.0
 10
3.939395
 20
12.100039
 30
0.0
  0
SPLINE
  5
1db
100
AcDbEntity
  8
Layer_1
 62
7
100
AcDbSpline
 70
8
 71
3
 72
8
 73
4
 74
0
 40
0
 40
0
 40
0
 40
0
 40
1
 40
1
 40
1
 40
1
 10
5.606060
 20
15.833339
 30
0.0
 10
5.606060
 20
16.291673
 30
0.0
 10
5.537880
 20
16.666673
 30
0.0
 10
5.454545
 20
16.666673
 30
0.0
  0
SPLINE
  5
1dc
100
AcDbEntity
  8
Layer_1
 62
7
100
AcDbSpline
 70
8
 71
3
 72
8
 73
4
 74
0
 40
0
 40
0
 40
0
 40
0
 40
1
 40
1
 40
1
 40
1
 10
5.454545
 20
16.666673
 30
0.0
 10
5.371215
 20
16.666673
 30
0.0
 10
5.303030
 20
16.803036
 30
0.0
 10
5.303030
 20
16.969703
 30
0.0
  0
SPLINE
  5
1dd
100
AcDbEntity
  8
Layer_1
 62
7
100
AcDbSpline
 70
8
 71
3
 72
8
 73
4
 74
0
 40
0
 40
0
 40
0
 40
0
 40
1
 40
1
 40
1
 40
1
 10
5.303030
 20
16.969703
 30
0.0
 10
5.303030
 20
17.136370
 30
0.0
 10
5.371210
 20
17.272733
 30
0.0
 10
5.454545
 20
17.272733
 30
0.0
  0
SPLINE
  5
1de
100
AcDbEntity
  8
Layer_1
 62
7
100
AcDbSpline
 70
8
 71
3
 72
8
 73
4
 74
0
 40
0
 40
0
 40
0
 40
0
 40
1
 40
1
 40
1
 40
1
 10
5.454545
 20
17.272733
 30
0.0
 10
5.537875
 20
17.272733
 30
0.0
 10
5.606060
 20
17.482278
 30
0.0
 10
5.606060
 20
17.738388
 30
0.0
  0
SPLINE
  5
1df
100
AcDbEntity
  8
Layer_1
 62
7
100
AcDbSpline
 70
8
 71
3
 72
8
 73
4
 74
0
 40
0
 40
0
 40
0
 40
0
 40
1
 40
1
 40
1
 40
1
 10
5.606060
 20
17.738388
 30
0.0
 10
5.606060
 20
18.100015
 30
0.0
 10
5.665300
 20
18.192810
 30
0.0
 10
5.871212
 20
18.153760
 30
0.0
  0
SPLINE
  5
1e0
100
AcDbEntity
  8
Layer_1
 62
7
100
AcDbSpline
 70
8
 71
3
 72
8
 73
4
 74
0
 40
0
 40
0
 40
0
 40
0
 40
1
 40
1
 40
1
 40
1
 10
5.871212
 20
18.153760
 30
0.0
 10
6.031133
 20
18.123430
 30
0.0
 10
6.155390
 20
17.938627
 30
0.0
 10
6.184306
 20
17.688104
 30
0.0
  0
SPLINE
  5
1e1
100
AcDbEntity
  8
Layer_1
 62
7
100
AcDbSpline
 70
8
 71
3
 72
8
 73
4
 74
0
 40
0
 40
0
 40
0
 40
0
 40
1
 40
1
 40
1
 40
1
 10
6.184306
 20
17.688104
 30
0.0
 10
6.224966
 20
17.335788
 30
0.0
 10
6.302937
 20
17.272733
 30
0.0
 10
6.697905
 20
17.272733
 30
0.0
  0
SPLINE
  5
1e2
100
AcDbEntity
  8
Layer_1
 62
7
100
AcDbSpline
 70
8
 71
3
 72
8
 73
4
 74
0
 40
0
 40
0
 40
0
 40
0
 40
1
 40
1
 40
1
 40
1
 10
6.697905
 20
17.272733
 30
0.0
 10
6.965909
 20
17.272733
 30
0.0
 10
7.246536
 20
17.385280
 30
0.0
 10
7.359043
 20
17.537885
 30
0.0
  0
SPLINE
  5
1e3
100
AcDbEntity
  8
Layer_1
 62
7
100
AcDbSpline
 70
8
 71
3
 72
8
 73
4
 74
0
 40
0
 40
0
 40
0
 40
0
 40
1
 40
1
 40
1
 40
1
 10
7.359043
 20
17.537885
 30
0.0
 10
7.542790
 20
17.787122
 30
0.0
 10
7.573349
 20
17.782955
 30
0.0
 10
7.868170
 20
17.468465
 30
0.0
  0
SPLINE
  5
1e4
100
AcDbEntity
  8
Layer_1
 62
7
100
AcDbSpline
 70
8
 71
3
 72
8
 73
4
 74
0
 40
0
 40
0
 40
0
 40
0
 40
1
 40
1
 40
1
 40
1
 10
7.868170
 20
17.468465
 30
0.0
 10
8.204895
 20
17.109273
 30
0.0
 10
8.278540
 20
16.724168
 30
0.0
 10
8.026566
 20
16.640177
 30
0.0
  0
SPLINE
  5
1e5
100
AcDbEntity
  8
Layer_1
 62
7
100
AcDbSpline
 70
8
 71
3
 72
8
 73
4
 74
0
 40
0
 40
0
 40
0
 40
0
 40
1
 40
1
 40
1
 40
1
 10
8.026566
 20
16.640177
 30
0.0
 10
7.926430
 20
16.606797
 30
0.0
 10
7.886089
 20
15.665208
 30
0.0
 10
7.912930
 20
13.987805
 30
0.0
  0
LWPOLYLINE
  5
1e6
100
AcDbEntity
  8
Layer_1
 62
7
100
AcDbPolyline
 90
5
 70
0
 10
3.939395
 20
15.759638
 30
0.0
 10
3.939395
 20
15.000006
 30
0.0
 10
4.772728
 20
15.000006
 30
0.0
 10
5.606060
 20
15.000006
 30
0.0
 10
5.606060
 20
15.833339
 30
0.0
  0
SPLINE
  5
1e7
100
AcDbEntity
  8
Layer_1
 62
7
100
AcDbSpline
 70
8
 71
3
 72
8
 73
4
 74
0
 40
0
 40
0
 40
0
 40
0
 40
1
 40
1
 40
1
 40
1
 10
8.965085
 20
13.989050
 30
0.0
 10
9.785926
 20
16.102484
 30
0.0
 10
9.935252
 20
16.613663
 30
0.0
 10
9.760539
 20
16.712082
 30
0.0
  0
SPLINE
  5
1e8
100
AcDbEntity
  8
Layer_1
 62
7
100
AcDbSpline
 70
8
 71
3
 72
8
 73
4
 74
0
 40
0
 40
0
 40
0
 40
0
 40
1
 40
1
 40
1
 40
1
 10
9.760539
 20
16.712082
 30
0.0
 10
9.642239
 20
16.778722
 30
0.0
 10
9.545448
 20
16.932132
 30
0.0
 10
9.545448
 20
17.052991
 30
0.0
  0
SPLINE
  5
1e9
100
AcDbEntity
  8
Layer_1
 62
7
100
AcDbSpline
 70
8
 71
3
 72
8
 73
4
 74
0
 40
0
 40
0
 40
0
 40
0
 40
1
 40
1
 40
1
 40
1
 10
9.545448
 20
17.052991
 30
0.0
 10
9.545448
 20
17.223951
 30
0.0
 10
9.779853
 20
17.272735
 30
0.0
 10
10.601298
 20
17.272735
 30
0.0
  0
SPLINE
  5
1ea
100
AcDbEntity
  8
Layer_1
 62
7
100
AcDbSpline
 70
8
 71
3
 72
8
 73
4
 74
0
 40
0
 40
0
 40
0
 40
0
 40
1
 40
1
 40
1
 40
1
 10
10.601298
 20
17.272735
 30
0.0
 10
11.477583
 20
17.272735
 30
0.0
 10
11.642317
 20
17.311385
 30
0.0
 10
11.569936
 20
17.500008
 30
0.0
  0
SPLINE
  5
1eb
100
AcDbEntity
  8
Layer_1
 62
7
100
AcDbSpline
 70
8
 71
3
 72
8
 73
4
 74
0
 40
0
 40
0
 40
0
 40
0
 40
1
 40
1
 40
1
 40
1
 10
11.569936
 20
17.500008
 30
0.0
 10
11.509166
 20
17.658363
 30
0.0
 10
11.580976
 20
17.727281
 30
0.0
 10
11.806719
 20
17.727281
 30
0.0
  0
SPLINE
  5
1ec
100
AcDbEntity
  8
Layer_1
 62
7
100
AcDbSpline
 70
8
 71
3
 72
8
 73
4
 74
0
 40
0
 40
0
 40
0
 40
0
 40
1
 40
1
 40
1
 40
1
 10
11.806719
 20
17.727281
 30
0.0
 10
11.984917
 20
17.727281
 30
0.0
 10
12.169961
 20
17.625008
 30
0.0
 10
12.217928
 20
17.500008
 30
0.0
  0
SPLINE
  5
1ed
100
AcDbEntity
  8
Layer_1
 62
7
100
AcDbSpline
 70
8
 71
3
 72
8
 73
4
 74
0
 40
0
 40
0
 40
0
 40
0
 40
1
 40
1
 40
1
 40
1
 10
12.217928
 20
17.500008
 30
0.0
 10
12.274788
 20
17.351843
 30
0.0
 10
12.510450
 20
17.272735
 30
0.0
 10
12.894990
 20
17.272735
 30
0.0
  0
SPLINE
  5
1ee
100
AcDbEntity
  8
Layer_1
 62
7
100
AcDbSpline
 70
8
 71
3
 72
8
 73
4
 74
0
 40
0
 40
0
 40
0
 40
0
 40
1
 40
1
 40
1
 40
1
 10
12.894990
 20
17.272735
 30
0.0
 10
13.383830
 20
17.272735
 30
0.0
 10
13.484840
 20
17.220845
 30
0.0
 10
13.484840
 20
16.969705
 30
0.0
  0
SPLINE
  5
1ef
100
AcDbEntity
  8
Layer_1
 62
7
100
AcDbSpline
 70
8
 71
3
 72
8
 73
4
 74
0
 40
0
 40
0
 40
0
 40
0
 40
1
 40
1
 40
1
 40
1
 10
13.484840
 20
16.969705
 30
0.0
 10
13.484840
 20
16.731696
 30
0.0
 10
13.383830
 20
16.666675
 30
0.0
 10
13.014084
 20
16.666675
 30
0.0
  0
SPLINE
  5
1f0
100
AcDbEntity
  8
Layer_1
 62
7
100
AcDbSpline
 70
8
 71
3
 72
8
 73
4
 74
0
 40
0
 40
0
 40
0
 40
0
 40
1
 40
1
 40
1
 40
1
 10
13.014084
 20
16.666675
 30
0.0
 10
12.629543
 20
16.666675
 30
0.0
 10
12.561219
 20
16.618115
 30
0.0
 10
12.641013
 20
16.401523
 30
0.0
  0
SPLINE
  5
1f1
100
AcDbEntity
  8
Layer_1
 62
7
100
AcDbSpline
 70
8
 71
3
 72
8
 73
4
 74
0
 40
0
 40
0
 40
0
 40
0
 40
1
 40
1
 40
1
 40
1
 10
12.641013
 20
16.401523
 30
0.0
 10
13.342191
 20
14.498253
 30
0.0
 10
14.626652
 20
11.255211
 30
0.0
 10
14.723363
 20
11.143947
 30
0.0
  0
SPLINE
  5
1f2
100
AcDbEntity
  8
Layer_1
 62
7
100
AcDbSpline
 70
8
 71
3
 72
8
 73
4
 74
0
 40
0
 40
0
 40
0
 40
0
 40
1
 40
1
 40
1
 40
1
 10
14.723363
 20
11.143947
 30
0.0
 10
14.792173
 20
11.064777
 30
0.0
 10
14.848476
 20
12.267713
 30
0.0
 10
14.848476
 20
13.817131
 30
0.0
  0
SPLINE
  5
1f3
100
AcDbEntity
  8
Layer_1
 62
7
100
AcDbSpline
 70
8
 71
3
 72
8
 73
4
 74
0
 40
0
 40
0
 40
0
 40
0
 40
1
 40
1
 40
1
 40
1
 10
14.848476
 20
13.817131
 30
0.0
 10
14.848476
 20
16.181469
 30
0.0
 10
14.811946
 20
16.648271
 30
0.0
 10
14.621203
 20
16.721466
 30
0.0
  0
SPLINE
  5
1f4
100
AcDbEntity
  8
Layer_1
 62
7
100
AcDbSpline
 70
8
 71
3
 72
8
 73
4
 74
0
 40
0
 40
0
 40
0
 40
0
 40
1
 40
1
 40
1
 40
1
 10
14.621203
 20
16.721466
 30
0.0
 10
14.356505
 20
16.823041
 30
0.0
 10
14.311980
 20
17.272735
 30
0.0
 10
14.566623
 20
17.272735
 30
0.0
  0
SPLINE
  5
1f5
100
AcDbEntity
  8
Layer_1
 62
7
100
AcDbSpline
 70
8
 71
3
 72
8
 73
4
 74
0
 40
0
 40
0
 40
0
 40
0
 40
1
 40
1
 40
1
 40
1
 10
14.566623
 20
17.272735
 30
0.0
 10
14.661603
 20
17.272735
 30
0.0
 10
14.832057
 20
17.392053
 30
0.0
 10
14.945410
 20
17.537887
 30
0.0
  0
SPLINE
  5
1f6
100
AcDbEntity
  8
Layer_1
 62
7
100
AcDbSpline
 70
8
 71
3
 72
8
 73
4
 74
0
 40
0
 40
0
 40
0
 40
0
 40
1
 40
1
 40
1
 40
1
 10
14.945410
 20
17.537887
 30
0.0
 10
15.135620
 20
17.782598
 30
0.0
 10
15.166446
 20
17.783896
 30
0.0
 10
15.345296
 20
17.554727
 30
0.0
  0
SPLINE
  5
1f7
100
AcDbEntity
  8
Layer_1
 62
7
100
AcDbSpline
 70
8
 71
3
 72
8
 73
4
 74
0
 40
0
 40
0
 40
0
 40
0
 40
1
 40
1
 40
1
 40
1
 10
15.345296
 20
17.554727
 30
0.0
 10
15.494006
 20
17.364170
 30
0.0
 10
15.802386
 20
17.306321
 30
0.0
 10
16.671052
 20
17.306027
 30
0.0
  0
SPLINE
  5
1f8
100
AcDbEntity
  8
Layer_1
 62
7
100
AcDbSpline
 70
8
 71
3
 72
8
 73
4
 74
0
 40
0
 40
0
 40
0
 40
0
 40
1
 40
1
 40
1
 40
1
 10
16.671052
 20
17.306027
 30
0.0
 10
18.129588
 20
17.305527
 30
0.0
 10
18.925047
 20
17.083646
 30
0.0
 10
19.456339
 20
16.529098
 30
0.0
  0
SPLINE
  5
1f9
100
AcDbEntity
  8
Layer_1
 62
7
100
AcDbSpline
 70
8
 71
3
 72
8
 73
4
 74
0
 40
0
 40
0
 40
0
 40
0
 40
1
 40
1
 40
1
 40
1
 10
19.456339
 20
16.529098
 30
0.0
 10
20.220234
 20
15.731762
 30
0.0
 10
20.146850
 20
14.163770
 30
0.0
 10
19.315016
 20
13.509448
 30
0.0
  0
LWPOLYLINE
  5
1fa
100
AcDbEntity
  8
Layer_1
 62
7
100
AcDbPolyline
 90
3
 70
0
 10
7.912930
 20
13.987805
 30
0.0
 10
7.954540
 20
11.387183
 30
0.0
 10
8.965085
 20
13.989050
 30
0.0
  0
SPLINE
  5
1fb
100
AcDbEntity
  8
Layer_1
 62
7
100
AcDbSpline
 70
8
 71
3
 72
8
 73
4
 74
0
 40
0
 40
0
 40
0
 40
0
 40
1
 40
1
 40
1
 40
1
 10
20.571813
 20
13.870041
 30
0.0
 10
20.598643
 20
15.626783
 30
0.0
 10
20.558453
 20
16.606789
 30
0.0
 10
20.458177
 20
16.640212
 30
0.0
  0
SPLINE
  5
1fc
100
AcDbEntity
  8
Layer_1
 62
7
100
AcDbSpline
 70
8
 71
3
 72
8
 73
4
 74
0
 40
0
 40
0
 40
0
 40
0
 40
1
 40
1
 40
1
 40
1
 10
20.458177
 20
16.640212
 30
0.0
 10
20.264415
 20
16.704802
 30
0.0
 10
20.251680
 20
17.272740
 30
0.0
 10
20.443997
 20
17.272740
 30
0.0
  0
SPLINE
  5
1fd
100
AcDbEntity
  8
Layer_1
 62
7
100
AcDbSpline
 70
8
 71
3
 72
8
 73
4
 74
0
 40
0
 40
0
 40
0
 40
0
 40
1
 40
1
 40
1
 40
1
 10
20.443997
 20
17.272740
 30
0.0
 10
20.521537
 20
17.272740
 30
0.0
 10
20.606762
 20
17.426149
 30
0.0
 10
20.633391
 20
17.613649
 30
0.0
  0
SPLINE
  5
1fe
100
AcDbEntity
  8
Layer_1
 62
7
100
AcDbSpline
 70
8
 71
3
 72
8
 73
4
 74
0
 40
0
 40
0
 40
0
 40
0
 40
1
 40
1
 40
1
 40
1
 10
20.633391
 20
17.613649
 30
0.0
 10
20.660021
 20
17.801149
 30
0.0
 10
20.784080
 20
17.954558
 30
0.0
 10
20.909080
 20
17.954558
 30
0.0
  0
SPLINE
  5
1ff
100
AcDbEntity
  8
Layer_1
 62
7
100
AcDbSpline
 70
8
 71
3
 72
8
 73
4
 74
0
 40
0
 40
0
 40
0
 40
0
 40
1
 40
1
 40
1
 40
1
 10
20.909080
 20
17.954558
 30
0.0
 10
21.034080
 20
17.954558
 30
0.0
 10
21.158141
 20
17.801149
 30
0.0
 10
21.184770
 20
17.613649
 30
0.0
  0
SPLINE
  5
200
100
AcDbEntity
  8
Layer_1
 62
7
100
AcDbSpline
 70
8
 71
3
 72
8
 73
4
 74
0
 40
0
 40
0
 40
0
 40
0
 40
1
 40
1
 40
1
 40
1
 10
21.184770
 20
17.613649
 30
0.0
 10
21.230220
 20
17.293609
 30
0.0
 10
21.305057
 20
17.272740
 30
0.0
 10
22.407269
 20
17.272740
 30
0.0
  0
SPLINE
  5
201
100
AcDbEntity
  8
Layer_1
 62
7
100
AcDbSpline
 70
8
 71
3
 72
8
 73
4
 74
0
 40
0
 40
0
 40
0
 40
0
 40
1
 40
1
 40
1
 40
1
 10
22.407269
 20
17.272740
 30
0.0
 10
23.966097
 20
17.272740
 30
0.0
 10
24.998928
 20
16.951197
 30
0.0
 10
25.757258
 20
16.229815
 30
0.0
  0
SPLINE
  5
202
100
AcDbEntity
  8
Layer_1
 62
7
100
AcDbSpline
 70
8
 71
3
 72
8
 73
4
 74
0
 40
0
 40
0
 40
0
 40
0
 40
1
 40
1
 40
1
 40
1
 10
25.757258
 20
16.229815
 30
0.0
 10
26.090759
 20
15.912563
 30
0.0
 10
26.363623
 20
15.666353
 30
0.0
 10
26.363623
 20
15.682682
 30
0.0
  0
SPLINE
  5
203
100
AcDbEntity
  8
Layer_1
 62
7
100
AcDbSpline
 70
8
 71
3
 72
8
 73
4
 74
0
 40
0
 40
0
 40
0
 40
0
 40
1
 40
1
 40
1
 40
1
 10
26.363623
 20
15.682682
 30
0.0
 10
26.363623
 20
15.934179
 30
0.0
 10
25.985588
 20
16.663041
 30
0.0
 10
25.822732
 20
16.725534
 30
0.0
  0
SPLINE
  5
204
100
AcDbEntity
  8
Layer_1
 62
7
100
AcDbSpline
 70
8
 71
3
 72
8
 73
4
 74
0
 40
0
 40
0
 40
0
 40
0
 40
1
 40
1
 40
1
 40
1
 10
25.822732
 20
16.725534
 30
0.0
 10
25.578200
 20
16.819374
 30
0.0
 10
25.524205
 20
17.272740
 30
0.0
 10
25.757562
 20
17.272740
 30
0.0
  0
SPLINE
  5
205
100
AcDbEntity
  8
Layer_1
 62
7
100
AcDbSpline
 70
8
 71
3
 72
8
 73
4
 74
0
 40
0
 40
0
 40
0
 40
0
 40
1
 40
1
 40
1
 40
1
 10
25.757562
 20
17.272740
 30
0.0
 10
25.840892
 20
17.272740
 30
0.0
 10
25.892032
 20
17.353920
 30
0.0
 10
25.871199
 20
17.453136
 30
0.0
  0
SPLINE
  5
206
100
AcDbEntity
  8
Layer_1
 62
7
100
AcDbSpline
 70
8
 71
3
 72
8
 73
4
 74
0
 40
0
 40
0
 40
0
 40
0
 40
1
 40
1
 40
1
 40
1
 10
25.871199
 20
17.453136
 30
0.0
 10
25.850369
 20
17.552356
 30
0.0
 10
25.952639
 20
17.659625
 30
0.0
 10
26.098471
 20
17.691518
 30
0.0
  0
SPLINE
  5
207
100
AcDbEntity
  8
Layer_1
 62
7
100
AcDbSpline
 70
8
 71
3
 72
8
 73
4
 74
0
 40
0
 40
0
 40
0
 40
0
 40
1
 40
1
 40
1
 40
1
 10
26.098471
 20
17.691518
 30
0.0
 10
26.270503
 20
17.729138
 30
0.0
 10
26.363623
 20
17.658208
 30
0.0
 10
26.363623
 20
17.489538
 30
0.0
  0
SPLINE
  5
208
100
AcDbEntity
  8
Layer_1
 62
7
100
AcDbSpline
 70
8
 71
3
 72
8
 73
4
 74
0
 40
0
 40
0
 40
0
 40
0
 40
1
 40
1
 40
1
 40
1
 10
26.363623
 20
17.489538
 30
0.0
 10
26.363623
 20
17.263473
 30
0.0
 10
26.477373
 20
17.241461
 30
0.0
 10
27.235880
 20
17.320741
 30
0.0
  0
SPLINE
  5
209
100
AcDbEntity
  8
Layer_1
 62
7
100
AcDbSpline
 70
8
 71
3
 72
8
 73
4
 74
0
 40
0
 40
0
 40
0
 40
0
 40
1
 40
1
 40
1
 40
1
 10
27.235880
 20
17.320741
 30
0.0
 10
28.246458
 20
17.426367
 30
0.0
 10
28.497694
 20
17.320983
 30
0.0
 10
28.456305
 20
16.808843
 30
0.0
  0
SPLINE
  5
20a
100
AcDbEntity
  8
Layer_1
 62
7
100
AcDbSpline
 70
8
 71
3
 72
8
 73
4
 74
0
 40
0
 40
0
 40
0
 40
0
 40
1
 40
1
 40
1
 40
1
 10
28.456305
 20
16.808843
 30
0.0
 10
28.422345
 20
16.388611
 30
0.0
 10
28.950558
 20
14.242437
 30
0.0
 10
29.087945
 20
14.242437
 30
0.0
  0
SPLINE
  5
20b
100
AcDbEntity
  8
Layer_1
 62
7
100
AcDbSpline
 70
8
 71
3
 72
8
 73
4
 74
0
 40
0
 40
0
 40
0
 40
0
 40
1
 40
1
 40
1
 40
1
 10
29.087945
 20
14.242437
 30
0.0
 10
29.137535
 20
14.242437
 30
0.0
 10
29.354998
 20
14.782038
 30
0.0
 10
29.571207
 20
15.441551
 30
0.0
  0
SPLINE
  5
20c
100
AcDbEntity
  8
Layer_1
 62
7
100
AcDbSpline
 70
8
 71
3
 72
8
 73
4
 74
0
 40
0
 40
0
 40
0
 40
0
 40
1
 40
1
 40
1
 40
1
 10
29.571207
 20
15.441551
 30
0.0
 10
29.947601
 20
16.589673
 30
0.0
 10
29.952189
 20
16.643836
 30
0.0
 10
29.679121
 20
16.715245
 30
0.0
  0
SPLINE
  5
20d
100
AcDbEntity
  8
Layer_1
 62
7
100
AcDbSpline
 70
8
 71
3
 72
8
 73
4
 74
0
 40
0
 40
0
 40
0
 40
0
 40
1
 40
1
 40
1
 40
1
 10
29.679121
 20
16.715245
 30
0.0
 10
29.280827
 20
16.819401
 30
0.0
 10
29.312548
 20
17.272740
 30
0.0
 10
29.718131
 20
17.272740
 30
0.0
  0
SPLINE
  5
20e
100
AcDbEntity
  8
Layer_1
 62
7
100
AcDbSpline
 70
8
 71
3
 72
8
 73
4
 74
0
 40
0
 40
0
 40
0
 40
0
 40
1
 40
1
 40
1
 40
1
 10
29.718131
 20
17.272740
 30
0.0
 10
29.896443
 20
17.272740
 30
0.0
 10
30.135079
 20
17.392058
 30
0.0
 10
30.248434
 20
17.537892
 30
0.0
  0
SPLINE
  5
20f
100
AcDbEntity
  8
Layer_1
 62
7
100
AcDbSpline
 70
8
 71
3
 72
8
 73
4
 74
0
 40
0
 40
0
 40
0
 40
0
 40
1
 40
1
 40
1
 40
1
 10
30.248434
 20
17.537892
 30
0.0
 10
30.444717
 20
17.790417
 30
0.0
 10
30.464344
 20
17.790417
 30
0.0
 10
30.660627
 20
17.537892
 30
0.0
  0
SPLINE
  5
210
100
AcDbEntity
  8
Layer_1
 62
7
100
AcDbSpline
 70
8
 71
3
 72
8
 73
4
 74
0
 40
0
 40
0
 40
0
 40
0
 40
1
 40
1
 40
1
 40
1
 10
30.660627
 20
17.537892
 30
0.0
 10
30.813612
 20
17.341072
 30
0.0
 10
31.086939
 20
17.272740
 30
0.0
 10
31.721233
 20
17.272740
 30
0.0
  0
SPLINE
  5
211
100
AcDbEntity
  8
Layer_1
 62
7
100
AcDbSpline
 70
8
 71
3
 72
8
 73
4
 74
0
 40
0
 40
0
 40
0
 40
0
 40
1
 40
1
 40
1
 40
1
 10
31.721233
 20
17.272740
 30
0.0
 10
32.366773
 20
17.272740
 30
0.0
 10
32.575742
 20
17.219000
 30
0.0
 10
32.575742
 20
17.052996
 30
0.0
  0
SPLINE
  5
212
100
AcDbEntity
  8
Layer_1
 62
7
100
AcDbSpline
 70
8
 71
3
 72
8
 73
4
 74
0
 40
0
 40
0
 40
0
 40
0
 40
1
 40
1
 40
1
 40
1
 10
32.575742
 20
17.052996
 30
0.0
 10
32.575742
 20
16.932137
 30
0.0
 10
32.465943
 20
16.771806
 30
0.0
 10
32.331745
 20
16.696705
 30
0.0
  0
SPLINE
  5
213
100
AcDbEntity
  8
Layer_1
 62
7
100
AcDbSpline
 70
8
 71
3
 72
8
 73
4
 74
0
 40
0
 40
0
 40
0
 40
0
 40
1
 40
1
 40
1
 40
1
 10
32.331745
 20
16.696705
 30
0.0
 10
32.112731
 20
16.574138
 30
0.0
 10
32.131801
 20
16.424888
 30
0.0
 10
32.517999
 20
15.239005
 30
0.0
  0
LWPOLYLINE
  5
214
100
AcDbEntity
  8
Layer_1
 62
7
100
AcDbPolyline
 90
5
 70
0
 10
19.315016
 20
13.509448
 30
0.0
 10
18.974089
 20
13.241275
 30
0.0
 10
19.752192
 20
12.196433
 30
0.0
 10
20.530293
 20
11.151591
 30
0.0
 10
20.571813
 20
13.870041
 30
0.0
  0
SPLINE
  5
215
100
AcDbEntity
  8
Layer_1
 62
7
100
AcDbSpline
 70
8
 71
3
 72
8
 73
4
 74
0
 40
0
 40
0
 40
0
 40
0
 40
1
 40
1
 40
1
 40
1
 10
33.293644
 20
15.178630
 30
0.0
 10
33.483611
 20
15.872057
 30
0.0
 10
33.600870
 20
16.618047
 30
0.0
 10
33.554221
 20
16.836385
 30
0.0
  0
SPLINE
  5
216
100
AcDbEntity
  8
Layer_1
 62
7
100
AcDbSpline
 70
8
 71
3
 72
8
 73
4
 74
0
 40
0
 40
0
 40
0
 40
0
 40
1
 40
1
 40
1
 40
1
 10
33.554221
 20
16.836385
 30
0.0
 10
33.450870
 20
17.320105
 30
0.0
 10
33.705351
 20
17.416818
 30
0.0
 10
34.803783
 20
17.311273
 30
0.0
  0
SPLINE
  5
217
100
AcDbEntity
  8
Layer_1
 62
7
100
AcDbSpline
 70
8
 71
3
 72
8
 73
4
 74
0
 40
0
 40
0
 40
0
 40
0
 40
1
 40
1
 40
1
 40
1
 10
34.803783
 20
17.311273
 30
0.0
 10
35.479235
 20
17.246373
 30
0.0
 10
35.570844
 20
17.273293
 30
0.0
 10
35.645459
 20
17.558622
 30
0.0
  0
SPLINE
  5
218
100
AcDbEntity
  8
Layer_1
 62
7
100
AcDbSpline
 70
8
 71
3
 72
8
 73
4
 74
0
 40
0
 40
0
 40
0
 40
0
 40
1
 40
1
 40
1
 40
1
 10
35.645459
 20
17.558622
 30
0.0
 10
35.772153
 20
18.043102
 30
0.0
 10
36.160461
 20
17.947619
 30
0.0
 10
36.268921
 20
17.405316
 30
0.0
  0
SPLINE
  5
219
100
AcDbEntity
  8
Layer_1
 62
7
100
AcDbSpline
 70
8
 71
3
 72
8
 73
4
 74
0
 40
0
 40
0
 40
0
 40
0
 40
1
 40
1
 40
1
 40
1
 10
36.268921
 20
17.405316
 30
0.0
 10
36.401658
 20
16.741636
 30
0.0
 10
36.390585
 20
16.666680
 30
0.0
 10
36.159815
 20
16.666680
 30
0.0
  0
SPLINE
  5
21a
100
AcDbEntity
  8
Layer_1
 62
7
100
AcDbSpline
 70
8
 71
3
 72
8
 73
4
 74
0
 40
0
 40
0
 40
0
 40
0
 40
1
 40
1
 40
1
 40
1
 10
36.159815
 20
16.666680
 30
0.0
 10
36.040127
 20
16.666680
 30
0.0
 10
35.826846
 20
16.244575
 30
0.0
 10
35.643050
 20
15.643952
 30
0.0
  0
SPLINE
  5
21b
100
AcDbEntity
  8
Layer_1
 62
7
100
AcDbSpline
 70
8
 71
3
 72
8
 73
4
 74
0
 40
0
 40
0
 40
0
 40
0
 40
1
 40
1
 40
1
 40
1
 10
35.643050
 20
15.643952
 30
0.0
 10
35.470922
 20
15.081452
 30
0.0
 10
35.083401
 20
13.842369
 30
0.0
 10
34.781893
 20
12.890434
 30
0.0
  0
SPLINE
  5
21c
100
AcDbEntity
  8
Layer_1
 62
7
100
AcDbSpline
 70
8
 71
3
 72
8
 73
4
 74
0
 40
0
 40
0
 40
0
 40
0
 40
1
 40
1
 40
1
 40
1
 10
34.781893
 20
12.890434
 30
0.0
 10
34.213580
 20
11.096128
 30
0.0
 10
34.231291
 20
10.802658
 30
0.0
 10
34.893114
 20
11.047483
 30
0.0
  0
SPLINE
  5
21d
100
AcDbEntity
  8
Layer_1
 62
7
100
AcDbSpline
 70
8
 71
3
 72
8
 73
4
 74
0
 40
0
 40
0
 40
0
 40
0
 40
1
 40
1
 40
1
 40
1
 10
34.893114
 20
11.047483
 30
0.0
 10
35.269488
 20
11.186713
 30
0.0
 10
37.489989
 20
16.666680
 30
0.0
 10
37.170031
 20
16.666680
 30
0.0
  0
SPLINE
  5
21e
100
AcDbEntity
  8
Layer_1
 62
7
100
AcDbSpline
 70
8
 71
3
 72
8
 73
4
 74
0
 40
0
 40
0
 40
0
 40
0
 40
1
 40
1
 40
1
 40
1
 10
37.170031
 20
16.666680
 30
0.0
 10
37.059838
 20
16.666680
 30
0.0
 10
36.969678
 20
16.803043
 30
0.0
 10
36.969678
 20
16.969710
 30
0.0
  0
SPLINE
  5
21f
100
AcDbEntity
  8
Layer_1
 62
7
100
AcDbSpline
 70
8
 71
3
 72
8
 73
4
 74
0
 40
0
 40
0
 40
0
 40
0
 40
1
 40
1
 40
1
 40
1
 10
36.969678
 20
16.969710
 30
0.0
 10
36.969678
 20
17.241660
 30
0.0
 10
37.070689
 20
17.272740
 30
0.0
 10
37.954526
 20
17.272740
 30
0.0
  0
SPLINE
  5
220
100
AcDbEntity
  8
Layer_1
 62
7
100
AcDbSpline
 70
8
 71
3
 72
8
 73
4
 74
0
 40
0
 40
0
 40
0
 40
0
 40
1
 40
1
 40
1
 40
1
 10
37.954526
 20
17.272740
 30
0.0
 10
38.728937
 20
17.272740
 30
0.0
 10
38.939374
 20
17.321300
 30
0.0
 10
38.939374
 20
17.500013
 30
0.0
  0
SPLINE
  5
221
100
AcDbEntity
  8
Layer_1
 62
7
100
AcDbSpline
 70
8
 71
3
 72
8
 73
4
 74
0
 40
0
 40
0
 40
0
 40
0
 40
1
 40
1
 40
1
 40
1
 10
38.939374
 20
17.500013
 30
0.0
 10
38.939374
 20
17.626276
 30
0.0
 10
39.074055
 20
17.727286
 30
0.0
 10
39.242404
 20
17.727286
 30
0.0
  0
SPLINE
  5
222
100
AcDbEntity
  8
Layer_1
 62
7
100
AcDbSpline
 70
8
 71
3
 72
8
 73
4
 74
0
 40
0
 40
0
 40
0
 40
0
 40
1
 40
1
 40
1
 40
1
 10
39.242404
 20
17.727286
 30
0.0
 10
39.410754
 20
17.727286
 30
0.0
 10
39.545435
 20
17.626276
 30
0.0
 10
39.545435
 20
17.500013
 30
0.0
  0
SPLINE
  5
223
100
AcDbEntity
  8
Layer_1
 62
7
100
AcDbSpline
 70
8
 71
3
 72
8
 73
4
 74
0
 40
0
 40
0
 40
0
 40
0
 40
1
 40
1
 40
1
 40
1
 10
39.545435
 20
17.500013
 30
0.0
 10
39.545435
 20
17.331123
 30
0.0
 10
39.723436
 20
17.272740
 30
0.0
 10
40.238361
 20
17.272740
 30
0.0
  0
SPLINE
  5
224
100
AcDbEntity
  8
Layer_1
 62
7
100
AcDbSpline
 70
8
 71
3
 72
8
 73
4
 74
0
 40
0
 40
0
 40
0
 40
0
 40
1
 40
1
 40
1
 40
1
 10
40.238361
 20
17.272740
 30
0.0
 10
40.816601
 20
17.272740
 30
0.0
 10
40.922896
 20
17.228850
 30
0.0
 10
40.880581
 20
17.007589
 30
0.0
  0
SPLINE
  5
225
100
AcDbEntity
  8
Layer_1
 62
7
100
AcDbSpline
 70
8
 71
3
 72
8
 73
4
 74
0
 40
0
 40
0
 40
0
 40
0
 40
1
 40
1
 40
1
 40
1
 10
40.880581
 20
17.007589
 30
0.0
 10
40.849771
 20
16.846487
 30
0.0
 10
40.648114
 20
16.712709
 30
0.0
 10
40.366693
 20
16.666680
 30
0.0
  0
LWPOLYLINE
  5
226
100
AcDbEntity
  8
Layer_1
 62
7
100
AcDbPolyline
 90
3
 70
0
 10
32.517999
 20
15.239005
 30
0.0
 10
32.948250
 20
13.917852
 30
0.0
 10
33.293644
 20
15.178630
 30
0.0
  0
SPLINE
  5
227
100
AcDbEntity
  8
Layer_1
 62
7
100
AcDbSpline
 70
8
 71
3
 72
8
 73
4
 74
0
 40
0
 40
0
 40
0
 40
0
 40
1
 40
1
 40
1
 40
1
 10
40.974473
 20
13.825967
 30
0.0
 10
41.563502
 20
12.305243
 30
0.0
 10
42.096570
 20
11.060924
 30
0.0
 10
42.159070
 20
11.060815
 30
0.0
  0
SPLINE
  5
228
100
AcDbEntity
  8
Layer_1
 62
7
100
AcDbSpline
 70
8
 71
3
 72
8
 73
4
 74
0
 40
0
 40
0
 40
0
 40
0
 40
1
 40
1
 40
1
 40
1
 10
42.159070
 20
11.060815
 30
0.0
 10
42.221570
 20
11.060706
 30
0.0
 10
42.272706
 20
12.314686
 30
0.0
 10
42.272706
 20
13.847437
 30
0.0
  0
SPLINE
  5
229
100
AcDbEntity
  8
Layer_1
 62
7
100
AcDbSpline
 70
8
 71
3
 72
8
 73
4
 74
0
 40
0
 40
0
 40
0
 40
0
 40
1
 40
1
 40
1
 40
1
 10
42.272706
 20
13.847437
 30
0.0
 10
42.272706
 20
16.184839
 30
0.0
 10
42.236056
 20
16.648321
 30
0.0
 10
42.045433
 20
16.721469
 30
0.0
  0
SPLINE
  5
22a
100
AcDbEntity
  8
Layer_1
 62
7
100
AcDbSpline
 70
8
 71
3
 72
8
 73
4
 74
0
 40
0
 40
0
 40
0
 40
0
 40
1
 40
1
 40
1
 40
1
 10
42.045433
 20
16.721469
 30
0.0
 10
41.758994
 20
16.831387
 30
0.0
 10
41.746015
 20
17.272738
 30
0.0
 10
42.029223
 20
17.272738
 30
0.0
  0
SPLINE
  5
22b
100
AcDbEntity
  8
Layer_1
 62
7
100
AcDbSpline
 70
8
 71
3
 72
8
 73
4
 74
0
 40
0
 40
0
 40
0
 40
0
 40
1
 40
1
 40
1
 40
1
 10
42.029223
 20
17.272738
 30
0.0
 10
42.145307
 20
17.272738
 30
0.0
 10
42.279530
 20
17.375011
 30
0.0
 10
42.327498
 20
17.500011
 30
0.0
  0
SPLINE
  5
22c
100
AcDbEntity
  8
Layer_1
 62
7
100
AcDbSpline
 70
8
 71
3
 72
8
 73
4
 74
0
 40
0
 40
0
 40
0
 40
0
 40
1
 40
1
 40
1
 40
1
 10
42.327498
 20
17.500011
 30
0.0
 10
42.437338
 20
17.786248
 30
0.0
 10
42.878766
 20
17.799522
 30
0.0
 10
42.878766
 20
17.516591
 30
0.0
  0
SPLINE
  5
22d
100
AcDbEntity
  8
Layer_1
 62
7
100
AcDbSpline
 70
8
 71
3
 72
8
 73
4
 74
0
 40
0
 40
0
 40
0
 40
0
 40
1
 40
1
 40
1
 40
1
 10
42.878766
 20
17.516591
 30
0.0
 10
42.878766
 20
17.352998
 30
0.0
 10
43.176028
 20
17.304954
 30
0.0
 10
44.208424
 20
17.301686
 30
0.0
  0
SPLINE
  5
22e
100
AcDbEntity
  8
Layer_1
 62
7
100
AcDbSpline
 70
8
 71
3
 72
8
 73
4
 74
0
 40
0
 40
0
 40
0
 40
0
 40
1
 40
1
 40
1
 40
1
 10
44.208424
 20
17.301686
 30
0.0
 10
45.848081
 20
17.296486
 30
0.0
 10
46.678672
 20
17.003901
 30
0.0
 10
47.130905
 20
16.272171
 30
0.0
  0
SPLINE
  5
22f
100
AcDbEntity
  8
Layer_1
 62
7
100
AcDbSpline
 70
8
 71
3
 72
8
 73
4
 74
0
 40
0
 40
0
 40
0
 40
0
 40
1
 40
1
 40
1
 40
1
 10
47.130905
 20
16.272171
 30
0.0
 10
47.707635
 20
15.339001
 30
0.0
 10
47.484614
 20
13.960532
 30
0.0
 10
46.675116
 20
13.454991
 30
0.0
  0
SPLINE
  5
230
100
AcDbEntity
  8
Layer_1
 62
7
100
AcDbSpline
 70
8
 71
3
 72
8
 73
4
 74
0
 40
0
 40
0
 40
0
 40
0
 40
1
 40
1
 40
1
 40
1
 10
46.675116
 20
13.454991
 30
0.0
 10
46.406794
 20
13.287422
 30
0.0
 10
46.431440
 20
13.221125
 30
0.0
 10
47.082908
 20
12.358025
 30
0.0
  0
SPLINE
  5
231
100
AcDbEntity
  8
Layer_1
 62
7
100
AcDbSpline
 70
8
 71
3
 72
8
 73
4
 74
0
 40
0
 40
0
 40
0
 40
0
 40
1
 40
1
 40
1
 40
1
 10
47.082908
 20
12.358025
 30
0.0
 10
47.464264
 20
11.852786
 30
0.0
 10
47.816386
 20
11.391442
 30
0.0
 10
47.865401
 20
11.332817
 30
0.0
  0
SPLINE
  5
232
100
AcDbEntity
  8
Layer_1
 62
7
100
AcDbSpline
 70
8
 71
3
 72
8
 73
4
 74
0
 40
0
 40
0
 40
0
 40
0
 40
1
 40
1
 40
1
 40
1
 10
47.865401
 20
11.332817
 30
0.0
 10
47.914411
 20
11.274197
 30
0.0
 10
47.920311
 20
12.569647
 30
0.0
 10
47.878491
 20
14.211605
 30
0.0
  0
SPLINE
  5
233
100
AcDbEntity
  8
Layer_1
 62
7
100
AcDbSpline
 70
8
 71
3
 72
8
 73
4
 74
0
 40
0
 40
0
 40
0
 40
0
 40
1
 40
1
 40
1
 40
1
 10
47.878491
 20
14.211605
 30
0.0
 10
47.836671
 20
15.853563
 30
0.0
 10
47.836671
 20
17.231075
 30
0.0
 10
47.878491
 20
17.272741
 30
0.0
  0
SPLINE
  5
234
100
AcDbEntity
  8
Layer_1
 62
7
100
AcDbSpline
 70
8
 71
3
 72
8
 73
4
 74
0
 40
0
 40
0
 40
0
 40
0
 40
1
 40
1
 40
1
 40
1
 10
47.878491
 20
17.272741
 30
0.0
 10
47.920311
 20
17.314411
 30
0.0
 10
47.954521
 20
17.449838
 30
0.0
 10
47.954521
 20
17.573697
 30
0.0
  0
SPLINE
  5
235
100
AcDbEntity
  8
Layer_1
 62
7
100
AcDbSpline
 70
8
 71
3
 72
8
 73
4
 74
0
 40
0
 40
0
 40
0
 40
0
 40
1
 40
1
 40
1
 40
1
 10
47.954521
 20
17.573697
 30
0.0
 10
47.954521
 20
17.697555
 30
0.0
 10
48.073839
 20
17.821873
 30
0.0
 10
48.219673
 20
17.849958
 30
0.0
  0
SPLINE
  5
236
100
AcDbEntity
  8
Layer_1
 62
7
100
AcDbSpline
 70
8
 71
3
 72
8
 73
4
 74
0
 40
0
 40
0
 40
0
 40
0
 40
1
 40
1
 40
1
 40
1
 10
48.219673
 20
17.849958
 30
0.0
 10
48.405856
 20
17.885818
 30
0.0
 10
48.484824
 20
17.803938
 30
0.0
 10
48.484824
 20
17.575054
 30
0.0
  0
SPLINE
  5
237
100
AcDbEntity
  8
Layer_1
 62
7
100
AcDbSpline
 70
8
 71
3
 72
8
 73
4
 74
0
 40
0
 40
0
 40
0
 40
0
 40
1
 40
1
 40
1
 40
1
 10
48.484824
 20
17.575054
 30
0.0
 10
48.484824
 20
17.257146
 30
0.0
 10
48.529734
 20
17.250163
 30
0.0
 10
50.301622
 20
17.292601
 30
0.0
  0
SPLINE
  5
238
100
AcDbEntity
  8
Layer_1
 62
7
100
AcDbSpline
 70
8
 71
3
 72
8
 73
4
 74
0
 40
0
 40
0
 40
0
 40
0
 40
1
 40
1
 40
1
 40
1
 10
50.301622
 20
17.292601
 30
0.0
 10
52.174593
 20
17.337461
 30
0.0
 10
52.663770
 20
17.213651
 30
0.0
 10
52.307872
 20
16.784817
 30
0.0
  0
SPLINE
  5
239
100
AcDbEntity
  8
Layer_1
 62
7
100
AcDbSpline
 70
8
 71
3
 72
8
 73
4
 74
0
 40
0
 40
0
 40
0
 40
0
 40
1
 40
1
 40
1
 40
1
 10
52.307872
 20
16.784817
 30
0.0
 10
52.217612
 20
16.676062
 30
0.0
 10
52.121640
 20
16.315218
 30
0.0
 10
52.094596
 20
15.982941
 30
0.0
  0
LWPOLYLINE
  5
23a
100
AcDbEntity
  8
Layer_1
 62
7
100
AcDbPolyline
 90
3
 70
0
 10
40.366693
 20
16.666680
 30
0.0
 10
39.903513
 20
16.590920
 30
0.0
 10
40.974473
 20
13.825967
 30
0.0
  0
SPLINE
  5
23b
100
AcDbEntity
  8
Layer_1
 62
7
100
AcDbSpline
 70
8
 71
3
 72
8
 73
4
 74
0
 40
0
 40
0
 40
0
 40
0
 40
1
 40
1
 40
1
 40
1
 10
51.098457
 20
15.333692
 30
0.0
 10
50.392252
 20
15.300052
 30
0.0
 10
50.151487
 20
15.232638
 30
0.0
 10
50.151487
 20
15.068541
 30
0.0
  0
SPLINE
  5
23c
100
AcDbEntity
  8
Layer_1
 62
7
100
AcDbSpline
 70
8
 71
3
 72
8
 73
4
 74
0
 40
0
 40
0
 40
0
 40
0
 40
1
 40
1
 40
1
 40
1
 10
50.151487
 20
15.068541
 30
0.0
 10
50.151487
 20
14.912834
 30
0.0
 10
50.328687
 20
14.848498
 30
0.0
 10
50.757548
 20
14.848498
 30
0.0
  0
SPLINE
  5
23d
100
AcDbEntity
  8
Layer_1
 62
7
100
AcDbSpline
 70
8
 71
3
 72
8
 73
4
 74
0
 40
0
 40
0
 40
0
 40
0
 40
1
 40
1
 40
1
 40
1
 10
50.757548
 20
14.848498
 30
0.0
 10
51.090881
 20
14.848498
 30
0.0
 10
51.363608
 20
14.916678
 30
0.0
 10
51.363608
 20
15.000013
 30
0.0
  0
SPLINE
  5
23e
100
AcDbEntity
  8
Layer_1
 62
7
100
AcDbSpline
 70
8
 71
3
 72
8
 73
4
 74
0
 40
0
 40
0
 40
0
 40
0
 40
1
 40
1
 40
1
 40
1
 10
51.363608
 20
15.000013
 30
0.0
 10
51.363608
 20
15.220367
 30
0.0
 10
51.654330
 20
15.185481
 30
0.0
 10
51.904733
 20
14.935083
 30
0.0
  0
SPLINE
  5
23f
100
AcDbEntity
  8
Layer_1
 62
7
100
AcDbSpline
 70
8
 71
3
 72
8
 73
4
 74
0
 40
0
 40
0
 40
0
 40
0
 40
1
 40
1
 40
1
 40
1
 10
51.904733
 20
14.935083
 30
0.0
 10
52.132447
 20
14.707369
 30
0.0
 10
52.201459
 20
14.242442
 30
0.0
 10
52.007547
 20
14.242442
 30
0.0
  0
SPLINE
  5
240
100
AcDbEntity
  8
Layer_1
 62
7
100
AcDbSpline
 70
8
 71
3
 72
8
 73
4
 74
0
 40
0
 40
0
 40
0
 40
0
 40
1
 40
1
 40
1
 40
1
 10
52.007547
 20
14.242442
 30
0.0
 10
51.945047
 20
14.242442
 30
0.0
 10
51.893911
 20
14.071988
 30
0.0
 10
51.893911
 20
13.863654
 30
0.0
  0
SPLINE
  5
241
100
AcDbEntity
  8
Layer_1
 62
7
100
AcDbSpline
 70
8
 71
3
 72
8
 73
4
 74
0
 40
0
 40
0
 40
0
 40
0
 40
1
 40
1
 40
1
 40
1
 10
51.893911
 20
13.863654
 30
0.0
 10
51.893911
 20
13.603914
 30
0.0
 10
51.977241
 20
13.484866
 30
0.0
 10
52.159062
 20
13.484866
 30
0.0
  0
SPLINE
  5
242
100
AcDbEntity
  8
Layer_1
 62
7
100
AcDbSpline
 70
8
 71
3
 72
8
 73
4
 74
0
 40
0
 40
0
 40
0
 40
0
 40
1
 40
1
 40
1
 40
1
 10
52.159062
 20
13.484866
 30
0.0
 10
52.323203
 20
13.484866
 30
0.0
 10
52.424213
 20
13.369426
 30
0.0
 10
52.424213
 20
13.181836
 30
0.0
  0
SPLINE
  5
243
100
AcDbEntity
  8
Layer_1
 62
7
100
AcDbSpline
 70
8
 71
3
 72
8
 73
4
 74
0
 40
0
 40
0
 40
0
 40
0
 40
1
 40
1
 40
1
 40
1
 10
52.424213
 20
13.181836
 30
0.0
 10
52.424213
 20
12.979816
 30
0.0
 10
52.323203
 20
12.878806
 30
0.0
 10
52.121183
 20
12.878806
 30
0.0
  0
SPLINE
  5
244
100
AcDbEntity
  8
Layer_1
 62
7
100
AcDbSpline
 70
8
 71
3
 72
8
 73
4
 74
0
 40
0
 40
0
 40
0
 40
0
 40
1
 40
1
 40
1
 40
1
 10
52.121183
 20
12.878806
 30
0.0
 10
51.769477
 20
12.878806
 30
0.0
 10
51.714229
 20
12.606144
 30
0.0
 10
52.040563
 20
12.480919
 30
0.0
  0
SPLINE
  5
245
100
AcDbEntity
  8
Layer_1
 62
7
100
AcDbSpline
 70
8
 71
3
 72
8
 73
4
 74
0
 40
0
 40
0
 40
0
 40
0
 40
1
 40
1
 40
1
 40
1
 10
52.040563
 20
12.480919
 30
0.0
 10
52.210052
 20
12.415879
 30
0.0
 10
52.241203
 20
12.236755
 30
0.0
 10
52.171484
 20
11.728098
 30
0.0
  0
SPLINE
  5
246
100
AcDbEntity
  8
Layer_1
 62
7
100
AcDbSpline
 70
8
 71
3
 72
8
 73
4
 74
0
 40
0
 40
0
 40
0
 40
0
 40
1
 40
1
 40
1
 40
1
 10
52.171484
 20
11.728098
 30
0.0
 10
52.109684
 20
11.277186
 30
0.0
 10
52.135834
 20
11.060624
 30
0.0
 10
52.252104
 20
11.060624
 30
0.0
  0
SPLINE
  5
247
100
AcDbEntity
  8
Layer_1
 62
7
100
AcDbSpline
 70
8
 71
3
 72
8
 73
4
 74
0
 40
0
 40
0
 40
0
 40
0
 40
1
 40
1
 40
1
 40
1
 10
52.252104
 20
11.060624
 30
0.0
 10
52.346764
 20
11.060624
 30
0.0
 10
52.424213
 20
10.924260
 30
0.0
 10
52.424213
 20
10.757594
 30
0.0
  0
SPLINE
  5
248
100
AcDbEntity
  8
Layer_1
 62
7
100
AcDbSpline
 70
8
 71
3
 72
8
 73
4
 74
0
 40
0
 40
0
 40
0
 40
0
 40
1
 40
1
 40
1
 40
1
 10
52.424213
 20
10.757594
 30
0.0
 10
52.424213
 20
10.406566
 30
0.0
 10
52.459503
 20
10.411447
 30
0.0
 10
50.210551
 20
10.451472
 30
0.0
  0
SPLINE
  5
249
100
AcDbEntity
  8
Layer_1
 62
7
100
AcDbSpline
 70
8
 71
3
 72
8
 73
4
 74
0
 40
0
 40
0
 40
0
 40
0
 40
1
 40
1
 40
1
 40
1
 10
50.210551
 20
10.451472
 30
0.0
 10
48.617162
 20
10.479832
 30
0.0
 10
48.522758
 20
10.464482
 30
0.0
 10
48.444270
 20
10.164342
 30
0.0
  0
SPLINE
  5
24a
100
AcDbEntity
  8
Layer_1
 62
7
100
AcDbSpline
 70
8
 71
3
 72
8
 73
4
 74
0
 40
0
 40
0
 40
0
 40
0
 40
1
 40
1
 40
1
 40
1
 10
48.444270
 20
10.164342
 30
0.0
 10
48.351910
 20
9.811170
 30
0.0
 10
47.878761
 20
9.877402
 30
0.0
 10
47.878761
 20
10.243502
 30
0.0
  0
SPLINE
  5
24b
100
AcDbEntity
  8
Layer_1
 62
7
100
AcDbSpline
 70
8
 71
3
 72
8
 73
4
 74
0
 40
0
 40
0
 40
0
 40
0
 40
1
 40
1
 40
1
 40
1
 10
47.878761
 20
10.243502
 30
0.0
 10
47.878761
 20
10.509198
 30
0.0
 10
46.508827
 20
10.539174
 30
0.0
 10
46.248820
 20
10.279172
 30
0.0
  0
SPLINE
  5
24c
100
AcDbEntity
  8
Layer_1
 62
7
100
AcDbSpline
 70
8
 71
3
 72
8
 73
4
 74
0
 40
0
 40
0
 40
0
 40
0
 40
1
 40
1
 40
1
 40
1
 10
46.248820
 20
10.279172
 30
0.0
 10
46.124191
 20
10.154542
 30
0.0
 10
46.016747
 20
10.150340
 30
0.0
 10
45.877608
 20
10.264652
 30
0.0
  0
SPLINE
  5
24d
100
AcDbEntity
  8
Layer_1
 62
7
100
AcDbSpline
 70
8
 71
3
 72
8
 73
4
 74
0
 40
0
 40
0
 40
0
 40
0
 40
1
 40
1
 40
1
 40
1
 10
45.877608
 20
10.264652
 30
0.0
 10
45.769909
 20
10.353132
 30
0.0
 10
45.512035
 20
10.449109
 30
0.0
 10
45.304554
 20
10.477927
 30
0.0
  0
SPLINE
  5
24e
100
AcDbEntity
  8
Layer_1
 62
7
100
AcDbSpline
 70
8
 71
3
 72
8
 73
4
 74
0
 40
0
 40
0
 40
0
 40
0
 40
1
 40
1
 40
1
 40
1
 10
45.304554
 20
10.477927
 30
0.0
 10
44.892484
 20
10.535157
 30
0.0
 10
44.696851
 20
11.004129
 30
0.0
 10
45.051004
 20
11.085730
 30
0.0
  0
SPLINE
  5
24f
100
AcDbEntity
  8
Layer_1
 62
7
100
AcDbSpline
 70
8
 71
3
 72
8
 73
4
 74
0
 40
0
 40
0
 40
0
 40
0
 40
1
 40
1
 40
1
 40
1
 10
45.051004
 20
11.085730
 30
0.0
 10
45.223081
 20
11.125380
 30
0.0
 10
45.188490
 20
11.251606
 30
0.0
 10
44.891801
 20
11.666688
 30
0.0
  0
LWPOLYLINE
  5
250
100
AcDbEntity
  8
Layer_1
 62
7
100
AcDbPolyline
 90
3
 70
0
 10
52.094596
 20
15.982941
 30
0.0
 10
52.045426
 20
15.378802
 30
0.0
 10
51.098457
 20
15.333692
 30
0.0
  0
SPLINE
  5
251
100
AcDbEntity
  8
Layer_1
 62
7
100
AcDbSpline
 70
8
 71
3
 72
8
 73
4
 74
0
 40
0
 40
0
 40
0
 40
0
 40
1
 40
1
 40
1
 40
1
 10
44.595253
 20
11.422248
 30
0.0
 10
44.640733
 20
10.995160
 30
0.0
 10
44.610773
 20
10.580518
 30
0.0
 10
44.528483
 20
10.498226
 30
0.0
  0
SPLINE
  5
252
100
AcDbEntity
  8
Layer_1
 62
7
100
AcDbSpline
 70
8
 71
3
 72
8
 73
4
 74
0
 40
0
 40
0
 40
0
 40
0
 40
1
 40
1
 40
1
 40
1
 10
44.528483
 20
10.498226
 30
0.0
 10
44.446383
 20
10.416126
 30
0.0
 10
44.041606
 20
10.381386
 30
0.0
 10
43.628985
 20
10.421036
 30
0.0
  0
SPLINE
  5
253
100
AcDbEntity
  8
Layer_1
 62
7
100
AcDbSpline
 70
8
 71
3
 72
8
 73
4
 74
0
 40
0
 40
0
 40
0
 40
0
 40
1
 40
1
 40
1
 40
1
 10
43.628985
 20
10.421036
 30
0.0
 10
43.130762
 20
10.468906
 30
0.0
 10
42.878764
 20
10.435756
 30
0.0
 10
42.878764
 20
10.322326
 30
0.0
  0
SPLINE
  5
254
100
AcDbEntity
  8
Layer_1
 62
7
100
AcDbSpline
 70
8
 71
3
 72
8
 73
4
 74
0
 40
0
 40
0
 40
0
 40
0
 40
1
 40
1
 40
1
 40
1
 10
42.878764
 20
10.322326
 30
0.0
 10
42.878764
 20
10.228386
 30
0.0
 10
42.776491
 20
10.151534
 30
0.0
 10
42.651491
 20
10.151534
 30
0.0
  0
SPLINE
  5
255
100
AcDbEntity
  8
Layer_1
 62
7
100
AcDbSpline
 70
8
 71
3
 72
8
 73
4
 74
0
 40
0
 40
0
 40
0
 40
0
 40
1
 40
1
 40
1
 40
1
 10
42.651491
 20
10.151534
 30
0.0
 10
42.526492
 20
10.151534
 30
0.0
 10
42.424219
 20
10.083354
 30
0.0
 10
42.424219
 20
10.000019
 30
0.0
  0
SPLINE
  5
256
100
AcDbEntity
  8
Layer_1
 62
7
100
AcDbSpline
 70
8
 71
3
 72
8
 73
4
 74
0
 40
0
 40
0
 40
0
 40
0
 40
1
 40
1
 40
1
 40
1
 10
42.424219
 20
10.000019
 30
0.0
 10
42.424219
 20
9.714595
 30
0.0
 10
41.853743
 20
9.847581
 30
0.0
 10
41.774257
 20
10.151534
 30
0.0
  0
SPLINE
  5
257
100
AcDbEntity
  8
Layer_1
 62
7
100
AcDbSpline
 70
8
 71
3
 72
8
 73
4
 74
0
 40
0
 40
0
 40
0
 40
0
 40
1
 40
1
 40
1
 40
1
 10
41.774257
 20
10.151534
 30
0.0
 10
41.681157
 20
10.507557
 30
0.0
 10
40.948323
 20
10.569630
 30
0.0
 10
40.432672
 20
10.265171
 30
0.0
  0
SPLINE
  5
258
100
AcDbEntity
  8
Layer_1
 62
7
100
AcDbSpline
 70
8
 71
3
 72
8
 73
4
 74
0
 40
0
 40
0
 40
0
 40
0
 40
1
 40
1
 40
1
 40
1
 10
40.432672
 20
10.265171
 30
0.0
 10
40.176055
 20
10.113655
 30
0.0
 10
40.098184
 20
10.113655
 30
0.0
 10
40.043313
 20
10.265171
 30
0.0
  0
SPLINE
  5
259
100
AcDbEntity
  8
Layer_1
 62
7
100
AcDbSpline
 70
8
 71
3
 72
8
 73
4
 74
0
 40
0
 40
0
 40
0
 40
0
 40
1
 40
1
 40
1
 40
1
 10
40.043313
 20
10.265171
 30
0.0
 10
40.005593
 20
10.369337
 30
0.0
 10
39.809952
 20
10.454564
 30
0.0
 10
39.608564
 20
10.454564
 30
0.0
  0
SPLINE
  5
25a
100
AcDbEntity
  8
Layer_1
 62
7
100
AcDbSpline
 70
8
 71
3
 72
8
 73
4
 74
0
 40
0
 40
0
 40
0
 40
0
 40
1
 40
1
 40
1
 40
1
 10
39.608564
 20
10.454564
 30
0.0
 10
39.343413
 20
10.454564
 30
0.0
 10
39.242402
 20
10.538154
 30
0.0
 10
39.242402
 20
10.757595
 30
0.0
  0
SPLINE
  5
25b
100
AcDbEntity
  8
Layer_1
 62
7
100
AcDbSpline
 70
8
 71
3
 72
8
 73
4
 74
0
 40
0
 40
0
 40
0
 40
0
 40
1
 40
1
 40
1
 40
1
 10
39.242402
 20
10.757595
 30
0.0
 10
39.242402
 20
10.934912
 30
0.0
 10
39.343413
 20
11.060625
 30
0.0
 10
39.485886
 20
11.060625
 30
0.0
  0
SPLINE
  5
25c
100
AcDbEntity
  8
Layer_1
 62
7
100
AcDbSpline
 70
8
 71
3
 72
8
 73
4
 74
0
 40
0
 40
0
 40
0
 40
0
 40
1
 40
1
 40
1
 40
1
 10
39.485886
 20
11.060625
 30
0.0
 10
39.645661
 20
11.060625
 30
0.0
 10
39.697751
 20
11.143015
 30
0.0
 10
39.637401
 20
11.300290
 30
0.0
  0
SPLINE
  5
25d
100
AcDbEntity
  8
Layer_1
 62
7
100
AcDbSpline
 70
8
 71
3
 72
8
 73
4
 74
0
 40
0
 40
0
 40
0
 40
0
 40
1
 40
1
 40
1
 40
1
 10
39.637401
 20
11.300290
 30
0.0
 10
39.586821
 20
11.432106
 30
0.0
 10
39.545431
 20
11.568469
 30
0.0
 10
39.545431
 20
11.603320
 30
0.0
  0
SPLINE
  5
25e
100
AcDbEntity
  8
Layer_1
 62
7
100
AcDbSpline
 70
8
 71
3
 72
8
 73
4
 74
0
 40
0
 40
0
 40
0
 40
0
 40
1
 40
1
 40
1
 40
1
 10
39.545431
 20
11.603320
 30
0.0
 10
39.545431
 20
11.638170
 30
0.0
 10
39.134201
 20
11.666690
 30
0.0
 10
38.631586
 20
11.666690
 30
0.0
  0
SPLINE
  5
25f
100
AcDbEntity
  8
Layer_1
 62
7
100
AcDbSpline
 70
8
 71
3
 72
8
 73
4
 74
0
 40
0
 40
0
 40
0
 40
0
 40
1
 40
1
 40
1
 40
1
 10
38.631586
 20
11.666690
 30
0.0
 10
37.913380
 20
11.666690
 30
0.0
 10
37.696703
 20
11.611870
 30
0.0
 10
37.619479
 20
11.410625
 30
0.0
  0
SPLINE
  5
260
100
AcDbEntity
  8
Layer_1
 62
7
100
AcDbSpline
 70
8
 71
3
 72
8
 73
4
 74
0
 40
0
 40
0
 40
0
 40
0
 40
1
 40
1
 40
1
 40
1
 10
37.619479
 20
11.410625
 30
0.0
 10
37.564619
 20
11.267661
 30
0.0
 10
37.600179
 20
11.128238
 30
0.0
 10
37.699989
 20
11.094968
 30
0.0
  0
SPLINE
  5
261
100
AcDbEntity
  8
Layer_1
 62
7
100
AcDbSpline
 70
8
 71
3
 72
8
 73
4
 74
0
 40
0
 40
0
 40
0
 40
0
 40
1
 40
1
 40
1
 40
1
 10
37.699989
 20
11.094968
 30
0.0
 10
37.975173
 20
11.003238
 30
0.0
 10
37.915480
 20
10.454568
 30
0.0
 10
37.630319
 20
10.454568
 30
0.0
  0
SPLINE
  5
262
100
AcDbEntity
  8
Layer_1
 62
7
100
AcDbSpline
 70
8
 71
3
 72
8
 73
4
 74
0
 40
0
 40
0
 40
0
 40
0
 40
1
 40
1
 40
1
 40
1
 10
37.630319
 20
10.454568
 30
0.0
 10
37.493673
 20
10.454568
 30
0.0
 10
37.289128
 20
10.335250
 30
0.0
 10
37.175773
 20
10.189417
 30
0.0
  0
SPLINE
  5
263
100
AcDbEntity
  8
Layer_1
 62
7
100
AcDbSpline
 70
8
 71
3
 72
8
 73
4
 74
0
 40
0
 40
0
 40
0
 40
0
 40
1
 40
1
 40
1
 40
1
 10
37.175773
 20
10.189417
 30
0.0
 10
36.979490
 20
9.936892
 30
0.0
 10
36.959863
 20
9.936892
 30
0.0
 10
36.763580
 20
10.189417
 30
0.0
  0
SPLINE
  5
264
100
AcDbEntity
  8
Layer_1
 62
7
100
AcDbSpline
 70
8
 71
3
 72
8
 73
4
 74
0
 40
0
 40
0
 40
0
 40
0
 40
1
 40
1
 40
1
 40
1
 10
36.763580
 20
10.189417
 30
0.0
 10
36.642978
 20
10.344575
 30
0.0
 10
36.354678
 20
10.454568
 30
0.0
 10
36.068600
 20
10.454568
 30
0.0
  0
SPLINE
  5
265
100
AcDbEntity
  8
Layer_1
 62
7
100
AcDbSpline
 70
8
 71
3
 72
8
 73
4
 74
0
 40
0
 40
0
 40
0
 40
0
 40
1
 40
1
 40
1
 40
1
 10
36.068600
 20
10.454568
 30
0.0
 10
35.664535
 20
10.454568
 30
0.0
 10
35.549951
 20
10.375708
 30
0.0
 10
35.408147
 20
10.000023
 30
0.0
  0
SPLINE
  5
266
100
AcDbEntity
  8
Layer_1
 62
7
100
AcDbSpline
 70
8
 71
3
 72
8
 73
4
 74
0
 40
0
 40
0
 40
0
 40
0
 40
1
 40
1
 40
1
 40
1
 10
35.408147
 20
10.000023
 30
0.0
 10
35.305988
 20
9.729373
 30
0.0
 10
35.127417
 20
9.545478
 30
0.0
 10
34.966762
 20
9.545478
 30
0.0
  0
SPLINE
  5
267
100
AcDbEntity
  8
Layer_1
 62
7
100
AcDbSpline
 70
8
 71
3
 72
8
 73
4
 74
0
 40
0
 40
0
 40
0
 40
0
 40
1
 40
1
 40
1
 40
1
 10
34.966762
 20
9.545478
 30
0.0
 10
34.672550
 20
9.545478
 30
0.0
 10
34.620844
 20
9.796581
 30
0.0
 10
34.842788
 20
10.147539
 30
0.0
  0
SPLINE
  5
268
100
AcDbEntity
  8
Layer_1
 62
7
100
AcDbSpline
 70
8
 71
3
 72
8
 73
4
 74
0
 40
0
 40
0
 40
0
 40
0
 40
1
 40
1
 40
1
 40
1
 10
34.842788
 20
10.147539
 30
0.0
 10
35.022909
 20
10.432364
 30
0.0
 10
34.795598
 20
10.582920
 30
0.0
 10
34.322107
 20
10.492406
 30
0.0
  0
SPLINE
  5
269
100
AcDbEntity
  8
Layer_1
 62
7
100
AcDbSpline
 70
8
 71
3
 72
8
 73
4
 74
0
 40
0
 40
0
 40
0
 40
0
 40
1
 40
1
 40
1
 40
1
 10
34.322107
 20
10.492406
 30
0.0
 10
34.126717
 20
10.455056
 30
0.0
 10
33.932890
 20
10.294616
 30
0.0
 10
33.891378
 20
10.135876
 30
0.0
  0
SPLINE
  5
26a
100
AcDbEntity
  8
Layer_1
 62
7
100
AcDbSpline
 70
8
 71
3
 72
8
 73
4
 74
0
 40
0
 40
0
 40
0
 40
0
 40
1
 40
1
 40
1
 40
1
 10
33.891378
 20
10.135876
 30
0.0
 10
33.805148
 20
9.806136
 30
0.0
 10
33.333315
 20
9.897136
 30
0.0
 10
33.333315
 20
10.243506
 30
0.0
  0
SPLINE
  5
26b
100
AcDbEntity
  8
Layer_1
 62
7
100
AcDbSpline
 70
8
 71
3
 72
8
 73
4
 74
0
 40
0
 40
0
 40
0
 40
0
 40
1
 40
1
 40
1
 40
1
 10
33.333315
 20
10.243506
 30
0.0
 10
33.333315
 20
10.488178
 30
0.0
 10
32.711749
 20
10.529972
 30
0.0
 10
32.482493
 20
10.300716
 30
0.0
  0
SPLINE
  5
26c
100
AcDbEntity
  8
Layer_1
 62
7
100
AcDbSpline
 70
8
 71
3
 72
8
 73
4
 74
0
 40
0
 40
0
 40
0
 40
0
 40
1
 40
1
 40
1
 40
1
 10
32.482493
 20
10.300716
 30
0.0
 10
32.378365
 20
10.196589
 30
0.0
 10
32.172691
 20
10.224666
 30
0.0
 10
31.846129
 20
10.387566
 30
0.0
  0
SPLINE
  5
26d
100
AcDbEntity
  8
Layer_1
 62
7
100
AcDbSpline
 70
8
 71
3
 72
8
 73
4
 74
0
 40
0
 40
0
 40
0
 40
0
 40
1
 40
1
 40
1
 40
1
 10
31.846129
 20
10.387566
 30
0.0
 10
31.362710
 20
10.628728
 30
0.0
 10
31.184190
 20
11.060625
 30
0.0
 10
31.567929
 20
11.060625
 30
0.0
  0
SPLINE
  5
26e
100
AcDbEntity
  8
Layer_1
 62
7
100
AcDbSpline
 70
8
 71
3
 72
8
 73
4
 74
0
 40
0
 40
0
 40
0
 40
0
 40
1
 40
1
 40
1
 40
1
 10
31.567929
 20
11.060625
 30
0.0
 10
31.723681
 20
11.060625
 30
0.0
 10
31.680932
 20
11.336522
 30
0.0
 10
31.388058
 20
12.221480
 30
0.0
  0
LWPOLYLINE
  5
26f
100
AcDbEntity
  8
Layer_1
 62
7
100
AcDbPolyline
 90
3
 70
0
 10
44.891801
 20
11.666688
 30
0.0
 10
44.512753
 20
12.196991
 30
0.0
 10
44.595253
 20
11.422248
 30
0.0
  0
SPLINE
  5
270
100
AcDbEntity
  8
Layer_1
 62
7
100
AcDbSpline
 70
8
 71
3
 72
8
 73
4
 74
0
 40
0
 40
0
 40
0
 40
0
 40
1
 40
1
 40
1
 40
1
 10
30.653012
 20
12.342194
 30
0.0
 10
30.460035
 20
11.770117
 30
0.0
 10
30.342910
 20
11.173610
 30
0.0
 10
30.392736
 20
11.016623
 30
0.0
  0
SPLINE
  5
271
100
AcDbEntity
  8
Layer_1
 62
7
100
AcDbSpline
 70
8
 71
3
 72
8
 73
4
 74
0
 40
0
 40
0
 40
0
 40
0
 40
1
 40
1
 40
1
 40
1
 10
30.392736
 20
11.016623
 30
0.0
 10
30.449766
 20
10.836937
 30
0.0
 10
30.371456
 20
10.626967
 30
0.0
 10
30.181359
 20
10.449864
 30
0.0
  0
SPLINE
  5
272
100
AcDbEntity
  8
Layer_1
 62
7
100
AcDbSpline
 70
8
 71
3
 72
8
 73
4
 74
0
 40
0
 40
0
 40
0
 40
0
 40
1
 40
1
 40
1
 40
1
 10
30.181359
 20
10.449864
 30
0.0
 10
30.015274
 20
10.295133
 30
0.0
 10
29.851297
 20
10.084262
 30
0.0
 10
29.816962
 20
9.981261
 30
0.0
  0
SPLINE
  5
273
100
AcDbEntity
  8
Layer_1
 62
7
100
AcDbSpline
 70
8
 71
3
 72
8
 73
4
 74
0
 40
0
 40
0
 40
0
 40
0
 40
1
 40
1
 40
1
 40
1
 10
29.816962
 20
9.981261
 30
0.0
 10
29.779552
 20
9.869028
 30
0.0
 10
29.645632
 20
9.835777
 30
0.0
 10
29.482753
 20
9.898281
 30
0.0
  0
SPLINE
  5
274
100
AcDbEntity
  8
Layer_1
 62
7
100
AcDbSpline
 70
8
 71
3
 72
8
 73
4
 74
0
 40
0
 40
0
 40
0
 40
0
 40
1
 40
1
 40
1
 40
1
 10
29.482753
 20
9.898281
 30
0.0
 10
29.321147
 20
9.960291
 30
0.0
 10
29.246125
 20
10.094192
 30
0.0
 10
29.297690
 20
10.228571
 30
0.0
  0
SPLINE
  5
275
100
AcDbEntity
  8
Layer_1
 62
7
100
AcDbSpline
 70
8
 71
3
 72
8
 73
4
 74
0
 40
0
 40
0
 40
0
 40
0
 40
1
 40
1
 40
1
 40
1
 10
29.297690
 20
10.228571
 30
0.0
 10
29.360130
 20
10.391277
 30
0.0
 10
29.279670
 20
10.454566
 30
0.0
 10
29.010381
 20
10.454566
 30
0.0
  0
SPLINE
  5
276
100
AcDbEntity
  8
Layer_1
 62
7
100
AcDbSpline
 70
8
 71
3
 72
8
 73
4
 74
0
 40
0
 40
0
 40
0
 40
0
 40
1
 40
1
 40
1
 40
1
 10
29.010381
 20
10.454566
 30
0.0
 10
28.804663
 20
10.454566
 30
0.0
 10
28.636348
 20
10.386386
 30
0.0
 10
28.636348
 20
10.303051
 30
0.0
  0
SPLINE
  5
277
100
AcDbEntity
  8
Layer_1
 62
7
100
AcDbSpline
 70
8
 71
3
 72
8
 73
4
 74
0
 40
0
 40
0
 40
0
 40
0
 40
1
 40
1
 40
1
 40
1
 10
28.636348
 20
10.303051
 30
0.0
 10
28.636348
 20
10.051098
 30
0.0
 10
28.189333
 20
10.132716
 30
0.0
 10
27.852972
 20
10.446084
 30
0.0
  0
SPLINE
  5
278
100
AcDbEntity
  8
Layer_1
 62
7
100
AcDbSpline
 70
8
 71
3
 72
8
 73
4
 74
0
 40
0
 40
0
 40
0
 40
0
 40
1
 40
1
 40
1
 40
1
 10
27.852972
 20
10.446084
 30
0.0
 10
27.662276
 20
10.623745
 30
0.0
 10
27.574218
 20
10.838111
 30
0.0
 10
27.631073
 20
10.986272
 30
0.0
  0
SPLINE
  5
279
100
AcDbEntity
  8
Layer_1
 62
7
100
AcDbSpline
 70
8
 71
3
 72
8
 73
4
 74
0
 40
0
 40
0
 40
0
 40
0
 40
1
 40
1
 40
1
 40
1
 10
27.631073
 20
10.986272
 30
0.0
 10
27.682913
 20
11.121373
 30
0.0
 10
27.504176
 20
11.956629
 30
0.0
 10
27.233871
 20
12.842396
 30
0.0
  0
LWPOLYLINE
  5
27a
100
AcDbEntity
  8
Layer_1
 62
7
100
AcDbPolyline
 90
3
 70
0
 10
31.388058
 20
12.221480
 30
0.0
 10
31.003878
 20
13.382334
 30
0.0
 10
30.653012
 20
12.342194
 30
0.0
  0
SPLINE
  5
27b
100
AcDbEntity
  8
Layer_1
 62
7
100
AcDbSpline
 70
8
 71
3
 72
8
 73
4
 74
0
 40
0
 40
0
 40
0
 40
0
 40
1
 40
1
 40
1
 40
1
 10
26.650979
 20
13.505083
 30
0.0
 10
26.461702
 20
11.542959
 30
0.0
 10
25.273063
 20
10.634273
 30
0.0
 10
22.711041
 20
10.493098
 30
0.0
  0
SPLINE
  5
27c
100
AcDbEntity
  8
Layer_1
 62
7
100
AcDbSpline
 70
8
 71
3
 72
8
 73
4
 74
0
 40
0
 40
0
 40
0
 40
0
 40
1
 40
1
 40
1
 40
1
 10
22.711041
 20
10.493098
 30
0.0
 10
21.381985
 20
10.419868
 30
0.0
 10
21.212107
 20
10.378656
 30
0.0
 10
21.212107
 20
10.129504
 30
0.0
  0
SPLINE
  5
27d
100
AcDbEntity
  8
Layer_1
 62
7
100
AcDbSpline
 70
8
 71
3
 72
8
 73
4
 74
0
 40
0
 40
0
 40
0
 40
0
 40
1
 40
1
 40
1
 40
1
 10
21.212107
 20
10.129504
 30
0.0
 10
21.212107
 20
9.744138
 30
0.0
 10
20.663823
 20
9.762724
 30
0.0
 10
20.562146
 20
10.151534
 30
0.0
  0
SPLINE
  5
27e
100
AcDbEntity
  8
Layer_1
 62
7
100
AcDbSpline
 70
8
 71
3
 72
8
 73
4
 74
0
 40
0
 40
0
 40
0
 40
0
 40
1
 40
1
 40
1
 40
1
 10
20.562146
 20
10.151534
 30
0.0
 10
20.497366
 20
10.399249
 30
0.0
 10
20.355478
 20
10.454564
 30
0.0
 10
19.784843
 20
10.454564
 30
0.0
  0
SPLINE
  5
27f
100
AcDbEntity
  8
Layer_1
 62
7
100
AcDbSpline
 70
8
 71
3
 72
8
 73
4
 74
0
 40
0
 40
0
 40
0
 40
0
 40
1
 40
1
 40
1
 40
1
 10
19.784843
 20
10.454564
 30
0.0
 10
19.400911
 20
10.454564
 30
0.0
 10
18.942437
 20
10.369334
 30
0.0
 10
18.766015
 20
10.265171
 30
0.0
  0
SPLINE
  5
280
100
AcDbEntity
  8
Layer_1
 62
7
100
AcDbSpline
 70
8
 71
3
 72
8
 73
4
 74
0
 40
0
 40
0
 40
0
 40
0
 40
1
 40
1
 40
1
 40
1
 10
18.766015
 20
10.265171
 30
0.0
 10
18.509398
 20
10.113655
 30
0.0
 10
18.431527
 20
10.113655
 30
0.0
 10
18.376656
 20
10.265171
 30
0.0
  0
SPLINE
  5
281
100
AcDbEntity
  8
Layer_1
 62
7
100
AcDbSpline
 70
8
 71
3
 72
8
 73
4
 74
0
 40
0
 40
0
 40
0
 40
0
 40
1
 40
1
 40
1
 40
1
 10
18.376656
 20
10.265171
 30
0.0
 10
18.338936
 20
10.369337
 30
0.0
 10
18.109205
 20
10.454564
 30
0.0
 10
17.866150
 20
10.454564
 30
0.0
  0
SPLINE
  5
282
100
AcDbEntity
  8
Layer_1
 62
7
100
AcDbSpline
 70
8
 71
3
 72
8
 73
4
 74
0
 40
0
 40
0
 40
0
 40
0
 40
1
 40
1
 40
1
 40
1
 10
17.866150
 20
10.454564
 30
0.0
 10
17.530847
 20
10.454564
 30
0.0
 10
17.424231
 20
10.524994
 30
0.0
 10
17.424231
 20
10.746485
 30
0.0
  0
SPLINE
  5
283
100
AcDbEntity
  8
Layer_1
 62
7
100
AcDbSpline
 70
8
 71
3
 72
8
 73
4
 74
0
 40
0
 40
0
 40
0
 40
0
 40
1
 40
1
 40
1
 40
1
 10
17.424231
 20
10.746485
 30
0.0
 10
17.424231
 20
10.907041
 30
0.0
 10
17.513481
 20
11.060451
 30
0.0
 10
17.622573
 20
11.087394
 30
0.0
  0
SPLINE
  5
284
100
AcDbEntity
  8
Layer_1
 62
7
100
AcDbSpline
 70
8
 71
3
 72
8
 73
4
 74
0
 40
0
 40
0
 40
0
 40
0
 40
1
 40
1
 40
1
 40
1
 10
17.622573
 20
11.087394
 30
0.0
 10
17.765108
 20
11.122594
 30
0.0
 10
17.717033
 20
11.285596
 30
0.0
 10
17.451697
 20
11.666686
 30
0.0
  0
LWPOLYLINE
  5
285
100
AcDbEntity
  8
Layer_1
 62
7
100
AcDbPolyline
 90
3
 70
0
 10
27.233871
 20
12.842396
 30
0.0
 10
26.742409
 20
14.452881
 30
0.0
 10
26.650979
 20
13.505083
 30
0.0
  0
SPLINE
  5
286
100
AcDbEntity
  8
Layer_1
 62
7
100
AcDbSpline
 70
8
 71
3
 72
8
 73
4
 74
0
 40
0
 40
0
 40
0
 40
0
 40
1
 40
1
 40
1
 40
1
 10
17.168009
 20
11.422246
 30
0.0
 10
17.215599
 20
10.991187
 30
0.0
 10
17.187319
 20
10.581281
 30
0.0
 10
17.104259
 20
10.498224
 30
0.0
  0
SPLINE
  5
287
100
AcDbEntity
  8
Layer_1
 62
7
100
AcDbSpline
 70
8
 71
3
 72
8
 73
4
 74
0
 40
0
 40
0
 40
0
 40
0
 40
1
 40
1
 40
1
 40
1
 10
17.104259
 20
10.498224
 30
0.0
 10
17.022159
 20
10.416124
 30
0.0
 10
16.617382
 20
10.381384
 30
0.0
 10
16.204761
 20
10.421034
 30
0.0
  0
SPLINE
  5
288
100
AcDbEntity
  8
Layer_1
 62
7
100
AcDbSpline
 70
8
 71
3
 72
8
 73
4
 74
0
 40
0
 40
0
 40
0
 40
0
 40
1
 40
1
 40
1
 40
1
 10
16.204761
 20
10.421034
 30
0.0
 10
15.706538
 20
10.468904
 30
0.0
 10
15.454540
 20
10.435754
 30
0.0
 10
15.454540
 20
10.322324
 30
0.0
  0
SPLINE
  5
289
100
AcDbEntity
  8
Layer_1
 62
7
100
AcDbSpline
 70
8
 71
3
 72
8
 73
4
 74
0
 40
0
 40
0
 40
0
 40
0
 40
1
 40
1
 40
1
 40
1
 10
15.454540
 20
10.322324
 30
0.0
 10
15.454540
 20
10.228384
 30
0.0
 10
15.352267
 20
10.151532
 30
0.0
 10
15.227267
 20
10.151532
 30
0.0
  0
SPLINE
  5
28a
100
AcDbEntity
  8
Layer_1
 62
7
100
AcDbSpline
 70
8
 71
3
 72
8
 73
4
 74
0
 40
0
 40
0
 40
0
 40
0
 40
1
 40
1
 40
1
 40
1
 10
15.227267
 20
10.151532
 30
0.0
 10
15.102267
 20
10.151532
 30
0.0
 10
14.999995
 20
10.083352
 30
0.0
 10
14.999995
 20
10.000017
 30
0.0
  0
SPLINE
  5
28b
100
AcDbEntity
  8
Layer_1
 62
7
100
AcDbSpline
 70
8
 71
3
 72
8
 73
4
 74
0
 40
0
 40
0
 40
0
 40
0
 40
1
 40
1
 40
1
 40
1
 10
14.999995
 20
10.000017
 30
0.0
 10
14.999995
 20
9.716877
 30
0.0
 10
14.517493
 20
9.846923
 30
0.0
 10
14.437836
 20
10.151532
 30
0.0
  0
SPLINE
  5
28c
100
AcDbEntity
  8
Layer_1
 62
7
100
AcDbSpline
 70
8
 71
3
 72
8
 73
4
 74
0
 40
0
 40
0
 40
0
 40
0
 40
1
 40
1
 40
1
 40
1
 10
14.437836
 20
10.151532
 30
0.0
 10
14.375756
 20
10.388937
 30
0.0
 10
14.231167
 20
10.454562
 30
0.0
 10
13.770203
 20
10.454562
 30
0.0
  0
SPLINE
  5
28d
100
AcDbEntity
  8
Layer_1
 62
7
100
AcDbSpline
 70
8
 71
3
 72
8
 73
4
 74
0
 40
0
 40
0
 40
0
 40
0
 40
1
 40
1
 40
1
 40
1
 10
13.770203
 20
10.454562
 30
0.0
 10
13.446589
 20
10.454562
 30
0.0
 10
13.181814
 20
10.386382
 30
0.0
 10
13.181814
 20
10.303047
 30
0.0
  0
SPLINE
  5
28e
100
AcDbEntity
  8
Layer_1
 62
7
100
AcDbSpline
 70
8
 71
3
 72
8
 73
4
 74
0
 40
0
 40
0
 40
0
 40
0
 40
1
 40
1
 40
1
 40
1
 10
13.181814
 20
10.303047
 30
0.0
 10
13.181814
 20
10.219717
 30
0.0
 10
13.045450
 20
10.151532
 30
0.0
 10
12.878784
 20
10.151532
 30
0.0
  0
SPLINE
  5
28f
100
AcDbEntity
  8
Layer_1
 62
7
100
AcDbSpline
 70
8
 71
3
 72
8
 73
4
 74
0
 40
0
 40
0
 40
0
 40
0
 40
1
 40
1
 40
1
 40
1
 10
12.878784
 20
10.151532
 30
0.0
 10
12.712117
 20
10.151532
 30
0.0
 10
12.575754
 20
10.219712
 30
0.0
 10
12.575754
 20
10.303047
 30
0.0
  0
SPLINE
  5
290
100
AcDbEntity
  8
Layer_1
 62
7
100
AcDbSpline
 70
8
 71
3
 72
8
 73
4
 74
0
 40
0
 40
0
 40
0
 40
0
 40
1
 40
1
 40
1
 40
1
 10
12.575754
 20
10.303047
 30
0.0
 10
12.575754
 20
10.386377
 30
0.0
 10
12.405299
 20
10.454562
 30
0.0
 10
12.196966
 20
10.454562
 30
0.0
  0
SPLINE
  5
291
100
AcDbEntity
  8
Layer_1
 62
7
100
AcDbSpline
 70
8
 71
3
 72
8
 73
4
 74
0
 40
0
 40
0
 40
0
 40
0
 40
1
 40
1
 40
1
 40
1
 10
12.196966
 20
10.454562
 30
0.0
 10
11.919188
 20
10.454562
 30
0.0
 10
11.818178
 20
10.535372
 30
0.0
 10
11.818178
 20
10.757593
 30
0.0
  0
SPLINE
  5
292
100
AcDbEntity
  8
Layer_1
 62
7
100
AcDbSpline
 70
8
 71
3
 72
8
 73
4
 74
0
 40
0
 40
0
 40
0
 40
0
 40
1
 40
1
 40
1
 40
1
 10
11.818178
 20
10.757593
 30
0.0
 10
11.818178
 20
10.961359
 30
0.0
 10
11.919188
 20
11.060623
 30
0.0
 10
12.126539
 20
11.060623
 30
0.0
  0
SPLINE
  5
293
100
AcDbEntity
  8
Layer_1
 62
7
100
AcDbSpline
 70
8
 71
3
 72
8
 73
4
 74
0
 40
0
 40
0
 40
0
 40
0
 40
1
 40
1
 40
1
 40
1
 10
12.126539
 20
11.060623
 30
0.0
 10
12.387949
 20
11.060623
 30
0.0
 10
12.410207
 20
11.106763
 30
0.0
 10
12.272723
 20
11.363653
 30
0.0
  0
SPLINE
  5
294
100
AcDbEntity
  8
Layer_1
 62
7
100
AcDbSpline
 70
8
 71
3
 72
8
 73
4
 74
0
 40
0
 40
0
 40
0
 40
0
 40
1
 40
1
 40
1
 40
1
 10
12.272723
 20
11.363653
 30
0.0
 10
12.049170
 20
11.781367
 30
0.0
 10
10.392177
 20
11.814516
 30
0.0
 10
10.234809
 20
11.404423
 30
0.0
  0
SPLINE
  5
295
100
AcDbEntity
  8
Layer_1
 62
7
100
AcDbSpline
 70
8
 71
3
 72
8
 73
4
 74
0
 40
0
 40
0
 40
0
 40
0
 40
1
 40
1
 40
1
 40
1
 10
10.234809
 20
11.404423
 30
0.0
 10
10.179459
 20
11.260180
 30
0.0
 10
10.206259
 20
11.118134
 30
0.0
 10
10.294359
 20
11.088767
 30
0.0
  0
SPLINE
  5
296
100
AcDbEntity
  8
Layer_1
 62
7
100
AcDbSpline
 70
8
 71
3
 72
8
 73
4
 74
0
 40
0
 40
0
 40
0
 40
0
 40
1
 40
1
 40
1
 40
1
 10
10.294359
 20
11.088767
 30
0.0
 10
10.556123
 20
11.001517
 30
0.0
 10
10.480004
 20
10.454563
 30
0.0
 10
10.206099
 20
10.454563
 30
0.0
  0
SPLINE
  5
297
100
AcDbEntity
  8
Layer_1
 62
7
100
AcDbSpline
 70
8
 71
3
 72
8
 73
4
 74
0
 40
0
 40
0
 40
0
 40
0
 40
1
 40
1
 40
1
 40
1
 10
10.206099
 20
10.454563
 30
0.0
 10
10.069452
 20
10.454563
 30
0.0
 10
9.864907
 20
10.335245
 30
0.0
 10
9.751554
 20
10.189412
 30
0.0
  0
SPLINE
  5
298
100
AcDbEntity
  8
Layer_1
 62
7
100
AcDbSpline
 70
8
 71
3
 72
8
 73
4
 74
0
 40
0
 40
0
 40
0
 40
0
 40
1
 40
1
 40
1
 40
1
 10
9.751554
 20
10.189412
 30
0.0
 10
9.555270
 20
9.936887
 30
0.0
 10
9.535642
 20
9.936887
 30
0.0
 10
9.339359
 20
10.189412
 30
0.0
  0
SPLINE
  5
299
100
AcDbEntity
  8
Layer_1
 62
7
100
AcDbSpline
 70
8
 71
3
 72
8
 73
4
 74
0
 40
0
 40
0
 40
0
 40
0
 40
1
 40
1
 40
1
 40
1
 10
9.339359
 20
10.189412
 30
0.0
 10
9.223977
 20
10.337855
 30
0.0
 10
8.931960
 20
10.454563
 30
0.0
 10
8.675923
 20
10.454563
 30
0.0
  0
SPLINE
  5
29a
100
AcDbEntity
  8
Layer_1
 62
7
100
AcDbSpline
 70
8
 71
3
 72
8
 73
4
 74
0
 40
0
 40
0
 40
0
 40
0
 40
1
 40
1
 40
1
 40
1
 10
8.675923
 20
10.454563
 30
0.0
 10
8.310619
 20
10.454563
 30
0.0
 10
8.180695
 20
10.363093
 30
0.0
 10
8.030306
 20
10.000018
 30
0.0
  0
SPLINE
  5
29b
100
AcDbEntity
  8
Layer_1
 62
7
100
AcDbSpline
 70
8
 71
3
 72
8
 73
4
 74
0
 40
0
 40
0
 40
0
 40
0
 40
1
 40
1
 40
1
 40
1
 10
8.030306
 20
10.000018
 30
0.0
 10
7.821995
 20
9.497111
 30
0.0
 10
7.183123
 20
9.323134
 30
0.0
 10
7.334819
 20
9.810624
 30
0.0
  0
LWPOLYLINE
  5
29c
100
AcDbEntity
  8
Layer_1
 62
7
100
AcDbPolyline
 90
3
 70
0
 10
17.451697
 20
11.666686
 30
0.0
 10
17.082479
 20
12.196989
 30
0.0
 10
17.168009
 20
11.422246
 30
0.0
  0
SPLINE
  5
29d
100
AcDbEntity
  8
Layer_1
 62
7
100
AcDbSpline
 70
8
 71
3
 72
8
 73
4
 74
0
 40
0
 40
0
 40
0
 40
0
 40
1
 40
1
 40
1
 40
1
 10
23.616940
 20
12.591695
 30
0.0
 10
24.200452
 20
12.795108
 30
0.0
 10
24.393926
 20
13.124033
 30
0.0
 10
24.393926
 20
13.912648
 30
0.0
  0
SPLINE
  5
29e
100
AcDbEntity
  8
Layer_1
 62
7
100
AcDbSpline
 70
8
 71
3
 72
8
 73
4
 74
0
 40
0
 40
0
 40
0
 40
0
 40
1
 40
1
 40
1
 40
1
 10
24.393926
 20
13.912648
 30
0.0
 10
24.393926
 20
14.647337
 30
0.0
 10
24.032932
 20
15.117886
 30
0.0
 10
23.371199
 20
15.245756
 30
0.0
  0
LWPOLYLINE
  5
29f
100
AcDbEntity
  8
Layer_1
 62
7
100
AcDbPolyline
 90
1
 70
1
 10
7.334819
 20
9.810624
 30
0.0
  0
SPLINE
  5
2a0
100
AcDbEntity
  8
Layer_1
 62
7
100
AcDbSpline
 70
8
 71
3
 72
8
 73
4
 74
0
 40
0
 40
0
 40
0
 40
0
 40
1
 40
1
 40
1
 40
1
 10
22.878775
 20
13.882573
 30
0.0
 10
22.878775
 20
13.080489
 30
0.0
 10
22.936785
 20
12.424239
 30
0.0
 10
23.007681
 20
12.424239
 30
0.0
  0
SPLINE
  5
2a1
100
AcDbEntity
  8
Layer_1
 62
7
100
AcDbSpline
 70
8
 71
3
 72
8
 73
4
 74
0
 40
0
 40
0
 40
0
 40
0
 40
1
 40
1
 40
1
 40
1
 10
23.007681
 20
12.424239
 30
0.0
 10
23.078581
 20
12.424239
 30
0.0
 10
23.352745
 20
12.499589
 30
0.0
 10
23.616940
 20
12.591692
 30
0.0
  0
LWPOLYLINE
  5
2a2
100
AcDbEntity
  8
Layer_1
 62
7
100
AcDbPolyline
 90
3
 70
0
 10
23.371199
 20
15.245756
 30
0.0
 10
22.878775
 20
15.340906
 30
0.0
 10
22.878775
 20
13.882573
 30
0.0
  0
SPLINE
  5
2a3
100
AcDbEntity
  8
Layer_1
 62
7
100
AcDbSpline
 70
8
 71
3
 72
8
 73
4
 74
0
 40
0
 40
0
 40
0
 40
0
 40
1
 40
1
 40
1
 40
1
 10
51.418400
 20
12.651515
 30
0.0
 10
51.361540
 20
12.799681
 30
0.0
 10
51.125876
 20
12.878788
 30
0.0
 10
50.741337
 20
12.878788
 30
0.0
  0
SPLINE
  5
2a4
100
AcDbEntity
  8
Layer_1
 62
7
100
AcDbSpline
 70
8
 71
3
 72
8
 73
4
 74
0
 40
0
 40
0
 40
0
 40
0
 40
1
 40
1
 40
1
 40
1
 10
50.741337
 20
12.878788
 30
0.0
 10
50.318036
 20
12.878788
 30
0.0
 10
50.151487
 20
12.814618
 30
0.0
 10
50.151487
 20
12.651515
 30
0.0
  0
SPLINE
  5
2a5
100
AcDbEntity
  8
Layer_1
 62
7
100
AcDbSpline
 70
8
 71
3
 72
8
 73
4
 74
0
 40
0
 40
0
 40
0
 40
0
 40
1
 40
1
 40
1
 40
1
 10
50.151487
 20
12.651515
 30
0.0
 10
50.151487
 20
12.483402
 30
0.0
 10
50.327727
 20
12.424242
 30
0.0
 10
50.828551
 20
12.424242
 30
0.0
  0
SPLINE
  5
2a6
100
AcDbEntity
  8
Layer_1
 62
7
100
AcDbSpline
 70
8
 71
3
 72
8
 73
4
 74
0
 40
0
 40
0
 40
0
 40
0
 40
1
 40
1
 40
1
 40
1
 10
50.828551
 20
12.424242
 30
0.0
 10
51.368134
 20
12.424242
 30
0.0
 10
51.487903
 20
12.470392
 30
0.0
 10
51.418400
 20
12.651515
 30
0.0
  0
LWPOLYLINE
  5
2a7
100
AcDbEntity
  8
Layer_1
 62
7
100
AcDbPolyline
 90
1
 70
1
 10
23.616940
 20
12.591692
 30
0.0
  0
SPLINE
  5
2a8
100
AcDbEntity
  8
Layer_1
 62
7
100
AcDbSpline
 70
8
 71
3
 72
8
 73
4
 74
0
 40
0
 40
0
 40
0
 40
0
 40
1
 40
1
 40
1
 40
1
 10
11.407977
 20
13.786175
 30
0.0
 10
11.364637
 20
13.951904
 30
0.0
 10
11.268748
 20
14.050153
 30
0.0
 10
11.194889
 20
14.004505
 30
0.0
  0
SPLINE
  5
2a9
100
AcDbEntity
  8
Layer_1
 62
7
100
AcDbSpline
 70
8
 71
3
 72
8
 73
4
 74
0
 40
0
 40
0
 40
0
 40
0
 40
1
 40
1
 40
1
 40
1
 10
11.194889
 20
14.004505
 30
0.0
 10
10.980831
 20
13.872210
 30
0.0
 10
11.039569
 20
13.484848
 30
0.0
 10
11.273689
 20
13.484848
 30
0.0
  0
SPLINE
  5
2aa
100
AcDbEntity
  8
Layer_1
 62
7
100
AcDbSpline
 70
8
 71
3
 72
8
 73
4
 74
0
 40
0
 40
0
 40
0
 40
0
 40
1
 40
1
 40
1
 40
1
 10
11.273689
 20
13.484848
 30
0.0
 10
11.411780
 20
13.484848
 30
0.0
 10
11.459043
 20
13.590901
 30
0.0
 10
11.407978
 20
13.786175
 30
0.0
  0
LWPOLYLINE
  5
2ab
100
AcDbEntity
  8
Layer_1
 62
7
100
AcDbPolyline
 90
1
 70
1
 10
51.418400
 20
12.651515
 30
0.0
  0
SPLINE
  5
2ac
100
AcDbEntity
  8
Layer_1
 62
7
100
AcDbSpline
 70
8
 71
3
 72
8
 73
4
 74
0
 40
0
 40
0
 40
0
 40
0
 40
1
 40
1
 40
1
 40
1
 10
38.785538
 20
13.598485
 30
0.0
 10
38.784338
 20
13.660985
 30
0.0
 10
38.725538
 20
13.803112
 30
0.0
 10
38.655042
 20
13.914323
 30
0.0
  0
SPLINE
  5
2ad
100
AcDbEntity
  8
Layer_1
 62
7
100
AcDbSpline
 70
8
 71
3
 72
8
 73
4
 74
0
 40
0
 40
0
 40
0
 40
0
 40
1
 40
1
 40
1
 40
1
 10
38.655042
 20
13.914323
 30
0.0
 10
38.557592
 20
14.068057
 30
0.0
 10
38.507071
 20
14.040817
 30
0.0
 10
38.444276
 20
13.800687
 30
0.0
  0
SPLINE
  5
2ae
100
AcDbEntity
  8
Layer_1
 62
7
100
AcDbSpline
 70
8
 71
3
 72
8
 73
4
 74
0
 40
0
 40
0
 40
0
 40
0
 40
1
 40
1
 40
1
 40
1
 10
38.444276
 20
13.800687
 30
0.0
 10
38.389476
 20
13.591144
 30
0.0
 10
38.433396
 20
13.484848
 30
0.0
 10
38.574770
 20
13.484848
 30
0.0
  0
SPLINE
  5
2af
100
AcDbEntity
  8
Layer_1
 62
7
100
AcDbSpline
 70
8
 71
3
 72
8
 73
4
 74
0
 40
0
 40
0
 40
0
 40
0
 40
1
 40
1
 40
1
 40
1
 10
38.574770
 20
13.484848
 30
0.0
 10
38.691968
 20
13.484848
 30
0.0
 10
38.786813
 20
13.535988
 30
0.0
 10
38.785538
 20
13.598485
 30
0.0
  0
LWPOLYLINE
  5
2b0
100
AcDbEntity
  8
Layer_1
 62
7
100
AcDbPolyline
 90
1
 70
1
 10
11.407978
 20
13.786175
 30
0.0
  0
SPLINE
  5
2b1
100
AcDbEntity
  8
Layer_1
 62
7
100
AcDbSpline
 70
8
 71
3
 72
8
 73
4
 74
0
 40
0
 40
0
 40
0
 40
0
 40
1
 40
1
 40
1
 40
1
 10
17.651505
 20
15.000000
 30
0.0
 10
17.651505
 20
15.236335
 30
0.0
 10
17.553625
 20
15.393489
 30
0.0
 10
17.386354
 20
15.425701
 30
0.0
  0
SPLINE
  5
2b2
100
AcDbEntity
  8
Layer_1
 62
7
100
AcDbSpline
 70
8
 71
3
 72
8
 73
4
 74
0
 40
0
 40
0
 40
0
 40
0
 40
1
 40
1
 40
1
 40
1
 10
17.386354
 20
15.425701
 30
0.0
 10
17.179187
 20
15.465601
 30
0.0
 10
17.121203
 20
15.372501
 30
0.0
 10
17.121203
 20
15.000000
 30
0.0
  0
SPLINE
  5
2b3
100
AcDbEntity
  8
Layer_1
 62
7
100
AcDbSpline
 70
8
 71
3
 72
8
 73
4
 74
0
 40
0
 40
0
 40
0
 40
0
 40
1
 40
1
 40
1
 40
1
 10
17.121203
 20
15.000000
 30
0.0
 10
17.121203
 20
14.627495
 30
0.0
 10
17.179183
 20
14.534402
 30
0.0
 10
17.386354
 20
14.574299
 30
0.0
  0
SPLINE
  5
2b4
100
AcDbEntity
  8
Layer_1
 62
7
100
AcDbSpline
 70
8
 71
3
 72
8
 73
4
 74
0
 40
0
 40
0
 40
0
 40
0
 40
1
 40
1
 40
1
 40
1
 10
17.386354
 20
14.574299
 30
0.0
 10
17.553621
 20
14.606509
 30
0.0
 10
17.651505
 20
14.763665
 30
0.0
 10
17.651505
 20
15.000000
 30
0.0
  0
LWPOLYLINE
  5
2b5
100
AcDbEntity
  8
Layer_1
 62
7
100
AcDbPolyline
 90
1
 70
1
 10
38.785538
 20
13.598485
 30
0.0
  0
SPLINE
  5
2b6
100
AcDbEntity
  8
Layer_1
 62
7
100
AcDbSpline
 70
8
 71
3
 72
8
 73
4
 74
0
 40
0
 40
0
 40
0
 40
0
 40
1
 40
1
 40
1
 40
1
 10
45.135552
 20
14.753523
 30
0.0
 10
45.368508
 20
15.034218
 30
0.0
 10
45.186652
 20
15.454545
 30
0.0
 10
44.832249
 20
15.454545
 30
0.0
  0
SPLINE
  5
2b7
100
AcDbEntity
  8
Layer_1
 62
7
100
AcDbSpline
 70
8
 71
3
 72
8
 73
4
 74
0
 40
0
 40
0
 40
0
 40
0
 40
1
 40
1
 40
1
 40
1
 10
44.832249
 20
15.454545
 30
0.0
 10
44.614571
 20
15.454545
 30
0.0
 10
44.545430
 20
15.344972
 30
0.0
 10
44.545430
 20
15.000000
 30
0.0
  0
SPLINE
  5
2b8
100
AcDbEntity
  8
Layer_1
 62
7
100
AcDbSpline
 70
8
 71
3
 72
8
 73
4
 74
0
 40
0
 40
0
 40
0
 40
0
 40
1
 40
1
 40
1
 40
1
 10
44.545430
 20
15.000000
 30
0.0
 10
44.545430
 20
14.511669
 30
0.0
 10
44.834596
 20
14.390893
 30
0.0
 10
45.135552
 20
14.753523
 30
0.0
  0
LWPOLYLINE
  5
2b9
100
AcDbEntity
  8
Layer_1
 62
7
100
AcDbPolyline
 90
1
 70
1
 10
17.651505
 20
15.000000
 30
0.0
  0
SPLINE
  5
2ba
100
AcDbEntity
  8
Layer_1
 62
7
100
AcDbSpline
 70
8
 71
3
 72
8
 73
4
 74
0
 40
0
 40
0
 40
0
 40
0
 40
1
 40
1
 40
1
 40
1
 10
53.963634
 20
9.859300
 30
0.0
 10
53.531272
 20
10.209405
 30
0.0
 10
53.561740
 20
10.458228
 30
0.0
 10
54.087790
 20
10.873234
 30
0.0
  0
SPLINE
  5
2bb
100
AcDbEntity
  8
Layer_1
 62
7
100
AcDbSpline
 70
8
 71
3
 72
8
 73
4
 74
0
 40
0
 40
0
 40
0
 40
0
 40
1
 40
1
 40
1
 40
1
 10
54.087790
 20
10.873234
 30
0.0
 10
55.459795
 20
11.955627
 30
0.0
 10
57.585360
 20
12.522862
 30
0.0
 10
59.285382
 20
12.260281
 30
0.0
  0
SPLINE
  5
2bc
100
AcDbEntity
  8
Layer_1
 62
7
100
AcDbSpline
 70
8
 71
3
 72
8
 73
4
 74
0
 40
0
 40
0
 40
0
 40
0
 40
1
 40
1
 40
1
 40
1
 10
59.285382
 20
12.260281
 30
0.0
 10
60.363359
 20
12.093779
 30
0.0
 10
62.181628
 20
11.262594
 30
0.0
 10
62.718861
 20
10.690735
 30
0.0
  0
LWPOLYLINE
  5
2bd
100
AcDbEntity
  8
Layer_1
 62
7
100
AcDbPolyline
 90
1
 70
1
 10
45.135552
 20
14.753523
 30
0.0
  0
SPLINE
  5
2be
100
AcDbEntity
  8
Layer_1
 62
7
100
AcDbSpline
 70
8
 71
3
 72
8
 73
4
 74
0
 40
0
 40
0
 40
0
 40
0
 40
1
 40
1
 40
1
 40
1
 10
61.681705
 20
10.055168
 30
0.0
 10
59.670117
 20
11.504315
 30
0.0
 10
57.151355
 20
11.549775
 30
0.0
 10
55.137875
 20
10.173274
 30
0.0
  0
SPLINE
  5
2bf
100
AcDbEntity
  8
Layer_1
 62
7
100
AcDbSpline
 70
8
 71
3
 72
8
 73
4
 74
0
 40
0
 40
0
 40
0
 40
0
 40
1
 40
1
 40
1
 40
1
 10
55.137875
 20
10.173274
 30
0.0
 10
54.316165
 20
9.611518
 30
0.0
 10
54.281184
 20
9.602164
 30
0.0
 10
53.963634
 20
9.859300
 30
0.0
  0
LWPOLYLINE
  5
2c0
100
AcDbEntity
  8
Layer_1
 62
7
100
AcDbPolyline
 90
5
 70
0
 10
62.718861
 20
10.690735
 30
0.0
 10
63.083091
 20
10.303030
 30
0.0
 10
62.730842
 20
9.928080
 30
0.0
 10
62.378596
 20
9.553129
 30
0.0
 10
61.681705
 20
10.055168
 30
0.0
  0
LWPOLYLINE
  5
2c1
100
AcDbEntity
  8
Layer_1
 62
7
100
AcDbPolyline
 90
1
 70
1
 10
53.963634
 20
9.859300
 30
0.0
  0
ENDSEC
  0
SECTION
  2
OBJECTS
  0
DICTIONARY
  5
C
330
0
100
AcDbDictionary
  3
ACAD_GROUP
350
D
  3
ACAD_MLINESTYLE
350
17
  0
DICTIONARY
  5
D
330
C
100
AcDbDictionary
  0
DICTIONARY
  5
1A
330
C
100
AcDbDictionary
  0
DICTIONARY
  5
17
330
C
100
AcDbDictionary
  3
STANDARD
350
18
  0
DICTIONARY
  5
19
330
C
100
AcDbDictionary
  0
ENDSEC
  0
EOF
