  0
SECTION
  2
HEADER
  9
$ACADVER
  1
AC1014
  9
$HANDSEED
  5
FFFF
  9
$MEASUREMENT
 70
     1
  0
ENDSEC
  0
SECTION
  2
TABLES
  0
TABLE
  2
VPORT
  5
8
330
0
100
AcDbSymbolTable
 70
     4
  0
VPORT
  5
2E
330
8
100
AcDbSymbolTableRecord
100
AcDbViewportTableRecord
  2
*ACTIVE
 70
     0
 10
0.0
 20
0.0
 11
1.0
 21
1.0
 12
210.0
 22
148.5
 13
0.0
 23
0.0
 14
10.0
 24
10.0
 15
10.0
 25
10.0
 16
0.0
 26
0.0
 36
1.0
 17
0.0
 27
0.0
 37
0.0
 40
341.0
 41
1.24
 42
50.0
 43
0.0
 44
0.0
 50
0.0
 51
0.0
 71
     0
 72
   100
 73
     1
 74
     3
 75
     0
 76
     0
 77
     0
 78
     0
  0
ENDTAB
  0
TABLE
  2
LTYPE
  5
5
330
0
100
AcDbSymbolTable
 70
     1
  0
LTYPE
  5
14
330
5
100
AcDbSymbolTableRecord
100
AcDbLinetypeTableRecord
  2
BYBLOCK
 70
     0
  3

 72
    65
 73
     0
 40
0.0
  0
LTYPE
  5
15
330
5
100
AcDbSymbolTableRecord
100
AcDbLinetypeTableRecord
  2
BYLAYER
 70
     0
  3

 72
    65
 73
     0
 40
0.0
  0
LTYPE
  5
16
330
5
100
AcDbSymbolTableRecord
100
AcDbLinetypeTableRecord
  2
CONTINUOUS
 70
     0
  3
Solid line
 72
    65
 73
     0
 40
0.0
  0
ENDTAB
  0
TABLE
  2
LAYER
  5
2
100
AcDbSymbolTable
 70
2
  0
LAYER
  5
50
100
AcDbSymbolTableRecord
100
AcDbLayerTableRecord
  2
0
 70
0
  6
CONTINUOUS
  0
LAYER
  5
51
100
AcDbSymbolTableRecord
100
AcDbLayerTableRecord
  2
Layer_1
 70
0
  6
CONTINUOUS
  0
ENDTAB
  0
TABLE
  2
STYLE
  5
3
330
0
100
AcDbSymbolTable
 70
     1
  0
STYLE
  5
11
330
3
100
AcDbSymbolTableRecord
100
AcDbTextStyleTableRecord
  2
STANDARD
 70
     0
 40
0.0
 41
1.0
 50
0.0
 71
     0
 42
2.5
  3
txt
  4

  0
ENDTAB
  0
TABLE
  2
VIEW
  5
6
330
0
100
AcDbSymbolTable
 70
     0
  0
ENDTAB
  0
TABLE
  2
UCS
  5
7
330
0
100
AcDbSymbolTable
 70
     0
  0
ENDTAB
  0
TABLE
  2
APPID
  5
9
330
0
100
AcDbSymbolTable
 70
     2
  0
APPID
  5
12
330
9
100
AcDbSymbolTableRecord
100
AcDbRegAppTableRecord
  2
ACAD
 70
     0
  0
ENDTAB
  0
TABLE
  2
DIMSTYLE
  5
A
330
0
100
AcDbSymbolTable
 70
     1
  0
DIMSTYLE
105
27
330
A
100
AcDbSymbolTableRecord
100
AcDbDimStyleTableRecord
  2
ISO-25
 70
     0
  3

  4

  5

  6

  7

 40
1.0
 41
2.5
 42
0.625
 43
3.75
 44
1.25
 45
0.0
 46
0.0
 47
0.0
 48
0.0
140
2.5
141
2.5
142
0.0
143
0.03937007874016
144
1.0
145
0.0
146
1.0
147
0.625
 71
     0
 72
     0
 73
     0
 74
     0
 75
     0
 76
     0
 77
     1
 78
     8
170
     0
171
     3
172
     1
173
     0
174
     0
175
     0
176
     0
177
     0
178
     0
270
     2
271
     2
272
     2
273
     2
274
     3
340
11
275
     0
280
     0
281
     0
282
     0
283
     0
284
     8
285
     0
286
     0
287
     3
288
     0
  0
ENDTAB
  0
TABLE
  2
BLOCK_RECORD
  5
1
330
0
100
AcDbSymbolTable
 70
     1
  0
BLOCK_RECORD
  5
1F
330
1
100
AcDbSymbolTableRecord
100
AcDbBlockTableRecord
  2
*MODEL_SPACE
  0
BLOCK_RECORD
  5
1B
330
1
100
AcDbSymbolTableRecord
100
AcDbBlockTableRecord
  2
*PAPER_SPACE
  0
ENDTAB
  0
ENDSEC
  0
SECTION
  2
BLOCKS
  0
BLOCK
  5
20
330
1F
100
AcDbEntity
  8
0
100
AcDbBlockBegin
  2
*MODEL_SPACE
 70
     0
 10
0.0
 20
0.0
 30
0.0
  3
*MODEL_SPACE
  1

  0
ENDBLK
  5
21
330
1F
100
AcDbEntity
  8
0
100
AcDbBlockEnd
  0
BLOCK
  5
1C
330
1B
100
AcDbEntity
 67
     1
  8
0
100
AcDbBlockBegin
  2
*PAPER_SPACE
  1

  0
ENDBLK
  5
1D
330
1B
100
AcDbEntity
 67
     1
  8
0
100
AcDbBlockEnd
  0
ENDSEC
  0
SECTION
  2
ENTITIES
  0
SPLINE
  5
100
100
AcDbEntity
  8
Layer_1
 62
7
100
AcDbSpline
 70
8
 71
3
 72
8
 73
4
 74
0
 40
0
 40
0
 40
0
 40
0
 40
1
 40
1
 40
1
 40
1
 10
4.437064
 20
4.166667
 30
0.0
 10
4.233031
 20
5.321862
 30
0.0
 10
3.564781
 20
9.543912
 30
0.0
 10
3.563816
 20
9.683908
 30
0.0
  0
SPLINE
  5
101
100
AcDbEntity
  8
Layer_1
 62
7
100
AcDbSpline
 70
8
 71
3
 72
8
 73
4
 74
0
 40
0
 40
0
 40
0
 40
0
 40
1
 40
1
 40
1
 40
1
 10
3.563816
 20
9.683908
 30
0.0
 10
3.563490
 20
9.731318
 30
0.0
 10
4.132188
 20
9.770118
 30
0.0
 10
4.827591
 20
9.770118
 30
0.0
  0
SPLINE
  5
102
100
AcDbEntity
  8
Layer_1
 62
7
100
AcDbSpline
 70
8
 71
3
 72
8
 73
4
 74
0
 40
0
 40
0
 40
0
 40
0
 40
1
 40
1
 40
1
 40
1
 10
4.827591
 20
9.770118
 30
0.0
 10
5.522995
 20
9.770118
 30
0.0
 10
6.091961
 20
9.746778
 30
0.0
 10
6.091961
 20
9.718258
 30
0.0
  0
SPLINE
  5
103
100
AcDbEntity
  8
Layer_1
 62
7
100
AcDbSpline
 70
8
 71
3
 72
8
 73
4
 74
0
 40
0
 40
0
 40
0
 40
0
 40
1
 40
1
 40
1
 40
1
 10
6.091961
 20
9.718258
 30
0.0
 10
6.091961
 20
9.689728
 30
0.0
 10
6.014711
 20
9.369813
 30
0.0
 10
5.920295
 20
9.007325
 30
0.0
  0
SPLINE
  5
104
100
AcDbEntity
  8
Layer_1
 62
7
100
AcDbSpline
 70
8
 71
3
 72
8
 73
4
 74
0
 40
0
 40
0
 40
0
 40
0
 40
1
 40
1
 40
1
 40
1
 10
5.920295
 20
9.007325
 30
0.0
 10
5.667498
 20
8.036774
 30
0.0
 10
5.585109
 20
6.045069
 30
0.0
 10
5.768791
 20
5.344834
 30
0.0
  0
SPLINE
  5
105
100
AcDbEntity
  8
Layer_1
 62
7
100
AcDbSpline
 70
8
 71
3
 72
8
 73
4
 74
0
 40
0
 40
0
 40
0
 40
0
 40
1
 40
1
 40
1
 40
1
 10
5.768791
 20
5.344834
 30
0.0
 10
5.897907
 20
4.852617
 30
0.0
 10
5.963810
 20
4.765007
 30
0.0
 10
6.227908
 20
4.734497
 30
0.0
  0
SPLINE
  5
106
100
AcDbEntity
  8
Layer_1
 62
7
100
AcDbSpline
 70
8
 71
3
 72
8
 73
4
 74
0
 40
0
 40
0
 40
0
 40
0
 40
1
 40
1
 40
1
 40
1
 10
6.227908
 20
4.734497
 30
0.0
 10
6.443348
 20
4.709607
 30
0.0
 10
6.573649
 20
4.768717
 30
0.0
 10
6.660313
 20
4.930650
 30
0.0
  0
SPLINE
  5
107
100
AcDbEntity
  8
Layer_1
 62
7
100
AcDbSpline
 70
8
 71
3
 72
8
 73
4
 74
0
 40
0
 40
0
 40
0
 40
0
 40
1
 40
1
 40
1
 40
1
 10
6.660313
 20
4.930650
 30
0.0
 10
6.728933
 20
5.058867
 30
0.0
 10
6.817575
 20
6.191799
 30
0.0
 10
6.858702
 20
7.466274
 30
0.0
  0
SPLINE
  5
108
100
AcDbEntity
  8
Layer_1
 62
7
100
AcDbSpline
 70
8
 71
3
 72
8
 73
4
 74
0
 40
0
 40
0
 40
0
 40
0
 40
1
 40
1
 40
1
 40
1
 10
7.230901
 20
9.779121
 30
0.0
 10
7.432682
 20
9.785221
 30
0.0
 10
7.287771
 20
9.871551
 30
0.0
 10
6.781622
 20
10.046833
 30
0.0
  0
SPLINE
  5
109
100
AcDbEntity
  8
Layer_1
 62
7
100
AcDbSpline
 70
8
 71
3
 72
8
 73
4
 74
0
 40
0
 40
0
 40
0
 40
0
 40
1
 40
1
 40
1
 40
1
 10
6.781622
 20
10.046833
 30
0.0
 10
6.059250
 20
10.296998
 30
0.0
 10
6.033312
 20
10.319552
 30
0.0
 10
5.998820
 20
10.727514
 30
0.0
  0
LWPOLYLINE
  5
10a
100
AcDbEntity
  8
Layer_1
 62
7
100
AcDbPolyline
 90
3
 70
0
 10
6.858702
 20
7.466274
 30
0.0
 10
6.933052
 20
9.770121
 30
0.0
 10
7.230901
 20
9.779121
 30
0.0
  0
SPLINE
  5
10b
100
AcDbEntity
  8
Layer_1
 62
7
100
AcDbSpline
 70
8
 71
3
 72
8
 73
4
 74
0
 40
0
 40
0
 40
0
 40
0
 40
1
 40
1
 40
1
 40
1
 10
6.792502
 20
11.149456
 30
0.0
 10
7.608743
 20
11.149456
 30
0.0
 10
7.618633
 20
11.153056
 30
0.0
 10
7.418107
 20
11.374594
 30
0.0
  0
SPLINE
  5
10c
100
AcDbEntity
  8
Layer_1
 62
7
100
AcDbSpline
 70
8
 71
3
 72
8
 73
4
 74
0
 40
0
 40
0
 40
0
 40
0
 40
1
 40
1
 40
1
 40
1
 10
7.418107
 20
11.374594
 30
0.0
 10
7.306046
 20
11.498420
 30
0.0
 10
6.960217
 20
11.684144
 30
0.0
 10
6.649597
 20
11.787315
 30
0.0
  0
SPLINE
  5
10d
100
AcDbEntity
  8
Layer_1
 62
7
100
AcDbSpline
 70
8
 71
3
 72
8
 73
4
 74
0
 40
0
 40
0
 40
0
 40
0
 40
1
 40
1
 40
1
 40
1
 10
6.649597
 20
11.787315
 30
0.0
 10
5.637127
 20
12.123603
 30
0.0
 10
5.053402
 20
12.876577
 30
0.0
 10
5.237266
 20
13.609148
 30
0.0
  0
SPLINE
  5
10e
100
AcDbEntity
  8
Layer_1
 62
7
100
AcDbSpline
 70
8
 71
3
 72
8
 73
4
 74
0
 40
0
 40
0
 40
0
 40
0
 40
1
 40
1
 40
1
 40
1
 10
5.237266
 20
13.609148
 30
0.0
 10
5.336126
 20
14.003022
 30
0.0
 10
5.472434
 20
13.988513
 30
0.0
 10
5.555073
 20
13.575318
 30
0.0
  0
SPLINE
  5
10f
100
AcDbEntity
  8
Layer_1
 62
7
100
AcDbSpline
 70
8
 71
3
 72
8
 73
4
 74
0
 40
0
 40
0
 40
0
 40
0
 40
1
 40
1
 40
1
 40
1
 10
5.555073
 20
13.575318
 30
0.0
 10
5.612683
 20
13.287253
 30
0.0
 10
5.730317
 20
13.201025
 30
0.0
 10
6.430884
 20
12.933324
 30
0.0
  0
SPLINE
  5
110
100
AcDbEntity
  8
Layer_1
 62
7
100
AcDbSpline
 70
8
 71
3
 72
8
 73
4
 74
0
 40
0
 40
0
 40
0
 40
0
 40
1
 40
1
 40
1
 40
1
 10
6.430884
 20
12.933324
 30
0.0
 10
6.895995
 20
12.755595
 30
0.0
 10
7.338171
 20
12.499467
 30
0.0
 10
7.470655
 20
12.331041
 30
0.0
  0
SPLINE
  5
111
100
AcDbEntity
  8
Layer_1
 62
7
100
AcDbSpline
 70
8
 71
3
 72
8
 73
4
 74
0
 40
0
 40
0
 40
0
 40
0
 40
1
 40
1
 40
1
 40
1
 10
7.470655
 20
12.331041
 30
0.0
 10
7.597436
 20
12.169865
 30
0.0
 10
7.701167
 20
12.093084
 30
0.0
 10
7.701167
 20
12.160418
 30
0.0
  0
SPLINE
  5
112
100
AcDbEntity
  8
Layer_1
 62
7
100
AcDbSpline
 70
8
 71
3
 72
8
 73
4
 74
0
 40
0
 40
0
 40
0
 40
0
 40
1
 40
1
 40
1
 40
1
 10
7.701167
 20
12.160418
 30
0.0
 10
7.701167
 20
12.227748
 30
0.0
 10
7.462771
 20
12.480416
 30
0.0
 10
7.171399
 20
12.721896
 30
0.0
  0
SPLINE
  5
113
100
AcDbEntity
  8
Layer_1
 62
7
100
AcDbSpline
 70
8
 71
3
 72
8
 73
4
 74
0
 40
0
 40
0
 40
0
 40
0
 40
1
 40
1
 40
1
 40
1
 10
7.171399
 20
12.721896
 30
0.0
 10
5.496387
 20
14.110090
 30
0.0
 10
5.057486
 20
14.699584
 30
0.0
 10
5.057486
 20
15.561118
 30
0.0
  0
SPLINE
  5
114
100
AcDbEntity
  8
Layer_1
 62
7
100
AcDbSpline
 70
8
 71
3
 72
8
 73
4
 74
0
 40
0
 40
0
 40
0
 40
0
 40
1
 40
1
 40
1
 40
1
 10
5.057486
 20
15.561118
 30
0.0
 10
5.057486
 20
16.293568
 30
0.0
 10
5.416393
 20
16.716958
 30
0.0
 10
5.580578
 20
16.178191
 30
0.0
  0
SPLINE
  5
115
100
AcDbEntity
  8
Layer_1
 62
7
100
AcDbSpline
 70
8
 71
3
 72
8
 73
4
 74
0
 40
0
 40
0
 40
0
 40
0
 40
1
 40
1
 40
1
 40
1
 10
5.580578
 20
16.178191
 30
0.0
 10
5.710233
 20
15.752730
 30
0.0
 10
5.989664
 20
15.514405
 30
0.0
 10
6.896568
 20
15.055791
 30
0.0
  0
SPLINE
  5
116
100
AcDbEntity
  8
Layer_1
 62
7
100
AcDbSpline
 70
8
 71
3
 72
8
 73
4
 74
0
 40
0
 40
0
 40
0
 40
0
 40
1
 40
1
 40
1
 40
1
 10
6.896568
 20
15.055791
 30
0.0
 10
8.109514
 20
14.442415
 30
0.0
 10
8.406182
 20
14.098019
 30
0.0
 10
8.500070
 20
13.194319
 30
0.0
  0
LWPOLYLINE
  5
117
100
AcDbEntity
  8
Layer_1
 62
7
100
AcDbPolyline
 90
3
 70
0
 10
5.998820
 20
10.727514
 30
0.0
 10
5.963150
 20
11.149456
 30
0.0
 10
6.792502
 20
11.149456
 30
0.0
  0
SPLINE
  5
118
100
AcDbEntity
  8
Layer_1
 62
7
100
AcDbSpline
 70
8
 71
3
 72
8
 73
4
 74
0
 40
0
 40
0
 40
0
 40
0
 40
1
 40
1
 40
1
 40
1
 10
8.727630
 20
12.948261
 30
0.0
 10
8.859244
 20
13.360067
 30
0.0
 10
8.854502
 20
13.500263
 30
0.0
 10
8.692920
 20
13.974484
 30
0.0
  0
SPLINE
  5
119
100
AcDbEntity
  8
Layer_1
 62
7
100
AcDbSpline
 70
8
 71
3
 72
8
 73
4
 74
0
 40
0
 40
0
 40
0
 40
0
 40
1
 40
1
 40
1
 40
1
 10
8.692920
 20
13.974484
 30
0.0
 10
8.459258
 20
14.660244
 30
0.0
 10
8.457488
 20
14.937419
 30
0.0
 10
8.684720
 20
15.261811
 30
0.0
  0
SPLINE
  5
11a
100
AcDbEntity
  8
Layer_1
 62
7
100
AcDbSpline
 70
8
 71
3
 72
8
 73
4
 74
0
 40
0
 40
0
 40
0
 40
0
 40
1
 40
1
 40
1
 40
1
 10
8.684720
 20
15.261811
 30
0.0
 10
8.909280
 20
15.582415
 30
0.0
 10
9.080502
 20
15.589657
 30
0.0
 10
9.080502
 20
15.278551
 30
0.0
  0
SPLINE
  5
11b
100
AcDbEntity
  8
Layer_1
 62
7
100
AcDbSpline
 70
8
 71
3
 72
8
 73
4
 74
0
 40
0
 40
0
 40
0
 40
0
 40
1
 40
1
 40
1
 40
1
 10
9.080502
 20
15.278551
 30
0.0
 10
9.080502
 20
15.147256
 30
0.0
 10
9.286363
 20
14.752350
 30
0.0
 10
9.537971
 20
14.400984
 30
0.0
  0
SPLINE
  5
11c
100
AcDbEntity
  8
Layer_1
 62
7
100
AcDbSpline
 70
8
 71
3
 72
8
 73
4
 74
0
 40
0
 40
0
 40
0
 40
0
 40
1
 40
1
 40
1
 40
1
 10
9.537971
 20
14.400984
 30
0.0
 10
10.353676
 20
13.261867
 30
0.0
 10
10.281013
 20
12.721036
 30
0.0
 10
9.199416
 20
11.881101
 30
0.0
  0
SPLINE
  5
11d
100
AcDbEntity
  8
Layer_1
 62
7
100
AcDbSpline
 70
8
 71
3
 72
8
 73
4
 74
0
 40
0
 40
0
 40
0
 40
0
 40
1
 40
1
 40
1
 40
1
 10
9.199416
 20
11.881101
 30
0.0
 10
8.817921
 20
11.584844
 30
0.0
 10
8.505788
 20
11.299027
 30
0.0
 10
8.505788
 20
11.245953
 30
0.0
  0
SPLINE
  5
11e
100
AcDbEntity
  8
Layer_1
 62
7
100
AcDbSpline
 70
8
 71
3
 72
8
 73
4
 74
0
 40
0
 40
0
 40
0
 40
0
 40
1
 40
1
 40
1
 40
1
 10
8.505788
 20
11.245953
 30
0.0
 10
8.505788
 20
11.192883
 30
0.0
 10
8.715807
 20
11.149453
 30
0.0
 10
8.972498
 20
11.149453
 30
0.0
  0
LWPOLYLINE
  5
11f
100
AcDbEntity
  8
Layer_1
 62
7
100
AcDbPolyline
 90
3
 70
0
 10
8.500070
 20
13.194319
 30
0.0
 10
8.575190
 20
12.471294
 30
0.0
 10
8.727630
 20
12.948261
 30
0.0
  0
SPLINE
  5
120
100
AcDbEntity
  8
Layer_1
 62
7
100
AcDbSpline
 70
8
 71
3
 72
8
 73
4
 74
0
 40
0
 40
0
 40
0
 40
0
 40
1
 40
1
 40
1
 40
1
 10
9.403537
 20
10.718419
 30
0.0
 10
9.369327
 20
10.305042
 30
0.0
 10
9.339607
 20
10.277069
 30
0.0
 10
8.678207
 20
10.035596
 30
0.0
  0
SPLINE
  5
121
100
AcDbEntity
  8
Layer_1
 62
7
100
AcDbSpline
 70
8
 71
3
 72
8
 73
4
 74
0
 40
0
 40
0
 40
0
 40
0
 40
1
 40
1
 40
1
 40
1
 10
8.678207
 20
10.035596
 30
0.0
 10
8.179901
 20
9.853668
 30
0.0
 10
8.072585
 20
9.781912
 30
0.0
 10
8.291422
 20
9.776976
 30
0.0
  0
LWPOLYLINE
  5
122
100
AcDbEntity
  8
Layer_1
 62
7
100
AcDbPolyline
 90
3
 70
0
 10
8.972498
 20
11.149453
 30
0.0
 10
9.439207
 20
11.149453
 30
0.0
 10
9.403537
 20
10.718419
 30
0.0
  0
SPLINE
  5
123
100
AcDbEntity
  8
Layer_1
 62
7
100
AcDbSpline
 70
8
 71
3
 72
8
 73
4
 74
0
 40
0
 40
0
 40
0
 40
0
 40
1
 40
1
 40
1
 40
1
 10
8.638432
 20
7.428889
 30
0.0
 10
8.684582
 20
4.981245
 30
0.0
 10
8.740779
 20
4.712705
 30
0.0
 10
9.206873
 20
4.712705
 30
0.0
  0
SPLINE
  5
124
100
AcDbEntity
  8
Layer_1
 62
7
100
AcDbSpline
 70
8
 71
3
 72
8
 73
4
 74
0
 40
0
 40
0
 40
0
 40
0
 40
1
 40
1
 40
1
 40
1
 10
9.206873
 20
4.712705
 30
0.0
 10
9.324111
 20
4.712705
 30
0.0
 10
9.507333
 20
4.845939
 30
0.0
 10
9.614032
 20
5.008783
 30
0.0
  0
SPLINE
  5
125
100
AcDbEntity
  8
Layer_1
 62
7
100
AcDbSpline
 70
8
 71
3
 72
8
 73
4
 74
0
 40
0
 40
0
 40
0
 40
0
 40
1
 40
1
 40
1
 40
1
 10
9.614032
 20
5.008783
 30
0.0
 10
9.898934
 20
5.443598
 30
0.0
 10
9.867992
 20
7.684015
 30
0.0
 10
9.560972
 20
8.850636
 30
0.0
  0
SPLINE
  5
126
100
AcDbEntity
  8
Layer_1
 62
7
100
AcDbSpline
 70
8
 71
3
 72
8
 73
4
 74
0
 40
0
 40
0
 40
0
 40
0
 40
1
 40
1
 40
1
 40
1
 10
9.560972
 20
8.850636
 30
0.0
 10
9.436193
 20
9.324774
 30
0.0
 10
9.347766
 20
9.727394
 30
0.0
 10
9.364468
 20
9.745347
 30
0.0
  0
SPLINE
  5
127
100
AcDbEntity
  8
Layer_1
 62
7
100
AcDbSpline
 70
8
 71
3
 72
8
 73
4
 74
0
 40
0
 40
0
 40
0
 40
0
 40
1
 40
1
 40
1
 40
1
 10
9.364468
 20
9.745347
 30
0.0
 10
9.381168
 20
9.763297
 30
0.0
 10
9.961160
 20
9.763297
 30
0.0
 10
10.653335
 20
9.745347
 30
0.0
  0
LWPOLYLINE
  5
128
100
AcDbEntity
  8
Layer_1
 62
7
100
AcDbPolyline
 90
3
 70
0
 10
8.291422
 20
9.776976
 30
0.0
 10
8.594292
 20
9.770176
 30
0.0
 10
8.638432
 20
7.428889
 30
0.0
  0
SPLINE
  5
129
100
AcDbEntity
  8
Layer_1
 62
7
100
AcDbSpline
 70
8
 71
3
 72
8
 73
4
 74
0
 40
0
 40
0
 40
0
 40
0
 40
1
 40
1
 40
1
 40
1
 10
11.423632
 20
6.454343
 30
0.0
 10
11.155121
 20
4.662243
 30
0.0
 10
10.908232
 20
3.168783
 30
0.0
 10
10.874990
 20
3.135541
 30
0.0
  0
SPLINE
  5
12a
100
AcDbEntity
  8
Layer_1
 62
7
100
AcDbSpline
 70
8
 71
3
 72
8
 73
4
 74
0
 40
0
 40
0
 40
0
 40
0
 40
1
 40
1
 40
1
 40
1
 10
10.874990
 20
3.135541
 30
0.0
 10
10.841750
 20
3.102301
 30
0.0
 10
10.463183
 20
3.223691
 30
0.0
 10
10.033735
 20
3.405311
 30
0.0
  0
SPLINE
  5
12b
100
AcDbEntity
  8
Layer_1
 62
7
100
AcDbSpline
 70
8
 71
3
 72
8
 73
4
 74
0
 40
0
 40
0
 40
0
 40
0
 40
1
 40
1
 40
1
 40
1
 10
10.033735
 20
3.405311
 30
0.0
 10
9.307342
 20
3.712506
 30
0.0
 10
9.148773
 20
3.735384
 30
0.0
 10
7.758666
 20
3.733541
 30
0.0
  0
SPLINE
  5
12c
100
AcDbEntity
  8
Layer_1
 62
7
100
AcDbSpline
 70
8
 71
3
 72
8
 73
4
 74
0
 40
0
 40
0
 40
0
 40
0
 40
1
 40
1
 40
1
 40
1
 10
7.758666
 20
3.733541
 30
0.0
 10
6.394587
 20
3.731741
 30
0.0
 10
6.198538
 20
3.704201
 30
0.0
 10
5.508266
 20
3.417535
 30
0.0
  0
SPLINE
  5
12d
100
AcDbEntity
  8
Layer_1
 62
7
100
AcDbSpline
 70
8
 71
3
 72
8
 73
4
 74
0
 40
0
 40
0
 40
0
 40
0
 40
1
 40
1
 40
1
 40
1
 10
5.508266
 20
3.417535
 30
0.0
 10
5.092386
 20
3.244823
 30
0.0
 10
4.723493
 20
3.103511
 30
0.0
 10
4.688505
 20
3.103511
 30
0.0
  0
SPLINE
  5
12e
100
AcDbEntity
  8
Layer_1
 62
7
100
AcDbSpline
 70
8
 71
3
 72
8
 73
4
 74
0
 40
0
 40
0
 40
0
 40
0
 40
1
 40
1
 40
1
 40
1
 10
4.688505
 20
3.103511
 30
0.0
 10
4.653515
 20
3.103511
 30
0.0
 10
4.540384
 20
3.581960
 30
0.0
 10
4.437101
 20
4.166730
 30
0.0
  0
LWPOLYLINE
  5
12f
100
AcDbEntity
  8
Layer_1
 62
7
100
AcDbPolyline
 90
3
 70
0
 10
10.653335
 20
9.745347
 30
0.0
 10
11.911835
 20
9.712707
 30
0.0
 10
11.423632
 20
6.454343
 30
0.0
  0
SPLINE
  5
130
100
AcDbEntity
  8
Layer_1
 62
7
100
AcDbSpline
 70
8
 71
3
 72
8
 73
4
 74
0
 40
0
 40
0
 40
0
 40
0
 40
1
 40
1
 40
1
 40
1
 10
8.275871
 20
11.264368
 30
0.0
 10
8.275871
 20
11.327588
 30
0.0
 10
8.227201
 20
11.379310
 30
0.0
 10
8.167712
 20
11.379310
 30
0.0
  0
SPLINE
  5
131
100
AcDbEntity
  8
Layer_1
 62
7
100
AcDbSpline
 70
8
 71
3
 72
8
 73
4
 74
0
 40
0
 40
0
 40
0
 40
0
 40
1
 40
1
 40
1
 40
1
 10
8.167712
 20
11.379310
 30
0.0
 10
8.108222
 20
11.379310
 30
0.0
 10
8.027586
 20
11.327590
 30
0.0
 10
7.988514
 20
11.264368
 30
0.0
  0
SPLINE
  5
132
100
AcDbEntity
  8
Layer_1
 62
7
100
AcDbSpline
 70
8
 71
3
 72
8
 73
4
 74
0
 40
0
 40
0
 40
0
 40
0
 40
1
 40
1
 40
1
 40
1
 10
7.988514
 20
11.264368
 30
0.0
 10
7.949444
 20
11.201148
 30
0.0
 10
7.998114
 20
11.149425
 30
0.0
 10
8.096674
 20
11.149425
 30
0.0
  0
SPLINE
  5
133
100
AcDbEntity
  8
Layer_1
 62
7
100
AcDbSpline
 70
8
 71
3
 72
8
 73
4
 74
0
 40
0
 40
0
 40
0
 40
0
 40
1
 40
1
 40
1
 40
1
 10
8.096674
 20
11.149425
 30
0.0
 10
8.195234
 20
11.149425
 30
0.0
 10
8.275871
 20
11.201145
 30
0.0
 10
8.275871
 20
11.264368
 30
0.0
  0
LWPOLYLINE
  5
134
100
AcDbEntity
  8
Layer_1
 62
7
100
AcDbPolyline
 90
1
 70
1
 10
4.437101
 20
4.166730
 30
0.0
  0
SPLINE
  5
135
100
AcDbEntity
  8
Layer_1
 62
7
100
AcDbSpline
 70
8
 71
3
 72
8
 73
4
 74
0
 40
0
 40
0
 40
0
 40
0
 40
1
 40
1
 40
1
 40
1
 10
19.741401
 20
3.457483
 30
0.0
 10
19.491963
 20
3.602767
 30
0.0
 10
19.469363
 20
4.137931
 30
0.0
 10
19.712661
 20
4.137931
 30
0.0
  0
SPLINE
  5
136
100
AcDbEntity
  8
Layer_1
 62
7
100
AcDbSpline
 70
8
 71
3
 72
8
 73
4
 74
0
 40
0
 40
0
 40
0
 40
0
 40
1
 40
1
 40
1
 40
1
 10
19.712661
 20
4.137931
 30
0.0
 10
19.810381
 20
4.137931
 30
0.0
 10
19.885075
 20
4.034871
 30
0.0
 10
19.885075
 20
3.900052
 30
0.0
  0
SPLINE
  5
137
100
AcDbEntity
  8
Layer_1
 62
7
100
AcDbSpline
 70
8
 71
3
 72
8
 73
4
 74
0
 40
0
 40
0
 40
0
 40
0
 40
1
 40
1
 40
1
 40
1
 10
19.885075
 20
3.900052
 30
0.0
 10
19.885075
 20
3.719379
 30
0.0
 10
19.946985
 20
3.671006
 30
0.0
 10
20.142521
 20
3.698902
 30
0.0
  0
SPLINE
  5
138
100
AcDbEntity
  8
Layer_1
 62
7
100
AcDbSpline
 70
8
 71
3
 72
8
 73
4
 74
0
 40
0
 40
0
 40
0
 40
0
 40
1
 40
1
 40
1
 40
1
 10
20.142521
 20
3.698902
 30
0.0
 10
20.574669
 20
3.760552
 30
0.0
 10
20.525557
 20
4.099269
 30
0.0
 10
20.060061
 20
4.267593
 30
0.0
  0
SPLINE
  5
139
100
AcDbEntity
  8
Layer_1
 62
7
100
AcDbSpline
 70
8
 71
3
 72
8
 73
4
 74
0
 40
0
 40
0
 40
0
 40
0
 40
1
 40
1
 40
1
 40
1
 10
20.060061
 20
4.267593
 30
0.0
 10
19.284998
 20
4.547860
 30
0.0
 10
19.377399
 20
5.344828
 30
0.0
 10
20.184956
 20
5.344828
 30
0.0
  0
SPLINE
  5
13a
100
AcDbEntity
  8
Layer_1
 62
7
100
AcDbSpline
 70
8
 71
3
 72
8
 73
4
 74
0
 40
0
 40
0
 40
0
 40
0
 40
1
 40
1
 40
1
 40
1
 10
20.184956
 20
5.344828
 30
0.0
 10
20.561252
 20
5.344828
 30
0.0
 10
20.638026
 20
5.303798
 30
0.0
 10
20.668929
 20
5.086207
 30
0.0
  0
SPLINE
  5
13b
100
AcDbEntity
  8
Layer_1
 62
7
100
AcDbSpline
 70
8
 71
3
 72
8
 73
4
 74
0
 40
0
 40
0
 40
0
 40
0
 40
1
 40
1
 40
1
 40
1
 10
20.668929
 20
5.086207
 30
0.0
 10
20.712029
 20
4.782778
 30
0.0
 10
20.489766
 20
4.742647
 30
0.0
 10
20.288745
 20
5.017557
 30
0.0
  0
SPLINE
  5
13c
100
AcDbEntity
  8
Layer_1
 62
7
100
AcDbSpline
 70
8
 71
3
 72
8
 73
4
 74
0
 40
0
 40
0
 40
0
 40
0
 40
1
 40
1
 40
1
 40
1
 10
20.288745
 20
5.017557
 30
0.0
 10
20.144002
 20
5.215503
 30
0.0
 10
19.884845
 20
5.144474
 30
0.0
 10
19.885383
 20
4.907005
 30
0.0
  0
SPLINE
  5
13d
100
AcDbEntity
  8
Layer_1
 62
7
100
AcDbSpline
 70
8
 71
3
 72
8
 73
4
 74
0
 40
0
 40
0
 40
0
 40
0
 40
1
 40
1
 40
1
 40
1
 10
19.885383
 20
4.907005
 30
0.0
 10
19.885497
 20
4.831715
 30
0.0
 10
20.079520
 20
4.666663
 30
0.0
 10
20.316417
 20
4.540226
 30
0.0
  0
SPLINE
  5
13e
100
AcDbEntity
  8
Layer_1
 62
7
100
AcDbSpline
 70
8
 71
3
 72
8
 73
4
 74
0
 40
0
 40
0
 40
0
 40
0
 40
1
 40
1
 40
1
 40
1
 10
20.316417
 20
4.540226
 30
0.0
 10
20.810749
 20
4.276393
 30
0.0
 10
20.930272
 20
3.892581
 30
0.0
 10
20.623621
 20
3.553735
 30
0.0
  0
SPLINE
  5
13f
100
AcDbEntity
  8
Layer_1
 62
7
100
AcDbSpline
 70
8
 71
3
 72
8
 73
4
 74
0
 40
0
 40
0
 40
0
 40
0
 40
1
 40
1
 40
1
 40
1
 10
20.623621
 20
3.553735
 30
0.0
 10
20.405538
 20
3.312757
 30
0.0
 10
20.055446
 20
3.274560
 30
0.0
 10
19.741394
 20
3.457475
 30
0.0
  0
LWPOLYLINE
  5
140
100
AcDbEntity
  8
Layer_1
 62
7
100
AcDbPolyline
 90
1
 70
1
 10
8.275871
 20
11.264368
 30
0.0
  0
SPLINE
  5
141
100
AcDbEntity
  8
Layer_1
 62
7
100
AcDbSpline
 70
8
 71
3
 72
8
 73
4
 74
0
 40
0
 40
0
 40
0
 40
0
 40
1
 40
1
 40
1
 40
1
 10
26.804627
 20
3.471263
 30
0.0
 10
26.634758
 20
3.641132
 30
0.0
 10
26.613792
 20
5.402298
 30
0.0
 10
26.781637
 20
5.402298
 30
0.0
  0
SPLINE
  5
142
100
AcDbEntity
  8
Layer_1
 62
7
100
AcDbSpline
 70
8
 71
3
 72
8
 73
4
 74
0
 40
0
 40
0
 40
0
 40
0
 40
1
 40
1
 40
1
 40
1
 10
26.781637
 20
5.402298
 30
0.0
 10
26.845317
 20
5.402298
 30
0.0
 10
26.896580
 20
5.098919
 30
0.0
 10
26.896580
 20
4.722044
 30
0.0
  0
SPLINE
  5
143
100
AcDbEntity
  8
Layer_1
 62
7
100
AcDbSpline
 70
8
 71
3
 72
8
 73
4
 74
0
 40
0
 40
0
 40
0
 40
0
 40
1
 40
1
 40
1
 40
1
 10
26.896580
 20
4.722044
 30
0.0
 10
26.896580
 20
3.901953
 30
0.0
 10
26.970510
 20
3.678160
 30
0.0
 10
27.241408
 20
3.678160
 30
0.0
  0
SPLINE
  5
144
100
AcDbEntity
  8
Layer_1
 62
7
100
AcDbSpline
 70
8
 71
3
 72
8
 73
4
 74
0
 40
0
 40
0
 40
0
 40
0
 40
1
 40
1
 40
1
 40
1
 10
27.241408
 20
3.678160
 30
0.0
 10
27.512309
 20
3.678160
 30
0.0
 10
27.586236
 20
3.901953
 30
0.0
 10
27.586236
 20
4.722044
 30
0.0
  0
SPLINE
  5
145
100
AcDbEntity
  8
Layer_1
 62
7
100
AcDbSpline
 70
8
 71
3
 72
8
 73
4
 74
0
 40
0
 40
0
 40
0
 40
0
 40
1
 40
1
 40
1
 40
1
 10
27.586236
 20
4.722044
 30
0.0
 10
27.586236
 20
5.250085
 30
0.0
 10
27.624816
 20
5.402298
 30
0.0
 10
27.758650
 20
5.402298
 30
0.0
  0
SPLINE
  5
146
100
AcDbEntity
  8
Layer_1
 62
7
100
AcDbSpline
 70
8
 71
3
 72
8
 73
4
 74
0
 40
0
 40
0
 40
0
 40
0
 40
1
 40
1
 40
1
 40
1
 10
27.758650
 20
5.402298
 30
0.0
 10
28.006471
 20
5.402298
 30
0.0
 10
28.001232
 20
3.944431
 30
0.0
 10
27.752150
 20
3.588793
 30
0.0
  0
SPLINE
  5
147
100
AcDbEntity
  8
Layer_1
 62
7
100
AcDbSpline
 70
8
 71
3
 72
8
 73
4
 74
0
 40
0
 40
0
 40
0
 40
0
 40
1
 40
1
 40
1
 40
1
 10
27.752150
 20
3.588793
 30
0.0
 10
27.555023
 20
3.307356
 30
0.0
 10
27.033270
 20
3.242637
 30
0.0
 10
26.804643
 20
3.471263
 30
0.0
  0
LWPOLYLINE
  5
148
100
AcDbEntity
  8
Layer_1
 62
7
100
AcDbPolyline
 90
1
 70
1
 10
19.741394
 20
3.457475
 30
0.0
  0
SPLINE
  5
149
100
AcDbEntity
  8
Layer_1
 62
7
100
AcDbSpline
 70
8
 71
3
 72
8
 73
4
 74
0
 40
0
 40
0
 40
0
 40
0
 40
1
 40
1
 40
1
 40
1
 10
34.798889
 20
3.457483
 30
0.0
 10
34.549450
 20
3.602767
 30
0.0
 10
34.526850
 20
4.137931
 30
0.0
 10
34.770149
 20
4.137931
 30
0.0
  0
SPLINE
  5
14a
100
AcDbEntity
  8
Layer_1
 62
7
100
AcDbSpline
 70
8
 71
3
 72
8
 73
4
 74
0
 40
0
 40
0
 40
0
 40
0
 40
1
 40
1
 40
1
 40
1
 10
34.770149
 20
4.137931
 30
0.0
 10
34.867869
 20
4.137931
 30
0.0
 10
34.942563
 20
4.034871
 30
0.0
 10
34.942563
 20
3.900052
 30
0.0
  0
SPLINE
  5
14b
100
AcDbEntity
  8
Layer_1
 62
7
100
AcDbSpline
 70
8
 71
3
 72
8
 73
4
 74
0
 40
0
 40
0
 40
0
 40
0
 40
1
 40
1
 40
1
 40
1
 10
34.942563
 20
3.900052
 30
0.0
 10
34.942563
 20
3.719107
 30
0.0
 10
35.004463
 20
3.670963
 30
0.0
 10
35.201184
 20
3.698902
 30
0.0
  0
SPLINE
  5
14c
100
AcDbEntity
  8
Layer_1
 62
7
100
AcDbSpline
 70
8
 71
3
 72
8
 73
4
 74
0
 40
0
 40
0
 40
0
 40
0
 40
1
 40
1
 40
1
 40
1
 10
35.201184
 20
3.698902
 30
0.0
 10
35.597737
 20
3.755222
 30
0.0
 10
35.508876
 20
4.055545
 30
0.0
 10
35.028770
 20
4.281609
 30
0.0
  0
SPLINE
  5
14d
100
AcDbEntity
  8
Layer_1
 62
7
100
AcDbSpline
 70
8
 71
3
 72
8
 73
4
 74
0
 40
0
 40
0
 40
0
 40
0
 40
1
 40
1
 40
1
 40
1
 10
35.028770
 20
4.281609
 30
0.0
 10
34.677971
 20
4.446787
 30
0.0
 10
34.597735
 20
4.545968
 30
0.0
 10
34.597735
 20
4.814416
 30
0.0
  0
SPLINE
  5
14e
100
AcDbEntity
  8
Layer_1
 62
7
100
AcDbSpline
 70
8
 71
3
 72
8
 73
4
 74
0
 40
0
 40
0
 40
0
 40
0
 40
1
 40
1
 40
1
 40
1
 10
34.597735
 20
4.814416
 30
0.0
 10
34.597735
 20
5.240214
 30
0.0
 10
34.832108
 20
5.427145
 30
0.0
 10
35.308618
 20
5.381406
 30
0.0
  0
SPLINE
  5
14f
100
AcDbEntity
  8
Layer_1
 62
7
100
AcDbSpline
 70
8
 71
3
 72
8
 73
4
 74
0
 40
0
 40
0
 40
0
 40
0
 40
1
 40
1
 40
1
 40
1
 10
35.308618
 20
5.381406
 30
0.0
 10
35.602535
 20
5.353196
 30
0.0
 10
35.698090
 20
5.285676
 30
0.0
 10
35.726420
 20
5.086207
 30
0.0
  0
SPLINE
  5
150
100
AcDbEntity
  8
Layer_1
 62
7
100
AcDbSpline
 70
8
 71
3
 72
8
 73
4
 74
0
 40
0
 40
0
 40
0
 40
0
 40
1
 40
1
 40
1
 40
1
 10
35.726420
 20
5.086207
 30
0.0
 10
35.769510
 20
4.782778
 30
0.0
 10
35.547257
 20
4.742647
 30
0.0
 10
35.346236
 20
5.017557
 30
0.0
  0
SPLINE
  5
151
100
AcDbEntity
  8
Layer_1
 62
7
100
AcDbSpline
 70
8
 71
3
 72
8
 73
4
 74
0
 40
0
 40
0
 40
0
 40
0
 40
1
 40
1
 40
1
 40
1
 10
35.346236
 20
5.017557
 30
0.0
 10
35.201493
 20
5.215503
 30
0.0
 10
34.942335
 20
5.144474
 30
0.0
 10
34.942873
 20
4.907005
 30
0.0
  0
SPLINE
  5
152
100
AcDbEntity
  8
Layer_1
 62
7
100
AcDbSpline
 70
8
 71
3
 72
8
 73
4
 74
0
 40
0
 40
0
 40
0
 40
0
 40
1
 40
1
 40
1
 40
1
 10
34.942873
 20
4.907005
 30
0.0
 10
34.942988
 20
4.831715
 30
0.0
 10
35.136400
 20
4.666663
 30
0.0
 10
35.372552
 20
4.540226
 30
0.0
  0
SPLINE
  5
153
100
AcDbEntity
  8
Layer_1
 62
7
100
AcDbSpline
 70
8
 71
3
 72
8
 73
4
 74
0
 40
0
 40
0
 40
0
 40
0
 40
1
 40
1
 40
1
 40
1
 10
35.372552
 20
4.540226
 30
0.0
 10
35.866805
 20
4.275601
 30
0.0
 10
35.958263
 20
4.014447
 30
0.0
 10
35.696557
 20
3.615034
 30
0.0
  0
SPLINE
  5
154
100
AcDbEntity
  8
Layer_1
 62
7
100
AcDbSpline
 70
8
 71
3
 72
8
 73
4
 74
0
 40
0
 40
0
 40
0
 40
0
 40
1
 40
1
 40
1
 40
1
 10
35.696557
 20
3.615034
 30
0.0
 10
35.502331
 20
3.318610
 30
0.0
 10
35.144991
 20
3.255890
 30
0.0
 10
34.798885
 20
3.457479
 30
0.0
  0
LWPOLYLINE
  5
155
100
AcDbEntity
  8
Layer_1
 62
7
100
AcDbPolyline
 90
1
 70
1
 10
26.804643
 20
3.471263
 30
0.0
  0
SPLINE
  5
156
100
AcDbEntity
  8
Layer_1
 62
7
100
AcDbSpline
 70
8
 71
3
 72
8
 73
4
 74
0
 40
0
 40
0
 40
0
 40
0
 40
1
 40
1
 40
1
 40
1
 10
21.379334
 20
4.252874
 30
0.0
 10
21.379334
 20
5.034483
 30
0.0
 10
21.371134
 20
5.057471
 30
0.0
 10
21.091977
 20
5.057471
 30
0.0
  0
SPLINE
  5
157
100
AcDbEntity
  8
Layer_1
 62
7
100
AcDbSpline
 70
8
 71
3
 72
8
 73
4
 74
0
 40
0
 40
0
 40
0
 40
0
 40
1
 40
1
 40
1
 40
1
 10
21.091977
 20
5.057471
 30
0.0
 10
20.913177
 20
5.057471
 30
0.0
 10
20.804620
 20
5.122601
 30
0.0
 10
20.804620
 20
5.229885
 30
0.0
  0
SPLINE
  5
158
100
AcDbEntity
  8
Layer_1
 62
7
100
AcDbSpline
 70
8
 71
3
 72
8
 73
4
 74
0
 40
0
 40
0
 40
0
 40
0
 40
1
 40
1
 40
1
 40
1
 10
20.804620
 20
5.229885
 30
0.0
 10
20.804620
 20
5.363985
 30
0.0
 10
20.957877
 20
5.402299
 30
0.0
 10
21.494276
 20
5.402299
 30
0.0
  0
SPLINE
  5
159
100
AcDbEntity
  8
Layer_1
 62
7
100
AcDbSpline
 70
8
 71
3
 72
8
 73
4
 74
0
 40
0
 40
0
 40
0
 40
0
 40
1
 40
1
 40
1
 40
1
 10
21.494276
 20
5.402299
 30
0.0
 10
22.030676
 20
5.402299
 30
0.0
 10
22.183932
 20
5.363989
 30
0.0
 10
22.183932
 20
5.229885
 30
0.0
  0
SPLINE
  5
15a
100
AcDbEntity
  8
Layer_1
 62
7
100
AcDbSpline
 70
8
 71
3
 72
8
 73
4
 74
0
 40
0
 40
0
 40
0
 40
0
 40
1
 40
1
 40
1
 40
1
 10
22.183932
 20
5.229885
 30
0.0
 10
22.183932
 20
5.122606
 30
0.0
 10
22.075376
 20
5.057471
 30
0.0
 10
21.896576
 20
5.057471
 30
0.0
  0
SPLINE
  5
15b
100
AcDbEntity
  8
Layer_1
 62
7
100
AcDbSpline
 70
8
 71
3
 72
8
 73
4
 74
0
 40
0
 40
0
 40
0
 40
0
 40
1
 40
1
 40
1
 40
1
 10
21.896576
 20
5.057471
 30
0.0
 10
21.617429
 20
5.057471
 30
0.0
 10
21.609219
 20
5.034481
 30
0.0
 10
21.609219
 20
4.252874
 30
0.0
  0
SPLINE
  5
15c
100
AcDbEntity
  8
Layer_1
 62
7
100
AcDbSpline
 70
8
 71
3
 72
8
 73
4
 74
0
 40
0
 40
0
 40
0
 40
0
 40
1
 40
1
 40
1
 40
1
 10
21.609219
 20
4.252874
 30
0.0
 10
21.609219
 20
3.793103
 30
0.0
 10
21.559959
 20
3.448276
 30
0.0
 10
21.494276
 20
3.448276
 30
0.0
  0
SPLINE
  5
15d
100
AcDbEntity
  8
Layer_1
 62
7
100
AcDbSpline
 70
8
 71
3
 72
8
 73
4
 74
0
 40
0
 40
0
 40
0
 40
0
 40
1
 40
1
 40
1
 40
1
 10
21.494276
 20
3.448276
 30
0.0
 10
21.428596
 20
3.448276
 30
0.0
 10
21.379334
 20
3.793103
 30
0.0
 10
21.379334
 20
4.252874
 30
0.0
  0
LWPOLYLINE
  5
15e
100
AcDbEntity
  8
Layer_1
 62
7
100
AcDbPolyline
 90
1
 70
1
 10
34.798885
 20
3.457479
 30
0.0
  0
SPLINE
  5
15f
100
AcDbEntity
  8
Layer_1
 62
7
100
AcDbSpline
 70
8
 71
3
 72
8
 73
4
 74
0
 40
0
 40
0
 40
0
 40
0
 40
1
 40
1
 40
1
 40
1
 10
21.983826
 20
3.649425
 30
0.0
 10
22.014956
 20
3.760057
 30
0.0
 10
22.135810
 20
4.201820
 30
0.0
 10
22.252402
 20
4.631117
 30
0.0
  0
SPLINE
  5
160
100
AcDbEntity
  8
Layer_1
 62
7
100
AcDbSpline
 70
8
 71
3
 72
8
 73
4
 74
0
 40
0
 40
0
 40
0
 40
0
 40
1
 40
1
 40
1
 40
1
 10
22.252402
 20
4.631117
 30
0.0
 10
22.428749
 20
5.280438
 30
0.0
 10
22.501742
 20
5.406043
 30
0.0
 10
22.686587
 20
5.378244
 30
0.0
  0
SPLINE
  5
161
100
AcDbEntity
  8
Layer_1
 62
7
100
AcDbSpline
 70
8
 71
3
 72
8
 73
4
 74
0
 40
0
 40
0
 40
0
 40
0
 40
1
 40
1
 40
1
 40
1
 10
22.686587
 20
5.378244
 30
0.0
 10
22.859658
 20
5.352214
 30
0.0
 10
22.965877
 20
5.135164
 30
0.0
 10
23.166999
 20
4.396552
 30
0.0
  0
SPLINE
  5
162
100
AcDbEntity
  8
Layer_1
 62
7
100
AcDbSpline
 70
8
 71
3
 72
8
 73
4
 74
0
 40
0
 40
0
 40
0
 40
0
 40
1
 40
1
 40
1
 40
1
 10
23.166999
 20
4.396552
 30
0.0
 10
23.416849
 20
3.478984
 30
0.0
 10
23.418140
 20
3.448276
 30
0.0
 10
23.206869
 20
3.448276
 30
0.0
  0
SPLINE
  5
163
100
AcDbEntity
  8
Layer_1
 62
7
100
AcDbSpline
 70
8
 71
3
 72
8
 73
4
 74
0
 40
0
 40
0
 40
0
 40
0
 40
1
 40
1
 40
1
 40
1
 10
23.206869
 20
3.448276
 30
0.0
 10
23.065159
 20
3.448276
 30
0.0
 10
22.988530
 20
3.528956
 30
0.0
 10
22.988530
 20
3.678161
 30
0.0
  0
SPLINE
  5
164
100
AcDbEntity
  8
Layer_1
 62
7
100
AcDbSpline
 70
8
 71
3
 72
8
 73
4
 74
0
 40
0
 40
0
 40
0
 40
0
 40
1
 40
1
 40
1
 40
1
 10
22.988530
 20
3.678161
 30
0.0
 10
22.988530
 20
3.845045
 30
0.0
 10
22.911900
 20
3.908046
 30
0.0
 10
22.708919
 20
3.908046
 30
0.0
  0
SPLINE
  5
165
100
AcDbEntity
  8
Layer_1
 62
7
100
AcDbSpline
 70
8
 71
3
 72
8
 73
4
 74
0
 40
0
 40
0
 40
0
 40
0
 40
1
 40
1
 40
1
 40
1
 10
22.708919
 20
3.908046
 30
0.0
 10
22.530257
 20
3.908046
 30
0.0
 10
22.402966
 20
3.825046
 30
0.0
 10
22.356345
 20
3.678161
 30
0.0
  0
SPLINE
  5
166
100
AcDbEntity
  8
Layer_1
 62
7
100
AcDbSpline
 70
8
 71
3
 72
8
 73
4
 74
0
 40
0
 40
0
 40
0
 40
0
 40
1
 40
1
 40
1
 40
1
 10
22.356345
 20
3.678161
 30
0.0
 10
22.264765
 20
3.389629
 30
0.0
 10
21.902880
 20
3.361713
 30
0.0
 10
21.983825
 20
3.649421
 30
0.0
  0
LWPOLYLINE
  5
167
100
AcDbEntity
  8
Layer_1
 62
7
100
AcDbPolyline
 90
1
 70
1
 10
21.379334
 20
4.252874
 30
0.0
  0
SPLINE
  5
168
100
AcDbEntity
  8
Layer_1
 62
7
100
AcDbSpline
 70
8
 71
3
 72
8
 73
4
 74
0
 40
0
 40
0
 40
0
 40
0
 40
1
 40
1
 40
1
 40
1
 10
22.784757
 20
4.550799
 30
0.0
 10
22.743167
 20
4.768343
 30
0.0
 10
22.701427
 20
4.807108
 30
0.0
 10
22.630043
 20
4.694477
 30
0.0
  0
SPLINE
  5
169
100
AcDbEntity
  8
Layer_1
 62
7
100
AcDbSpline
 70
8
 71
3
 72
8
 73
4
 74
0
 40
0
 40
0
 40
0
 40
0
 40
1
 40
1
 40
1
 40
1
 10
22.630043
 20
4.694477
 30
0.0
 10
22.483006
 20
4.462486
 30
0.0
 10
22.509204
 20
4.252874
 30
0.0
 10
22.685233
 20
4.252874
 30
0.0
  0
SPLINE
  5
16a
100
AcDbEntity
  8
Layer_1
 62
7
100
AcDbSpline
 70
8
 71
3
 72
8
 73
4
 74
0
 40
0
 40
0
 40
0
 40
0
 40
1
 40
1
 40
1
 40
1
 10
22.685233
 20
4.252874
 30
0.0
 10
22.791639
 20
4.252874
 30
0.0
 10
22.823484
 20
4.348204
 30
0.0
 10
22.784753
 20
4.550799
 30
0.0
  0
LWPOLYLINE
  5
16b
100
AcDbEntity
  8
Layer_1
 62
7
100
AcDbPolyline
 90
1
 70
1
 10
21.983825
 20
3.649421
 30
0.0
  0
SPLINE
  5
16c
100
AcDbEntity
  8
Layer_1
 62
7
100
AcDbSpline
 70
8
 71
3
 72
8
 73
4
 74
0
 40
0
 40
0
 40
0
 40
0
 40
1
 40
1
 40
1
 40
1
 10
23.678187
 20
4.252874
 30
0.0
 10
23.678187
 20
4.980843
 30
0.0
 10
23.656287
 20
5.057471
 30
0.0
 10
23.448301
 20
5.057471
 30
0.0
  0
SPLINE
  5
16d
100
AcDbEntity
  8
Layer_1
 62
7
100
AcDbSpline
 70
8
 71
3
 72
8
 73
4
 74
0
 40
0
 40
0
 40
0
 40
0
 40
1
 40
1
 40
1
 40
1
 10
23.448301
 20
5.057471
 30
0.0
 10
23.320588
 20
5.057471
 30
0.0
 10
23.218416
 20
5.134101
 30
0.0
 10
23.218416
 20
5.229885
 30
0.0
  0
SPLINE
  5
16e
100
AcDbEntity
  8
Layer_1
 62
7
100
AcDbSpline
 70
8
 71
3
 72
8
 73
4
 74
0
 40
0
 40
0
 40
0
 40
0
 40
1
 40
1
 40
1
 40
1
 10
23.218416
 20
5.229885
 30
0.0
 10
23.218416
 20
5.362244
 30
0.0
 10
23.365288
 20
5.402299
 30
0.0
 10
23.850601
 20
5.402299
 30
0.0
  0
SPLINE
  5
16f
100
AcDbEntity
  8
Layer_1
 62
7
100
AcDbSpline
 70
8
 71
3
 72
8
 73
4
 74
0
 40
0
 40
0
 40
0
 40
0
 40
1
 40
1
 40
1
 40
1
 10
23.850601
 20
5.402299
 30
0.0
 10
24.335914
 20
5.402299
 30
0.0
 10
24.482785
 20
5.362249
 30
0.0
 10
24.482785
 20
5.229885
 30
0.0
  0
SPLINE
  5
170
100
AcDbEntity
  8
Layer_1
 62
7
100
AcDbSpline
 70
8
 71
3
 72
8
 73
4
 74
0
 40
0
 40
0
 40
0
 40
0
 40
1
 40
1
 40
1
 40
1
 10
24.482785
 20
5.229885
 30
0.0
 10
24.482785
 20
5.134105
 30
0.0
 10
24.380614
 20
5.057471
 30
0.0
 10
24.252900
 20
5.057471
 30
0.0
  0
SPLINE
  5
171
100
AcDbEntity
  8
Layer_1
 62
7
100
AcDbSpline
 70
8
 71
3
 72
8
 73
4
 74
0
 40
0
 40
0
 40
0
 40
0
 40
1
 40
1
 40
1
 40
1
 10
24.252900
 20
5.057471
 30
0.0
 10
24.044909
 20
5.057471
 30
0.0
 10
24.023015
 20
4.980841
 30
0.0
 10
24.023015
 20
4.252874
 30
0.0
  0
SPLINE
  5
172
100
AcDbEntity
  8
Layer_1
 62
7
100
AcDbSpline
 70
8
 71
3
 72
8
 73
4
 74
0
 40
0
 40
0
 40
0
 40
0
 40
1
 40
1
 40
1
 40
1
 10
24.023015
 20
4.252874
 30
0.0
 10
24.023015
 20
3.614303
 30
0.0
 10
23.987435
 20
3.448276
 30
0.0
 10
23.850601
 20
3.448276
 30
0.0
  0
SPLINE
  5
173
100
AcDbEntity
  8
Layer_1
 62
7
100
AcDbSpline
 70
8
 71
3
 72
8
 73
4
 74
0
 40
0
 40
0
 40
0
 40
0
 40
1
 40
1
 40
1
 40
1
 10
23.850601
 20
3.448276
 30
0.0
 10
23.713764
 20
3.448276
 30
0.0
 10
23.678187
 20
3.614303
 30
0.0
 10
23.678187
 20
4.252874
 30
0.0
  0
LWPOLYLINE
  5
174
100
AcDbEntity
  8
Layer_1
 62
7
100
AcDbPolyline
 90
1
 70
1
 10
22.784753
 20
4.550799
 30
0.0
  0
LWPOLYLINE
  5
175
100
AcDbEntity
  8
Layer_1
 62
7
100
AcDbPolyline
 90
1
 70
1
 10
23.678187
 20
4.252874
 30
0.0
  0
SPLINE
  5
176
100
AcDbEntity
  8
Layer_1
 62
7
100
AcDbSpline
 70
8
 71
3
 72
8
 73
4
 74
0
 40
0
 40
0
 40
0
 40
0
 40
1
 40
1
 40
1
 40
1
 10
25.172441
 20
5.402299
 30
0.0
 10
25.606669
 20
5.402299
 30
0.0
 10
25.747155
 20
5.360149
 30
0.0
 10
25.747155
 20
5.229885
 30
0.0
  0
SPLINE
  5
177
100
AcDbEntity
  8
Layer_1
 62
7
100
AcDbSpline
 70
8
 71
3
 72
8
 73
4
 74
0
 40
0
 40
0
 40
0
 40
0
 40
1
 40
1
 40
1
 40
1
 10
25.747155
 20
5.229885
 30
0.0
 10
25.747155
 20
5.109469
 30
0.0
 10
25.625826
 20
5.057471
 30
0.0
 10
25.344855
 20
5.057471
 30
0.0
  0
SPLINE
  5
178
100
AcDbEntity
  8
Layer_1
 62
7
100
AcDbSpline
 70
8
 71
3
 72
8
 73
4
 74
0
 40
0
 40
0
 40
0
 40
0
 40
1
 40
1
 40
1
 40
1
 10
25.344855
 20
5.057471
 30
0.0
 10
25.019185
 20
5.057471
 30
0.0
 10
24.942556
 20
5.013681
 30
0.0
 10
24.942556
 20
4.827586
 30
0.0
  0
SPLINE
  5
179
100
AcDbEntity
  8
Layer_1
 62
7
100
AcDbSpline
 70
8
 71
3
 72
8
 73
4
 74
0
 40
0
 40
0
 40
0
 40
0
 40
1
 40
1
 40
1
 40
1
 10
24.942556
 20
4.827586
 30
0.0
 10
24.942556
 20
4.648786
 30
0.0
 10
25.019186
 20
4.597701
 30
0.0
 10
25.287384
 20
4.597701
 30
0.0
  0
SPLINE
  5
17a
100
AcDbEntity
  8
Layer_1
 62
7
100
AcDbSpline
 70
8
 71
3
 72
8
 73
4
 74
0
 40
0
 40
0
 40
0
 40
0
 40
1
 40
1
 40
1
 40
1
 10
25.287384
 20
4.597701
 30
0.0
 10
25.517269
 20
4.597701
 30
0.0
 10
25.632212
 20
4.540231
 30
0.0
 10
25.632212
 20
4.425287
 30
0.0
  0
SPLINE
  5
17b
100
AcDbEntity
  8
Layer_1
 62
7
100
AcDbSpline
 70
8
 71
3
 72
8
 73
4
 74
0
 40
0
 40
0
 40
0
 40
0
 40
1
 40
1
 40
1
 40
1
 10
25.632212
 20
4.425287
 30
0.0
 10
25.632212
 20
4.310345
 30
0.0
 10
25.517269
 20
4.252874
 30
0.0
 10
25.287384
 20
4.252874
 30
0.0
  0
SPLINE
  5
17c
100
AcDbEntity
  8
Layer_1
 62
7
100
AcDbSpline
 70
8
 71
3
 72
8
 73
4
 74
0
 40
0
 40
0
 40
0
 40
0
 40
1
 40
1
 40
1
 40
1
 10
25.287384
 20
4.252874
 30
0.0
 10
24.996196
 20
4.252874
 30
0.0
 10
24.942556
 20
4.208174
 30
0.0
 10
24.942556
 20
3.965517
 30
0.0
  0
SPLINE
  5
17d
100
AcDbEntity
  8
Layer_1
 62
7
100
AcDbSpline
 70
8
 71
3
 72
8
 73
4
 74
0
 40
0
 40
0
 40
0
 40
0
 40
1
 40
1
 40
1
 40
1
 10
24.942556
 20
3.965517
 30
0.0
 10
24.942556
 20
3.713738
 30
0.0
 10
24.992366
 20
3.678161
 30
0.0
 10
25.344855
 20
3.678161
 30
0.0
  0
SPLINE
  5
17e
100
AcDbEntity
  8
Layer_1
 62
7
100
AcDbSpline
 70
8
 71
3
 72
8
 73
4
 74
0
 40
0
 40
0
 40
0
 40
0
 40
1
 40
1
 40
1
 40
1
 10
25.344855
 20
3.678161
 30
0.0
 10
25.566120
 20
3.678161
 30
0.0
 10
25.747155
 20
3.626441
 30
0.0
 10
25.747155
 20
3.563218
 30
0.0
  0
SPLINE
  5
17f
100
AcDbEntity
  8
Layer_1
 62
7
100
AcDbSpline
 70
8
 71
3
 72
8
 73
4
 74
0
 40
0
 40
0
 40
0
 40
0
 40
1
 40
1
 40
1
 40
1
 10
25.747155
 20
3.563218
 30
0.0
 10
25.747155
 20
3.499998
 30
0.0
 10
25.488534
 20
3.448276
 30
0.0
 10
25.172441
 20
3.448276
 30
0.0
  0
LWPOLYLINE
  5
180
100
AcDbEntity
  8
Layer_1
 62
7
100
AcDbPolyline
 90
3
 70
0
 10
24.597728
 20
4.425287
 30
0.0
 10
24.597728
 20
5.402299
 30
0.0
 10
25.172441
 20
5.402299
 30
0.0
  0
SPLINE
  5
181
100
AcDbEntity
  8
Layer_1
 62
7
100
AcDbSpline
 70
8
 71
3
 72
8
 73
4
 74
0
 40
0
 40
0
 40
0
 40
0
 40
1
 40
1
 40
1
 40
1
 10
28.160950
 20
4.425287
 30
0.0
 10
28.160950
 20
5.313878
 30
0.0
 10
28.181030
 20
5.402299
 30
0.0
 10
28.382802
 20
5.402299
 30
0.0
  0
SPLINE
  5
182
100
AcDbEntity
  8
Layer_1
 62
7
100
AcDbSpline
 70
8
 71
3
 72
8
 73
4
 74
0
 40
0
 40
0
 40
0
 40
0
 40
1
 40
1
 40
1
 40
1
 10
28.382802
 20
5.402299
 30
0.0
 10
28.544354
 20
5.402299
 30
0.0
 10
28.667694
 20
5.238278
 30
0.0
 10
28.836584
 20
4.798851
 30
0.0
  0
LWPOLYLINE
  5
183
100
AcDbEntity
  8
Layer_1
 62
7
100
AcDbPolyline
 90
3
 70
0
 10
25.172441
 20
3.448276
 30
0.0
 10
24.597728
 20
3.448276
 30
0.0
 10
24.597728
 20
4.425287
 30
0.0
  0
SPLINE
  5
184
100
AcDbEntity
  8
Layer_1
 62
7
100
AcDbSpline
 70
8
 71
3
 72
8
 73
4
 74
0
 40
0
 40
0
 40
0
 40
0
 40
1
 40
1
 40
1
 40
1
 10
29.074513
 20
4.798851
 30
0.0
 10
29.079013
 20
5.255959
 30
0.0
 10
29.122313
 20
5.402299
 30
0.0
 10
29.252916
 20
5.402299
 30
0.0
  0
SPLINE
  5
185
100
AcDbEntity
  8
Layer_1
 62
7
100
AcDbSpline
 70
8
 71
3
 72
8
 73
4
 74
0
 40
0
 40
0
 40
0
 40
0
 40
1
 40
1
 40
1
 40
1
 10
29.252916
 20
5.402299
 30
0.0
 10
29.392760
 20
5.402299
 30
0.0
 10
29.425330
 20
5.216225
 30
0.0
 10
29.425330
 20
4.417293
 30
0.0
  0
SPLINE
  5
186
100
AcDbEntity
  8
Layer_1
 62
7
100
AcDbSpline
 70
8
 71
3
 72
8
 73
4
 74
0
 40
0
 40
0
 40
0
 40
0
 40
1
 40
1
 40
1
 40
1
 10
29.425330
 20
4.417293
 30
0.0
 10
29.425330
 20
3.472078
 30
0.0
 10
29.415260
 20
3.433771
 30
0.0
 10
29.176050
 20
3.469017
 30
0.0
  0
SPLINE
  5
187
100
AcDbEntity
  8
Layer_1
 62
7
100
AcDbSpline
 70
8
 71
3
 72
8
 73
4
 74
0
 40
0
 40
0
 40
0
 40
0
 40
1
 40
1
 40
1
 40
1
 10
29.176050
 20
3.469017
 30
0.0
 10
28.993033
 20
3.495987
 30
0.0
 10
28.873182
 20
3.658522
 30
0.0
 10
28.725187
 20
4.080460
 30
0.0
  0
LWPOLYLINE
  5
188
100
AcDbEntity
  8
Layer_1
 62
7
100
AcDbPolyline
 90
3
 70
0
 10
28.836584
 20
4.798851
 30
0.0
 10
29.068513
 20
4.195402
 30
0.0
 10
29.074513
 20
4.798851
 30
0.0
  0
SPLINE
  5
189
100
AcDbEntity
  8
Layer_1
 62
7
100
AcDbSpline
 70
8
 71
3
 72
8
 73
4
 74
0
 40
0
 40
0
 40
0
 40
0
 40
1
 40
1
 40
1
 40
1
 10
28.514695
 20
4.051724
 30
0.0
 10
28.507995
 20
3.595914
 30
0.0
 10
28.463605
 20
3.448276
 30
0.0
 10
28.333373
 20
3.448276
 30
0.0
  0
SPLINE
  5
18a
100
AcDbEntity
  8
Layer_1
 62
7
100
AcDbSpline
 70
8
 71
3
 72
8
 73
4
 74
0
 40
0
 40
0
 40
0
 40
0
 40
1
 40
1
 40
1
 40
1
 10
28.333373
 20
3.448276
 30
0.0
 10
28.193639
 20
3.448276
 30
0.0
 10
28.160959
 20
3.633461
 30
0.0
 10
28.160959
 20
4.425287
 30
0.0
  0
LWPOLYLINE
  5
18b
100
AcDbEntity
  8
Layer_1
 62
7
100
AcDbPolyline
 90
3
 70
0
 10
28.725187
 20
4.080460
 30
0.0
 10
28.523595
 20
4.655172
 30
0.0
 10
28.514695
 20
4.051724
 30
0.0
  0
SPLINE
  5
18c
100
AcDbEntity
  8
Layer_1
 62
7
100
AcDbSpline
 70
8
 71
3
 72
8
 73
4
 74
0
 40
0
 40
0
 40
0
 40
0
 40
1
 40
1
 40
1
 40
1
 10
29.770147
 20
4.425287
 30
0.0
 10
29.770147
 20
5.217114
 30
0.0
 10
29.802827
 20
5.402299
 30
0.0
 10
29.942561
 20
5.402299
 30
0.0
  0
SPLINE
  5
18d
100
AcDbEntity
  8
Layer_1
 62
7
100
AcDbSpline
 70
8
 71
3
 72
8
 73
4
 74
0
 40
0
 40
0
 40
0
 40
0
 40
1
 40
1
 40
1
 40
1
 10
29.942561
 20
5.402299
 30
0.0
 10
30.082296
 20
5.402299
 30
0.0
 10
30.114975
 20
5.217114
 30
0.0
 10
30.114975
 20
4.425287
 30
0.0
  0
SPLINE
  5
18e
100
AcDbEntity
  8
Layer_1
 62
7
100
AcDbSpline
 70
8
 71
3
 72
8
 73
4
 74
0
 40
0
 40
0
 40
0
 40
0
 40
1
 40
1
 40
1
 40
1
 10
30.114975
 20
4.425287
 30
0.0
 10
30.114975
 20
3.633461
 30
0.0
 10
30.082295
 20
3.448276
 30
0.0
 10
29.942561
 20
3.448276
 30
0.0
  0
SPLINE
  5
18f
100
AcDbEntity
  8
Layer_1
 62
7
100
AcDbSpline
 70
8
 71
3
 72
8
 73
4
 74
0
 40
0
 40
0
 40
0
 40
0
 40
1
 40
1
 40
1
 40
1
 10
29.942561
 20
3.448276
 30
0.0
 10
29.802827
 20
3.448276
 30
0.0
 10
29.770147
 20
3.633461
 30
0.0
 10
29.770147
 20
4.425287
 30
0.0
  0
LWPOLYLINE
  5
190
100
AcDbEntity
  8
Layer_1
 62
7
100
AcDbPolyline
 90
1
 70
1
 10
28.160959
 20
4.425287
 30
0.0
  0
SPLINE
  5
191
100
AcDbEntity
  8
Layer_1
 62
7
100
AcDbSpline
 70
8
 71
3
 72
8
 73
4
 74
0
 40
0
 40
0
 40
0
 40
0
 40
1
 40
1
 40
1
 40
1
 10
30.746250
 20
3.583459
 30
0.0
 10
30.576871
 20
4.030267
 30
0.0
 10
30.241085
 20
5.336837
 30
0.0
 10
30.284481
 20
5.380233
 30
0.0
  0
SPLINE
  5
192
100
AcDbEntity
  8
Layer_1
 62
7
100
AcDbSpline
 70
8
 71
3
 72
8
 73
4
 74
0
 40
0
 40
0
 40
0
 40
0
 40
1
 40
1
 40
1
 40
1
 10
30.284481
 20
5.380233
 30
0.0
 10
30.453195
 20
5.548947
 30
0.0
 10
30.674543
 20
5.211052
 30
0.0
 10
30.809051
 20
4.579454
 30
0.0
  0
LWPOLYLINE
  5
193
100
AcDbEntity
  8
Layer_1
 62
7
100
AcDbPolyline
 90
1
 70
1
 10
29.770147
 20
4.425287
 30
0.0
  0
SPLINE
  5
194
100
AcDbEntity
  8
Layer_1
 62
7
100
AcDbSpline
 70
8
 71
3
 72
8
 73
4
 74
0
 40
0
 40
0
 40
0
 40
0
 40
1
 40
1
 40
1
 40
1
 10
31.148787
 20
4.597228
 30
0.0
 10
31.278503
 20
5.122144
 30
0.0
 10
31.392681
 20
5.355316
 30
0.0
 10
31.533260
 20
5.382389
 30
0.0
  0
SPLINE
  5
195
100
AcDbEntity
  8
Layer_1
 62
7
100
AcDbSpline
 70
8
 71
3
 72
8
 73
4
 74
0
 40
0
 40
0
 40
0
 40
0
 40
1
 40
1
 40
1
 40
1
 10
31.533260
 20
5.382389
 30
0.0
 10
31.753958
 20
5.424889
 30
0.0
 10
31.747815
 20
5.373889
 30
0.0
 10
31.385194
 20
4.152339
 30
0.0
  0
SPLINE
  5
196
100
AcDbEntity
  8
Layer_1
 62
7
100
AcDbSpline
 70
8
 71
3
 72
8
 73
4
 74
0
 40
0
 40
0
 40
0
 40
0
 40
1
 40
1
 40
1
 40
1
 10
31.385194
 20
4.152339
 30
0.0
 10
31.197760
 20
3.520955
 30
0.0
 10
30.877901
 20
3.236170
 30
0.0
 10
30.746250
 20
3.583459
 30
0.0
  0
LWPOLYLINE
  5
197
100
AcDbEntity
  8
Layer_1
 62
7
100
AcDbPolyline
 90
3
 70
0
 10
30.809051
 20
4.579454
 30
0.0
 10
30.964276
 20
3.850575
 30
0.0
 10
31.148787
 20
4.597228
 30
0.0
  0
LWPOLYLINE
  5
198
100
AcDbEntity
  8
Layer_1
 62
7
100
AcDbPolyline
 90
1
 70
1
 10
30.746250
 20
3.583459
 30
0.0
  0
SPLINE
  5
199
100
AcDbEntity
  8
Layer_1
 62
7
100
AcDbSpline
 70
8
 71
3
 72
8
 73
4
 74
0
 40
0
 40
0
 40
0
 40
0
 40
1
 40
1
 40
1
 40
1
 10
32.356357
 20
5.402299
 30
0.0
 10
32.739499
 20
5.402299
 30
0.0
 10
32.873599
 20
5.357599
 30
0.0
 10
32.873599
 20
5.229885
 30
0.0
  0
SPLINE
  5
19a
100
AcDbEntity
  8
Layer_1
 62
7
100
AcDbSpline
 70
8
 71
3
 72
8
 73
4
 74
0
 40
0
 40
0
 40
0
 40
0
 40
1
 40
1
 40
1
 40
1
 10
32.873599
 20
5.229885
 30
0.0
 10
32.873599
 20
5.114943
 30
0.0
 10
32.758656
 20
5.057471
 30
0.0
 10
32.528771
 20
5.057471
 30
0.0
  0
SPLINE
  5
19b
100
AcDbEntity
  8
Layer_1
 62
7
100
AcDbSpline
 70
8
 71
3
 72
8
 73
4
 74
0
 40
0
 40
0
 40
0
 40
0
 40
1
 40
1
 40
1
 40
1
 10
32.528771
 20
5.057471
 30
0.0
 10
32.260572
 20
5.057471
 30
0.0
 10
32.183943
 20
5.006381
 30
0.0
 10
32.183943
 20
4.827586
 30
0.0
  0
SPLINE
  5
19c
100
AcDbEntity
  8
Layer_1
 62
7
100
AcDbSpline
 70
8
 71
3
 72
8
 73
4
 74
0
 40
0
 40
0
 40
0
 40
0
 40
1
 40
1
 40
1
 40
1
 10
32.183943
 20
4.827586
 30
0.0
 10
32.183943
 20
4.648786
 30
0.0
 10
32.260573
 20
4.597701
 30
0.0
 10
32.528771
 20
4.597701
 30
0.0
  0
SPLINE
  5
19d
100
AcDbEntity
  8
Layer_1
 62
7
100
AcDbSpline
 70
8
 71
3
 72
8
 73
4
 74
0
 40
0
 40
0
 40
0
 40
0
 40
1
 40
1
 40
1
 40
1
 10
32.528771
 20
4.597701
 30
0.0
 10
32.758656
 20
4.597701
 30
0.0
 10
32.873599
 20
4.540231
 30
0.0
 10
32.873599
 20
4.425287
 30
0.0
  0
SPLINE
  5
19e
100
AcDbEntity
  8
Layer_1
 62
7
100
AcDbSpline
 70
8
 71
3
 72
8
 73
4
 74
0
 40
0
 40
0
 40
0
 40
0
 40
1
 40
1
 40
1
 40
1
 10
32.873599
 20
4.425287
 30
0.0
 10
32.873599
 20
4.310345
 30
0.0
 10
32.758656
 20
4.252874
 30
0.0
 10
32.528771
 20
4.252874
 30
0.0
  0
SPLINE
  5
19f
100
AcDbEntity
  8
Layer_1
 62
7
100
AcDbSpline
 70
8
 71
3
 72
8
 73
4
 74
0
 40
0
 40
0
 40
0
 40
0
 40
1
 40
1
 40
1
 40
1
 10
32.528771
 20
4.252874
 30
0.0
 10
32.237583
 20
4.252874
 30
0.0
 10
32.183943
 20
4.208174
 30
0.0
 10
32.183943
 20
3.965517
 30
0.0
  0
SPLINE
  5
1a0
100
AcDbEntity
  8
Layer_1
 62
7
100
AcDbSpline
 70
8
 71
3
 72
8
 73
4
 74
0
 40
0
 40
0
 40
0
 40
0
 40
1
 40
1
 40
1
 40
1
 10
32.183943
 20
3.965517
 30
0.0
 10
32.183943
 20
3.722861
 30
0.0
 10
32.237583
 20
3.678161
 30
0.0
 10
32.528771
 20
3.678161
 30
0.0
  0
SPLINE
  5
1a1
100
AcDbEntity
  8
Layer_1
 62
7
100
AcDbSpline
 70
8
 71
3
 72
8
 73
4
 74
0
 40
0
 40
0
 40
0
 40
0
 40
1
 40
1
 40
1
 40
1
 10
32.528771
 20
3.678161
 30
0.0
 10
32.718426
 20
3.678161
 30
0.0
 10
32.873599
 20
3.626441
 30
0.0
 10
32.873599
 20
3.563218
 30
0.0
  0
SPLINE
  5
1a2
100
AcDbEntity
  8
Layer_1
 62
7
100
AcDbSpline
 70
8
 71
3
 72
8
 73
4
 74
0
 40
0
 40
0
 40
0
 40
0
 40
1
 40
1
 40
1
 40
1
 10
32.873599
 20
3.563218
 30
0.0
 10
32.873599
 20
3.499998
 30
0.0
 10
32.640840
 20
3.448276
 30
0.0
 10
32.356357
 20
3.448276
 30
0.0
  0
LWPOLYLINE
  5
1a3
100
AcDbEntity
  8
Layer_1
 62
7
100
AcDbPolyline
 90
3
 70
0
 10
31.839115
 20
4.425287
 30
0.0
 10
31.839115
 20
5.402299
 30
0.0
 10
32.356357
 20
5.402299
 30
0.0
  0
LWPOLYLINE
  5
1a4
100
AcDbEntity
  8
Layer_1
 62
7
100
AcDbPolyline
 90
3
 70
0
 10
32.356357
 20
3.448276
 30
0.0
 10
31.839115
 20
3.448276
 30
0.0
 10
31.839115
 20
4.425287
 30
0.0
  0
SPLINE
  5
1a5
100
AcDbEntity
  8
Layer_1
 62
7
100
AcDbSpline
 70
8
 71
3
 72
8
 73
4
 74
0
 40
0
 40
0
 40
0
 40
0
 40
1
 40
1
 40
1
 40
1
 10
33.597738
 20
5.402299
 30
0.0
 10
33.869577
 20
5.402299
 30
0.0
 10
34.154060
 20
5.340229
 30
0.0
 10
34.229922
 20
5.264368
 30
0.0
  0
SPLINE
  5
1a6
100
AcDbEntity
  8
Layer_1
 62
7
100
AcDbSpline
 70
8
 71
3
 72
8
 73
4
 74
0
 40
0
 40
0
 40
0
 40
0
 40
1
 40
1
 40
1
 40
1
 10
34.229922
 20
5.264368
 30
0.0
 10
34.398135
 20
5.096155
 30
0.0
 10
34.411466
 20
4.638222
 30
0.0
 10
34.251032
 20
4.539071
 30
0.0
  0
SPLINE
  5
1a7
100
AcDbEntity
  8
Layer_1
 62
7
100
AcDbSpline
 70
8
 71
3
 72
8
 73
4
 74
0
 40
0
 40
0
 40
0
 40
0
 40
1
 40
1
 40
1
 40
1
 10
34.251032
 20
4.539071
 30
0.0
 10
34.186782
 20
4.499361
 30
0.0
 10
34.167742
 20
4.412623
 30
0.0
 10
34.208722
 20
4.346316
 30
0.0
  0
SPLINE
  5
1a8
100
AcDbEntity
  8
Layer_1
 62
7
100
AcDbSpline
 70
8
 71
3
 72
8
 73
4
 74
0
 40
0
 40
0
 40
0
 40
0
 40
1
 40
1
 40
1
 40
1
 10
34.208722
 20
4.346316
 30
0.0
 10
34.249702
 20
4.280006
 30
0.0
 10
34.322684
 20
4.050825
 30
0.0
 10
34.370906
 20
3.837017
 30
0.0
  0
SPLINE
  5
1a9
100
AcDbEntity
  8
Layer_1
 62
7
100
AcDbSpline
 70
8
 71
3
 72
8
 73
4
 74
0
 40
0
 40
0
 40
0
 40
0
 40
1
 40
1
 40
1
 40
1
 10
34.370906
 20
3.837017
 30
0.0
 10
34.445806
 20
3.504922
 30
0.0
 10
34.427906
 20
3.448276
 30
0.0
 10
34.248084
 20
3.448276
 30
0.0
  0
SPLINE
  5
1aa
100
AcDbEntity
  8
Layer_1
 62
7
100
AcDbSpline
 70
8
 71
3
 72
8
 73
4
 74
0
 40
0
 40
0
 40
0
 40
0
 40
1
 40
1
 40
1
 40
1
 10
34.248084
 20
3.448276
 30
0.0
 10
34.094616
 20
3.448276
 30
0.0
 10
34.027828
 20
3.549485
 30
0.0
 10
34.001568
 20
3.821839
 30
0.0
  0
SPLINE
  5
1ab
100
AcDbEntity
  8
Layer_1
 62
7
100
AcDbSpline
 70
8
 71
3
 72
8
 73
4
 74
0
 40
0
 40
0
 40
0
 40
0
 40
1
 40
1
 40
1
 40
1
 10
34.001568
 20
3.821839
 30
0.0
 10
33.973958
 20
4.108155
 30
0.0
 10
33.905148
 20
4.203980
 30
0.0
 10
33.706928
 20
4.232132
 30
0.0
  0
SPLINE
  5
1ac
100
AcDbEntity
  8
Layer_1
 62
7
100
AcDbSpline
 70
8
 71
3
 72
8
 73
4
 74
0
 40
0
 40
0
 40
0
 40
0
 40
1
 40
1
 40
1
 40
1
 10
33.706928
 20
4.232132
 30
0.0
 10
33.480171
 20
4.264332
 30
0.0
 10
33.448307
 20
4.218312
 30
0.0
 10
33.448307
 20
3.858569
 30
0.0
  0
SPLINE
  5
1ad
100
AcDbEntity
  8
Layer_1
 62
7
100
AcDbSpline
 70
8
 71
3
 72
8
 73
4
 74
0
 40
0
 40
0
 40
0
 40
0
 40
1
 40
1
 40
1
 40
1
 10
33.448307
 20
3.858569
 30
0.0
 10
33.448307
 20
3.570492
 30
0.0
 10
33.396947
 20
3.448276
 30
0.0
 10
33.275893
 20
3.448276
 30
0.0
  0
SPLINE
  5
1ae
100
AcDbEntity
  8
Layer_1
 62
7
100
AcDbSpline
 70
8
 71
3
 72
8
 73
4
 74
0
 40
0
 40
0
 40
0
 40
0
 40
1
 40
1
 40
1
 40
1
 10
33.275893
 20
3.448276
 30
0.0
 10
33.136159
 20
3.448276
 30
0.0
 10
33.103479
 20
3.633461
 30
0.0
 10
33.103479
 20
4.425287
 30
0.0
  0
LWPOLYLINE
  5
1af
100
AcDbEntity
  8
Layer_1
 62
7
100
AcDbPolyline
 90
3
 70
0
 10
33.103484
 20
4.425287
 30
0.0
 10
33.103484
 20
5.402299
 30
0.0
 10
33.597738
 20
5.402299
 30
0.0
  0
SPLINE
  5
1b0
100
AcDbEntity
  8
Layer_1
 62
7
100
AcDbSpline
 70
8
 71
3
 72
8
 73
4
 74
0
 40
0
 40
0
 40
0
 40
0
 40
1
 40
1
 40
1
 40
1
 10
33.965554
 20
4.827586
 30
0.0
 10
33.965554
 20
4.922416
 30
0.0
 10
33.849175
 20
5.016529
 30
0.0
 10
33.706933
 20
5.036730
 30
0.0
  0
SPLINE
  5
1b1
100
AcDbEntity
  8
Layer_1
 62
7
100
AcDbSpline
 70
8
 71
3
 72
8
 73
4
 74
0
 40
0
 40
0
 40
0
 40
0
 40
1
 40
1
 40
1
 40
1
 10
33.706933
 20
5.036730
 30
0.0
 10
33.507888
 20
5.065000
 30
0.0
 10
33.448312
 20
5.016820
 30
0.0
 10
33.448312
 20
4.827586
 30
0.0
  0
SPLINE
  5
1b2
100
AcDbEntity
  8
Layer_1
 62
7
100
AcDbSpline
 70
8
 71
3
 72
8
 73
4
 74
0
 40
0
 40
0
 40
0
 40
0
 40
1
 40
1
 40
1
 40
1
 10
33.448312
 20
4.827586
 30
0.0
 10
33.448312
 20
4.638352
 30
0.0
 10
33.507892
 20
4.590174
 30
0.0
 10
33.706933
 20
4.618443
 30
0.0
  0
SPLINE
  5
1b3
100
AcDbEntity
  8
Layer_1
 62
7
100
AcDbSpline
 70
8
 71
3
 72
8
 73
4
 74
0
 40
0
 40
0
 40
0
 40
0
 40
1
 40
1
 40
1
 40
1
 10
33.706933
 20
4.618443
 30
0.0
 10
33.849175
 20
4.638643
 30
0.0
 10
33.965554
 20
4.732759
 30
0.0
 10
33.965554
 20
4.827586
 30
0.0
  0
LWPOLYLINE
  5
1b4
100
AcDbEntity
  8
Layer_1
 62
7
100
AcDbPolyline
 90
1
 70
1
 10
33.103479
 20
4.425287
 30
0.0
  0
SPLINE
  5
1b5
100
AcDbEntity
  8
Layer_1
 62
7
100
AcDbSpline
 70
8
 71
3
 72
8
 73
4
 74
0
 40
0
 40
0
 40
0
 40
0
 40
1
 40
1
 40
1
 40
1
 10
36.091993
 20
4.425287
 30
0.0
 10
36.091993
 20
5.217114
 30
0.0
 10
36.124673
 20
5.402299
 30
0.0
 10
36.264407
 20
5.402299
 30
0.0
  0
SPLINE
  5
1b6
100
AcDbEntity
  8
Layer_1
 62
7
100
AcDbSpline
 70
8
 71
3
 72
8
 73
4
 74
0
 40
0
 40
0
 40
0
 40
0
 40
1
 40
1
 40
1
 40
1
 10
36.264407
 20
5.402299
 30
0.0
 10
36.404142
 20
5.402299
 30
0.0
 10
36.436821
 20
5.217114
 30
0.0
 10
36.436821
 20
4.425287
 30
0.0
  0
SPLINE
  5
1b7
100
AcDbEntity
  8
Layer_1
 62
7
100
AcDbSpline
 70
8
 71
3
 72
8
 73
4
 74
0
 40
0
 40
0
 40
0
 40
0
 40
1
 40
1
 40
1
 40
1
 10
36.436821
 20
4.425287
 30
0.0
 10
36.436821
 20
3.633461
 30
0.0
 10
36.404141
 20
3.448276
 30
0.0
 10
36.264407
 20
3.448276
 30
0.0
  0
SPLINE
  5
1b8
100
AcDbEntity
  8
Layer_1
 62
7
100
AcDbSpline
 70
8
 71
3
 72
8
 73
4
 74
0
 40
0
 40
0
 40
0
 40
0
 40
1
 40
1
 40
1
 40
1
 10
36.264407
 20
3.448276
 30
0.0
 10
36.124673
 20
3.448276
 30
0.0
 10
36.091993
 20
3.633461
 30
0.0
 10
36.091993
 20
4.425287
 30
0.0
  0
LWPOLYLINE
  5
1b9
100
AcDbEntity
  8
Layer_1
 62
7
100
AcDbPolyline
 90
1
 70
1
 10
33.965554
 20
4.827586
 30
0.0
  0
SPLINE
  5
1ba
100
AcDbEntity
  8
Layer_1
 62
7
100
AcDbSpline
 70
8
 71
3
 72
8
 73
4
 74
0
 40
0
 40
0
 40
0
 40
0
 40
1
 40
1
 40
1
 40
1
 10
37.126477
 20
4.252874
 30
0.0
 10
37.126477
 20
5.034483
 30
0.0
 10
37.118277
 20
5.057471
 30
0.0
 10
36.839121
 20
5.057471
 30
0.0
  0
SPLINE
  5
1bb
100
AcDbEntity
  8
Layer_1
 62
7
100
AcDbSpline
 70
8
 71
3
 72
8
 73
4
 74
0
 40
0
 40
0
 40
0
 40
0
 40
1
 40
1
 40
1
 40
1
 10
36.839121
 20
5.057471
 30
0.0
 10
36.660320
 20
5.057471
 30
0.0
 10
36.551764
 20
5.122601
 30
0.0
 10
36.551764
 20
5.229885
 30
0.0
  0
SPLINE
  5
1bc
100
AcDbEntity
  8
Layer_1
 62
7
100
AcDbSpline
 70
8
 71
3
 72
8
 73
4
 74
0
 40
0
 40
0
 40
0
 40
0
 40
1
 40
1
 40
1
 40
1
 10
36.551764
 20
5.229885
 30
0.0
 10
36.551764
 20
5.367394
 30
0.0
 10
36.721612
 20
5.402299
 30
0.0
 10
37.390743
 20
5.402299
 30
0.0
  0
LWPOLYLINE
  5
1bd
100
AcDbEntity
  8
Layer_1
 62
7
100
AcDbPolyline
 90
1
 70
1
 10
36.091993
 20
4.425287
 30
0.0
  0
SPLINE
  5
1be
100
AcDbEntity
  8
Layer_1
 62
7
100
AcDbSpline
 70
8
 71
3
 72
8
 73
4
 74
0
 40
0
 40
0
 40
0
 40
0
 40
1
 40
1
 40
1
 40
1
 10
38.753633
 20
4.978506
 30
0.0
 10
38.873214
 20
5.211592
 30
0.0
 10
39.047402
 20
5.402299
 30
0.0
 10
39.140720
 20
5.402299
 30
0.0
  0
SPLINE
  5
1bf
100
AcDbEntity
  8
Layer_1
 62
7
100
AcDbSpline
 70
8
 71
3
 72
8
 73
4
 74
0
 40
0
 40
0
 40
0
 40
0
 40
1
 40
1
 40
1
 40
1
 10
39.140720
 20
5.402299
 30
0.0
 10
39.363741
 20
5.402299
 30
0.0
 10
39.359290
 20
5.376219
 30
0.0
 10
39.023031
 20
4.712644
 30
0.0
  0
SPLINE
  5
1c0
100
AcDbEntity
  8
Layer_1
 62
7
100
AcDbSpline
 70
8
 71
3
 72
8
 73
4
 74
0
 40
0
 40
0
 40
0
 40
0
 40
1
 40
1
 40
1
 40
1
 10
39.023031
 20
4.712644
 30
0.0
 10
38.864985
 20
4.400755
 30
0.0
 10
38.735674
 20
3.988682
 30
0.0
 10
38.735674
 20
3.796924
 30
0.0
  0
SPLINE
  5
1c1
100
AcDbEntity
  8
Layer_1
 62
7
100
AcDbSpline
 70
8
 71
3
 72
8
 73
4
 74
0
 40
0
 40
0
 40
0
 40
0
 40
1
 40
1
 40
1
 40
1
 10
38.735674
 20
3.796924
 30
0.0
 10
38.735674
 20
3.563643
 30
0.0
 10
38.678624
 20
3.448276
 30
0.0
 10
38.563260
 20
3.448276
 30
0.0
  0
SPLINE
  5
1c2
100
AcDbEntity
  8
Layer_1
 62
7
100
AcDbSpline
 70
8
 71
3
 72
8
 73
4
 74
0
 40
0
 40
0
 40
0
 40
0
 40
1
 40
1
 40
1
 40
1
 10
38.563260
 20
3.448276
 30
0.0
 10
38.447816
 20
3.448276
 30
0.0
 10
38.390846
 20
3.563728
 30
0.0
 10
38.390846
 20
3.797683
 30
0.0
  0
SPLINE
  5
1c3
100
AcDbEntity
  8
Layer_1
 62
7
100
AcDbSpline
 70
8
 71
3
 72
8
 73
4
 74
0
 40
0
 40
0
 40
0
 40
0
 40
1
 40
1
 40
1
 40
1
 10
38.390846
 20
3.797683
 30
0.0
 10
38.390846
 20
3.989856
 30
0.0
 10
38.286346
 20
4.351925
 30
0.0
 10
38.158626
 20
4.602280
 30
0.0
  0
SPLINE
  5
1c4
100
AcDbEntity
  8
Layer_1
 62
7
100
AcDbSpline
 70
8
 71
3
 72
8
 73
4
 74
0
 40
0
 40
0
 40
0
 40
0
 40
1
 40
1
 40
1
 40
1
 10
38.158626
 20
4.602280
 30
0.0
 10
37.982374
 20
4.947761
 30
0.0
 10
37.857708
 20
5.057471
 30
0.0
 10
37.641384
 20
5.057471
 30
0.0
  0
SPLINE
  5
1c5
100
AcDbEntity
  8
Layer_1
 62
7
100
AcDbSpline
 70
8
 71
3
 72
8
 73
4
 74
0
 40
0
 40
0
 40
0
 40
0
 40
1
 40
1
 40
1
 40
1
 10
37.641384
 20
5.057471
 30
0.0
 10
37.365129
 20
5.057471
 30
0.0
 10
37.356363
 20
5.032721
 30
0.0
 10
37.356363
 20
4.252874
 30
0.0
  0
SPLINE
  5
1c6
100
AcDbEntity
  8
Layer_1
 62
7
100
AcDbSpline
 70
8
 71
3
 72
8
 73
4
 74
0
 40
0
 40
0
 40
0
 40
0
 40
1
 40
1
 40
1
 40
1
 10
37.356363
 20
4.252874
 30
0.0
 10
37.356363
 20
3.793103
 30
0.0
 10
37.307103
 20
3.448276
 30
0.0
 10
37.241420
 20
3.448276
 30
0.0
  0
SPLINE
  5
1c7
100
AcDbEntity
  8
Layer_1
 62
7
100
AcDbSpline
 70
8
 71
3
 72
8
 73
4
 74
0
 40
0
 40
0
 40
0
 40
0
 40
1
 40
1
 40
1
 40
1
 10
37.241420
 20
3.448276
 30
0.0
 10
37.175740
 20
3.448276
 30
0.0
 10
37.126477
 20
3.793103
 30
0.0
 10
37.126477
 20
4.252874
 30
0.0
  0
LWPOLYLINE
  5
1c8
100
AcDbEntity
  8
Layer_1
 62
7
100
AcDbPolyline
 90
5
 70
0
 10
37.390743
 20
5.402299
 30
0.0
 10
38.229722
 20
5.402299
 30
0.0
 10
38.382968
 20
4.978506
 30
0.0
 10
38.536213
 20
4.554714
 30
0.0
 10
38.753633
 20
4.978506
 30
0.0
  0
SPLINE
  5
1c9
100
AcDbEntity
  8
Layer_1
 62
7
100
AcDbSpline
 70
8
 71
3
 72
8
 73
4
 74
0
 40
0
 40
0
 40
0
 40
0
 40
1
 40
1
 40
1
 40
1
 10
15.356433
 20
7.379466
 30
0.0
 10
15.262663
 20
7.714438
 30
0.0
 10
14.947743
 20
8.893678
 30
0.0
 10
14.656618
 20
10.000000
 30
0.0
  0
SPLINE
  5
1ca
100
AcDbEntity
  8
Layer_1
 62
7
100
AcDbSpline
 70
8
 71
3
 72
8
 73
4
 74
0
 40
0
 40
0
 40
0
 40
0
 40
1
 40
1
 40
1
 40
1
 10
14.656618
 20
10.000000
 30
0.0
 10
13.931083
 20
12.757156
 30
0.0
 10
13.943039
 20
12.724920
 30
0.0
 10
13.615469
 20
12.807135
 30
0.0
  0
SPLINE
  5
1cb
100
AcDbEntity
  8
Layer_1
 62
7
100
AcDbSpline
 70
8
 71
3
 72
8
 73
4
 74
0
 40
0
 40
0
 40
0
 40
0
 40
1
 40
1
 40
1
 40
1
 10
13.615469
 20
12.807135
 30
0.0
 10
13.434710
 20
12.852505
 30
0.0
 10
13.333348
 20
12.959751
 30
0.0
 10
13.333348
 20
13.105638
 30
0.0
  0
SPLINE
  5
1cc
100
AcDbEntity
  8
Layer_1
 62
7
100
AcDbSpline
 70
8
 71
3
 72
8
 73
4
 74
0
 40
0
 40
0
 40
0
 40
0
 40
1
 40
1
 40
1
 40
1
 10
13.333348
 20
13.105638
 30
0.0
 10
13.333348
 20
13.320460
 30
0.0
 10
13.414578
 20
13.333333
 30
0.0
 10
14.770131
 20
13.333333
 30
0.0
  0
SPLINE
  5
1cd
100
AcDbEntity
  8
Layer_1
 62
7
100
AcDbSpline
 70
8
 71
3
 72
8
 73
4
 74
0
 40
0
 40
0
 40
0
 40
0
 40
1
 40
1
 40
1
 40
1
 10
14.770131
 20
13.333333
 30
0.0
 10
16.136198
 20
13.333333
 30
0.0
 10
16.206914
 20
13.321873
 30
0.0
 10
16.206914
 20
13.100575
 30
0.0
  0
SPLINE
  5
1ce
100
AcDbEntity
  8
Layer_1
 62
7
100
AcDbSpline
 70
8
 71
3
 72
8
 73
4
 74
0
 40
0
 40
0
 40
0
 40
0
 40
1
 40
1
 40
1
 40
1
 10
16.206914
 20
13.100575
 30
0.0
 10
16.206914
 20
12.933463
 30
0.0
 10
16.108814
 20
12.848196
 30
0.0
 10
15.859091
 20
12.798251
 30
0.0
  0
SPLINE
  5
1cf
100
AcDbEntity
  8
Layer_1
 62
7
100
AcDbSpline
 70
8
 71
3
 72
8
 73
4
 74
0
 40
0
 40
0
 40
0
 40
0
 40
1
 40
1
 40
1
 40
1
 10
15.859091
 20
12.798251
 30
0.0
 10
15.608292
 20
12.748091
 30
0.0
 10
15.526710
 20
12.676752
 30
0.0
 10
15.566630
 20
12.542504
 30
0.0
  0
SPLINE
  5
1d0
100
AcDbEntity
  8
Layer_1
 62
7
100
AcDbSpline
 70
8
 71
3
 72
8
 73
4
 74
0
 40
0
 40
0
 40
0
 40
0
 40
1
 40
1
 40
1
 40
1
 10
15.566630
 20
12.542504
 30
0.0
 10
15.597080
 20
12.440104
 30
0.0
 10
15.807082
 20
11.606322
 30
0.0
 10
16.033304
 20
10.689655
 30
0.0
  0
SPLINE
  5
1d1
100
AcDbEntity
  8
Layer_1
 62
7
100
AcDbSpline
 70
8
 71
3
 72
8
 73
4
 74
0
 40
0
 40
0
 40
0
 40
0
 40
1
 40
1
 40
1
 40
1
 10
16.033304
 20
10.689655
 30
0.0
 10
16.259526
 20
9.772989
 30
0.0
 10
16.476312
 20
8.945402
 30
0.0
 10
16.515052
 20
8.850575
 30
0.0
  0
SPLINE
  5
1d2
100
AcDbEntity
  8
Layer_1
 62
7
100
AcDbSpline
 70
8
 71
3
 72
8
 73
4
 74
0
 40
0
 40
0
 40
0
 40
0
 40
1
 40
1
 40
1
 40
1
 10
16.515052
 20
8.850575
 30
0.0
 10
16.553792
 20
8.755745
 30
0.0
 10
16.824774
 20
9.660920
 30
0.0
 10
17.117232
 20
10.862069
 30
0.0
  0
LWPOLYLINE
  5
1d3
100
AcDbEntity
  8
Layer_1
 62
7
100
AcDbPolyline
 90
1
 70
1
 10
37.126477
 20
4.252874
 30
0.0
  0
SPLINE
  5
1d4
100
AcDbEntity
  8
Layer_1
 62
7
100
AcDbSpline
 70
8
 71
3
 72
8
 73
4
 74
0
 40
0
 40
0
 40
0
 40
0
 40
1
 40
1
 40
1
 40
1
 10
19.290602
 20
11.298519
 30
0.0
 10
19.551434
 20
10.299852
 30
0.0
 10
19.798361
 20
9.314657
 30
0.0
 10
19.839329
 20
9.109197
 30
0.0
  0
SPLINE
  5
1d5
100
AcDbEntity
  8
Layer_1
 62
7
100
AcDbSpline
 70
8
 71
3
 72
8
 73
4
 74
0
 40
0
 40
0
 40
0
 40
0
 40
1
 40
1
 40
1
 40
1
 10
19.839329
 20
9.109197
 30
0.0
 10
19.880299
 20
8.903738
 30
0.0
 10
19.949041
 20
8.735634
 30
0.0
 10
19.992097
 20
8.735634
 30
0.0
  0
SPLINE
  5
1d6
100
AcDbEntity
  8
Layer_1
 62
7
100
AcDbSpline
 70
8
 71
3
 72
8
 73
4
 74
0
 40
0
 40
0
 40
0
 40
0
 40
1
 40
1
 40
1
 40
1
 10
19.992097
 20
8.735634
 30
0.0
 10
20.081787
 20
8.735634
 30
0.0
 10
20.919563
 20
12.127177
 30
0.0
 10
20.919563
 20
12.490255
 30
0.0
  0
SPLINE
  5
1d7
100
AcDbEntity
  8
Layer_1
 62
7
100
AcDbSpline
 70
8
 71
3
 72
8
 73
4
 74
0
 40
0
 40
0
 40
0
 40
0
 40
1
 40
1
 40
1
 40
1
 10
20.919563
 20
12.490255
 30
0.0
 10
20.919563
 20
12.664559
 30
0.0
 10
20.825553
 20
12.748688
 30
0.0
 10
20.574735
 20
12.798853
 30
0.0
  0
SPLINE
  5
1d8
100
AcDbEntity
  8
Layer_1
 62
7
100
AcDbSpline
 70
8
 71
3
 72
8
 73
4
 74
0
 40
0
 40
0
 40
0
 40
0
 40
1
 40
1
 40
1
 40
1
 10
20.574735
 20
12.798853
 30
0.0
 10
20.327821
 20
12.848233
 30
0.0
 10
20.229907
 20
12.933910
 30
0.0
 10
20.229907
 20
13.100577
 30
0.0
  0
SPLINE
  5
1d9
100
AcDbEntity
  8
Layer_1
 62
7
100
AcDbSpline
 70
8
 71
3
 72
8
 73
4
 74
0
 40
0
 40
0
 40
0
 40
0
 40
1
 40
1
 40
1
 40
1
 10
20.229907
 20
13.100577
 30
0.0
 10
20.229907
 20
13.326336
 30
0.0
 10
20.297317
 20
13.333335
 30
0.0
 10
22.471289
 20
13.333335
 30
0.0
  0
SPLINE
  5
1da
100
AcDbEntity
  8
Layer_1
 62
7
100
AcDbSpline
 70
8
 71
3
 72
8
 73
4
 74
0
 40
0
 40
0
 40
0
 40
0
 40
1
 40
1
 40
1
 40
1
 10
22.471289
 20
13.333335
 30
0.0
 10
24.609125
 20
13.333335
 30
0.0
 10
24.712671
 20
13.323085
 30
0.0
 10
24.712671
 20
13.111445
 30
0.0
  0
SPLINE
  5
1db
100
AcDbEntity
  8
Layer_1
 62
7
100
AcDbSpline
 70
8
 71
3
 72
8
 73
4
 74
0
 40
0
 40
0
 40
0
 40
0
 40
1
 40
1
 40
1
 40
1
 10
24.712671
 20
13.111445
 30
0.0
 10
24.712671
 20
12.968847
 30
0.0
 10
24.620251
 20
12.876428
 30
0.0
 10
24.454050
 20
12.852824
 30
0.0
  0
SPLINE
  5
1dc
100
AcDbEntity
  8
Layer_1
 62
7
100
AcDbSpline
 70
8
 71
3
 72
8
 73
4
 74
0
 40
0
 40
0
 40
0
 40
0
 40
1
 40
1
 40
1
 40
1
 10
24.454050
 20
12.852824
 30
0.0
 10
24.197101
 20
12.816334
 30
0.0
 10
24.195429
 20
12.803084
 30
0.0
 10
24.195429
 20
10.804600
 30
0.0
  0
SPLINE
  5
1dd
100
AcDbEntity
  8
Layer_1
 62
7
100
AcDbSpline
 70
8
 71
3
 72
8
 73
4
 74
0
 40
0
 40
0
 40
0
 40
0
 40
1
 40
1
 40
1
 40
1
 10
24.195429
 20
10.804600
 30
0.0
 10
24.195429
 20
8.806117
 30
0.0
 10
24.197129
 20
8.792868
 30
0.0
 10
24.454050
 20
8.756375
 30
0.0
  0
SPLINE
  5
1de
100
AcDbEntity
  8
Layer_1
 62
7
100
AcDbSpline
 70
8
 71
3
 72
8
 73
4
 74
0
 40
0
 40
0
 40
0
 40
0
 40
1
 40
1
 40
1
 40
1
 10
24.454050
 20
8.756375
 30
0.0
 10
24.596291
 20
8.736175
 30
0.0
 10
24.712671
 20
8.645657
 30
0.0
 10
24.712671
 20
8.555226
 30
0.0
  0
SPLINE
  5
1df
100
AcDbEntity
  8
Layer_1
 62
7
100
AcDbSpline
 70
8
 71
3
 72
8
 73
4
 74
0
 40
0
 40
0
 40
0
 40
0
 40
1
 40
1
 40
1
 40
1
 10
24.712671
 20
8.555226
 30
0.0
 10
24.712671
 20
8.423068
 30
0.0
 10
24.475862
 20
8.390807
 30
0.0
 10
23.505773
 20
8.390807
 30
0.0
  0
SPLINE
  5
1e0
100
AcDbEntity
  8
Layer_1
 62
7
100
AcDbSpline
 70
8
 71
3
 72
8
 73
4
 74
0
 40
0
 40
0
 40
0
 40
0
 40
1
 40
1
 40
1
 40
1
 10
23.505773
 20
8.390807
 30
0.0
 10
22.535683
 20
8.390807
 30
0.0
 10
22.298875
 20
8.423067
 30
0.0
 10
22.298875
 20
8.555226
 30
0.0
  0
SPLINE
  5
1e1
100
AcDbEntity
  8
Layer_1
 62
7
100
AcDbSpline
 70
8
 71
3
 72
8
 73
4
 74
0
 40
0
 40
0
 40
0
 40
0
 40
1
 40
1
 40
1
 40
1
 10
22.298875
 20
8.555226
 30
0.0
 10
22.298875
 20
8.645656
 30
0.0
 10
22.415254
 20
8.736174
 30
0.0
 10
22.557496
 20
8.756375
 30
0.0
  0
SPLINE
  5
1e2
100
AcDbEntity
  8
Layer_1
 62
7
100
AcDbSpline
 70
8
 71
3
 72
8
 73
4
 74
0
 40
0
 40
0
 40
0
 40
0
 40
1
 40
1
 40
1
 40
1
 10
22.557496
 20
8.756375
 30
0.0
 10
22.813228
 20
8.792695
 30
0.0
 10
22.816467
 20
8.815885
 30
0.0
 10
22.847504
 20
10.833335
 30
0.0
  0
SPLINE
  5
1e3
100
AcDbEntity
  8
Layer_1
 62
7
100
AcDbSpline
 70
8
 71
3
 72
8
 73
4
 74
0
 40
0
 40
0
 40
0
 40
0
 40
1
 40
1
 40
1
 40
1
 10
22.847504
 20
10.833335
 30
0.0
 10
22.877654
 20
12.793027
 30
0.0
 10
22.870014
 20
12.873565
 30
0.0
 10
22.653837
 20
12.873565
 30
0.0
  0
SPLINE
  5
1e4
100
AcDbEntity
  8
Layer_1
 62
7
100
AcDbSpline
 70
8
 71
3
 72
8
 73
4
 74
0
 40
0
 40
0
 40
0
 40
0
 40
1
 40
1
 40
1
 40
1
 10
22.653837
 20
12.873565
 30
0.0
 10
22.530058
 20
12.873565
 30
0.0
 10
22.303220
 20
12.825825
 30
0.0
 10
22.149754
 20
12.767479
 30
0.0
  0
SPLINE
  5
1e5
100
AcDbEntity
  8
Layer_1
 62
7
100
AcDbSpline
 70
8
 71
3
 72
8
 73
4
 74
0
 40
0
 40
0
 40
0
 40
0
 40
1
 40
1
 40
1
 40
1
 10
22.149754
 20
12.767479
 30
0.0
 10
21.864992
 20
12.659213
 30
0.0
 10
21.750116
 20
12.305424
 30
0.0
 10
20.486042
 20
7.643680
 30
0.0
  0
LWPOLYLINE
  5
1e6
100
AcDbEntity
  8
Layer_1
 62
7
100
AcDbPolyline
 90
5
 70
0
 10
17.117232
 20
10.862069
 30
0.0
 10
17.648977
 20
13.045977
 30
0.0
 10
18.232668
 20
13.080127
 30
0.0
 10
18.816361
 20
13.114277
 30
0.0
 10
19.290602
 20
11.298519
 30
0.0
  0
SPLINE
  5
1e7
100
AcDbEntity
  8
Layer_1
 62
7
100
AcDbSpline
 70
8
 71
3
 72
8
 73
4
 74
0
 40
0
 40
0
 40
0
 40
0
 40
1
 40
1
 40
1
 40
1
 10
18.409484
 20
8.822622
 30
0.0
 10
18.126136
 20
9.913570
 30
0.0
 10
17.871364
 20
10.783223
 30
0.0
 10
17.843325
 20
10.755183
 30
0.0
  0
SPLINE
  5
1e8
100
AcDbEntity
  8
Layer_1
 62
7
100
AcDbSpline
 70
8
 71
3
 72
8
 73
4
 74
0
 40
0
 40
0
 40
0
 40
0
 40
1
 40
1
 40
1
 40
1
 10
17.843325
 20
10.755183
 30
0.0
 10
17.815285
 20
10.727143
 30
0.0
 10
17.574844
 20
9.834550
 30
0.0
 10
17.309011
 20
8.771641
 30
0.0
  0
LWPOLYLINE
  5
1e9
100
AcDbEntity
  8
Layer_1
 62
7
100
AcDbPolyline
 90
5
 70
0
 10
20.486042
 20
7.643680
 30
0.0
 10
20.267868
 20
6.839082
 30
0.0
 10
19.596265
 20
6.839082
 30
0.0
 10
18.924663
 20
6.839082
 30
0.0
 10
18.409484
 20
8.822622
 30
0.0
  0
SPLINE
  5
1ea
100
AcDbEntity
  8
Layer_1
 62
7
100
AcDbSpline
 70
8
 71
3
 72
8
 73
4
 74
0
 40
0
 40
0
 40
0
 40
0
 40
1
 40
1
 40
1
 40
1
 10
20.804620
 20
6.896552
 30
0.0
 10
20.804620
 20
6.972162
 30
0.0
 10
23.773972
 20
7.011494
 30
0.0
 10
29.482791
 20
7.011494
 30
0.0
  0
SPLINE
  5
1eb
100
AcDbEntity
  8
Layer_1
 62
7
100
AcDbSpline
 70
8
 71
3
 72
8
 73
4
 74
0
 40
0
 40
0
 40
0
 40
0
 40
1
 40
1
 40
1
 40
1
 10
29.482791
 20
7.011494
 30
0.0
 10
35.191610
 20
7.011494
 30
0.0
 10
38.160961
 20
6.972164
 30
0.0
 10
38.160961
 20
6.896552
 30
0.0
  0
SPLINE
  5
1ec
100
AcDbEntity
  8
Layer_1
 62
7
100
AcDbSpline
 70
8
 71
3
 72
8
 73
4
 74
0
 40
0
 40
0
 40
0
 40
0
 40
1
 40
1
 40
1
 40
1
 10
38.160961
 20
6.896552
 30
0.0
 10
38.160961
 20
6.820942
 30
0.0
 10
35.191610
 20
6.781609
 30
0.0
 10
29.482791
 20
6.781609
 30
0.0
  0
SPLINE
  5
1ed
100
AcDbEntity
  8
Layer_1
 62
7
100
AcDbSpline
 70
8
 71
3
 72
8
 73
4
 74
0
 40
0
 40
0
 40
0
 40
0
 40
1
 40
1
 40
1
 40
1
 10
29.482791
 20
6.781609
 30
0.0
 10
23.773972
 20
6.781609
 30
0.0
 10
20.804620
 20
6.820939
 30
0.0
 10
20.804620
 20
6.896552
 30
0.0
  0
LWPOLYLINE
  5
1ee
100
AcDbEntity
  8
Layer_1
 62
7
100
AcDbPolyline
 90
5
 70
0
 10
17.309011
 20
8.771641
 30
0.0
 10
16.825676
 20
6.839080
 30
0.0
 10
16.176304
 20
6.804750
 30
0.0
 10
15.526931
 20
6.770420
 30
0.0
 10
15.356433
 20
7.379466
 30
0.0
  0
SPLINE
  5
1ef
100
AcDbEntity
  8
Layer_1
 62
7
100
AcDbSpline
 70
8
 71
3
 72
8
 73
4
 74
0
 40
0
 40
0
 40
0
 40
0
 40
1
 40
1
 40
1
 40
1
 10
38.850617
 20
6.997126
 30
0.0
 10
38.850617
 20
7.142986
 30
0.0
 10
38.958357
 20
7.234192
 30
0.0
 10
39.183965
 20
7.279313
 30
0.0
  0
SPLINE
  5
1f0
100
AcDbEntity
  8
Layer_1
 62
7
100
AcDbSpline
 70
8
 71
3
 72
8
 73
4
 74
0
 40
0
 40
0
 40
0
 40
0
 40
1
 40
1
 40
1
 40
1
 10
39.183965
 20
7.279313
 30
0.0
 10
39.569886
 20
7.356503
 30
0.0
 10
39.498251
 20
7.193793
 30
0.0
 10
40.736029
 20
10.804598
 30
0.0
  0
LWPOLYLINE
  5
1f1
100
AcDbEntity
  8
Layer_1
 62
7
100
AcDbPolyline
 90
1
 70
1
 10
20.804620
 20
6.896552
 30
0.0
  0
SPLINE
  5
1f2
100
AcDbEntity
  8
Layer_1
 62
7
100
AcDbSpline
 70
8
 71
3
 72
8
 73
4
 74
0
 40
0
 40
0
 40
0
 40
0
 40
1
 40
1
 40
1
 40
1
 10
43.800640
 20
10.436599
 30
0.0
 10
44.316854
 20
8.837275
 30
0.0
 10
44.791302
 20
7.464081
 30
0.0
 10
44.854968
 20
7.385058
 30
0.0
  0
SPLINE
  5
1f3
100
AcDbEntity
  8
Layer_1
 62
7
100
AcDbSpline
 70
8
 71
3
 72
8
 73
4
 74
0
 40
0
 40
0
 40
0
 40
0
 40
1
 40
1
 40
1
 40
1
 10
44.854968
 20
7.385058
 30
0.0
 10
44.918638
 20
7.306038
 30
0.0
 10
45.067841
 20
7.241380
 30
0.0
 10
45.186537
 20
7.241380
 30
0.0
  0
SPLINE
  5
1f4
100
AcDbEntity
  8
Layer_1
 62
7
100
AcDbSpline
 70
8
 71
3
 72
8
 73
4
 74
0
 40
0
 40
0
 40
0
 40
0
 40
1
 40
1
 40
1
 40
1
 10
45.186537
 20
7.241380
 30
0.0
 10
45.325720
 20
7.241380
 30
0.0
 10
45.402348
 20
7.159760
 30
0.0
 10
45.402348
 20
7.011495
 30
0.0
  0
SPLINE
  5
1f5
100
AcDbEntity
  8
Layer_1
 62
7
100
AcDbSpline
 70
8
 71
3
 72
8
 73
4
 74
0
 40
0
 40
0
 40
0
 40
0
 40
1
 40
1
 40
1
 40
1
 10
45.402348
 20
7.011495
 30
0.0
 10
45.402348
 20
6.793399
 30
0.0
 10
45.325718
 20
6.781610
 30
0.0
 10
43.908094
 20
6.781610
 30
0.0
  0
SPLINE
  5
1f6
100
AcDbEntity
  8
Layer_1
 62
7
100
AcDbSpline
 70
8
 71
3
 72
8
 73
4
 74
0
 40
0
 40
0
 40
0
 40
0
 40
1
 40
1
 40
1
 40
1
 10
43.908094
 20
6.781610
 30
0.0
 10
42.490468
 20
6.781610
 30
0.0
 10
42.413839
 20
6.793400
 30
0.0
 10
42.413839
 20
7.011495
 30
0.0
  0
SPLINE
  5
1f7
100
AcDbEntity
  8
Layer_1
 62
7
100
AcDbSpline
 70
8
 71
3
 72
8
 73
4
 74
0
 40
0
 40
0
 40
0
 40
0
 40
1
 40
1
 40
1
 40
1
 10
42.413839
 20
7.011495
 30
0.0
 10
42.413839
 20
7.178595
 30
0.0
 10
42.490469
 20
7.241380
 30
0.0
 10
42.694412
 20
7.241380
 30
0.0
  0
SPLINE
  5
1f8
100
AcDbEntity
  8
Layer_1
 62
7
100
AcDbSpline
 70
8
 71
3
 72
8
 73
4
 74
0
 40
0
 40
0
 40
0
 40
0
 40
1
 40
1
 40
1
 40
1
 10
42.694412
 20
7.241380
 30
0.0
 10
42.848727
 20
7.241380
 30
0.0
 10
42.999994
 20
7.281850
 30
0.0
 10
43.030561
 20
7.331300
 30
0.0
  0
SPLINE
  5
1f9
100
AcDbEntity
  8
Layer_1
 62
7
100
AcDbSpline
 70
8
 71
3
 72
8
 73
4
 74
0
 40
0
 40
0
 40
0
 40
0
 40
1
 40
1
 40
1
 40
1
 10
43.030561
 20
7.331300
 30
0.0
 10
43.061131
 20
7.380760
 30
0.0
 10
42.976191
 20
7.794551
 30
0.0
 10
42.841823
 20
8.250841
 30
0.0
  0
LWPOLYLINE
  5
1fa
100
AcDbEntity
  8
Layer_1
 62
7
100
AcDbPolyline
 90
5
 70
0
 10
40.736029
 20
10.804598
 30
0.0
 10
41.583174
 20
13.275862
 30
0.0
 10
42.222622
 20
13.310162
 30
0.0
 10
42.862069
 20
13.344462
 30
0.0
 10
43.800640
 20
10.436599
 30
0.0
  0
SPLINE
  5
1fb
100
AcDbEntity
  8
Layer_1
 62
7
100
AcDbSpline
 70
8
 71
3
 72
8
 73
4
 74
0
 40
0
 40
0
 40
0
 40
0
 40
1
 40
1
 40
1
 40
1
 10
40.694318
 20
8.321225
 30
0.0
 10
40.383165
 20
7.313830
 30
0.0
 10
40.390567
 20
7.241379
 30
0.0
 10
40.804642
 20
7.241379
 30
0.0
  0
SPLINE
  5
1fc
100
AcDbEntity
  8
Layer_1
 62
7
100
AcDbSpline
 70
8
 71
3
 72
8
 73
4
 74
0
 40
0
 40
0
 40
0
 40
0
 40
1
 40
1
 40
1
 40
1
 10
40.804642
 20
7.241379
 30
0.0
 10
41.072841
 20
7.241379
 30
0.0
 10
41.149470
 20
7.190299
 30
0.0
 10
41.149470
 20
7.011494
 30
0.0
  0
SPLINE
  5
1fd
100
AcDbEntity
  8
Layer_1
 62
7
100
AcDbSpline
 70
8
 71
3
 72
8
 73
4
 74
0
 40
0
 40
0
 40
0
 40
0
 40
1
 40
1
 40
1
 40
1
 10
41.149470
 20
7.011494
 30
0.0
 10
41.149470
 20
6.796934
 30
0.0
 10
41.072840
 20
6.781609
 30
0.0
 10
40.000044
 20
6.781609
 30
0.0
  0
SPLINE
  5
1fe
100
AcDbEntity
  8
Layer_1
 62
7
100
AcDbSpline
 70
8
 71
3
 72
8
 73
4
 74
0
 40
0
 40
0
 40
0
 40
0
 40
1
 40
1
 40
1
 40
1
 10
40.000044
 20
6.781609
 30
0.0
 10
38.952788
 20
6.781609
 30
0.0
 10
38.850617
 20
6.800769
 30
0.0
 10
38.850617
 20
6.997126
 30
0.0
  0
LWPOLYLINE
  5
1ff
100
AcDbEntity
  8
Layer_1
 62
7
100
AcDbPolyline
 90
5
 70
0
 10
42.841823
 20
8.250841
 30
0.0
 10
42.597509
 20
9.080460
 30
0.0
 10
41.763165
 20
9.080460
 30
0.0
 10
40.928822
 20
9.080460
 30
0.0
 10
40.694318
 20
8.321225
 30
0.0
  0
SPLINE
  5
200
100
AcDbEntity
  8
Layer_1
 62
7
100
AcDbSpline
 70
8
 71
3
 72
8
 73
4
 74
0
 40
0
 40
0
 40
0
 40
0
 40
1
 40
1
 40
1
 40
1
 10
42.412301
 20
9.568966
 30
0.0
 10
42.411497
 20
9.584766
 30
0.0
 10
42.266958
 20
10.076191
 30
0.0
 10
42.091195
 20
10.661011
 30
0.0
  0
LWPOLYLINE
  5
201
100
AcDbEntity
  8
Layer_1
 62
7
100
AcDbPolyline
 90
1
 70
1
 10
38.850617
 20
6.997126
 30
0.0
  0
SPLINE
  5
202
100
AcDbEntity
  8
Layer_1
 62
7
100
AcDbSpline
 70
8
 71
3
 72
8
 73
4
 74
0
 40
0
 40
0
 40
0
 40
0
 40
1
 40
1
 40
1
 40
1
 10
41.460549
 20
10.769109
 30
0.0
 10
41.289455
 20
10.243743
 30
0.0
 10
41.149470
 20
9.752322
 30
0.0
 10
41.149470
 20
9.677064
 30
0.0
  0
SPLINE
  5
203
100
AcDbEntity
  8
Layer_1
 62
7
100
AcDbSpline
 70
8
 71
3
 72
8
 73
4
 74
0
 40
0
 40
0
 40
0
 40
0
 40
1
 40
1
 40
1
 40
1
 10
41.149470
 20
9.677064
 30
0.0
 10
41.149470
 20
9.587834
 30
0.0
 10
41.369400
 20
9.540230
 30
0.0
 10
41.781655
 20
9.540230
 30
0.0
  0
SPLINE
  5
204
100
AcDbEntity
  8
Layer_1
 62
7
100
AcDbSpline
 70
8
 71
3
 72
8
 73
4
 74
0
 40
0
 40
0
 40
0
 40
0
 40
1
 40
1
 40
1
 40
1
 10
41.781655
 20
9.540230
 30
0.0
 10
42.129356
 20
9.540230
 30
0.0
 10
42.413147
 20
9.553160
 30
0.0
 10
42.412301
 20
9.568970
 30
0.0
  0
LWPOLYLINE
  5
205
100
AcDbEntity
  8
Layer_1
 62
7
100
AcDbPolyline
 90
3
 70
0
 10
42.091195
 20
10.661011
 30
0.0
 10
41.771626
 20
11.724321
 30
0.0
 10
41.460549
 20
10.769109
 30
0.0
  0
SPLINE
  5
206
100
AcDbEntity
  8
Layer_1
 62
7
100
AcDbSpline
 70
8
 71
3
 72
8
 73
4
 74
0
 40
0
 40
0
 40
0
 40
0
 40
1
 40
1
 40
1
 40
1
 10
31.436816
 20
8.484905
 30
0.0
 10
30.580540
 20
8.891393
 30
0.0
 10
30.229918
 20
9.559243
 30
0.0
 10
30.229918
 20
10.783754
 30
0.0
  0
SPLINE
  5
207
100
AcDbEntity
  8
Layer_1
 62
7
100
AcDbSpline
 70
8
 71
3
 72
8
 73
4
 74
0
 40
0
 40
0
 40
0
 40
0
 40
1
 40
1
 40
1
 40
1
 10
30.229918
 20
10.783754
 30
0.0
 10
30.229918
 20
11.720634
 30
0.0
 10
30.382226
 20
12.236671
 30
0.0
 10
30.791535
 20
12.686570
 30
0.0
  0
SPLINE
  5
208
100
AcDbEntity
  8
Layer_1
 62
7
100
AcDbSpline
 70
8
 71
3
 72
8
 73
4
 74
0
 40
0
 40
0
 40
0
 40
0
 40
1
 40
1
 40
1
 40
1
 10
30.791535
 20
12.686570
 30
0.0
 10
31.222627
 20
13.160414
 30
0.0
 10
31.718067
 20
13.333333
 30
0.0
 10
32.644601
 20
13.333333
 30
0.0
  0
SPLINE
  5
209
100
AcDbEntity
  8
Layer_1
 62
7
100
AcDbSpline
 70
8
 71
3
 72
8
 73
4
 74
0
 40
0
 40
0
 40
0
 40
0
 40
1
 40
1
 40
1
 40
1
 10
32.644601
 20
13.333333
 30
0.0
 10
33.973208
 20
13.333333
 30
0.0
 10
34.658618
 20
12.841948
 30
0.0
 10
34.951298
 20
11.679609
 30
0.0
  0
SPLINE
  5
20a
100
AcDbEntity
  8
Layer_1
 62
7
100
AcDbSpline
 70
8
 71
3
 72
8
 73
4
 74
0
 40
0
 40
0
 40
0
 40
0
 40
1
 40
1
 40
1
 40
1
 10
34.951298
 20
11.679609
 30
0.0
 10
35.250186
 20
10.492621
 30
0.0
 10
34.834307
 20
9.086569
 30
0.0
 10
34.038941
 20
8.595007
 30
0.0
  0
SPLINE
  5
20b
100
AcDbEntity
  8
Layer_1
 62
7
100
AcDbSpline
 70
8
 71
3
 72
8
 73
4
 74
0
 40
0
 40
0
 40
0
 40
0
 40
1
 40
1
 40
1
 40
1
 10
34.038941
 20
8.595007
 30
0.0
 10
33.470159
 20
8.243480
 30
0.0
 10
32.070163
 20
8.184244
 30
0.0
 10
31.436816
 20
8.484905
 30
0.0
  0
LWPOLYLINE
  5
20c
100
AcDbEntity
  8
Layer_1
 62
7
100
AcDbPolyline
 90
1
 70
1
 10
42.412301
 20
9.568970
 30
0.0
  0
SPLINE
  5
20d
100
AcDbEntity
  8
Layer_1
 62
7
100
AcDbSpline
 70
8
 71
3
 72
8
 73
4
 74
0
 40
0
 40
0
 40
0
 40
0
 40
1
 40
1
 40
1
 40
1
 10
33.258720
 20
9.081006
 30
0.0
 10
33.604480
 20
9.491919
 30
0.0
 10
33.729847
 20
10.186216
 30
0.0
 10
33.649724
 20
11.246438
 30
0.0
  0
SPLINE
  5
20e
100
AcDbEntity
  8
Layer_1
 62
7
100
AcDbSpline
 70
8
 71
3
 72
8
 73
4
 74
0
 40
0
 40
0
 40
0
 40
0
 40
1
 40
1
 40
1
 40
1
 10
33.649724
 20
11.246438
 30
0.0
 10
33.579414
 20
12.176779
 30
0.0
 10
33.392685
 20
12.607101
 30
0.0
 10
32.962831
 20
12.829387
 30
0.0
  0
SPLINE
  5
20f
100
AcDbEntity
  8
Layer_1
 62
7
100
AcDbSpline
 70
8
 71
3
 72
8
 73
4
 74
0
 40
0
 40
0
 40
0
 40
0
 40
1
 40
1
 40
1
 40
1
 10
32.962831
 20
12.829387
 30
0.0
 10
32.514741
 20
13.061104
 30
0.0
 10
32.081806
 20
12.845157
 30
0.0
 10
31.788193
 20
12.243491
 30
0.0
  0
SPLINE
  5
210
100
AcDbEntity
  8
Layer_1
 62
7
100
AcDbSpline
 70
8
 71
3
 72
8
 73
4
 74
0
 40
0
 40
0
 40
0
 40
0
 40
1
 40
1
 40
1
 40
1
 10
31.788193
 20
12.243491
 30
0.0
 10
31.521053
 20
11.696067
 30
0.0
 10
31.477134
 20
10.186013
 30
0.0
 10
31.708743
 20
9.511851
 30
0.0
  0
SPLINE
  5
211
100
AcDbEntity
  8
Layer_1
 62
7
100
AcDbSpline
 70
8
 71
3
 72
8
 73
4
 74
0
 40
0
 40
0
 40
0
 40
0
 40
1
 40
1
 40
1
 40
1
 10
31.708743
 20
9.511851
 30
0.0
 10
31.991278
 20
8.689466
 30
0.0
 10
32.751455
 20
8.478160
 30
0.0
 10
33.258717
 20
9.081006
 30
0.0
  0
LWPOLYLINE
  5
212
100
AcDbEntity
  8
Layer_1
 62
7
100
AcDbPolyline
 90
1
 70
1
 10
31.436816
 20
8.484905
 30
0.0
  0
SPLINE
  5
213
100
AcDbEntity
  8
Layer_1
 62
7
100
AcDbSpline
 70
8
 71
3
 72
8
 73
4
 74
0
 40
0
 40
0
 40
0
 40
0
 40
1
 40
1
 40
1
 40
1
 10
24.942556
 20
8.563218
 30
0.0
 10
24.942556
 20
8.658048
 30
0.0
 10
25.018326
 20
8.735632
 30
0.0
 10
25.110926
 20
8.735632
 30
0.0
  0
SPLINE
  5
214
100
AcDbEntity
  8
Layer_1
 62
7
100
AcDbSpline
 70
8
 71
3
 72
8
 73
4
 74
0
 40
0
 40
0
 40
0
 40
0
 40
1
 40
1
 40
1
 40
1
 10
25.110926
 20
8.735632
 30
0.0
 10
25.449948
 20
8.735632
 30
0.0
 10
25.523436
 20
9.173620
 30
0.0
 10
25.491462
 20
11.003664
 30
0.0
  0
SPLINE
  5
215
100
AcDbEntity
  8
Layer_1
 62
7
100
AcDbSpline
 70
8
 71
3
 72
8
 73
4
 74
0
 40
0
 40
0
 40
0
 40
0
 40
1
 40
1
 40
1
 40
1
 10
25.491462
 20
11.003664
 30
0.0
 10
25.460342
 20
12.784749
 30
0.0
 10
25.455322
 20
12.816727
 30
0.0
 10
25.201177
 20
12.852822
 30
0.0
  0
SPLINE
  5
216
100
AcDbEntity
  8
Layer_1
 62
7
100
AcDbSpline
 70
8
 71
3
 72
8
 73
4
 74
0
 40
0
 40
0
 40
0
 40
0
 40
1
 40
1
 40
1
 40
1
 10
25.201177
 20
12.852822
 30
0.0
 10
25.034974
 20
12.876422
 30
0.0
 10
24.942556
 20
12.968845
 30
0.0
 10
24.942556
 20
13.111443
 30
0.0
  0
SPLINE
  5
217
100
AcDbEntity
  8
Layer_1
 62
7
100
AcDbSpline
 70
8
 71
3
 72
8
 73
4
 74
0
 40
0
 40
0
 40
0
 40
0
 40
1
 40
1
 40
1
 40
1
 10
24.942556
 20
13.111443
 30
0.0
 10
24.942556
 20
13.310918
 30
0.0
 10
25.029526
 20
13.333333
 30
0.0
 10
25.803433
 20
13.333333
 30
0.0
  0
LWPOLYLINE
  5
218
100
AcDbEntity
  8
Layer_1
 62
7
100
AcDbPolyline
 90
1
 70
1
 10
33.258717
 20
9.081006
 30
0.0
  0
SPLINE
  5
219
100
AcDbEntity
  8
Layer_1
 62
7
100
AcDbSpline
 70
8
 71
3
 72
8
 73
4
 74
0
 40
0
 40
0
 40
0
 40
0
 40
1
 40
1
 40
1
 40
1
 10
28.837006
 20
11.092569
 30
0.0
 10
28.817806
 20
12.552383
 30
0.0
 10
28.748796
 20
12.807829
 30
0.0
 10
28.361553
 20
12.852462
 30
0.0
  0
SPLINE
  5
21a
100
AcDbEntity
  8
Layer_1
 62
7
100
AcDbSpline
 70
8
 71
3
 72
8
 73
4
 74
0
 40
0
 40
0
 40
0
 40
0
 40
1
 40
1
 40
1
 40
1
 10
28.361553
 20
12.852462
 30
0.0
 10
28.138788
 20
12.878142
 30
0.0
 10
28.046007
 20
12.954182
 30
0.0
 10
28.046007
 20
13.111083
 30
0.0
  0
SPLINE
  5
21b
100
AcDbEntity
  8
Layer_1
 62
7
100
AcDbSpline
 70
8
 71
3
 72
8
 73
4
 74
0
 40
0
 40
0
 40
0
 40
0
 40
1
 40
1
 40
1
 40
1
 10
28.046007
 20
13.111083
 30
0.0
 10
28.046007
 20
13.312268
 30
0.0
 10
28.133167
 20
13.333333
 30
0.0
 10
28.965548
 20
13.333333
 30
0.0
  0
SPLINE
  5
21c
100
AcDbEntity
  8
Layer_1
 62
7
100
AcDbSpline
 70
8
 71
3
 72
8
 73
4
 74
0
 40
0
 40
0
 40
0
 40
0
 40
1
 40
1
 40
1
 40
1
 10
28.965548
 20
13.333333
 30
0.0
 10
29.789479
 20
13.333333
 30
0.0
 10
29.885089
 20
13.310823
 30
0.0
 10
29.885089
 20
13.116854
 30
0.0
  0
SPLINE
  5
21d
100
AcDbEntity
  8
Layer_1
 62
7
100
AcDbSpline
 70
8
 71
3
 72
8
 73
4
 74
0
 40
0
 40
0
 40
0
 40
0
 40
1
 40
1
 40
1
 40
1
 10
29.885089
 20
13.116854
 30
0.0
 10
29.885089
 20
12.997791
 30
0.0
 10
29.789489
 20
12.875374
 30
0.0
 10
29.672636
 20
12.844817
 30
0.0
  0
SPLINE
  5
21e
100
AcDbEntity
  8
Layer_1
 62
7
100
AcDbSpline
 70
8
 71
3
 72
8
 73
4
 74
0
 40
0
 40
0
 40
0
 40
0
 40
1
 40
1
 40
1
 40
1
 10
29.672636
 20
12.844817
 30
0.0
 10
29.372392
 20
12.766297
 30
0.0
 10
29.310376
 20
12.316181
 30
0.0
 10
29.310376
 20
10.215517
 30
0.0
  0
LWPOLYLINE
  5
21f
100
AcDbEntity
  8
Layer_1
 62
7
100
AcDbPolyline
 90
5
 70
0
 10
25.803433
 20
13.333333
 30
0.0
 10
26.664311
 20
13.333333
 30
0.0
 10
27.757458
 20
11.696018
 30
0.0
 10
28.850606
 20
10.058702
 30
0.0
 10
28.837006
 20
11.092569
 30
0.0
  0
SPLINE
  5
220
100
AcDbEntity
  8
Layer_1
 62
7
100
AcDbSpline
 70
8
 71
3
 72
8
 73
4
 74
0
 40
0
 40
0
 40
0
 40
0
 40
1
 40
1
 40
1
 40
1
 10
28.879341
 20
8.394705
 30
0.0
 10
28.450427
 20
8.398605
 30
0.0
 10
28.442523
 20
8.407525
 30
0.0
 10
27.273072
 20
10.205049
 30
0.0
  0
LWPOLYLINE
  5
221
100
AcDbEntity
  8
Layer_1
 62
7
100
AcDbPolyline
 90
3
 70
0
 10
29.310376
 20
10.215517
 30
0.0
 10
29.310376
 20
8.390805
 30
0.0
 10
28.879341
 20
8.394705
 30
0.0
  0
SPLINE
  5
222
100
AcDbEntity
  8
Layer_1
 62
7
100
AcDbSpline
 70
8
 71
3
 72
8
 73
4
 74
0
 40
0
 40
0
 40
0
 40
0
 40
1
 40
1
 40
1
 40
1
 10
26.436868
 20
8.775827
 30
0.0
 10
26.626524
 20
8.737897
 30
0.0
 10
26.781696
 20
8.635741
 30
0.0
 10
26.781696
 20
8.548816
 30
0.0
  0
SPLINE
  5
223
100
AcDbEntity
  8
Layer_1
 62
7
100
AcDbSpline
 70
8
 71
3
 72
8
 73
4
 74
0
 40
0
 40
0
 40
0
 40
0
 40
1
 40
1
 40
1
 40
1
 10
26.781696
 20
8.548816
 30
0.0
 10
26.781696
 20
8.427887
 30
0.0
 10
26.565743
 20
8.390770
 30
0.0
 10
25.862155
 20
8.390770
 30
0.0
  0
SPLINE
  5
224
100
AcDbEntity
  8
Layer_1
 62
7
100
AcDbSpline
 70
8
 71
3
 72
8
 73
4
 74
0
 40
0
 40
0
 40
0
 40
0
 40
1
 40
1
 40
1
 40
1
 10
25.862155
 20
8.390770
 30
0.0
 10
25.121414
 20
8.390770
 30
0.0
 10
24.942614
 20
8.424290
 30
0.0
 10
24.942614
 20
8.563183
 30
0.0
  0
LWPOLYLINE
  5
225
100
AcDbEntity
  8
Layer_1
 62
7
100
AcDbPolyline
 90
5
 70
0
 10
27.273072
 20
10.205049
 30
0.0
 10
26.097840
 20
12.011463
 30
0.0
 10
26.094940
 20
10.428130
 30
0.0
 10
26.092040
 20
8.844797
 30
0.0
 10
26.436868
 20
8.775827
 30
0.0
  0
SPLINE
  5
226
100
AcDbEntity
  8
Layer_1
 62
7
100
AcDbSpline
 70
8
 71
3
 72
8
 73
4
 74
0
 40
0
 40
0
 40
0
 40
0
 40
1
 40
1
 40
1
 40
1
 10
35.402337
 20
8.555518
 30
0.0
 10
35.402337
 20
8.646088
 30
0.0
 10
35.498937
 20
8.750845
 30
0.0
 10
35.616999
 20
8.788317
 30
0.0
  0
SPLINE
  5
227
100
AcDbEntity
  8
Layer_1
 62
7
100
AcDbSpline
 70
8
 71
3
 72
8
 73
4
 74
0
 40
0
 40
0
 40
0
 40
0
 40
1
 40
1
 40
1
 40
1
 10
35.616999
 20
8.788317
 30
0.0
 10
35.888729
 20
8.874557
 30
0.0
 10
35.977051
 20
9.469486
 30
0.0
 10
35.977051
 20
11.213584
 30
0.0
  0
SPLINE
  5
228
100
AcDbEntity
  8
Layer_1
 62
7
100
AcDbSpline
 70
8
 71
3
 72
8
 73
4
 74
0
 40
0
 40
0
 40
0
 40
0
 40
1
 40
1
 40
1
 40
1
 10
35.977051
 20
11.213584
 30
0.0
 10
35.977051
 20
12.665211
 30
0.0
 10
35.932221
 20
12.873609
 30
0.0
 10
35.619925
 20
12.873609
 30
0.0
  0
SPLINE
  5
229
100
AcDbEntity
  8
Layer_1
 62
7
100
AcDbSpline
 70
8
 71
3
 72
8
 73
4
 74
0
 40
0
 40
0
 40
0
 40
0
 40
1
 40
1
 40
1
 40
1
 10
35.619925
 20
12.873609
 30
0.0
 10
35.478966
 20
12.873609
 30
0.0
 10
35.402337
 20
12.954569
 30
0.0
 10
35.402337
 20
13.103494
 30
0.0
  0
SPLINE
  5
22a
100
AcDbEntity
  8
Layer_1
 62
7
100
AcDbSpline
 70
8
 71
3
 72
8
 73
4
 74
0
 40
0
 40
0
 40
0
 40
0
 40
1
 40
1
 40
1
 40
1
 10
35.402337
 20
13.103494
 30
0.0
 10
35.402337
 20
13.312530
 30
0.0
 10
35.478967
 20
13.333379
 30
0.0
 10
36.247258
 20
13.333379
 30
0.0
  0
LWPOLYLINE
  5
22b
100
AcDbEntity
  8
Layer_1
 62
7
100
AcDbPolyline
 90
1
 70
1
 10
24.942614
 20
8.563183
 30
0.0
  0
SPLINE
  5
22c
100
AcDbEntity
  8
Layer_1
 62
7
100
AcDbSpline
 70
8
 71
3
 72
8
 73
4
 74
0
 40
0
 40
0
 40
0
 40
0
 40
1
 40
1
 40
1
 40
1
 10
38.821882
 20
12.852508
 30
0.0
 10
38.598578
 20
12.878198
 30
0.0
 10
38.505790
 20
12.954120
 30
0.0
 10
38.505790
 20
13.111129
 30
0.0
  0
SPLINE
  5
22d
100
AcDbEntity
  8
Layer_1
 62
7
100
AcDbSpline
 70
8
 71
3
 72
8
 73
4
 74
0
 40
0
 40
0
 40
0
 40
0
 40
1
 40
1
 40
1
 40
1
 10
38.505790
 20
13.111129
 30
0.0
 10
38.505790
 20
13.312314
 30
0.0
 10
38.592950
 20
13.333379
 30
0.0
 10
39.425331
 20
13.333379
 30
0.0
  0
SPLINE
  5
22e
100
AcDbEntity
  8
Layer_1
 62
7
100
AcDbSpline
 70
8
 71
3
 72
8
 73
4
 74
0
 40
0
 40
0
 40
0
 40
0
 40
1
 40
1
 40
1
 40
1
 10
39.425331
 20
13.333379
 30
0.0
 10
40.268244
 20
13.333379
 30
0.0
 10
40.344873
 20
13.314219
 30
0.0
 10
40.344873
 20
13.103494
 30
0.0
  0
SPLINE
  5
22f
100
AcDbEntity
  8
Layer_1
 62
7
100
AcDbSpline
 70
8
 71
3
 72
8
 73
4
 74
0
 40
0
 40
0
 40
0
 40
0
 40
1
 40
1
 40
1
 40
1
 10
40.344873
 20
13.103494
 30
0.0
 10
40.344873
 20
12.954568
 30
0.0
 10
40.268243
 20
12.873609
 30
0.0
 10
40.127285
 20
12.873609
 30
0.0
  0
SPLINE
  5
230
100
AcDbEntity
  8
Layer_1
 62
7
100
AcDbSpline
 70
8
 71
3
 72
8
 73
4
 74
0
 40
0
 40
0
 40
0
 40
0
 40
1
 40
1
 40
1
 40
1
 10
40.127285
 20
12.873609
 30
0.0
 10
40.007611
 20
12.873609
 30
0.0
 10
39.878301
 20
12.791789
 30
0.0
 10
39.839928
 20
12.691795
 30
0.0
  0
SPLINE
  5
231
100
AcDbEntity
  8
Layer_1
 62
7
100
AcDbSpline
 70
8
 71
3
 72
8
 73
4
 74
0
 40
0
 40
0
 40
0
 40
0
 40
1
 40
1
 40
1
 40
1
 10
39.839928
 20
12.691795
 30
0.0
 10
39.801558
 20
12.591795
 30
0.0
 10
39.770158
 20
11.583176
 30
0.0
 10
39.770158
 20
10.450415
 30
0.0
  0
LWPOLYLINE
  5
232
100
AcDbEntity
  8
Layer_1
 62
7
100
AcDbPolyline
 90
7
 70
0
 10
36.247258
 20
13.333379
 30
0.0
 10
37.092178
 20
13.333379
 30
0.0
 10
38.145707
 20
11.752920
 30
0.0
 10
39.199235
 20
10.172460
 30
0.0
 10
39.168605
 20
11.494299
 30
0.0
 10
39.137975
 20
12.816138
 30
0.0
 10
38.821882
 20
12.852508
 30
0.0
  0
SPLINE
  5
233
100
AcDbEntity
  8
Layer_1
 62
7
100
AcDbSpline
 70
8
 71
3
 72
8
 73
4
 74
0
 40
0
 40
0
 40
0
 40
0
 40
1
 40
1
 40
1
 40
1
 10
36.439786
 20
10.847747
 30
0.0
 10
36.435786
 20
9.124837
 30
0.0
 10
36.497006
 20
8.855821
 30
0.0
 10
36.912141
 20
8.772795
 30
0.0
  0
SPLINE
  5
234
100
AcDbEntity
  8
Layer_1
 62
7
100
AcDbSpline
 70
8
 71
3
 72
8
 73
4
 74
0
 40
0
 40
0
 40
0
 40
0
 40
1
 40
1
 40
1
 40
1
 10
36.912141
 20
8.772795
 30
0.0
 10
37.093241
 20
8.736575
 30
0.0
 10
37.241409
 20
8.635822
 30
0.0
 10
37.241409
 20
8.548897
 30
0.0
  0
SPLINE
  5
235
100
AcDbEntity
  8
Layer_1
 62
7
100
AcDbSpline
 70
8
 71
3
 72
8
 73
4
 74
0
 40
0
 40
0
 40
0
 40
0
 40
1
 40
1
 40
1
 40
1
 10
37.241409
 20
8.548897
 30
0.0
 10
37.241409
 20
8.427968
 30
0.0
 10
37.025456
 20
8.390851
 30
0.0
 10
36.321868
 20
8.390851
 30
0.0
  0
SPLINE
  5
236
100
AcDbEntity
  8
Layer_1
 62
7
100
AcDbSpline
 70
8
 71
3
 72
8
 73
4
 74
0
 40
0
 40
0
 40
0
 40
0
 40
1
 40
1
 40
1
 40
1
 10
36.321868
 20
8.390851
 30
0.0
 10
35.600350
 20
8.390851
 30
0.0
 10
35.402326
 20
8.426311
 30
0.0
 10
35.402326
 20
8.555519
 30
0.0
  0
LWPOLYLINE
  5
237
100
AcDbEntity
  8
Layer_1
 62
7
100
AcDbPolyline
 90
7
 70
0
 10
39.770158
 20
10.450415
 30
0.0
 10
39.770158
 20
8.390851
 30
0.0
 10
39.330129
 20
8.390851
 30
0.0
 10
38.890100
 20
8.390851
 30
0.0
 10
37.666442
 20
10.258667
 30
0.0
 10
36.442786
 20
12.126483
 30
0.0
 10
36.439786
 20
10.847747
 30
0.0
  0
LWPOLYLINE
  5
238
100
AcDbEntity
  8
Layer_1
 62
7
100
AcDbPolyline
 90
1
 70
1
 10
35.402326
 20
8.555519
 30
0.0
  0
ENDSEC
  0
SECTION
  2
OBJECTS
  0
DICTIONARY
  5
C
330
0
100
AcDbDictionary
  3
ACAD_GROUP
350
D
  3
ACAD_MLINESTYLE
350
17
  0
DICTIONARY
  5
D
330
C
100
AcDbDictionary
  0
DICTIONARY
  5
1A
330
C
100
AcDbDictionary
  0
DICTIONARY
  5
17
330
C
100
AcDbDictionary
  3
STANDARD
350
18
  0
DICTIONARY
  5
19
330
C
100
AcDbDictionary
  0
ENDSEC
  0
EOF
