M48
;Layer_Color=6321
;FILE_FORMAT=4:2
METRIC,LZ
;TYPE=PLATED
T1F00S00C1.00
T2F00S00C1.60
T3F00S00C2.80
T4F00S00C3.00
%
T01
X0032Y003531
X003708
X032029Y005055
Y005309
Y005563
Y005817
Y006071
X032283
X032537
Y005817
X032283
Y005563
X032537
Y005309
X032283
Y005055
X032537
Y006325
X032283
X032029
Y006579
X032283
X032537
Y006833
X032283
X032029
Y007087
X032283
X032537
Y007341
Y007595
X032283
X032029
Y007849
X032283
X032537
X032283Y007341
X032029
X003708
Y007595
Y007849
X003454
X0032
Y007595
X003454
Y007341
Y007087
Y006833
Y006579
Y006325
Y006071
Y005817
Y005563
Y005309
Y005055
X003708
Y004801
X0032
Y005055
Y005309
Y005563
Y005817
Y006071
Y006325
Y006579
Y006833
Y007087
Y007341
X003708Y007087
Y006833
Y006579
Y006325
Y006071
Y005817
Y005563
Y005309
Y004293
Y004039
X0032
Y004293
Y008103
X003454
X003708
Y008357
X003454
Y008611
X003708
Y008865
X003454
Y009119
X003708
Y009373
X003454
Y009627
Y009881
X003708
Y010135
X0032
Y009881
Y009627
Y009373
Y009119
Y008865
Y008611
Y008357
X003708Y009627
Y010643
Y010897
X0032
Y010643
Y011405
X003708
X032029Y009881
X032283
X032537
Y009627
X032283
X032029
Y009373
X032283
X032537
Y009119
X032283
X032029
Y008865
X032283
X032537
Y008611
Y008357
Y008103
X032283
X032029
Y008357
X032283
Y008611
X032029
T02
X033401Y003734
X033909
Y004242
X033401
Y005258
X033909
Y005766
X033401
Y009195
X033909
Y009703
X033401
Y010719
X033909
Y011227
X033401
T03
X002946Y003023
X032283
Y011913
X002946
T04
X032283Y003785
Y004547
Y010389
Y011151
M30
